<?xml version="1.0" encoding="UTF-8"?>
<svg version="1.1" xmlns="http://www.w3.org/2000/svg" width="512" height="512">
<path d="M0 0 C1.11547438 -0.00352835 1.11547438 -0.00352835 2.25348359 -0.00712797 C4.76522228 -0.01382711 7.27690935 -0.01335947 9.78865623 -0.01294994 C11.59974413 -0.016248 13.41083129 -0.01997345 15.22191751 -0.02409142 C20.21445752 -0.03412619 25.20698551 -0.03783059 30.19953418 -0.04048073 C35.57803215 -0.04437942 40.95652056 -0.05395807 46.33501244 -0.0626936 C59.33206316 -0.08247055 72.32911469 -0.09252587 85.3261767 -0.10142139 C91.44365875 -0.10580236 97.56113993 -0.11116967 103.67862129 -0.11641026 C124.00943446 -0.13342392 144.34024709 -0.14791862 164.67106628 -0.155159 C169.94890023 -0.15706896 175.22673417 -0.15898928 180.5045681 -0.16094494 C181.8163813 -0.16142868 183.1281945 -0.16191242 184.47975962 -0.16241082 C205.73545473 -0.17071304 226.99109359 -0.1960526 248.24676414 -0.22852562 C270.05953308 -0.26157858 291.87227342 -0.27960617 313.68506753 -0.28280324 C325.93617131 -0.28496999 338.18719308 -0.2937428 350.43827248 -0.31926441 C360.87090516 -0.34094732 371.30343593 -0.34903369 381.73608859 -0.33929763 C387.05970459 -0.33474594 392.38311018 -0.33668974 397.70669746 -0.35605907 C402.581183 -0.37364133 407.45530387 -0.3727331 412.32979302 -0.35716178 C414.09230576 -0.3547782 415.85484342 -0.35914803 417.61731799 -0.37099043 C429.19579727 -0.4439634 438.37902788 0.2860234 447.28044701 8.42328358 C452.84752225 14.75673541 453.93158539 21.80104907 453.96135521 29.95697498 C453.96792641 30.74128895 453.9744976 31.52560291 453.98126793 32.33368397 C454.00095576 34.92605158 454.01265541 37.51836128 454.02263451 40.11078358 C454.02671003 40.99930389 454.03078556 41.88782421 454.03498459 42.80326939 C454.05582927 47.5091246 454.07013613 52.21495081 454.07951927 56.92084217 C454.09056121 61.76268283 454.12494002 66.6040611 454.16469097 71.44573879 C454.19093855 75.18459347 454.19921846 78.92333949 454.20280075 82.66227818 C454.20764818 84.4459224 454.21920911 86.22956237 454.23783875 88.01311588 C454.35683791 100.1641022 454.04596801 110.36357801 445.29997826 119.72797108 C442.23351514 122.57314304 439.99680561 124.13422108 435.78435326 124.13422108 C435.78587214 124.75501464 435.78739102 125.37580821 435.78895593 126.0154137 C435.87848658 162.81638658 435.94710875 199.61734334 435.98861457 236.41840285 C435.99361734 240.83808007 435.99879464 245.25775707 436.00407982 249.67743397 C436.00512906 250.55730453 436.0061783 251.4371751 436.00725934 252.3437084 C436.02466009 266.58665369 436.05619597 280.82953433 436.09296444 295.07244127 C436.13038303 309.6891911 436.15259105 324.30590709 436.16070724 338.92270285 C436.16619311 347.94059087 436.18351385 356.95829616 436.21601912 365.97612793 C436.23717834 372.16170458 436.24355012 378.34718689 436.23835877 384.53279709 C436.23579916 388.1005318 436.23969666 391.66794743 436.26117516 395.23562527 C436.28431752 399.10806397 436.27628828 402.98008938 436.26537132 406.85258961 C436.27702269 407.97420378 436.28867405 409.09581796 436.30067849 410.25142044 C436.24002693 418.21361894 434.83414182 424.50220015 429.63591576 430.69281483 C428.90115013 431.31285389 428.16638451 431.93289295 427.40935326 432.57172108 C426.67974388 433.20980701 425.95013451 433.84789295 425.19841576 434.50531483 C420.31664141 437.79932762 415.63765599 438.38489616 409.84266853 438.39428329 C409.16508033 438.39808897 408.48749213 438.40189464 407.78937095 438.40581563 C405.52034744 438.41611668 403.25157477 438.41222805 400.98253441 438.40837574 C399.33868518 438.41282895 397.6948381 438.41814327 396.05099416 438.42424446 C391.53461189 438.43842486 387.01829844 438.44008775 382.5018971 438.43964756 C377.63058565 438.44129571 372.75930257 438.45436217 367.88800621 438.46584034 C357.2372037 438.48868897 346.58642112 438.4966107 335.93559742 438.50166678 C329.28501336 438.50492375 322.63443508 438.51144621 315.98385429 438.51866817 C297.56932702 438.53823339 279.15480513 438.55463824 260.7402668 438.55754471 C259.56191626 438.55773228 258.38356571 438.55791985 257.16950758 438.5581131 C254.78072151 438.55847935 252.39193543 438.55884305 250.00314936 438.55920421 C248.81735778 438.55938702 247.6315662 438.55956984 246.40984154 438.55975819 C244.62898277 438.56002901 244.62898277 438.56002901 242.81214705 438.5603053 C223.57161793 438.56384748 204.33120069 438.59087297 185.09071037 438.62825608 C165.33558934 438.66633189 145.58052385 438.68570213 125.8253653 438.68600422 C114.73399941 438.68658893 103.64276701 438.69508974 92.55143547 438.72400188 C83.10775103 438.74850593 73.66424878 438.75580516 64.22054115 438.74075436 C59.40304336 438.73358169 54.5859054 438.73445844 49.76844788 438.75716496 C45.35530782 438.77776636 40.94280399 438.77514384 36.52967075 438.75429011 C34.93613824 438.75079745 33.34255972 438.75569579 31.74908754 438.76999455 C21.94152814 438.85230497 13.41653599 438.34004322 5.88517261 431.37880987 C-1.02905584 424.09930259 -1.65163465 416.80744414 -1.57641029 407.16902637 C-1.57897357 405.96656456 -1.58153684 404.76410274 -1.58417779 403.52520269 C-1.58825593 400.20015781 -1.57891484 396.875646 -1.56384361 393.55066574 C-1.55086204 389.96043519 -1.5552742 386.37022046 -1.55755043 382.77997303 C-1.55912183 376.56384431 -1.54972663 370.34781021 -1.53283691 364.13170528 C-1.50843333 355.14432856 -1.50064026 346.1569975 -1.49687294 337.16959124 C-1.49031059 322.58738138 -1.47035529 308.00522193 -1.4419651 293.42303944 C-1.41441894 279.25963054 -1.39318808 265.09623534 -1.38044167 250.93280506 C-1.3796535 250.05945442 -1.37886532 249.18610378 -1.37805327 248.28628797 C-1.3741381 243.90484962 -1.37034699 239.52341117 -1.36661756 235.14197266 C-1.33552839 198.80601988 -1.28269847 162.47012441 -1.21564674 126.13422108 C-1.8167527 126.08088612 -2.41785866 126.02755116 -3.03717995 125.97259998 C-3.8347068 125.89445057 -4.63223366 125.81630116 -5.45392799 125.73578358 C-6.63402443 125.62484364 -6.63402443 125.62484364 -7.8379612 125.51166248 C-14.10896728 124.51618293 -19.02159388 121.27017773 -22.80425453 116.22319508 C-29.28795394 106.62679843 -28.79009351 96.65937675 -28.71174049 85.53656483 C-28.71189575 83.73395702 -28.71338912 81.93134887 -28.71615028 80.12874317 C-28.7175288 76.36568771 -28.7050673 72.60301594 -28.68219948 68.84003162 C-28.65379605 64.03639126 -28.65656514 59.2333865 -28.66928959 54.42969894 C-28.67627077 50.71229671 -28.66843006 46.99503932 -28.65603256 43.2776556 C-28.65154318 41.50717761 -28.65115908 39.73668394 -28.65509796 37.96620464 C-28.68120532 15.91266673 -28.68120532 15.91266673 -20.18830299 6.86078358 C-14.25552344 1.66813296 -7.72466742 -0.01647906 0 0 Z " fill="#FCFCFE" transform="translate(43.215646743774414,36.86577892303467)"/>
<path d="M0 0 C1.11547438 -0.00352835 1.11547438 -0.00352835 2.25348359 -0.00712797 C4.76522228 -0.01382711 7.27690935 -0.01335947 9.78865623 -0.01294994 C11.59974413 -0.016248 13.41083129 -0.01997345 15.22191751 -0.02409142 C20.21445752 -0.03412619 25.20698551 -0.03783059 30.19953418 -0.04048073 C35.57803215 -0.04437942 40.95652056 -0.05395807 46.33501244 -0.0626936 C59.33206316 -0.08247055 72.32911469 -0.09252587 85.3261767 -0.10142139 C91.44365875 -0.10580236 97.56113993 -0.11116967 103.67862129 -0.11641026 C124.00943446 -0.13342392 144.34024709 -0.14791862 164.67106628 -0.155159 C169.94890023 -0.15706896 175.22673417 -0.15898928 180.5045681 -0.16094494 C181.8163813 -0.16142868 183.1281945 -0.16191242 184.47975962 -0.16241082 C205.73545473 -0.17071304 226.99109359 -0.1960526 248.24676414 -0.22852562 C270.05953308 -0.26157858 291.87227342 -0.27960617 313.68506753 -0.28280324 C325.93617131 -0.28496999 338.18719308 -0.2937428 350.43827248 -0.31926441 C360.87090516 -0.34094732 371.30343593 -0.34903369 381.73608859 -0.33929763 C387.05970459 -0.33474594 392.38311018 -0.33668974 397.70669746 -0.35605907 C402.581183 -0.37364133 407.45530387 -0.3727331 412.32979302 -0.35716178 C414.09230576 -0.3547782 415.85484342 -0.35914803 417.61731799 -0.37099043 C429.19579727 -0.4439634 438.37902788 0.2860234 447.28044701 8.42328358 C452.84752225 14.75673541 453.93158539 21.80104907 453.96135521 29.95697498 C453.96792641 30.74128895 453.9744976 31.52560291 453.98126793 32.33368397 C454.00095576 34.92605158 454.01265541 37.51836128 454.02263451 40.11078358 C454.02671003 40.99930389 454.03078556 41.88782421 454.03498459 42.80326939 C454.05582927 47.5091246 454.07013613 52.21495081 454.07951927 56.92084217 C454.09056121 61.76268283 454.12494002 66.6040611 454.16469097 71.44573879 C454.19093855 75.18459347 454.19921846 78.92333949 454.20280075 82.66227818 C454.20764818 84.4459224 454.21920911 86.22956237 454.23783875 88.01311588 C454.35683791 100.1641022 454.04596801 110.36357801 445.29997826 119.72797108 C442.23351514 122.57314304 439.99680561 124.13422108 435.78435326 124.13422108 C435.78587214 124.75501464 435.78739102 125.37580821 435.78895593 126.0154137 C435.87848658 162.81638658 435.94710875 199.61734334 435.98861457 236.41840285 C435.99361734 240.83808007 435.99879464 245.25775707 436.00407982 249.67743397 C436.00512906 250.55730453 436.0061783 251.4371751 436.00725934 252.3437084 C436.02466009 266.58665369 436.05619597 280.82953433 436.09296444 295.07244127 C436.13038303 309.6891911 436.15259105 324.30590709 436.16070724 338.92270285 C436.16619311 347.94059087 436.18351385 356.95829616 436.21601912 365.97612793 C436.23717834 372.16170458 436.24355012 378.34718689 436.23835877 384.53279709 C436.23579916 388.1005318 436.23969666 391.66794743 436.26117516 395.23562527 C436.28431752 399.10806397 436.27628828 402.98008938 436.26537132 406.85258961 C436.27702269 407.97420378 436.28867405 409.09581796 436.30067849 410.25142044 C436.24002693 418.21361894 434.83414182 424.50220015 429.63591576 430.69281483 C428.90115013 431.31285389 428.16638451 431.93289295 427.40935326 432.57172108 C426.67974388 433.20980701 425.95013451 433.84789295 425.19841576 434.50531483 C420.31664141 437.79932762 415.63765599 438.38489616 409.84266853 438.39428329 C409.16508033 438.39808897 408.48749213 438.40189464 407.78937095 438.40581563 C405.52034744 438.41611668 403.25157477 438.41222805 400.98253441 438.40837574 C399.33868518 438.41282895 397.6948381 438.41814327 396.05099416 438.42424446 C391.53461189 438.43842486 387.01829844 438.44008775 382.5018971 438.43964756 C377.63058565 438.44129571 372.75930257 438.45436217 367.88800621 438.46584034 C357.2372037 438.48868897 346.58642112 438.4966107 335.93559742 438.50166678 C329.28501336 438.50492375 322.63443508 438.51144621 315.98385429 438.51866817 C297.56932702 438.53823339 279.15480513 438.55463824 260.7402668 438.55754471 C259.56191626 438.55773228 258.38356571 438.55791985 257.16950758 438.5581131 C254.78072151 438.55847935 252.39193543 438.55884305 250.00314936 438.55920421 C248.81735778 438.55938702 247.6315662 438.55956984 246.40984154 438.55975819 C244.62898277 438.56002901 244.62898277 438.56002901 242.81214705 438.5603053 C223.57161793 438.56384748 204.33120069 438.59087297 185.09071037 438.62825608 C165.33558934 438.66633189 145.58052385 438.68570213 125.8253653 438.68600422 C114.73399941 438.68658893 103.64276701 438.69508974 92.55143547 438.72400188 C83.10775103 438.74850593 73.66424878 438.75580516 64.22054115 438.74075436 C59.40304336 438.73358169 54.5859054 438.73445844 49.76844788 438.75716496 C45.35530782 438.77776636 40.94280399 438.77514384 36.52967075 438.75429011 C34.93613824 438.75079745 33.34255972 438.75569579 31.74908754 438.76999455 C21.94152814 438.85230497 13.41653599 438.34004322 5.88517261 431.37880987 C-1.02905584 424.09930259 -1.65163465 416.80744414 -1.57641029 407.16902637 C-1.57897357 405.96656456 -1.58153684 404.76410274 -1.58417779 403.52520269 C-1.58825593 400.20015781 -1.57891484 396.875646 -1.56384361 393.55066574 C-1.55086204 389.96043519 -1.5552742 386.37022046 -1.55755043 382.77997303 C-1.55912183 376.56384431 -1.54972663 370.34781021 -1.53283691 364.13170528 C-1.50843333 355.14432856 -1.50064026 346.1569975 -1.49687294 337.16959124 C-1.49031059 322.58738138 -1.47035529 308.00522193 -1.4419651 293.42303944 C-1.41441894 279.25963054 -1.39318808 265.09623534 -1.38044167 250.93280506 C-1.3796535 250.05945442 -1.37886532 249.18610378 -1.37805327 248.28628797 C-1.3741381 243.90484962 -1.37034699 239.52341117 -1.36661756 235.14197266 C-1.33552839 198.80601988 -1.28269847 162.47012441 -1.21564674 126.13422108 C-1.8167527 126.08088612 -2.41785866 126.02755116 -3.03717995 125.97259998 C-3.8347068 125.89445057 -4.63223366 125.81630116 -5.45392799 125.73578358 C-6.63402443 125.62484364 -6.63402443 125.62484364 -7.8379612 125.51166248 C-14.10896728 124.51618293 -19.02159388 121.27017773 -22.80425453 116.22319508 C-29.28795394 106.62679843 -28.79009351 96.65937675 -28.71174049 85.53656483 C-28.71189575 83.73395702 -28.71338912 81.93134887 -28.71615028 80.12874317 C-28.7175288 76.36568771 -28.7050673 72.60301594 -28.68219948 68.84003162 C-28.65379605 64.03639126 -28.65656514 59.2333865 -28.66928959 54.42969894 C-28.67627077 50.71229671 -28.66843006 46.99503932 -28.65603256 43.2776556 C-28.65154318 41.50717761 -28.65115908 39.73668394 -28.65509796 37.96620464 C-28.68120532 15.91266673 -28.68120532 15.91266673 -20.18830299 6.86078358 C-14.25552344 1.66813296 -7.72466742 -0.01647906 0 0 Z M238.78435326 107.13422108 C235.80977413 113.8190366 235.80977413 113.8190366 233.15935326 120.63422108 C231.78435326 124.13422108 231.78435326 124.13422108 229.78435326 125.13422108 C226.89990416 125.24239389 224.03895324 125.28913534 221.15382957 125.29243946 C220.24965565 125.29737744 219.34548173 125.30231542 218.4139086 125.30740303 C215.36600536 125.32283445 212.31812327 125.33115388 209.2701931 125.33954334 C207.09258397 125.34911743 204.91497672 125.35912723 202.73737144 125.36954212 C196.81000493 125.39664807 190.8826304 125.41762677 184.95523596 125.43754411 C178.76655641 125.45936865 172.5779017 125.48677457 166.38924217 125.51360035 C155.33041009 125.56073114 144.27156694 125.603608 133.21270926 125.64425545 C119.19854573 125.69582823 105.18440919 125.75311687 91.17027164 125.8113023 C63.70832208 125.92519577 36.24634863 126.03201872 8.78435326 126.13422108 C8.71570388 163.10375689 8.66283298 200.07328311 8.63115727 237.04286975 C8.6274051 241.40632811 8.62352213 245.76978634 8.61955833 250.13324451 C8.6187714 251.00193955 8.61798447 251.87063459 8.61717369 252.76565371 C8.60411569 266.83601466 8.58045967 280.90633888 8.55289487 294.97667803 C8.52485166 309.41148311 8.50817929 323.84626895 8.50208777 338.28110015 C8.49796908 347.18994388 8.48495512 356.09868379 8.46060386 365.00749557 C8.44476006 371.11454929 8.43994982 377.22154926 8.44384912 383.32862206 C8.44577279 386.8534004 8.44280009 390.37799719 8.42673683 393.90274334 C8.40945105 397.72363252 8.41538311 401.54428457 8.42358971 405.36520863 C8.41485118 406.47999753 8.40611266 407.59478644 8.39710933 408.74335682 C8.42932713 414.27528973 8.56857825 418.40372605 11.78435326 423.13422108 C16.47398 427.36632326 18.94374848 428.25914634 25.1981678 428.26564884 C25.86727389 428.26770148 26.53637998 428.26975411 27.22576201 428.27186894 C29.4899191 428.2775676 31.7540159 428.27607818 34.01817894 428.27466297 C35.64905056 428.27724497 37.27992154 428.28025767 38.91079164 428.28366637 C43.40971565 428.29175911 47.90862372 428.29352721 52.40755415 428.29426384 C57.25294583 428.29611047 62.09832917 428.30365584 66.94371605 428.31039906 C77.54696698 428.32399927 88.15021413 428.33000979 98.75347233 428.33440971 C105.37049948 428.33716942 111.98752516 428.34140628 118.60455132 428.34591389 C136.91426947 428.358109 155.22398644 428.36840768 173.53370857 428.37178898 C174.70630301 428.37200854 175.87889746 428.37222811 177.08702506 428.37245433 C178.26247551 428.37267261 179.43792596 428.37289089 180.64899611 428.37311578 C183.03102922 428.37355925 185.41306233 428.37400581 187.79509544 428.37445545 C189.56746332 428.3747876 189.56746332 428.3747876 191.37563661 428.37512645 C210.525325 428.37907521 229.67497537 428.39653053 248.82464907 428.41981497 C268.47113847 428.44351126 288.11760878 428.45599005 307.76411271 428.4571569 C318.80060219 428.45807465 329.83704213 428.46385221 340.87351799 428.48197651 C350.27089979 428.4973543 359.66821673 428.50251173 369.06560871 428.49423841 C373.86224594 428.49032359 378.65875249 428.49130192 383.45537376 428.50529575 C387.84488775 428.51798499 392.23417218 428.51688116 396.62368563 428.50470504 C398.21322627 428.50273937 399.80278291 428.50586641 401.39230105 428.5145494 C403.55087199 428.52559608 405.70862621 428.51818683 407.86717415 428.50615788 C409.66656146 428.50705351 409.66656146 428.50705351 411.50230002 428.50796723 C416.4714384 427.94210305 419.7138661 426.29150449 423.09685326 422.63422108 C425.50814723 419.06193371 425.90921002 416.4261979 425.90740108 412.22042274 C425.90939213 411.20078149 425.91138318 410.18114023 425.91343457 409.13060075 C425.9090653 407.44530961 425.9090653 407.44530961 425.90460777 405.72597218 C425.9054622 404.53509516 425.90631662 403.34421815 425.90719694 402.11725396 C425.90856214 398.80615209 425.90542592 395.49510898 425.90041888 392.1840142 C425.896109 388.61552643 425.89756118 385.04704055 425.89832115 381.47855091 C425.89884604 375.29403533 425.89570285 369.10953029 425.89008331 362.92501736 C425.88196364 353.98319959 425.87935261 345.04138694 425.87809532 336.09956589 C425.87590554 321.59280418 425.86924744 307.08604809 425.85979271 292.57928944 C425.85061669 278.48553972 425.84353678 264.39179153 425.8392849 250.29803944 C425.83902217 249.42961189 425.83875945 248.56118435 425.83848877 247.66644082 C425.83718375 243.309888 425.83592003 238.95333517 425.83467686 234.59678233 C425.82430654 198.44259026 425.80586947 162.28840857 425.78435326 126.13422108 C395.42435326 125.80422108 365.06435326 125.47422108 333.78435326 125.13422108 C331.11768659 119.13422108 328.45101992 113.13422108 325.78435326 107.13422108 C297.07435326 107.13422108 268.36435326 107.13422108 238.78435326 107.13422108 Z " fill="#D4D5EA" transform="translate(43.215646743774414,36.86577892303467)"/>
<path d="M0 0 C3.63875889 1.85252141 7.05868731 3.99375077 10.5 6.1875 C12.56230344 7.47297165 14.62480908 8.75811896 16.6875 10.04296875 C17.73679687 10.70216309 18.78609375 11.36135742 19.8671875 12.04052734 C24.7165495 15.07364606 29.60880174 18.03501321 34.5 21 C36.42079621 22.16890398 38.34136866 23.33817575 40.26171875 24.5078125 C44.0549371 26.81684 47.84928353 29.12399724 51.64453125 31.4296875 C61.58866702 37.47261617 71.52382665 43.53024128 81.4414978 49.61651611 C83.15139453 50.66535319 84.86242853 51.71233549 86.57348633 52.75927734 C88.13619263 53.71954834 88.13619263 53.71954834 89.73046875 54.69921875 C90.65239014 55.26471436 91.57431152 55.83020996 92.52416992 56.4128418 C93.34119385 56.936604 94.15821777 57.46036621 95 58 C96.05088177 58.64972951 96.05088177 58.64972951 97.12299347 59.31258488 C99 61 99 61 99.50336456 63.10711575 C99.50487267 63.92508161 99.50638077 64.74304747 99.50793457 65.58580017 C99.51921387 66.52652878 99.53049316 67.46725739 99.54211426 68.43649292 C99.53401733 69.46670563 99.52592041 70.49691833 99.51757812 71.55834961 C99.5245874 72.64476242 99.53159668 73.73117523 99.53881836 74.85050964 C99.5564619 78.45137899 99.5447516 82.05146603 99.53125 85.65234375 C99.53394326 88.14954276 99.53782429 90.64674075 99.54284668 93.14393616 C99.54875052 98.38209043 99.54053085 103.62004034 99.52148438 108.8581543 C99.49972618 114.91189415 99.50675781 120.96509493 99.52879 127.01882166 C99.54913961 132.84358436 99.54697203 138.66814239 99.53526306 144.49292183 C99.53259126 146.97089272 99.53588139 149.44887732 99.54518127 151.9268322 C99.55532167 155.38901247 99.53987882 158.85015316 99.51757812 162.31225586 C99.52567505 163.34044434 99.53377197 164.36863281 99.54211426 165.42797852 C99.45915605 172.36769172 99.45915605 172.36769172 97.15029907 175.54724121 C94.36450405 177.42934601 91.57495669 179.22916594 88.6796875 180.94140625 C88.06850067 181.30528946 87.45731384 181.66917267 86.8276062 182.04408264 C85.52264936 182.82010971 84.21609328 183.59345284 82.90808105 184.36431885 C80.84992727 185.57727643 78.79600824 186.79712343 76.74316406 188.01904297 C74.03594316 189.63030086 71.32751505 191.23949478 68.61816406 192.84716797 C64.30891408 195.40744809 60.02265052 198.00412619 55.75 200.625 C55.07420898 201.0389502 54.39841797 201.45290039 53.70214844 201.87939453 C49.40911924 204.51289152 45.12275035 207.15718153 40.8359375 209.80078125 C38.59903551 211.17981269 36.36205495 212.55871669 34.125 213.9375 C33.02244873 214.6171582 31.91989746 215.29681641 30.78393555 215.99707031 C22.9073 220.8451241 14.99774515 225.63490007 7.05322266 230.37084961 C5.91506104 231.04966187 5.91506104 231.04966187 4.75390625 231.7421875 C4.09720947 232.1326123 3.4405127 232.52303711 2.76391602 232.92529297 C1.14989956 233.90867019 -0.42742937 234.95161958 -2 236 C-6.29197352 236.55650654 -8.59921367 235.3796127 -12.19140625 233.09765625 C-13.20380371 232.46351807 -14.21620117 231.82937988 -15.25927734 231.17602539 C-16.34934082 230.47856201 -17.4394043 229.78109863 -18.5625 229.0625 C-19.72003704 228.33388664 -20.87842069 227.60661674 -22.03759766 226.88061523 C-23.85175846 225.74418436 -25.66536039 224.60695229 -27.47650146 223.4657135 C-33.32494254 219.78136163 -39.22637239 216.18770887 -45.1411438 212.6111145 C-47.4714281 211.20178776 -49.79985507 209.78940612 -52.12840271 208.37721252 C-53.89333262 207.30695184 -55.6585467 206.23716125 -57.42382812 205.16748047 C-61.0697809 202.95797506 -64.71474837 200.74684837 -68.359375 198.53515625 C-68.964897 198.16772308 -69.57041901 197.80028992 -70.19429016 197.42172241 C-73.17794246 195.61098475 -76.16109011 193.79942314 -79.14331055 191.98632812 C-84.3301711 188.83320337 -89.51939225 185.68458924 -94.72265625 182.55859375 C-95.5719873 182.04603027 -96.42131836 181.5334668 -97.29638672 181.00537109 C-98.84112944 180.07322596 -100.38817971 179.14488942 -101.93798828 178.22119141 C-106.88712059 175.22575881 -106.88712059 175.22575881 -108 173 C-108.11093423 171.51889608 -108.16122658 170.03303597 -108.18081665 168.5479126 C-108.19519775 167.61144897 -108.20957886 166.67498535 -108.22439575 165.71014404 C-108.23493988 164.67947815 -108.24548401 163.64881226 -108.25634766 162.58691406 C-108.27095032 161.50385986 -108.28555298 160.42080566 -108.30059814 159.30493164 C-108.43495391 148.64930474 -108.5028295 137.99285392 -108.55898631 127.33656526 C-108.59160628 121.28861818 -108.64600625 115.24174414 -108.73388672 109.19433594 C-108.82657975 102.70800335 -108.8753416 96.22272855 -108.89283371 89.73577118 C-108.90694953 87.26210634 -108.93663711 84.78847982 -108.98213577 82.31519318 C-109.04273272 78.85241933 -109.04687635 75.39385809 -109.03759766 71.93066406 C-109.06838409 70.90809509 -109.09917053 69.88552612 -109.13088989 68.83197021 C-109.03156217 62.01889957 -109.03156217 62.01889957 -106.04015923 59.06421661 C-103.7517762 57.52058405 -101.46603175 56.23491622 -99 55 C-97.93507324 54.33355469 -96.87014648 53.66710937 -95.77294922 52.98046875 C-94.79342285 52.38878906 -93.81389648 51.79710937 -92.8046875 51.1875 C-91.68860107 50.51178955 -90.57251465 49.8360791 -89.42260742 49.13989258 C-88.24007795 48.42658454 -87.05754199 47.71328727 -85.875 47 C-84.63047813 46.24721554 -83.38609553 45.49420081 -82.1418457 44.7409668 C-79.62542758 43.21771614 -77.10853208 41.69525918 -74.59130859 40.17333984 C-69.45023343 37.06369568 -64.31862259 33.93853089 -59.1875 30.8125 C-57.32293199 29.67705817 -55.45834871 28.54164141 -53.59375 27.40625 C-52.67722656 26.84808594 -51.76070312 26.28992188 -50.81640625 25.71484375 C-47.90921313 23.944722 -45.00154559 22.17538187 -42.09375 20.40625 C-41.11510986 19.81038086 -40.13646973 19.21451172 -39.12817383 18.60058594 C-37.18939387 17.42170471 -35.24915736 16.24521512 -33.30737305 15.07128906 C-28.76426746 12.32007943 -24.25412186 9.53525388 -19.80078125 6.640625 C-18.98778564 6.12008545 -18.17479004 5.5995459 -17.3371582 5.06323242 C-15.82923844 4.09496931 -14.33078134 3.11173056 -12.84448242 2.1105957 C-8.19821068 -0.84866016 -5.49296211 -1.76056478 0 0 Z " fill="#30306E" transform="translate(265,194)"/>
<path d="M0 0 C1.11547438 -0.00352835 1.11547438 -0.00352835 2.25348359 -0.00712797 C4.76522228 -0.01382711 7.27690935 -0.01335947 9.78865623 -0.01294994 C11.59974413 -0.016248 13.41083129 -0.01997345 15.22191751 -0.02409142 C20.21445752 -0.03412619 25.20698551 -0.03783059 30.19953418 -0.04048073 C35.57803215 -0.04437942 40.95652056 -0.05395807 46.33501244 -0.0626936 C59.33206316 -0.08247055 72.32911469 -0.09252587 85.3261767 -0.10142139 C91.44365875 -0.10580236 97.56113993 -0.11116967 103.67862129 -0.11641026 C124.00943446 -0.13342392 144.34024709 -0.14791862 164.67106628 -0.155159 C169.94890023 -0.15706896 175.22673417 -0.15898928 180.5045681 -0.16094494 C181.8163813 -0.16142868 183.1281945 -0.16191242 184.47975962 -0.16241082 C205.73545473 -0.17071304 226.99109359 -0.1960526 248.24676414 -0.22852562 C270.05953308 -0.26157858 291.87227342 -0.27960617 313.68506753 -0.28280324 C325.93617131 -0.28496999 338.18719308 -0.2937428 350.43827248 -0.31926441 C360.87090516 -0.34094732 371.30343593 -0.34903369 381.73608859 -0.33929763 C387.05970459 -0.33474594 392.38311018 -0.33668974 397.70669746 -0.35605907 C402.581183 -0.37364133 407.45530387 -0.3727331 412.32979302 -0.35716178 C414.09230576 -0.3547782 415.85484342 -0.35914803 417.61731799 -0.37099043 C429.19579727 -0.4439634 438.37902788 0.2860234 447.28044701 8.42328358 C452.84752225 14.75673541 453.93158539 21.80104907 453.96135521 29.95697498 C453.96792641 30.74128895 453.9744976 31.52560291 453.98126793 32.33368397 C454.00095576 34.92605158 454.01265541 37.51836128 454.02263451 40.11078358 C454.02671003 40.99930389 454.03078556 41.88782421 454.03498459 42.80326939 C454.05582927 47.5091246 454.07013613 52.21495081 454.07951927 56.92084217 C454.09056121 61.76268283 454.12494002 66.6040611 454.16469097 71.44573879 C454.19093855 75.18459347 454.19921846 78.92333949 454.20280075 82.66227818 C454.20764818 84.4459224 454.21920911 86.22956237 454.23783875 88.01311588 C454.35683791 100.1641022 454.04596801 110.36357801 445.29997826 119.72797108 C442.23351514 122.57314304 439.99680561 124.13422108 435.78435326 124.13422108 C435.78587214 124.75501464 435.78739102 125.37580821 435.78895593 126.0154137 C435.87848658 162.81638658 435.94710875 199.61734334 435.98861457 236.41840285 C435.99361734 240.83808007 435.99879464 245.25775707 436.00407982 249.67743397 C436.00512906 250.55730453 436.0061783 251.4371751 436.00725934 252.3437084 C436.02466009 266.58665369 436.05619597 280.82953433 436.09296444 295.07244127 C436.13038303 309.6891911 436.15259105 324.30590709 436.16070724 338.92270285 C436.16619311 347.94059087 436.18351385 356.95829616 436.21601912 365.97612793 C436.23717834 372.16170458 436.24355012 378.34718689 436.23835877 384.53279709 C436.23579916 388.1005318 436.23969666 391.66794743 436.26117516 395.23562527 C436.28431752 399.10806397 436.27628828 402.98008938 436.26537132 406.85258961 C436.27702269 407.97420378 436.28867405 409.09581796 436.30067849 410.25142044 C436.24002693 418.21361894 434.83414182 424.50220015 429.63591576 430.69281483 C428.90115013 431.31285389 428.16638451 431.93289295 427.40935326 432.57172108 C426.67974388 433.20980701 425.95013451 433.84789295 425.19841576 434.50531483 C420.31664141 437.79932762 415.63765599 438.38489616 409.84266853 438.39428329 C409.16508033 438.39808897 408.48749213 438.40189464 407.78937095 438.40581563 C405.52034744 438.41611668 403.25157477 438.41222805 400.98253441 438.40837574 C399.33868518 438.41282895 397.6948381 438.41814327 396.05099416 438.42424446 C391.53461189 438.43842486 387.01829844 438.44008775 382.5018971 438.43964756 C377.63058565 438.44129571 372.75930257 438.45436217 367.88800621 438.46584034 C357.2372037 438.48868897 346.58642112 438.4966107 335.93559742 438.50166678 C329.28501336 438.50492375 322.63443508 438.51144621 315.98385429 438.51866817 C297.56932702 438.53823339 279.15480513 438.55463824 260.7402668 438.55754471 C259.56191626 438.55773228 258.38356571 438.55791985 257.16950758 438.5581131 C254.78072151 438.55847935 252.39193543 438.55884305 250.00314936 438.55920421 C248.81735778 438.55938702 247.6315662 438.55956984 246.40984154 438.55975819 C244.62898277 438.56002901 244.62898277 438.56002901 242.81214705 438.5603053 C223.57161793 438.56384748 204.33120069 438.59087297 185.09071037 438.62825608 C165.33558934 438.66633189 145.58052385 438.68570213 125.8253653 438.68600422 C114.73399941 438.68658893 103.64276701 438.69508974 92.55143547 438.72400188 C83.10775103 438.74850593 73.66424878 438.75580516 64.22054115 438.74075436 C59.40304336 438.73358169 54.5859054 438.73445844 49.76844788 438.75716496 C45.35530782 438.77776636 40.94280399 438.77514384 36.52967075 438.75429011 C34.93613824 438.75079745 33.34255972 438.75569579 31.74908754 438.76999455 C21.94152814 438.85230497 13.41653599 438.34004322 5.88517261 431.37880987 C-1.02905584 424.09930259 -1.65163465 416.80744414 -1.57641029 407.16902637 C-1.57897357 405.96656456 -1.58153684 404.76410274 -1.58417779 403.52520269 C-1.58825593 400.20015781 -1.57891484 396.875646 -1.56384361 393.55066574 C-1.55086204 389.96043519 -1.5552742 386.37022046 -1.55755043 382.77997303 C-1.55912183 376.56384431 -1.54972663 370.34781021 -1.53283691 364.13170528 C-1.50843333 355.14432856 -1.50064026 346.1569975 -1.49687294 337.16959124 C-1.49031059 322.58738138 -1.47035529 308.00522193 -1.4419651 293.42303944 C-1.41441894 279.25963054 -1.39318808 265.09623534 -1.38044167 250.93280506 C-1.3796535 250.05945442 -1.37886532 249.18610378 -1.37805327 248.28628797 C-1.3741381 243.90484962 -1.37034699 239.52341117 -1.36661756 235.14197266 C-1.33552839 198.80601988 -1.28269847 162.47012441 -1.21564674 126.13422108 C-1.8167527 126.08088612 -2.41785866 126.02755116 -3.03717995 125.97259998 C-3.8347068 125.89445057 -4.63223366 125.81630116 -5.45392799 125.73578358 C-6.63402443 125.62484364 -6.63402443 125.62484364 -7.8379612 125.51166248 C-14.10896728 124.51618293 -19.02159388 121.27017773 -22.80425453 116.22319508 C-29.28795394 106.62679843 -28.79009351 96.65937675 -28.71174049 85.53656483 C-28.71189575 83.73395702 -28.71338912 81.93134887 -28.71615028 80.12874317 C-28.7175288 76.36568771 -28.7050673 72.60301594 -28.68219948 68.84003162 C-28.65379605 64.03639126 -28.65656514 59.2333865 -28.66928959 54.42969894 C-28.67627077 50.71229671 -28.66843006 46.99503932 -28.65603256 43.2776556 C-28.65154318 41.50717761 -28.65115908 39.73668394 -28.65509796 37.96620464 C-28.68120532 15.91266673 -28.68120532 15.91266673 -20.18830299 6.86078358 C-14.25552344 1.66813296 -7.72466742 -0.01647906 0 0 Z M-14.96840858 15.62788868 C-20.06795428 22.80628741 -18.95564034 32.12433709 -18.91486549 40.53656483 C-18.92078159 42.3420353 -18.92803131 44.14750185 -18.93654823 45.95296192 C-18.94839885 49.72802717 -18.94177081 53.50250172 -18.92243385 57.27753162 C-18.89955824 62.09737348 -18.92632699 66.91545097 -18.96749592 71.73511887 C-18.99316424 75.46116927 -18.99046947 79.18680259 -18.97960281 82.91290951 C-18.9781235 84.68899163 -18.98572024 86.46510689 -19.00285339 88.24110699 C-19.25696188 100.58542137 -19.25696188 100.58542137 -14.08730507 111.52412891 C-8.61612533 116.2307057 -3.56231973 116.56285961 3.31349754 116.49498463 C4.26600824 116.4975479 5.21851894 116.50011118 6.19989359 116.50275213 C9.38756215 116.50768857 12.57475577 116.49119908 15.7623806 116.47479725 C18.04895072 116.47395095 20.33552165 116.47442618 22.62209129 116.47612476 C28.828221 116.47698602 35.03417701 116.45933893 41.24026632 116.43840289 C47.72652082 116.41965796 54.21277923 116.41788737 60.69905663 116.41432667 C71.58543052 116.4060597 82.47174022 116.38731695 93.35808372 116.36053944 C104.56966903 116.33299064 115.78123702 116.31176108 126.99284935 116.299016 C127.68425598 116.29822783 128.37566262 116.29743966 129.08802097 116.2966276 C132.55670158 116.29271241 136.02538232 116.28892131 139.49406314 116.28519189 C168.25753534 116.25410587 197.02094277 116.20105528 225.78435326 116.13422108 C226.20587669 114.99082264 226.62740013 113.8474242 227.06169701 112.66937733 C227.61493846 111.17843848 228.16833172 109.68755596 228.72185326 108.19672108 C228.99964622 107.44197498 229.27743919 106.68722889 229.56365013 105.9096117 C231.67107201 100.24750233 231.67107201 100.24750233 232.78435326 99.13422108 C235.85890086 99.0388978 238.91094483 99.00870728 241.98576927 99.02069569 C243.43439354 99.02047665 243.43439354 99.02047665 244.91228294 99.02025318 C248.12096424 99.02095274 251.32958828 99.02874711 254.53825951 99.03656483 C256.75643444 99.03842886 258.97460978 99.03985283 261.19278526 99.04085255 C267.04375397 99.04467892 272.89469803 99.05451022 278.74565697 99.06555653 C284.7110263 99.07576808 290.67639959 99.08034962 296.64177513 99.08539295 C308.3559787 99.09613238 320.07016393 99.11321023 331.78435326 99.13422108 C334.33765905 104.73334849 336.6811604 110.35044073 338.78435326 116.13422108 C350.77177726 116.25022535 362.75906707 116.33899281 374.74693871 116.39328194 C380.31381157 116.41934208 385.88029954 116.45467524 391.44695091 116.51141834 C396.82214182 116.56586505 402.19696322 116.59566856 407.57240868 116.60860729 C409.62009559 116.61782439 411.66776296 116.63582345 413.71529198 116.66287136 C416.59031459 116.69932969 419.46382306 116.70415939 422.33904076 116.70184803 C423.17989723 116.71982441 424.02075371 116.73780079 424.88709068 116.75632191 C430.95842767 116.7037327 435.21215203 115.20867348 439.78435326 111.13422108 C443.69848782 106.54600813 444.3740967 101.89040145 444.33366966 95.95502186 C444.34389153 95.16866352 444.35411339 94.38230518 444.364645 93.57211781 C444.39228384 90.99094053 444.39053567 88.41084059 444.38591576 85.82953358 C444.39369853 84.02263466 444.40236969 82.21573938 444.41188622 80.40884876 C444.42677784 76.62789501 444.42625269 72.84731486 444.41570091 69.06634998 C444.4041189 64.23868167 444.43796687 59.41254989 444.48439026 54.58513546 C444.51396236 50.85482422 444.51559535 47.12487887 444.5093708 43.39447117 C444.5103925 41.61558332 444.52077895 39.8366737 444.54099464 38.05790043 C444.81688171 25.72445411 444.81688171 25.72445411 439.75490379 14.74307728 C434.70810424 10.62261723 429.46979342 9.69103218 423.11778069 9.75390434 C422.00208213 9.74691446 422.00208213 9.74691446 420.86384422 9.73978338 C418.37553697 9.727848 415.88777721 9.73722297 413.39946556 9.74654102 C411.59587189 9.74236748 409.79228084 9.73688984 407.98869467 9.73022121 C403.03548435 9.71575086 398.0824402 9.72001631 393.12922072 9.72738802 C387.78626738 9.73211339 382.44335032 9.7196155 377.10040855 9.70937061 C366.63473612 9.69216546 356.16912369 9.69134609 345.70344079 9.69658352 C337.19870273 9.70062291 328.69398243 9.69918441 320.18924522 9.69383526 C318.97938185 9.69308684 317.76951848 9.69233841 316.52299258 9.69156731 C314.06527443 9.69003586 311.60755629 9.68849751 309.14983815 9.68695235 C286.09705263 9.67322133 263.04430104 9.67866944 239.99151629 9.69013756 C218.89314746 9.70007271 197.79486628 9.68712543 176.69651097 9.66320337 C155.03955877 9.63883265 133.38264743 9.62919937 111.72568178 9.63585609 C99.56413696 9.63935255 87.40265958 9.63708804 75.24112511 9.61960506 C64.88940156 9.60490853 54.53779298 9.60421436 44.18607175 9.62167598 C38.90318875 9.63020895 33.62051133 9.63227947 28.33763885 9.61702442 C23.50287852 9.60323598 18.66850104 9.60786497 13.83376318 9.62726366 C12.08352412 9.63104195 10.33325482 9.62804936 8.58304256 9.61765201 C6.20520758 9.60452914 3.82870323 9.61602213 1.45092583 9.63364983 C0.7702169 9.62399931 0.08950797 9.6143488 -0.61182851 9.60440585 C-6.51621013 9.69437991 -10.51311833 11.83118193 -14.96840858 15.62788868 Z M238.78435326 107.13422108 C235.80977413 113.8190366 235.80977413 113.8190366 233.15935326 120.63422108 C231.78435326 124.13422108 231.78435326 124.13422108 229.78435326 125.13422108 C226.89990416 125.24239389 224.03895324 125.28913534 221.15382957 125.29243946 C220.24965565 125.29737744 219.34548173 125.30231542 218.4139086 125.30740303 C215.36600536 125.32283445 212.31812327 125.33115388 209.2701931 125.33954334 C207.09258397 125.34911743 204.91497672 125.35912723 202.73737144 125.36954212 C196.81000493 125.39664807 190.8826304 125.41762677 184.95523596 125.43754411 C178.76655641 125.45936865 172.5779017 125.48677457 166.38924217 125.51360035 C155.33041009 125.56073114 144.27156694 125.603608 133.21270926 125.64425545 C119.19854573 125.69582823 105.18440919 125.75311687 91.17027164 125.8113023 C63.70832208 125.92519577 36.24634863 126.03201872 8.78435326 126.13422108 C8.71570388 163.10375689 8.66283298 200.07328311 8.63115727 237.04286975 C8.6274051 241.40632811 8.62352213 245.76978634 8.61955833 250.13324451 C8.6187714 251.00193955 8.61798447 251.87063459 8.61717369 252.76565371 C8.60411569 266.83601466 8.58045967 280.90633888 8.55289487 294.97667803 C8.52485166 309.41148311 8.50817929 323.84626895 8.50208777 338.28110015 C8.49796908 347.18994388 8.48495512 356.09868379 8.46060386 365.00749557 C8.44476006 371.11454929 8.43994982 377.22154926 8.44384912 383.32862206 C8.44577279 386.8534004 8.44280009 390.37799719 8.42673683 393.90274334 C8.40945105 397.72363252 8.41538311 401.54428457 8.42358971 405.36520863 C8.41485118 406.47999753 8.40611266 407.59478644 8.39710933 408.74335682 C8.42932713 414.27528973 8.56857825 418.40372605 11.78435326 423.13422108 C16.47398 427.36632326 18.94374848 428.25914634 25.1981678 428.26564884 C25.86727389 428.26770148 26.53637998 428.26975411 27.22576201 428.27186894 C29.4899191 428.2775676 31.7540159 428.27607818 34.01817894 428.27466297 C35.64905056 428.27724497 37.27992154 428.28025767 38.91079164 428.28366637 C43.40971565 428.29175911 47.90862372 428.29352721 52.40755415 428.29426384 C57.25294583 428.29611047 62.09832917 428.30365584 66.94371605 428.31039906 C77.54696698 428.32399927 88.15021413 428.33000979 98.75347233 428.33440971 C105.37049948 428.33716942 111.98752516 428.34140628 118.60455132 428.34591389 C136.91426947 428.358109 155.22398644 428.36840768 173.53370857 428.37178898 C174.70630301 428.37200854 175.87889746 428.37222811 177.08702506 428.37245433 C178.26247551 428.37267261 179.43792596 428.37289089 180.64899611 428.37311578 C183.03102922 428.37355925 185.41306233 428.37400581 187.79509544 428.37445545 C189.56746332 428.3747876 189.56746332 428.3747876 191.37563661 428.37512645 C210.525325 428.37907521 229.67497537 428.39653053 248.82464907 428.41981497 C268.47113847 428.44351126 288.11760878 428.45599005 307.76411271 428.4571569 C318.80060219 428.45807465 329.83704213 428.46385221 340.87351799 428.48197651 C350.27089979 428.4973543 359.66821673 428.50251173 369.06560871 428.49423841 C373.86224594 428.49032359 378.65875249 428.49130192 383.45537376 428.50529575 C387.84488775 428.51798499 392.23417218 428.51688116 396.62368563 428.50470504 C398.21322627 428.50273937 399.80278291 428.50586641 401.39230105 428.5145494 C403.55087199 428.52559608 405.70862621 428.51818683 407.86717415 428.50615788 C409.66656146 428.50705351 409.66656146 428.50705351 411.50230002 428.50796723 C416.4714384 427.94210305 419.7138661 426.29150449 423.09685326 422.63422108 C425.50814723 419.06193371 425.90921002 416.4261979 425.90740108 412.22042274 C425.90939213 411.20078149 425.91138318 410.18114023 425.91343457 409.13060075 C425.9090653 407.44530961 425.9090653 407.44530961 425.90460777 405.72597218 C425.9054622 404.53509516 425.90631662 403.34421815 425.90719694 402.11725396 C425.90856214 398.80615209 425.90542592 395.49510898 425.90041888 392.1840142 C425.896109 388.61552643 425.89756118 385.04704055 425.89832115 381.47855091 C425.89884604 375.29403533 425.89570285 369.10953029 425.89008331 362.92501736 C425.88196364 353.98319959 425.87935261 345.04138694 425.87809532 336.09956589 C425.87590554 321.59280418 425.86924744 307.08604809 425.85979271 292.57928944 C425.85061669 278.48553972 425.84353678 264.39179153 425.8392849 250.29803944 C425.83902217 249.42961189 425.83875945 248.56118435 425.83848877 247.66644082 C425.83718375 243.309888 425.83592003 238.95333517 425.83467686 234.59678233 C425.82430654 198.44259026 425.80586947 162.28840857 425.78435326 126.13422108 C395.42435326 125.80422108 365.06435326 125.47422108 333.78435326 125.13422108 C331.11768659 119.13422108 328.45101992 113.13422108 325.78435326 107.13422108 C297.07435326 107.13422108 268.36435326 107.13422108 238.78435326 107.13422108 Z " fill="#32326F" transform="translate(43.215646743774414,36.86577892303467)"/>
<path d="M0 0 C2.94272662 1.42199591 5.69472207 3.00880877 8.48242188 4.71582031 C9.30984894 5.22022392 9.30984894 5.22022392 10.1539917 5.7348175 C11.95577146 6.83430687 13.75424008 7.93909148 15.55273438 9.04394531 C16.81732153 9.81701701 18.08213563 10.58971756 19.34716797 11.36206055 C21.91092614 12.92790522 24.47350385 14.49565431 27.03515625 16.06494141 C31.19873658 18.61451437 35.37172758 21.14848879 39.54516602 23.68188477 C48.92105595 29.37548627 58.27305431 35.10775554 67.61523438 40.85644531 C69.24162842 41.85720093 69.24162842 41.85720093 70.90087891 42.87817383 C76.5056929 46.33036343 82.10054534 49.79729611 87.67773438 53.29394531 C85.04681081 56.08610579 82.53534146 58.16142944 79.21289062 60.07128906 C78.34196777 60.57756836 77.47104492 61.08384766 76.57373047 61.60546875 C75.1711499 62.41032715 75.1711499 62.41032715 73.74023438 63.23144531 C71.73266137 64.40019492 69.72617532 65.57081331 67.72070312 66.74316406 C66.19775635 67.63334229 66.19775635 67.63334229 64.64404297 68.54150391 C60.23925699 71.14377171 55.89312203 73.83603252 51.55273438 76.54394531 C41.98277172 82.50640689 32.35367241 88.36739967 22.70849609 94.20703125 C21.59490723 94.8815332 20.48131836 95.55603516 19.33398438 96.25097656 C18.24085938 96.9092041 17.14773438 97.56743164 16.02148438 98.24560547 C13.68526964 99.67674169 11.37929819 101.12635667 9.08398438 102.61962891 C8.49725952 102.99609055 7.91053467 103.37255219 7.30603027 103.76042175 C5.67751564 104.8079981 4.05723652 105.86834501 2.4375 106.92944336 C-0.32226562 108.29394531 -0.32226562 108.29394531 -2.48510742 108.12011719 C-5.6730321 106.68650428 -8.64535432 104.90645329 -11.63476562 103.10644531 C-12.37476807 102.66574707 -13.11477051 102.22504883 -13.87719727 101.77099609 C-16.3633751 100.285986 -18.84356289 98.79139712 -21.32226562 97.29394531 C-22.18883789 96.77074707 -23.05541016 96.24754883 -23.94824219 95.70849609 C-46.50561763 82.06696622 -68.91827082 68.18543291 -91.32226562 54.29394531 C-86.58838637 50.19923963 -81.2945104 47.1294325 -75.94726562 43.91894531 C-73.86648009 42.66122606 -71.78575253 41.4034109 -69.70507812 40.14550781 C-68.64321289 39.50516602 -67.58134766 38.86482422 -66.48730469 38.20507812 C-61.59064062 35.24834515 -56.70677724 32.27069446 -51.82226562 29.29394531 C-49.9160753 28.13369101 -48.00982504 26.97353519 -46.10351562 25.81347656 C-41.16326173 22.80647509 -36.22443827 19.79713396 -31.28662109 16.78613281 C-29.3340508 15.597416 -27.37998344 14.41115423 -25.42431641 13.22753906 C-21.15892616 10.64505665 -16.91182209 8.04638633 -12.72070312 5.34472656 C-12.03234375 4.90878174 -11.34398437 4.47283691 -10.63476562 4.02368164 C-9.38817765 3.23246898 -8.15027949 2.42730496 -6.92382812 1.60522461 C-2.94221381 -0.89454188 -2.94221381 -0.89454188 0 0 Z " fill="#5F96F3" transform="translate(262.322265625,203.7060546875)"/>
<path d="M0 0 C0.66 0 1.32 0 2 0 C2.6285848 12.36792207 3.10670333 24.7319954 3.39892864 37.11269379 C3.5392915 42.86427015 3.72905687 48.60485509 4.03686523 54.35009766 C6.03919887 92.69776537 6.03919887 92.69776537 -0.60934448 100.62649536 C-6.57498992 106.39328074 -14.0817904 109.34819889 -21.85523987 111.89920044 C-25.99508145 113.34832075 -29.366401 115.44044942 -32.9375 117.9375 C-34.15411738 118.71374304 -35.37385352 119.48513531 -36.59765625 120.25 C-37.2642627 120.66894531 -37.93086914 121.08789062 -38.61767578 121.51953125 C-45.22036357 125.62269776 -51.88491488 129.62672323 -58.53417969 133.65380859 C-59.73504016 134.38116159 -60.93588664 135.10853768 -62.13671875 135.8359375 C-62.72377594 136.19150726 -63.31083313 136.54707703 -63.91567993 136.91342163 C-67.54066691 139.11061576 -71.15817814 141.31953853 -74.76953125 143.5390625 C-75.61209473 144.05670166 -76.4546582 144.57434082 -77.32275391 145.10766602 C-78.86132689 146.05422356 -80.39882169 147.00253661 -81.93505859 147.95288086 C-86.89045637 151 -86.89045637 151 -88 151 C-88.5114795 138.57925122 -88.90145147 126.16103181 -89.13986778 113.7318697 C-89.25435765 107.95863984 -89.40931167 102.19264612 -89.65966797 96.42358398 C-91.23788884 59.10903581 -91.23788884 59.10903581 -85.89251709 50.67462158 C-80.85370547 45.88399953 -75.29545898 43.59188749 -68.65467834 41.80674744 C-64.75869102 40.62277056 -61.68205816 38.57089451 -58.375 36.25 C-57.3377478 35.59656616 -57.3377478 35.59656616 -56.27954102 34.92993164 C-55.71420654 34.57278076 -55.14887207 34.21562988 -54.56640625 33.84765625 C-48.52447927 30.058037 -42.41312598 26.38149989 -36.3125 22.6875 C-27.45899662 17.32411592 -18.61736172 11.94307543 -9.8125 6.5 C-8.48569214 5.6814856 -8.48569214 5.6814856 -7.13208008 4.84643555 C-5.93168091 4.1026062 -5.93168091 4.1026062 -4.70703125 3.34375 C-4.0106958 2.91255859 -3.31436035 2.48136719 -2.59692383 2.03710938 C-1.02673199 1.096028 -1.02673199 1.096028 0 0 Z " fill="#F35666" transform="translate(353,266)"/>
<path d="M0 0 C4.17872248 1.60557186 7.80870712 3.64705875 11.5625 6.0625 C19.17165718 10.88706431 26.85643372 15.58243325 34.5625 20.25 C35.77988536 20.98784329 36.99725183 21.72571776 38.21459961 22.46362305 C40.04132439 23.57079683 41.8681055 24.67787715 43.6950531 25.78468323 C49.50951828 29.30742596 55.31813833 32.83973835 61.125 36.375 C61.96232666 36.88450195 62.79965332 37.39400391 63.66235352 37.91894531 C65.34671735 38.94433731 67.01879689 39.99019414 68.67765808 41.05635071 C71.26941198 42.57258858 73.70747477 43.77439445 76.44256592 44.96812439 C88.48973433 50.61971938 88.48973433 50.61971938 91.00974655 56.2600174 C92.5466831 62.85743546 92.06602804 69.57859554 91.7578125 76.29296875 C91.72419383 78.45190264 91.69859331 80.61097489 91.68063354 82.77009583 C91.61224566 88.42426966 91.43581321 94.06997478 91.23596191 99.7208252 C91.05103666 105.4982645 90.96945479 111.27708819 90.87890625 117.05664062 C90.68647698 128.37479384 90.37974947 139.6866901 90 151 C78.44873328 144.76142794 78.44873328 144.76142794 73.22265625 141.51171875 C71.73270142 140.58927368 71.73270142 140.58927368 70.21264648 139.64819336 C69.17309814 139.00116455 68.1335498 138.35413574 67.0625 137.6875 C64.76345625 136.26491385 62.46403552 134.84295635 60.1640625 133.421875 C59.57610397 133.05827377 58.98814545 132.69467255 58.38237 132.3200531 C51.92049744 128.32667079 45.43128142 124.37871157 38.9375 120.4375 C37.91342041 119.81512451 36.88934082 119.19274902 35.83422852 118.55151367 C34.78420654 117.9144751 33.73418457 117.27743652 32.65234375 116.62109375 C31.84691132 116.08050323 31.84691132 116.08050323 31.02520752 115.5289917 C27.01964204 112.9187775 23.17103166 111.35193676 18.61791992 109.87133789 C11.3458874 107.13605791 3.99541105 104.05216544 0 97 C-4.74041979 82.79439505 -2.44370527 65.69045493 -1.71661377 51.0045166 C-1.4591674 45.25464316 -1.3463463 39.50204192 -1.22070312 33.74804688 C-0.95388636 22.49147616 -0.52828481 11.24712361 0 0 Z " fill="#F6D000" transform="translate(166,266)"/>
<path d="M0 0 C0.80991898 0.00359528 1.61983795 0.00719055 2.45429993 0.01089478 C3.30300659 0.01074875 4.15171326 0.01060272 5.02613831 0.01045227 C7.84523532 0.01115168 10.66426712 0.01894539 13.48335266 0.02676392 C15.43248458 0.028628 17.38161696 0.03005195 19.33074951 0.03105164 C24.47151473 0.03487761 29.61225188 0.04470858 34.75300598 0.05575562 C39.99449789 0.06596802 45.23599431 0.07054889 50.47749329 0.07559204 C60.76982335 0.08633078 71.06213255 0.10340815 81.35444641 0.12442017 C84.02111308 6.12442017 86.68777974 12.12442017 89.35444641 18.12442017 C119.71444641 18.45442017 150.07444641 18.78442017 181.35444641 19.12442017 C181.35444641 22.09442017 181.35444641 25.06442017 181.35444641 28.12442017 C148.35444641 28.12442017 115.35444641 28.12442017 81.35444641 28.12442017 C75.35444641 12.12442017 75.35444641 12.12442017 75.35444641 9.12442017 C50.60444641 9.12442017 25.85444641 9.12442017 0.35444641 9.12442017 C-0.30555359 12.09442017 -0.96555359 15.06442017 -1.64555359 18.12442017 C-2.96555359 21.42442017 -4.28555359 24.72442017 -5.64555359 28.12442017 C-81.54555359 28.12442017 -157.44555359 28.12442017 -235.64555359 28.12442017 C-235.64555359 25.15442017 -235.64555359 22.18442017 -235.64555359 19.12442017 C-234.50934413 19.12203181 -233.37313467 19.11964346 -232.20249462 19.11718273 C-204.58710981 19.05845183 -176.9718127 18.98260893 -149.35652447 18.88870525 C-136.00210826 18.84369292 -122.64772532 18.80429088 -109.29325867 18.77798462 C-97.65682236 18.75504851 -86.02047109 18.72169984 -74.38410217 18.67571861 C-68.21973606 18.6517271 -62.05545448 18.63303724 -55.89104271 18.62680626 C-50.09379489 18.62078216 -44.29676352 18.6008797 -38.49959564 18.57014465 C-36.3674577 18.56132135 -34.23529153 18.55765065 -32.10313606 18.559412 C-29.20061453 18.56105327 -26.29876193 18.54446399 -23.39633179 18.52314758 C-22.54517074 18.52799516 -21.69400969 18.53284274 -20.81705588 18.53783721 C-16.61668503 18.61896049 -16.61668503 18.61896049 -12.99123985 16.80789214 C-10.90353265 14.19614178 -10.04705745 11.13595973 -9.02055359 7.99942017 C-6.34209947 0.01188735 -6.34209947 0.01188735 0 0 Z " fill="#E3E3E5" transform="translate(287.6455535888672,143.87557983398438)"/>
<path d="M0 0 C5.95792805 3.55425153 10.39910645 8.42467643 12.54296875 15.09375 C12.93267524 19.62515226 12.9145897 24.15755539 12.91357422 28.70336914 C12.9179356 30.88963439 12.95425739 33.0738585 12.9921875 35.25976562 C13.06276817 43.86531548 12.67533742 50.30500957 6.796875 57.1171875 C6.23871094 57.56320313 5.68054688 58.00921875 5.10546875 58.46875 C4.54988281 58.93023437 3.99429688 59.39171875 3.421875 59.8671875 C-2.49176509 63.7276511 -8.58805387 63.96684959 -15.45703125 63.09375 C-21.99447655 60.53791517 -26.0141039 56.07960956 -29.03515625 49.828125 C-31.29493958 43.63117159 -30.93073071 37.16886268 -30.89453125 30.65625 C-30.91451172 29.38458984 -30.93449219 28.11292969 -30.95507812 26.80273438 C-30.9506005 18.16538776 -30.15940026 11.41436489 -24.421875 4.71875 C-23.75285156 4.1825 -23.08382812 3.64625 -22.39453125 3.09375 C-21.72292969 2.536875 -21.05132812 1.98 -20.359375 1.40625 C-14.90074577 -2.35986791 -6.06329352 -2.23638171 0 0 Z " fill="#34326F" transform="translate(80.45703125,68.90625)"/>
<path d="M0 0 C5.4584116 3.95734841 9.453638 8.29557848 11.5 14.8125 C12.00568643 19.43321779 12.07632806 24.00781832 12.02148438 28.6484375 C12.00004037 30.8084336 12.02134897 32.96510519 12.046875 35.125 C12.06644282 43.98557837 11.58455253 50.31949221 5.4296875 57.08984375 C4.75164062 57.63769531 4.07359375 58.18554688 3.375 58.75 C2.69179687 59.31589844 2.00859375 59.88179687 1.3046875 60.46484375 C-3.81783429 64.29010353 -10.39143589 63.40862084 -16.5 62.8125 C-22.50352634 60.60693621 -26.7372994 56.35107057 -29.57836914 50.64770508 C-30.74225516 47.06725253 -30.84313024 43.67587492 -30.87109375 39.94921875 C-30.88012222 39.1984053 -30.8891507 38.44759186 -30.89845276 37.67402649 C-30.91291534 36.08977214 -30.92183205 34.50545861 -30.92553711 32.92114258 C-30.93741428 30.51734898 -30.98661573 28.11614176 -31.03710938 25.71289062 C-31.19600391 10.64352495 -31.19600391 10.64352495 -25.5 4.8125 C-18.17569206 -1.97588297 -9.51994534 -3.22998145 0 0 Z " fill="#31326F" transform="translate(205.5,69.1875)"/>
<path d="M0 0 C5.28395695 4.02587196 9.52988131 8.62794555 11.625 15 C12.01470649 19.53140226 11.99662095 24.06380539 11.99560547 28.60961914 C11.99996685 30.79588439 12.03628864 32.9801085 12.07421875 35.16601562 C12.14479942 43.77156548 11.75736867 50.21125957 5.87890625 57.0234375 C5.32074219 57.46945313 4.76257813 57.91546875 4.1875 58.375 C3.63191406 58.83648437 3.07632813 59.29796875 2.50390625 59.7734375 C-3.40973384 63.6339011 -9.50602262 63.87309959 -16.375 63 C-22.33994127 60.66798742 -26.59863063 56.56601023 -29.45336914 50.83520508 C-30.61725516 47.25475253 -30.71813024 43.86337492 -30.74609375 40.13671875 C-30.75512222 39.3859053 -30.7641507 38.63509186 -30.77345276 37.86152649 C-30.78791534 36.27727214 -30.79683205 34.69295861 -30.80053711 33.10864258 C-30.81241428 30.70484898 -30.86161573 28.30364176 -30.91210938 25.90039062 C-31.07100391 10.83102495 -31.07100391 10.83102495 -25.375 5 C-18.02567468 -1.8115698 -9.61084194 -2.84765687 0 0 Z " fill="#32326D" transform="translate(143.375,69)"/>
<path d="M0 0 C0.3015598 12.37799602 0.53236608 24.75511518 0.67355824 37.13603973 C0.74133583 42.88563495 0.83320658 48.63271312 0.98071289 54.38085938 C1.12225067 59.9313261 1.19974759 65.47937714 1.23340416 71.0315094 C1.25737751 73.14651028 1.30419961 75.2613825 1.37449074 77.37535095 C1.8913801 93.56853825 1.8913801 93.56853825 -1.32190323 97.69937134 C-4.60683286 100.58036778 -9.509444 104 -14 104 C-14.27822286 91.47424082 -14.49134653 78.94921798 -14.62174606 66.42099667 C-14.6843386 60.60320235 -14.76920122 54.7875237 -14.90527344 48.97094727 C-15.0358117 43.35568602 -15.10743779 37.74245689 -15.13852692 32.12579536 C-15.16067536 29.98490963 -15.20393194 27.8441335 -15.26876068 25.70411491 C-15.75733224 8.90573692 -15.75733224 8.90573692 -11.31896973 4.09255981 C-7.71359657 1.9280899 -4.2895786 0 0 0 Z " fill="#F27784" transform="translate(279,313)"/>
<path d="M0 0 C0.69351563 0.4021875 1.38703125 0.804375 2.1015625 1.21875 C2.1015625 2.20875 2.1015625 3.19875 2.1015625 4.21875 C0.15917969 5.75830078 0.15917969 5.75830078 -2.6015625 7.4140625 C-3.63023437 8.03861328 -4.65890625 8.66316406 -5.71875 9.30664062 C-6.85054688 9.97888672 -7.98234375 10.65113281 -9.1484375 11.34375 C-10.32875994 12.05558887 -11.50843726 12.76849842 -12.6875 13.48242188 C-15.16654079 14.98128961 -17.64913308 16.4740039 -20.13476562 17.96191406 C-23.74659938 20.1250606 -27.3478093 22.30530825 -30.9453125 24.4921875 C-31.52018906 24.84161407 -32.09506561 25.19104065 -32.68736267 25.55105591 C-33.84612651 26.25547328 -35.0048536 26.95995109 -36.1635437 27.66448975 C-37.89881862 28.7189816 -39.63493507 29.77207364 -41.37133789 30.82470703 C-49.20753456 35.57582746 -57.03073514 40.34774913 -64.83862305 45.14526367 C-66.555294 46.19992375 -68.27275716 47.25329402 -69.99023438 48.30664062 C-71.01568359 48.93763672 -72.04113281 49.56863281 -73.09765625 50.21875 C-74.00346436 50.775625 -74.90927246 51.3325 -75.8425293 51.90625 C-77.80965094 53.05812548 -77.80965094 53.05812548 -78.8984375 54.21875 C-78.20097412 54.63012207 -77.50351074 55.04149414 -76.78491211 55.46533203 C-60.74839943 64.93006266 -44.77303387 74.48403784 -28.8984375 84.21875 C-27.75652994 84.91832615 -26.6146021 85.61786917 -25.47265625 86.31738281 C-22.50437041 88.13605096 -19.53718606 89.95650424 -16.5708313 91.77832031 C-14.88076031 92.8162235 -13.19026383 93.85343372 -11.49975586 94.890625 C-6.57524843 97.92038344 -1.6737148 100.95798872 3.1015625 104.21875 C1.3515625 106.28125 1.3515625 106.28125 -0.8984375 108.21875 C-5.15849006 107.63106384 -8.58992488 105.21156276 -12.2109375 103.03125 C-12.95093994 102.59055176 -13.69094238 102.14985352 -14.45336914 101.69580078 C-16.93954698 100.21079068 -19.41973476 98.71620181 -21.8984375 97.21875 C-22.76500977 96.69555176 -23.63158203 96.17235352 -24.52441406 95.63330078 C-47.0817895 81.99177091 -69.4944427 68.11023759 -91.8984375 54.21875 C-87.16455825 50.12404432 -81.87068228 47.05423719 -76.5234375 43.84375 C-74.44265197 42.58603075 -72.3619244 41.32821559 -70.28125 40.0703125 C-69.21938477 39.4299707 -68.15751953 38.78962891 -67.06347656 38.12988281 C-62.1668125 35.17314984 -57.28294911 32.19549915 -52.3984375 29.21875 C-50.49224718 28.0584957 -48.58599691 26.89833987 -46.6796875 25.73828125 C-41.73943361 22.73127977 -36.80061014 19.72193864 -31.86279297 16.7109375 C-29.91022268 15.52222068 -27.95615532 14.33595891 -26.00048828 13.15234375 C-21.73509803 10.56986134 -17.48799397 7.97119102 -13.296875 5.26953125 C-12.60851562 4.83358643 -11.92015625 4.3976416 -11.2109375 3.94848633 C-9.96434952 3.15727367 -8.72645136 2.35210965 -7.5 1.5300293 C-4.57346466 -0.30732972 -3.4145755 -0.92037076 0 0 Z " fill="#7DA8F2" transform="translate(262.8984375,203.78125)"/>
<path d="M0 0 C9.86810128 3.94724051 9.86810128 3.94724051 13 7 C14.1336608 10.1609063 14.01589919 13.1430181 13.90820312 16.47192383 C13.90937134 17.41875031 13.91053955 18.36557678 13.91174316 19.34109497 C13.90617803 22.46457644 13.84400054 25.58421881 13.78125 28.70703125 C13.76632588 30.87462783 13.75493967 33.04225142 13.74694824 35.20988464 C13.71642812 40.91029598 13.6378642 46.60907196 13.54931641 52.30883789 C13.46742339 58.12689082 13.43092926 63.9452085 13.390625 69.76367188 C13.30487148 81.1764991 13.16836435 92.58811347 13 104 C12.22914063 103.57847656 11.45828125 103.15695312 10.6640625 102.72265625 C9.15972656 101.90087891 9.15972656 101.90087891 7.625 101.0625 C6.62726563 100.51722656 5.62953125 99.97195313 4.6015625 99.41015625 C3.07929654 98.5850241 1.54871217 97.77435609 0 97 C0 64.99 0 32.98 0 0 Z " fill="#F1D334" transform="translate(166,266)"/>
<path d="M0 0 C2.37541709 1.84754662 3.71671973 3.16051399 5.25 5.75 C5.80539255 10.30287655 5.72279419 14.86677425 5.69604492 19.44897461 C5.68753928 21.67721058 5.71629942 23.90287681 5.74804688 26.13085938 C5.7496593 27.55468674 5.74908057 28.97851861 5.74609375 30.40234375 C5.74887329 32.33581665 5.74887329 32.33581665 5.75170898 34.30834961 C5.17085096 38.29295089 4.03769263 39.90805049 1.25 42.75 C-2.23018981 45.27013745 -5.55549604 45.11793894 -9.75 44.75 C-13.97629927 42.92500713 -15.73665392 40.83660685 -17.75 36.75 C-18.28645244 32.46648403 -18.22322021 28.19972843 -18.19604492 23.88500977 C-18.18753675 21.8214125 -18.21631856 19.76058975 -18.24804688 17.69726562 C-18.24740234 16.38564453 -18.24675781 15.07402344 -18.24609375 13.72265625 C-18.24794678 12.52906494 -18.2497998 11.33547363 -18.25170898 10.10571289 C-17.56896585 5.53914139 -15.64273511 2.18586801 -11.9375 -0.625 C-7.65437443 -1.84875016 -4.06770435 -1.84895652 0 0 Z " fill="#86D1A1" transform="translate(201.75,78.25)"/>
<path d="M0 0 C2.75 2.1875 2.75 2.1875 4.75 5.1875 C5.1381355 9.57808879 5.0791361 13.97813679 5.06567383 18.38378906 C5.06252106 20.54804169 5.08595238 22.71091706 5.11132812 24.875 C5.11360206 26.25781078 5.11430418 27.64062523 5.11328125 29.0234375 C5.11626221 30.27688965 5.11924316 31.5303418 5.12231445 32.82177734 C4.63260524 37.2487486 3.05355433 39.78738609 0.0625 43 C-3.35492524 44.75489404 -6.54015084 44.82958928 -10.25 44.1875 C-13.62696809 42.49901596 -15.65655222 41.3456231 -17.39306641 37.95678711 C-19.11134214 32.40396614 -18.61934555 26.5147139 -18.625 20.75 C-18.66173828 18.78450195 -18.66173828 18.78450195 -18.69921875 16.77929688 C-18.70308594 15.51279297 -18.70695312 14.24628906 -18.7109375 12.94140625 C-18.71915527 11.78970947 -18.72737305 10.6380127 -18.73583984 9.45141602 C-18.14375962 5.47376754 -16.73598626 3.31173359 -14.25 0.1875 C-9.30656248 -2.67449014 -4.97293764 -2.77336907 0 0 Z " fill="#F5CF00" transform="translate(140.25,78.8125)"/>
<path d="M0 0 C3.75212276 2.01502889 5.63644095 3.45466142 8 7 C8.4108867 11.37162727 8.37160162 15.75279915 8.37060547 20.14135742 C8.37496442 22.29492118 8.41124867 24.44641014 8.44921875 26.59960938 C8.45509033 27.9791597 8.45905744 29.35871971 8.4609375 30.73828125 C8.46915527 31.98649658 8.47737305 33.23471191 8.48583984 34.52075195 C7.91105257 38.63697979 6.58797312 40.78634667 4 44 C0.35781349 46.10863429 -2.83808672 46.50962203 -7 46 C-10.27290068 44.30060926 -12.42989176 43.09716206 -14.15087891 39.78515625 C-15.71006412 34.67095704 -15.37186331 29.38815961 -15.37060547 24.08007812 C-15.374988 22.0056806 -15.4113752 19.93339807 -15.44921875 17.859375 C-15.45308594 16.54453125 -15.45695312 15.2296875 -15.4609375 13.875 C-15.46915527 12.67617187 -15.47737305 11.47734375 -15.48583984 10.2421875 C-14.90412528 6.36019282 -13.72580959 4.77205155 -11 2 C-7.29519659 -0.46986894 -4.29780299 -0.67432448 0 0 Z " fill="#F35666" transform="translate(75,77)"/>
</svg>
