<svg xmlns="http://www.w3.org/2000/svg" width="20" height="19.179" viewBox="0 0 20 19.179">
  <path d="M12.242,8.045l2.087,1.391,5.714-.879,1.015-.169-8.815-6.4ZM17.7,19.715l-3.519-5.279.71-3.194,5.446-.838h0l.012,0,.976-.163L18.048,20.3l-.328-.548-.024-.038ZM6.251,21.169H16.388l-.261-.435L12.773,15.7,8.66,16.824l-2.145,3.86Zm-1.675-.835L1.32,10.322l.482.08.021,0,5.673.81-.378,4.531L4.879,19.78h0l0,.006ZM8.28,9.439l2.092-1.394V1.99l-8.9,6.461.63.1Zm1.116,1.5-.319,3.829,3.31-.9.674-3.032L11.307,9.669Z" transform="translate(-1.32 -1.99)" fill="#8e24aa" fill-rule="evenodd"/>
</svg>
