<svg xmlns="http://www.w3.org/2000/svg" xmlns:xlink="http://www.w3.org/1999/xlink" width="100" height="100" viewBox="0 0 100 100"><defs><clipPath id="a"><circle cx="50" cy="50" r="50" transform="translate(1516 -575)" fill="#fff7ec"/></clipPath></defs><g transform="translate(-1516 575)" clip-path="url(#a)"><rect width="100" height="100" transform="translate(1516 -575)" fill="#fff7ec"/><g transform="translate(1495.989 -558.234)"><path d="M-1489.936,599.354a79.488,79.488,0,0,1,3.824-7.845c-4.632-3.517-7.638-6.959-8.13-8.489,0,0-6.164-7.133,4.665-18.653a14.759,14.759,0,0,1,4.035-2.97c2.318-2.069,5.86-3.163,10.243-3.163a31.719,31.719,0,0,1,13.586,3.231c4.413,2.183,7.419,5.095,8.466,8.2a25.219,25.219,0,0,1,1.442,9.116l.019.037s-.71,7.392.761,11.275,8.527,12.428-2.192,23.468c-2.875,2.96-7.231,4.207-11.961,4.208C-1478.083,617.767-1493.8,608.48-1489.936,599.354Z" transform="translate(1545.044 -558.235)" fill="#175c7a"/><path d="M-1465.176,618.267h0a35.189,35.189,0,0,1-14.026-3.139c-4.568-2.046-8.166-4.806-10.131-7.77a8.421,8.421,0,0,1-1.063-8.2,80.125,80.125,0,0,1,3.638-7.516,45.109,45.109,0,0,1-5.337-4.783,12.644,12.644,0,0,1-2.591-3.594,9.515,9.515,0,0,1-1.784-5.224,13.848,13.848,0,0,1,1.133-6.092,26.842,26.842,0,0,1,5.4-7.927,15.192,15.192,0,0,1,4.115-3.043c2.411-2.124,6.05-3.247,10.528-3.247a32.232,32.232,0,0,1,13.808,3.283c4.532,2.242,7.628,5.256,8.718,8.486a25.854,25.854,0,0,1,1.473,9.165l.026.051-.014.144c-.007.073-.682,7.322.731,11.05.206.543.531,1.192.908,1.944a21.115,21.115,0,0,1,2.76,9.079,14.659,14.659,0,0,1-1.2,6.108,22.889,22.889,0,0,1-4.764,6.862C-1455.626,616.759-1459.886,618.266-1465.176,618.267Zm-10.122-59.533c-4.259,0-7.686,1.05-9.91,3.036l-.048.043-.057.029a14.226,14.226,0,0,0-3.9,2.868c-4.306,4.581-6.471,9.147-6.262,13.206a8.513,8.513,0,0,0,1.612,4.779l.065.076.032.1c.453,1.412,3.4,4.781,7.956,8.243l.346.262-.211.379a79.054,79.054,0,0,0-3.8,7.8,7.373,7.373,0,0,0,.975,7.257c1.861,2.808,5.308,5.44,9.706,7.41a34.169,34.169,0,0,0,13.617,3.052c5.013,0,9.025-1.4,11.6-4.057,8.908-9.174,5.229-16.517,3.031-20.9-.389-.776-.725-1.447-.948-2.037-1.4-3.686-.9-10.251-.805-11.352l-.013-.025.006-.134a24.765,24.765,0,0,0-1.416-8.935c-1.005-2.977-3.922-5.786-8.214-7.91A31.2,31.2,0,0,0-1475.3,558.734Z" transform="translate(1545.044 -558.235)" fill="rgba(0,0,0,0)"/><path d="M-1479.167,605.849a7.147,7.147,0,0,1-6.155-3.588l.937-6.187-.027-.013c-.067-.031-.137-.064-.206-.1a21.72,21.72,0,0,1-6.346-4.4,12.022,12.022,0,0,1-2.929-4.991,12.448,12.448,0,0,1-.279-5.371,2.188,2.188,0,0,1-.524-.329c-1.062-.888-1.543-3.2-1.169-5.629.336-2.185,1.264-3.789,2.48-4.291a3.236,3.236,0,0,1,1.223-.271,2.2,2.2,0,0,1,1.789.94c.317-.538.664-1.1,1.031-1.681a17.724,17.724,0,0,1,2.229-2.832,21.3,21.3,0,0,0,5.533,3.952l3.106-2.782-1.99,3.372a7.278,7.278,0,0,0,1.989,1.327l1.464-2.625-.856,2.79c.058.043,6.027,4.394,12.12,5.01a23.118,23.118,0,0,1-.428,9.483,7.581,7.581,0,0,1,2.337-.448,2.373,2.373,0,0,1,2.591,2.282,3.722,3.722,0,0,1-.79,2.569l-.005.008-.005.008-.006.009-.006.009a9.887,9.887,0,0,1-3.517,2.95,6.279,6.279,0,0,1-2.677.753c-.082,0-.159,0-.23-.008a4.63,4.63,0,0,0-.019.491,20.33,20.33,0,0,1-3.489,1.109l.429,4.388-1.557,1.669A9.54,9.54,0,0,1-1479.167,605.849Z" transform="translate(1546.164 -558.235)" fill="#ffcaca"/><path d="M-1479.167,606.349h0a7.631,7.631,0,0,1-6.578-3.823l-.1-.157.909-6a22.106,22.106,0,0,1-6.392-4.462,12.515,12.515,0,0,1-3.047-5.2,12.789,12.789,0,0,1-.342-5.233,2.863,2.863,0,0,1-.3-.22c-1.208-1.01-1.748-3.457-1.343-6.089.363-2.359,1.4-4.108,2.784-4.677a3.728,3.728,0,0,1,1.413-.308,2.6,2.6,0,0,1,1.695.623c.221-.365.456-.744.7-1.132a18.223,18.223,0,0,1,2.292-2.912l.341-.352.359.334a22.015,22.015,0,0,0,5.1,3.731l2.867-2.568.764.627-1.78,3.017a7.051,7.051,0,0,0,1.141.773l1.235-2.214.915.39-.749,2.442c1.257.861,6.41,4.19,11.585,4.714l.375.038.067.371a23.17,23.17,0,0,1-.246,8.853,6.93,6.93,0,0,1,1.663-.23,3.087,3.087,0,0,1,2.108.7,3.188,3.188,0,0,1,.978,2.013,4.2,4.2,0,0,1-.873,2.924l-.024.035a10.411,10.411,0,0,1-3.7,3.111,7.131,7.131,0,0,1-2.651.8l.007.32-.314.132a20.844,20.844,0,0,1-3.143,1.036l.409,4.177-1.733,1.857-.024.02A10.031,10.031,0,0,1-1479.167,606.349Zm-5.633-4.2a6.629,6.629,0,0,0,5.633,3.2,9.037,9.037,0,0,0,5.7-2.294l1.381-1.48-.45-4.6.433-.1a19.84,19.84,0,0,0,3.1-.958q.005-.094.014-.2l.042-.494.494.038c.058,0,.123.007.192.007a5.784,5.784,0,0,0,2.452-.7,9.365,9.365,0,0,0,3.333-2.79l.021-.03a3.248,3.248,0,0,0,.707-2.215,1.887,1.887,0,0,0-2.1-1.853,7.094,7.094,0,0,0-2.179.422l-.855.286.21-.877a22.845,22.845,0,0,0,.483-8.912,25.46,25.46,0,0,1-8.122-2.731,32.632,32.632,0,0,1-3.863-2.331l-.041-.03-.055.1-.414-.178a7.793,7.793,0,0,1-2.142-1.429l-.279-.274.548-.929-.935.838-.29-.12a20.724,20.724,0,0,1-5.317-3.712,17.26,17.26,0,0,0-1.833,2.4c-.37.582-.713,1.143-1.022,1.667l-.374.635-.452-.582a1.7,1.7,0,0,0-1.394-.747,2.745,2.745,0,0,0-1.032.233c-1.038.428-1.872,1.924-2.177,3.9-.343,2.226.076,4.4,1,5.169a1.69,1.69,0,0,0,.4.254l.352.154-.057.379a11.959,11.959,0,0,0,.266,5.159,11.528,11.528,0,0,0,2.81,4.784,21.23,21.23,0,0,0,6.2,4.3l.006,0c.063.032.128.061.189.09l.37.173Z" transform="translate(1546.164 -558.235)" fill="rgba(0,0,0,0)"/><path d="M-1495.48,585.708c.157-.291,7-8.014,20.947-11.294,1.077-.542,12.387-6.209,18.67-8.422.327-.8,3.649-8.758,5.466-7.654.983.6.021,4.042.021,4.042s12.585.474,11.506,4.013c-1.031,3.38-14,6.76-15.179,7.06-3.876,3.665-9.981,8.984-17.084,12.04-5.338,3.4-15.906,6.386-15.906,6.386S-1498.507,591.329-1495.48,585.708Z" transform="translate(1572.828 -535.601)" fill="#ffcaca"/><path d="M-1486.981,592.384l-.081,0a24.644,24.644,0,0,1-3.8-.535c-2.74-.615-4.5-1.59-5.24-2.9a3.444,3.444,0,0,1,.18-3.478,25.73,25.73,0,0,1,5.459-4.7,47.209,47.209,0,0,1,15.756-6.828c1.469-.738,12.223-6.111,18.466-8.346.272-.649,1.011-2.362,1.9-4,1.88-3.461,2.938-3.861,3.571-3.861a1.2,1.2,0,0,1,.63.178c.6.365.8,1.26.615,2.735-.06.474-.148.925-.224,1.266.886.053,2.622.182,4.446.459,3.6.545,5.834,1.392,6.635,2.518a1.833,1.833,0,0,1,.274,1.65c-.486,1.594-3.05,3.232-7.839,5.008-3.337,1.237-6.664,2.125-7.568,2.358a82.687,82.687,0,0,1-7.282,6.2,49.073,49.073,0,0,1-9.818,5.835c-5.348,3.395-15.571,6.3-16,6.424Zm-8.069-6.418a2.472,2.472,0,0,0-.179,2.491c1.188,2.1,6.194,2.814,8.133,2.92.975-.281,10.72-3.133,15.694-6.3l.034-.022.037-.016c7.9-3.4,14.7-9.831,16.938-11.944l.094-.089.126-.032c.659-.168,4.122-1.072,7.594-2.359,5.788-2.147,7.015-3.654,7.231-4.362a.834.834,0,0,0-.132-.778c-.359-.5-1.613-1.45-5.97-2.109-2.552-.386-4.921-.479-4.945-.48l-.633-.024.171-.61a13.708,13.708,0,0,0,.345-1.734c.19-1.524-.141-1.744-.144-1.746a.2.2,0,0,0-.11-.032c-.147,0-.967.161-2.693,3.338-.99,1.823-1.79,3.743-1.941,4.11l-.085.207-.211.074c-6.23,2.194-17.363,7.768-18.612,8.4l-.053.027-.057.014a46.319,46.319,0,0,0-15.308,6.578A27.1,27.1,0,0,0-1495.051,585.966Z" transform="translate(1572.828 -535.601)" fill="rgba(0,0,0,0)"/><path d="M-1494.359,563.437h-.016l.016-.005a15.345,15.345,0,0,0-.346-2.106,9.348,9.348,0,0,0-.484-1.6l-.012-.029h-.013l.012,0a6.674,6.674,0,0,0-.785-1.462,3.778,3.778,0,0,1,1.187,1.359,11.6,11.6,0,0,1,1.667-.287,15.774,15.774,0,0,1,2.124-.047,9.414,9.414,0,0,1,4.075,1.107,17.376,17.376,0,0,0-2.05-.385c-.684-.088-1.37-.17-2.058-.193-1.224-.1-2.449-.069-3.7-.081a7.339,7.339,0,0,1,.552,1.5q.02.1.038.194a19.034,19.034,0,0,1,3.342-.432,13.639,13.639,0,0,1,3.812.344c-2.4.117-4.731.281-7.131.221a8.606,8.606,0,0,1,.122,1.424q0,.183-.011.365a23.72,23.72,0,0,1,2.994-.6,20.705,20.705,0,0,1,3.413-.2,21.05,21.05,0,0,1-3.35.72,23.255,23.255,0,0,1-3.066.208,8.445,8.445,0,0,1-.2,1.241C-1494.273,564.268-1494.313,563.85-1494.359,563.437Z" transform="translate(1620.253 -530.649)" fill="#ffa4a4"/><path d="M-1493.736,564.8l-.984-.054c-.031-.262-.058-.525-.085-.779q-.025-.24-.051-.478l.328-.036v-.006l-.329.036a15.044,15.044,0,0,0-.334-2.038l-.006-.027a8.774,8.774,0,0,0-.457-1.5l-.009-.022.369-.156,0,0-.369.156a6.224,6.224,0,0,0-.723-1.355l.678-.716a4.1,4.1,0,0,1,1.151,1.2,11.48,11.48,0,0,1,1.373-.216,13.077,13.077,0,0,1,1.359-.063c.243,0,.506,0,.829.014l.03,0a9.906,9.906,0,0,1,4.289,1.177l-.362.845.177.047-.11.981q-.654.032-1.3.067c-1.566.082-3.185.167-4.8.167l-.482,0q.032.313.043.627c.719-.173,1.445-.29,2.152-.4l.282-.045.247-.027a24.1,24.1,0,0,1,2.61-.188c.219,0,.433.006.638.018l.129.974a20.213,20.213,0,0,1-3.222.706l-.233.037-.261.028c-.782.085-1.588.173-2.409.184C-1493.615,564.225-1493.668,564.507-1493.736,564.8Zm-.241-4.593c.07.189.135.387.2.6a21.5,21.5,0,0,1,2.941-.337h.026l.529,0c.471,0,.956.008,1.447.043l-.158-.023-.058-.009c-.645-.083-1.332-.166-2.007-.189h-.023c-.9-.072-1.8-.074-2.74-.075Z" transform="translate(1620.253 -530.649)" fill="rgba(0,0,0,0)"/><path d="M-1485.614,599h0l-1.364-.259.938-6.188a18.9,18.9,0,0,0,8.052,1.763,20.1,20.1,0,0,0,2.732-.188c-3.235,2.74-5.968,4.414-10.356,4.872h0Z" transform="translate(1547.82 -554.714)" fill="#ffa4a4"/><path d="M-1485.588,599.5h-.136l-.044-.02-1.777-.338,1.11-7.325.606.283a18.4,18.4,0,0,0,7.84,1.716,19.6,19.6,0,0,0,2.663-.184l1.7-.235-1.313,1.112c-3.309,2.8-6.109,4.516-10.628,4.988Zm-.824-1.161.818.156a16,16,0,0,0,8.74-3.711q-.569.032-1.136.032a19.434,19.434,0,0,1-7.656-1.539Z" transform="translate(1547.82 -554.714)" fill="rgba(0,0,0,0)"/><path d="M-1450.036,593.977s-10.329-3.726-15.411-7.5c-7.363-3.793-13.28-9.669-16.775-13.439-3.746-1.027-12.83-3.783-13.7-6.581-1.1-3.534,11.484-4.073,11.484-4.073s-.981-3.439,0-4.042c1.632-1,4.525,5.349,5.323,7.2,6.188,2.687,17.8,10.1,17.923,10.176,14.649,4.7,26.5,15.579,26.636,15.881,1.2,2.669-1.952,3.391-5.721,3.391A62.24,62.24,0,0,1-1450.036,593.977Z" transform="translate(1495.988 -539.112)" fill="#ffcaca"/><path d="M-1440.276,595.485v-1c3.913,0,5.012-.8,5.319-1.272a1.4,1.4,0,0,0-.031-1.358,65.642,65.642,0,0,0-8-6.325,72.837,72.837,0,0,0-18.36-9.341l-.062-.02-.055-.035c-.477-.3-11.764-7.495-17.853-10.138l-.182-.079-.078-.182a42.663,42.663,0,0,0-2.1-4.241c-1.526-2.627-2.259-2.76-2.39-2.76a.2.2,0,0,0-.111.033s-.335.225-.134,1.756a13.659,13.659,0,0,0,.353,1.723l.174.609-.633.027c-.024,0-2.4.107-4.95.507-4.347.682-5.594,1.633-5.95,2.139a.835.835,0,0,0-.128.78c.542,1.744,5.658,4.138,13.353,6.248l.138.038.1.1c5.687,6.136,11.129,10.5,16.637,13.335l.036.019.033.024c4.814,3.574,14.559,7.166,15.246,7.417a61.849,61.849,0,0,0,9.627.992v1a63.27,63.27,0,0,1-9.853-1.017l-.039-.007-.037-.013c-.424-.153-10.414-3.778-15.507-7.544-5.57-2.875-11.06-7.267-16.779-13.421a74.041,74.041,0,0,1-7.848-2.608c-3.649-1.5-5.631-2.892-6.058-4.269a1.834,1.834,0,0,1,.265-1.652c.8-1.13,3.023-1.989,6.621-2.553,1.822-.286,3.557-.424,4.443-.482-.078-.34-.169-.792-.231-1.265-.193-1.475,0-2.37.6-2.738a1.2,1.2,0,0,1,.635-.181c.929,0,1.963,1.035,3.255,3.257a43.082,43.082,0,0,1,2.075,4.166c6.046,2.668,16.788,9.482,17.757,10.1a74.142,74.142,0,0,1,18.831,9.637c2.569,1.786,4.546,3.362,5.751,4.37.765.639,1.289,1.107,1.594,1.386.626.574.662.654.7.738a2.376,2.376,0,0,1-.016,2.369C-1434.869,594.919-1436.884,595.485-1440.276,595.485Z" transform="translate(1495.988 -539.112)" fill="rgba(0,0,0,0)"/><path d="M-1488.885,563.46a23.187,23.187,0,0,1-3.063-.192,21.154,21.154,0,0,1-3.355-.7,20.822,20.822,0,0,1,3.415.175,24.016,24.016,0,0,1,2.994.591q-.012-.182-.013-.364a8.691,8.691,0,0,1,.116-1.426c-2.4.073-4.735-.079-7.131-.184a13.526,13.526,0,0,1,3.811-.363,19.059,19.059,0,0,1,3.343.413q.017-.1.037-.194a7.33,7.33,0,0,1,.544-1.5c-1.249.019-2.474,0-3.7.1-.689.029-1.373.113-2.057.2a17.707,17.707,0,0,0-2.048.4,9.462,9.462,0,0,1,4.07-1.129,16.042,16.042,0,0,1,2.122.038,11.56,11.56,0,0,1,1.668.278,3.775,3.775,0,0,1,1.179-1.364,6.725,6.725,0,0,0-.777,1.465l.013,0h-.015l-.012.029a9.264,9.264,0,0,0-.476,1.6,15.44,15.44,0,0,0-.335,2.108l.017.005h-.017c-.043.414-.083.832-.13,1.255A8.433,8.433,0,0,1-1488.885,563.46Z" transform="translate(1496.691 -534.147)" fill="#ffa4a4"/><path d="M-1489.168,564.816c-.07-.3-.124-.578-.163-.852-.836-.007-1.658-.093-2.454-.176l-.241-.026-.256-.04a19.93,19.93,0,0,1-3.177-.68l.125-.974c.226-.014.464-.021.707-.021a25.021,25.021,0,0,1,2.564.175l.253.027.258.041c.706.111,1.431.224,2.149.394q.01-.314.04-.627c-.242,0-.489.006-.739.006-1.527,0-3.064-.073-4.55-.144q-.643-.031-1.292-.06l-.115-.98.177-.048-.366-.844a9.973,9.973,0,0,1,4.282-1.2l.032,0c.363-.012.643-.017.906-.017.474,0,.893.019,1.279.057a11.466,11.466,0,0,1,1.375.208,4.1,4.1,0,0,1,1.145-1.21l.682.712a6.307,6.307,0,0,0-.717,1.359l-.369-.154,0,0,.37.152-.01.025a8.681,8.681,0,0,0-.449,1.506l-.006.028a14.779,14.779,0,0,0-.323,2.04l-.331-.035v.007l.329.035q-.025.233-.048.468c-.026.258-.053.525-.083.791Zm-3.294-4.321h.378a21.815,21.815,0,0,1,2.941.321c.059-.209.123-.407.192-.6h-.159c-.942.007-1.832.013-2.733.088h-.021c-.679.028-1.363.114-2.006.2l-.074.012-.142.022C-1493.52,560.5-1492.972,560.494-1492.462,560.494Z" transform="translate(1496.691 -534.147)" fill="rgba(0,0,0,0)"/><path d="M-1457.228,622.047a51.47,51.47,0,0,1-22.751-5.623v-.012c-.009-.86-.069-8.69.576-18.518.343-5.228.824-10.109,1.435-14.543a82.761,82.761,0,0,1-17.711-9.172c-2.069-6.853,6.926-15.944,6.926-15.944a108.548,108.548,0,0,1,14.779,7.469l7.326-1.549-.284,1.873a7.148,7.148,0,0,0,6.156,3.587,9.542,9.542,0,0,0,6.047-2.429l1.557-1.669-.115-1.174a50.681,50.681,0,0,1,5.643,1.726c2.728-.82,7.2-2.111,14.894-4.964,0,0,4.7,4.174,4.581,10.1-.069,3.419-6.517,8.167-14.134,11.564.9,7.961,1.754,17.485,2.394,24.614v.009c.509,5.678.878,9.781.99,9.9a.034.034,0,0,1,0,.04c-.234.547-7.24,4.721-18.306,4.722Z" transform="translate(1527.775 -522.001)" fill="#ffcd2c"/><path d="M-1457.224,622.547h0a51.964,51.964,0,0,1-22.972-5.674l-.28-.137v-.321c-.009-.876-.069-8.713.577-18.554.333-5.072.8-9.837,1.383-14.171a75.123,75.123,0,0,1-9.1-4.1,66.944,66.944,0,0,1-8.358-5.014l-.131-.1-.047-.157a9.729,9.729,0,0,1,.209-5.672,21.919,21.919,0,0,1,2.534-5.283,36.2,36.2,0,0,1,4.305-5.486l.238-.24.311.131a109.384,109.384,0,0,1,14.677,7.4l7.837-1.657-.364,2.4a6.63,6.63,0,0,0,5.633,3.2,9.039,9.039,0,0,0,5.7-2.293l1.381-1.481-.163-1.659.691.176a52.491,52.491,0,0,1,5.54,1.682l.493-.148c2.833-.847,7.114-2.128,14.207-4.757l.281-.1.224.2a15.552,15.552,0,0,1,2.422,2.929,13.57,13.57,0,0,1,2.326,7.552c-.045,2.238-2.432,4.591-4.426,6.172a47.874,47.874,0,0,1-9.67,5.688c.886,7.9,1.733,17.341,2.354,24.263v.007c.442,4.921.824,9.181.949,9.741a.54.54,0,0,1,0,.458h0c-.2.428-1.265,1-1.617,1.2a26.044,26.044,0,0,1-3.761,1.63A40.621,40.621,0,0,1-1457.224,622.547Zm-22.257-6.437a50.85,50.85,0,0,0,22.254,5.437l0,.5v-.5a39.818,39.818,0,0,0,12.766-2.03,19.354,19.354,0,0,0,5-2.347c-.067-.379-.149-1.127-.3-2.7-.17-1.754-.39-4.2-.644-7.038v-.007c-.63-7.025-1.494-16.643-2.393-24.6l-.041-.364.334-.149a47.326,47.326,0,0,0,9.79-5.709c2.581-2.045,4.018-3.966,4.047-5.408a12.567,12.567,0,0,0-2.149-6.961,15.678,15.678,0,0,0-2.052-2.548c-6.948,2.567-11.169,3.83-13.975,4.669l-.656.2-.165.049-.16-.062a46.974,46.974,0,0,0-4.894-1.528l.067.687-1.733,1.858-.024.02a10.033,10.033,0,0,1-6.367,2.545,7.632,7.632,0,0,1-6.579-3.821l-.1-.157.2-1.343-6.815,1.441-.17-.1a107.517,107.517,0,0,0-14.393-7.3,36.464,36.464,0,0,0-3.95,5.091c-1.727,2.72-3.575,6.637-2.666,9.958a83.184,83.184,0,0,0,17.436,9l.393.132-.056.41c-.608,4.419-1.089,9.3-1.431,14.508C-1479.5,607.025-1479.493,614.4-1479.481,616.11Z" transform="translate(1527.775 -522.001)" fill="rgba(0,0,0,0)"/><path d="M-1489.679,573.612a23.109,23.109,0,0,1-1.249-5.317q-.172.063-.348.123a8.872,8.872,0,0,1-1.674-3.143s.1-.081.277-.21a15.828,15.828,0,0,1-3.315-4.271c3.191-2.784,5.746-2.556,5.746-2.556a22.933,22.933,0,0,1,.92,5.107,3.372,3.372,0,0,1,.5-.076,7.123,7.123,0,0,1,1.494,3.143s-.12.087-.338.23a15.908,15.908,0,0,1,3.573,4.084c-2.872,2.815-5.328,2.886-5.57,2.886Z" transform="translate(1574.57 -549.004)" fill="#ffcd2c"/><path d="M-1489.66,574.112h-.033l-.326-.011-.124-.3a22.951,22.951,0,0,1-1.2-4.829l-.049.016-.217-.194a9.219,9.219,0,0,1-1.819-3.368l-.1-.326.1-.083a13.978,13.978,0,0,1-3.031-4.043l-.123-.325.262-.229c2.855-2.49,5.259-2.684,5.928-2.684.112,0,.178.005.191.006l.326.029.1.31a22.8,22.8,0,0,1,.9,4.692h.014l.222-.016.16.154a7.549,7.549,0,0,1,1.637,3.4l.063.314-.09.065a13.9,13.9,0,0,1,3.228,3.828l.142.318-.249.244C-1486.744,574.027-1489.37,574.112-1489.66,574.112Zm-.847-6.5.075.629a23.94,23.94,0,0,0,1.093,4.85,8.675,8.675,0,0,0,4.634-2.465,17.166,17.166,0,0,0-3.292-3.607l-.486-.434.546-.357.045-.029a6.509,6.509,0,0,0-1.118-2.4q-.1.016-.2.039l-.567.127-.042-.579a23.84,23.84,0,0,0-.792-4.64,8.55,8.55,0,0,0-4.767,2.193,17.088,17.088,0,0,0,3.062,3.779l.41.412-.453.332a8.613,8.613,0,0,0,1.222,2.383l.04-.015Z" transform="translate(1574.57 -549.004)" fill="rgba(0,0,0,0)"/><path d="M-1492.047,565.1c.171-.073.35-.153.533-.239a19.544,19.544,0,0,0,.024,2.384c0,.083-.011.125-.025.125A13.394,13.394,0,0,1-1492.047,565.1Zm4.289,1.7c-.964-.862-2.362-1.94-2.919-2.363.145-.078.3-.166.466-.261.49.335,2.108,1.512,2.453,2.623l0,0Zm-2.126-.37c-.555-.2-1.136-1.128-1.433-1.664.184-.09.378-.188.576-.294a4.066,4.066,0,0,1,.858,1.958v0Zm-3.594-4.961c-.355-.239-2.149-1.493-2.511-2.665.978.876,2.4,1.97,2.965,2.4-.14.078-.292.167-.453.266h0Zm.5-.293a4.189,4.189,0,0,1-.887-2c.566.2,1.156,1.157,1.457,1.709-.18.086-.371.183-.569.292h0Zm.742-.373a19.763,19.763,0,0,0-.021-2.443c0-.083.01-.125.024-.125a12.146,12.146,0,0,1,.546,2.349c-.172.06-.356.134-.548.22h0Z" transform="translate(1576.375 -546.08)" fill="#ffb42e"/><path d="M-1491.515,567.869c-.4,0-.516-.385-.569-.57-.039-.135-.085-.321-.14-.567-.085-.378-.19-.9-.314-1.539l-.076-.4.371-.158c.168-.072.342-.149.517-.231l.19-.092c.177-.087.336-.168.484-.246l.138-.074c.15-.081.3-.167.453-.254l.273-.158.26.178c.669.457,2.265,1.654,2.649,2.888l-.232.072-.539.4-.04.045c-.4-.358-.878-.755-1.338-1.125.016.079.028.158.036.238l.7,1.3-1.388-.7a2.465,2.465,0,0,1-.955-.79c0,.362.016.746.047,1.1l0,.027v.027C-1491,567.839-1491.43,567.869-1491.515,567.869Zm-1.461-5.255-.813-.754c-.57-.387-2.284-1.638-2.677-2.91l-.532-1.722,1.343,1.2c.4.36.879.756,1.339,1.128a2.526,2.526,0,0,1-.045-.358l-.04-.75.707.253a2.4,2.4,0,0,1,.988.8c0-.363-.015-.747-.046-1.1l0-.025v-.025c.007-.6.471-.619.524-.619.392,0,.51.381.549.506s.077.274.127.488c.095.407.216,1,.362,1.762l.081.423-.406.143c-.157.055-.326.122-.5.2l-.456.227v.96l-.5-.538Z" transform="translate(1576.375 -546.08)" fill="rgba(0,0,0,0)"/></g></g></svg>