<svg xmlns="http://www.w3.org/2000/svg" width="20" height="20.001" viewBox="0 0 20 20.001"><path d="M196.684-186.344h-10.1a.585.585,0,0,1-.586-.586.586.586,0,0,1,.586-.586h10.1a2.935,2.935,0,0,1,2.87-2.344,2.935,2.935,0,0,1,2.871,2.344h2.989a.586.586,0,0,1,.586.586.585.585,0,0,1-.586.586h-2.989A2.936,2.936,0,0,1,199.554-184,2.936,2.936,0,0,1,196.684-186.344Zm-7.07-7.07h-3.028A.585.585,0,0,1,186-194a.586.586,0,0,1,.586-.586h3.028a2.935,2.935,0,0,1,2.871-2.344,2.935,2.935,0,0,1,2.87,2.344h10.059A.586.586,0,0,1,206-194a.585.585,0,0,1-.586.586H195.355a2.936,2.936,0,0,1-2.87,2.344A2.936,2.936,0,0,1,189.614-193.415Zm7.07-7.07h-10.1a.586.586,0,0,1-.586-.586.585.585,0,0,1,.586-.586h10.1a2.936,2.936,0,0,1,2.87-2.344,2.936,2.936,0,0,1,2.871,2.344h2.989a.585.585,0,0,1,.586.586.586.586,0,0,1-.586.586h-2.989a2.935,2.935,0,0,1-2.871,2.344A2.935,2.935,0,0,1,196.684-200.484Z" transform="translate(-186 204)" fill="#888"/></svg>