<svg xmlns="http://www.w3.org/2000/svg" width="13.072" height="13" viewBox="0 0 13.072 13"><path d="M12.244,3.578l1.011,1.083L11.667,6.25a.715.715,0,0,0,1.011,1.011l1.589-1.589L15.35,6.683A.364.364,0,0,0,16,6.467V3.361A.341.341,0,0,0,15.639,3H12.533c-.289,0-.506.361-.289.578ZM3.578,6.683,4.589,5.672,6.178,7.261A.715.715,0,0,0,7.189,6.25L5.672,4.661,6.683,3.578A.321.321,0,0,0,6.467,3H3.361A.341.341,0,0,0,3,3.361V6.467a.321.321,0,0,0,.578.217ZM6.683,15.35,5.6,14.339,7.189,12.75a.715.715,0,0,0-1.011-1.011L4.589,13.328,3.506,12.317c-.144-.289-.506-.072-.506.217v3.106A.341.341,0,0,0,3.361,16H6.467A.364.364,0,0,0,6.683,15.35Zm8.739-3.106-1.083,1.011L12.75,11.667a.715.715,0,0,0-1.011,1.011l1.589,1.589L12.317,15.35a.389.389,0,0,0,.289.65h3.106a.341.341,0,0,0,.361-.361V12.533c-.072-.289-.433-.506-.65-.289Z" transform="translate(-3 -3)" fill="#fff"/></svg>