<svg xmlns="http://www.w3.org/2000/svg" xmlns:xlink="http://www.w3.org/1999/xlink" width="100" height="100" viewBox="0 0 100 100"><defs><clipPath id="a"><circle cx="50" cy="50" r="50" transform="translate(1966 -575)" fill="#fff7ec"/></clipPath></defs><g transform="translate(-1966 575)" clip-path="url(#a)"><rect width="100" height="100" transform="translate(1966 -575)" fill="#eff3ee"/><g transform="translate(1849.537 -563)"><path d="M-1820.243,600.716a3.161,3.161,0,0,1-.815-.109c-4.146-2.011-4.162-12.408-1.776-19.81-6.319.369-16.345.151-21.978-4.113a25.274,25.274,0,0,0-2.426,8c-.248,1.532-.44,3.025-.572,4.438v0a8.8,8.8,0,0,1-.808-4.679,26.631,26.631,0,0,1,.931-5.423c.385-1.446.83-2.785,1.219-3.858-7.526-8.432-.885-14.528,16.38-11.266,9.545,1.8,14.028,6,15.29,9.731,6.409,3.638,1.469,27.089-5.445,27.091Z" transform="translate(1998.293 -562.999)" fill="#30323d"/><path d="M-1820.242,601.216h0v-1c1.611,0,2.974-1.539,3.833-2.831a24.417,24.417,0,0,0,2.951-7.054,31.8,31.8,0,0,0,1.071-10.049c-.244-3.178-1.187-5.388-2.657-6.222l-.166-.094-.061-.18a10.99,10.99,0,0,0-4.353-5.339,26.973,26.973,0,0,0-10.556-4.061,46.269,46.269,0,0,0-8.474-.885,18.742,18.742,0,0,0-6.813,1.054,5.554,5.554,0,0,0-3.234,2.71c-.893,1.994.033,4.68,2.607,7.564l.2.223-.1.281c-.474,1.306-.88,2.59-1.206,3.816a26.144,26.144,0,0,0-.915,5.32,12.144,12.144,0,0,0,.078,2.252c.091-.693.195-1.4.31-2.115a25.747,25.747,0,0,1,2.481-8.159l.278-.511.463.351c4.515,3.418,12.031,4.136,17.541,4.135,1.334,0,2.715-.041,4.107-.122l.729-.043-.224.7c-2.372,7.358-2.238,17.309,1.475,19.185a2.655,2.655,0,0,0,.639.08v1a3.668,3.668,0,0,1-.943-.126l-.046-.012-.043-.021a5.618,5.618,0,0,1-2.609-3.167,16.707,16.707,0,0,1-1.01-5.136,34.968,34.968,0,0,1,1.372-11.419c-1.167.057-2.324.086-3.447.086a49.134,49.134,0,0,1-9.572-.846,21.752,21.752,0,0,1-8.093-3.146,26.168,26.168,0,0,0-2.11,7.335c-.246,1.524-.437,3.006-.567,4.4l0,.053-.464,1.485-.488-1.379a9.328,9.328,0,0,1-.85-4.909,27.122,27.122,0,0,1,.948-5.527c.311-1.167.691-2.383,1.132-3.621a13,13,0,0,1-2.662-4.387,5.494,5.494,0,0,1,.086-4.027c1.258-2.809,5.15-4.355,10.96-4.355a47.264,47.264,0,0,1,8.66.9,27.948,27.948,0,0,1,10.947,4.226,12.288,12.288,0,0,1,4.663,5.661c1.7,1.071,2.73,3.456,3,6.916a32.841,32.841,0,0,1-1.1,10.381C-1813.847,595.724-1816.6,601.215-1820.242,601.216Z" transform="translate(1998.293 -562.999)" fill="rgba(0,0,0,0)"/><path d="M-1839.573,584.049c-4.523-3.512-12.36-9.3-9.256-16.092,2.79-6.1,8.5-5.6,10.463-3.6q.634.647,1.206,1.329a2.735,2.735,0,0,1,.285-.324c.817-.794,2.788-.989,3.542-.233,1.491,1.5,3.666,6.442,4.518,9.077l-2.312.913a6.136,6.136,0,0,1,.423,3.629,6.17,6.17,0,0,1-4.535,4.98,3.619,3.619,0,0,1-2.387,1.061A3.147,3.147,0,0,1-1839.573,584.049Z" transform="translate(1939.553 -494.561)" fill="#ffc5c5"/><path d="M-1837.626,585.285h0a3.647,3.647,0,0,1-2.253-.842l-.416-.322a38.844,38.844,0,0,1-7.355-6.834,11.737,11.737,0,0,1-2.2-4.476,7.881,7.881,0,0,1,.565-5.062c2.165-4.737,5.77-5.249,7.219-5.249a5.743,5.743,0,0,1,4.056,1.5c.291.3.579.607.861.927a3.656,3.656,0,0,1,2.348-.78,2.544,2.544,0,0,1,1.821.622c1.616,1.622,3.846,6.822,4.64,9.277l.145.447-2.281.9a6.673,6.673,0,0,1,.263,3.437,6.707,6.707,0,0,1-4.79,5.348A4.007,4.007,0,0,1-1837.626,585.285Zm-4.439-21.785c-1.256,0-4.385.455-6.309,4.665-1.243,2.722-.745,5.509,1.522,8.521a38.071,38.071,0,0,0,7.168,6.645l.417.323a2.676,2.676,0,0,0,1.64.631v0a3.113,3.113,0,0,0,2.052-.933l.1-.087.127-.029a5.68,5.68,0,0,0,4.155-4.581,5.618,5.618,0,0,0-.387-3.333l-.217-.479,2.36-.932c-.948-2.75-2.942-7.123-4.248-8.433a1.636,1.636,0,0,0-1.113-.328,2.642,2.642,0,0,0-1.727.567,2.25,2.25,0,0,0-.233.265l-.377.505-.406-.482c-.381-.453-.778-.891-1.18-1.3A4.8,4.8,0,0,0-1842.065,563.5Z" transform="translate(1939.553 -494.561)" fill="rgba(0,0,0,0)"/><path d="M-1798.622,644.684a7.1,7.1,0,0,1-4.443-2.28l-.009.019-46.464-33.719,12.119-14.126,32.429,20.3,3.835-26.476a10.116,10.116,0,0,1,.156-1.077v-.008h0a10.081,10.081,0,0,1,4.145-6.313,10.111,10.111,0,0,1,10.721-.511l-.615-4.218a5.933,5.933,0,0,1-.488-1.975l4.442-8.268,2.948,5.964,9.6-8.992,6.54,4.95q-.5,1.114-.995,2.1l-14.589,57.388-3.786-25.968-6.428,35.188q-.024.229-.059.46c-.672,4.368-4.263,7.614-8.231,7.615A7.415,7.415,0,0,1-1798.622,644.684Z" transform="translate(1948.223 -517.885)" fill="#f7e3dc"/><path d="M-1797.79,645.231h0a7.95,7.95,0,0,1-.889-.051,7.545,7.545,0,0,1-4.644-2.32l-.045-.033-46.9-34.037,12.752-14.865,32.144,20.119,3.723-25.7a10.646,10.646,0,0,1,.158-1.1l.052-.429h.043a10.56,10.56,0,0,1,4.262-6.224,10.549,10.549,0,0,1,6.043-1.9,10.675,10.675,0,0,1,4.33.919l-.467-3.207a6.4,6.4,0,0,1-.5-2.1l0-.133,4.963-9.239,3.08,6.23,9.417-8.82,7.193,5.444-.163.363c-.323.721-.653,1.416-.979,2.068l-14.576,57.336-.979-.051-3.347-22.954L-1789,636.728c-.016.153-.037.309-.06.464a9.837,9.837,0,0,1-3.036,5.738A8.442,8.442,0,0,1-1797.79,645.231Zm-5.416-3.72.509.554a6.567,6.567,0,0,0,4.132,2.121,6.937,6.937,0,0,0,.775.044c3.78,0,7.106-3.092,7.737-7.191.022-.145.041-.292.056-.436l.005-.037,6.428-35.188.987.018,3.425,23.487,13.985-55.012.025-.049c.273-.544.549-1.119.821-1.715l-5.886-4.455-9.785,9.164-2.817-5.7-3.914,7.287a5.779,5.779,0,0,0,.439,1.668l.026.06.771,5.288-.886-.5a9.662,9.662,0,0,0-4.718-1.231,9.554,9.554,0,0,0-5.473,1.717,9.569,9.569,0,0,0-3.94,6l-.011.054a9.644,9.644,0,0,0-.139.978l0,.027-3.945,27.235-32.715-20.476-11.485,13.388,45.531,33.042Z" transform="translate(1948.223 -517.885)" fill="rgba(0,0,0,0)"/><path d="M-1841.777,633.5h0l-.91-.969A57.876,57.876,0,0,1-1844.354,608l3.433,20.812-.856,4.689Z" transform="translate(2000.183 -512.936)" fill="#e8ccc5"/><path d="M-1841.472,634.573l-.673-.733-.992-1.057-.033-.119a58.384,58.384,0,0,1-1.677-24.75l.986,0,3.447,20.9-.872,4.78Zm-.767-2.295.148.158.662-3.631-2.867-17.377A59.455,59.455,0,0,0-1842.239,632.279Z" transform="translate(2000.183 -512.936)" fill="rgba(0,0,0,0)"/><path d="M106.548,38.6l-1.878,4.613,8.859,58.1-6.808,13.37-7.632-10.281,1.8-60.84L99.2,39.329l3.529-6.554Z" transform="translate(65.857 21.783)" fill="#30323d"/><path d="M-1832.2,678.62a31.985,31.985,0,0,1-3.552-.17l-4.7-41.891-9.077-55.026.006-.006a94.137,94.137,0,0,1,10.339-7.193,6.107,6.107,0,0,0,.487,1.936l7.46,51.165,14.588-57.388c.323-.64.657-1.345,1-2.1l19,2.532,12.019,56.867,15.04,40.576-.007,0a80.622,80.622,0,0,1-10.482,3.091,337.655,337.655,0,0,1-37.611,6.462A125.311,125.311,0,0,1-1832.2,678.62Z" transform="translate(2000.183 -517.887)" fill="#92a88a"/><path d="M-1832.2,679.12a32.472,32.472,0,0,1-3.609-.174l-.4-.045-4.747-42.273-9.12-55.282.229-.206a94.63,94.63,0,0,1,10.4-7.235l.7-.414.051.813a5.608,5.608,0,0,0,.448,1.771l.026.06.009.065,7.1,48.684,13.984-55.012.025-.049c.319-.633.651-1.331.986-2.077l.153-.34,19.724,2.627.073.346,12.011,56.831,15.175,40.941-.405.229-.029.012a81.111,81.111,0,0,1-10.554,3.114,338.122,338.122,0,0,1-37.667,6.472A125.779,125.779,0,0,1-1832.2,679.12Zm-3.1-1.126c.889.084,1.929.126,3.1.126a124.829,124.829,0,0,0,14.444-1.136,337.162,337.162,0,0,0,37.554-6.451,90.715,90.715,0,0,0,9.968-2.9l-14.882-40.15-.008-.036-11.946-56.521-18.286-2.436c-.28.614-.557,1.193-.826,1.728l-14.575,57.336-.979-.051-7.451-51.1a6.99,6.99,0,0,1-.389-1.258,94.871,94.871,0,0,0-9.417,6.591l9.033,54.764Z" transform="translate(2000.183 -517.887)" fill="rgba(0,0,0,0)"/><path d="M-1833.014,604.921h0a30.215,30.215,0,0,1-11.523-8.5c-.231-.635-.483-1.3-.75-2.008l-.01-.026a54.7,54.7,0,0,1-3.847-14.278c.023.141.048.3.082.488l16.05,24.326Z" transform="translate(2043.251 -510.638)" fill="#e8ccc5"/><path d="M-1831.675,606.06l-1.544-.683a30.706,30.706,0,0,1-11.708-8.644l-.054-.066-.029-.08c-.226-.621-.473-1.274-.734-1.965l-.024-.062a55.113,55.113,0,0,1-3.878-14.408l.991-.129c.019.114.039.236.063.38l16,24.245Zm-12.424-9.9a29.154,29.154,0,0,0,9.7,7.559l-13.9-21.06a62.047,62.047,0,0,0,3.465,11.541l.024.064C-1844.557,594.933-1844.319,595.562-1844.1,596.165Z" transform="translate(2043.251 -510.638)" fill="rgba(0,0,0,0)"/><path d="M-1831.417,603.42h0l-2.914-5.9-.632-2.955a23.154,23.154,0,0,1-3.24.227c-.693,0-1.4-.031-2.106-.093a8.613,8.613,0,0,1-6.318-3.293c-1.654-2.126-2.613-5.277-2.849-9.365a51.735,51.735,0,0,1,.735-11.044,25.286,25.286,0,0,1,2.425-8c4.624,3.5,12.254,4.237,17.841,4.237a73.766,73.766,0,0,0,7.559-.4,21.225,21.225,0,0,1,1.419,8.737,7.5,7.5,0,0,1,2.529-.659c.1-.007.19-.011.281-.011a2.37,2.37,0,0,1,2.063.983c.813,1.154.777,3.218-.1,5.662-.824,2.3-2.78,3.9-4.756,3.9a3.543,3.543,0,0,1-1.192-.205,5.36,5.36,0,0,1-.7-.307,16.241,16.241,0,0,1-1.873,3.139l1.369,6.4-9.542,8.937Z" transform="translate(1999.797 -549.315)" fill="#ffc5c5"/><path d="M-1831.564,604.242l-.3-.6-2.943-5.953-.549-2.565a23.747,23.747,0,0,1-2.848.171c-.708,0-1.432-.032-2.15-.095a9.1,9.1,0,0,1-6.669-3.484c-1.717-2.207-2.711-5.452-2.954-9.643a52.233,52.233,0,0,1,.741-11.153,25.763,25.763,0,0,1,2.48-8.159l.278-.511.464.351c4.514,3.418,12.029,4.136,17.539,4.136a73.274,73.274,0,0,0,7.507-.4l.371-.039.143.344a21.207,21.207,0,0,1,1.468,8.187,7.814,7.814,0,0,1,1.982-.416c.105-.008.213-.012.317-.012a2.88,2.88,0,0,1,2.471,1.195c.908,1.29.895,3.52-.036,6.119-.894,2.494-3.044,4.236-5.227,4.236a4.042,4.042,0,0,1-1.359-.234q-.148-.053-.293-.113a16.687,16.687,0,0,1-1.575,2.593l1.381,6.457-.206.193Zm-2.292-6.884,2.589,5.237,8.845-8.284-1.358-6.353.14-.183a15.734,15.734,0,0,0,1.815-3.042l.22-.483.469.248a4.848,4.848,0,0,0,.634.278,3.043,3.043,0,0,0,1.024.176c1.769,0,3.531-1.469,4.286-3.573.807-2.255.867-4.2.16-5.205a1.874,1.874,0,0,0-1.654-.771c-.079,0-.161,0-.243.009a6.994,6.994,0,0,0-2.36.615l-.728.331.022-.8a21.049,21.049,0,0,0-1.243-8.188c-1.76.175-4.341.367-7.235.367-5.476,0-12.9-.7-17.663-3.992a26.186,26.186,0,0,0-2.109,7.335,51.245,51.245,0,0,0-.73,10.935c.231,3.986,1.154,7.043,2.745,9.087a8.131,8.131,0,0,0,5.967,3.1c.689.06,1.383.091,2.062.091a22.651,22.651,0,0,0,3.17-.222l.462-.065Z" transform="translate(1999.797 -549.315)" fill="rgba(0,0,0,0)"/><path d="M-1832.2,602.185a6.573,6.573,0,0,1-2.279-.389l-.5-2.294a17.631,17.631,0,0,0,11.761-6.533l.284,1.52a11.152,11.152,0,0,1-3.87,5.777A9.02,9.02,0,0,1-1832.2,602.185Z" transform="translate(1999.798 -554.247)" fill="#ff9797"/><path d="M-1832.2,602.685h0a7.07,7.07,0,0,1-2.452-.42l-.258-.095-.669-3.088.532-.076a17.137,17.137,0,0,0,11.434-6.341l.683-.9.513,2.749-.034.116a11.649,11.649,0,0,1-4.047,6.032A9.522,9.522,0,0,1-1832.2,602.685Zm-1.85-1.271a6.183,6.183,0,0,0,1.85.271,8.519,8.519,0,0,0,5.1-1.818,10.63,10.63,0,0,0,3.66-5.407l-.063-.341a18.263,18.263,0,0,1-10.867,5.795Z" transform="translate(1999.798 -554.247)" fill="rgba(0,0,0,0)"/><path d="M138.666,87.8s-.228,6.675-4.153,11.528c-5.4,6.678-16.13,2.3-12.934-4.516,0,0-3.041.922-4.623-.659-1.378-1.378.751-4.273,8.776-9.239Z" transform="translate(77.472 56.434)" fill="#ffc5c5"/><path d="M-1822.287,658.527h0l-15.7-7.365,14.081-38.5-21.125-32.018a22.211,22.211,0,0,1,.106-9.645,13.283,13.283,0,0,1,1.992-4.264,14.273,14.273,0,0,1,3.78-3.591,10.149,10.149,0,0,1,1.358-.092,10.156,10.156,0,0,1,3.254.537,10.123,10.123,0,0,1,5.825,5.042l23.4,38.686a8.672,8.672,0,0,1,1.289,2.355,8.678,8.678,0,0,1-.625,7.252l-17.627,41.606Z" transform="translate(2039.221 -510.686)" fill="#f7e3dc"/><path d="M-1822.441,659.924l-.271-1.045-15.907-7.46.157-.43,13.994-38.267-21.043-31.894-.018-.1a22.691,22.691,0,0,1,.116-9.861,13.777,13.777,0,0,1,2.067-4.423,14.77,14.77,0,0,1,3.911-3.718l.1-.063.114-.015a10.653,10.653,0,0,1,1.425-.1,10.655,10.655,0,0,1,3.414.563,10.62,10.62,0,0,1,6.1,5.273l23.375,38.647a9.173,9.173,0,0,1,1.346,2.468,9.177,9.177,0,0,1-.647,7.644l-17.632,41.613Zm-14.925-9.021,14.821,6.951,17.436-41.155.015-.026a8.179,8.179,0,0,0,.589-6.835,8.171,8.171,0,0,0-1.214-2.22l-.017-.022-.015-.024-23.417-38.719a9.625,9.625,0,0,0-5.539-4.794,9.655,9.655,0,0,0-3.094-.511,9.646,9.646,0,0,0-1.178.073,13.731,13.731,0,0,0-3.553,3.4,12.787,12.787,0,0,0-1.917,4.1,21.629,21.629,0,0,0-.114,9.326l21.206,32.141Z" transform="translate(2039.221 -510.686)" fill="rgba(0,0,0,0)"/><path d="M-1822.287,658.527h0l-15.7-7.365,14.081-38.5-21.125-32.018a22.211,22.211,0,0,1,.106-9.645,13.283,13.283,0,0,1,1.992-4.264,14.273,14.273,0,0,1,3.78-3.591,10.149,10.149,0,0,1,1.358-.092,10.156,10.156,0,0,1,3.254.537,10.123,10.123,0,0,1,5.825,5.042l23.4,38.686a8.672,8.672,0,0,1,1.289,2.355,8.678,8.678,0,0,1-.625,7.252l-17.627,41.606Z" transform="translate(2039.221 -510.686)" fill="#f7e3dc"/><path d="M-1822.441,659.924l-.271-1.045-15.907-7.46.157-.43,13.994-38.267-21.043-31.894-.018-.1a22.691,22.691,0,0,1,.116-9.861,13.777,13.777,0,0,1,2.067-4.423,14.77,14.77,0,0,1,3.911-3.718l.1-.063.114-.015a10.653,10.653,0,0,1,1.425-.1,10.655,10.655,0,0,1,3.414.563,10.62,10.62,0,0,1,6.1,5.273l23.375,38.647a9.173,9.173,0,0,1,1.346,2.468,9.177,9.177,0,0,1-.647,7.644l-17.632,41.613Zm-14.925-9.021,14.821,6.951,17.436-41.155.015-.026a8.179,8.179,0,0,0,.589-6.835,8.171,8.171,0,0,0-1.214-2.22l-.017-.022-.015-.024-23.417-38.719a9.625,9.625,0,0,0-5.539-4.794,9.655,9.655,0,0,0-3.094-.511,9.646,9.646,0,0,0-1.178.073,13.731,13.731,0,0,0-3.553,3.4,12.787,12.787,0,0,0-1.917,4.1,21.629,21.629,0,0,0-.114,9.326l21.206,32.141Z" transform="translate(2039.221 -510.686)" fill="rgba(0,0,0,0)"/></g></g></svg>