<svg xmlns="http://www.w3.org/2000/svg" xmlns:xlink="http://www.w3.org/1999/xlink" width="100" height="100" viewBox="0 0 100 100"><defs><clipPath id="a"><circle cx="50" cy="50" r="50" transform="translate(1666 -409)" fill="#fff7ec"/></clipPath></defs><g transform="translate(-1666 409)" clip-path="url(#a)"><rect width="100" height="100" transform="translate(1666 -409)" fill="#fff3f3"/><g transform="translate(1574.122 -394.266)"><path d="M137.51,72.586s3.145,3.377,2.044,5.894-2.726,3.438-3.013,6.12-5.6,7.087-7.741,1.741,8.71-13.755,8.71-13.755" transform="translate(41.622 23.507)" fill="#3e2861"/><path d="M137.869,58.964s1.262,10.09,5.036,13.077l-6.762-2.83Z" transform="translate(44.09 19.096)" fill="#3e2861"/><path d="M122.225,41.055s10.441,1.72,12.8,5.18,1.415,2.987,5.661,4.717S147.6,74.7,142.571,87.275,129.673,103.456,119.3,98.2s-3.9-49.27,2.927-57.141" transform="translate(36.876 13.296)" fill="#442d7a"/><path d="M126.219,90.105c7-15.17,9.66-30.341,4.99-46.515a45.03,45.03,0,0,0-8.984-2.535C115.6,48.7,109.3,90.427,118.448,97.639c3.581-1.865,6.415-4.369,7.771-7.534" transform="translate(36.876 13.296)" fill="#442d7a" style="mix-blend-mode:multiply;isolation:isolate"/><path d="M134.478,30.89s-29.881,4.553-50.5-18.46c0,0,35.221-1.17,50.5,18.46" transform="translate(27.195 4.021)" fill="#0a263c"/><path d="M98.1,12.594s-8.89,12.333-8.044,20.639,3.811,11.549,2.54,16.008,2.116,9.117,5.5,12.358,19.773,5.47,25.446,0,2.211-9.928,5.528-14.79,3.537-16.626-1.552-22.32S108.471,3.7,98.1,12.594" transform="translate(29.146 3.191)" fill="#231f20"/><path d="M103.4,42.06c-4.279.258-11.961,35.275-19.286,41.36-2.154,2.288-2.513,1.083-2.167,3.349.119.78,5.674,10.231,12.532,7.073,10.355-4.766,13.2-52.038,8.921-51.783" transform="translate(26.5 13.621)" fill="#ffda6a"/><path d="M106.825,35.66l-9.7,4.749a66.225,66.225,0,0,1,1.28,9.536s10.225-3.786,8.424-14.284" transform="translate(31.453 11.549)" fill="#ffc807"/><path d="M-1562.271,437.184a19.965,19.965,0,0,0,.294-8.986,10.187,10.187,0,0,1-2.22.509c-1.373.137-5.93-1.359-6.633-1.914-2.314-1.828-3.146-9.043-3.289-11.039s4.469-17.1,4.469-17.1,5.824-6.42,14.209-3.724,8.843,12.337,8.843,12.337-2.219,7.765-4.148,12.235c.41,3.716,1.483,10.076,4.148,12.587,0,0-6,8.2-11.759,8.645l-.074,0C-1559.967,440.733-1562.271,437.184-1562.271,437.184Z" transform="translate(1697.273 -385.05)" fill="#f58f6b"/><path d="M-1558.43,441.233h0c-.8,0-1.741-.637-2.875-1.947a18.59,18.59,0,0,1-1.386-1.829l-.125-.192.064-.22a20,20,0,0,0,.4-8.2,9.974,9.974,0,0,1-1.8.365c-.075.007-.157.011-.245.011a19.512,19.512,0,0,1-6.747-2.031c-2.788-2.2-3.451-11.022-3.477-11.4-.025-.329-.1-1.337,2.2-9.474,1.125-3.985,2.283-7.773,2.295-7.811l.033-.107.075-.083a14.485,14.485,0,0,1,2.859-2.281,14.514,14.514,0,0,1,7.6-2.268,13.946,13.946,0,0,1,4.27.685,12.125,12.125,0,0,1,5.13,3.2,14.1,14.1,0,0,1,2.745,4.264,17.1,17.1,0,0,1,1.314,5.328l0,.082-.023.079c-.022.077-2.209,7.707-4.117,12.173.4,3.571,1.447,9.761,3.979,12.147l.321.3-.26.356a34.737,34.737,0,0,1-3.778,4.224c-3.031,2.876-5.839,4.431-8.347,4.624-.037,0-.074,0-.112,0Zm-3.3-4.136c.918,1.361,2.466,3.136,3.3,3.136h.036c4.821-.37,9.947-6.58,11.137-8.105a14.2,14.2,0,0,1-2.742-5.75,45.582,45.582,0,0,1-1.243-6.823l-.015-.132.052-.121c1.788-4.142,3.858-11.243,4.1-12.091a16.625,16.625,0,0,0-1.244-4.937,11.561,11.561,0,0,0-7.248-6.87,12.947,12.947,0,0,0-3.963-.637,14.3,14.3,0,0,0-9.649,4.144c-1.846,6.039-4.52,15.415-4.414,16.806.174,2.43,1.07,9.082,3.1,10.685a19.942,19.942,0,0,0,6.127,1.815c.055,0,.1,0,.147-.006a9.7,9.7,0,0,0,2.11-.485l.518-.175.128.532A20.143,20.143,0,0,1-1561.73,437.1Z" transform="translate(1697.273 -385.05)" fill="rgba(0,0,0,0)"/><path d="M-1561.637,433.1v0a17.02,17.02,0,0,0-.287-4.92c4.449-1.52,9.339-5.584,9.636-5.9a10.864,10.864,0,0,0,1.566-2.84,45.965,45.965,0,0,0,.991,5.72,30.907,30.907,0,0,0-11.9,7.938Z" transform="translate(1697.273 -385.05)" fill="#ef6a46"/><path d="M-1562.259,434.524l.124-1.464a16.52,16.52,0,0,0-.277-4.773l-.1-.436.423-.144c4.351-1.487,9.122-5.446,9.437-5.769a9.984,9.984,0,0,0,1.468-2.692l.743-1.729.213,1.87a45.481,45.481,0,0,0,.979,5.657l.106.431-.415.156a30.408,30.408,0,0,0-11.712,7.807Zm.912-6.019a16.858,16.858,0,0,1,.269,3.295,31.614,31.614,0,0,1,10.76-6.946c-.263-1.129-.49-2.348-.678-3.643a6.453,6.453,0,0,1-.928,1.417A36.352,36.352,0,0,1-1561.348,428.5Z" transform="translate(1697.273 -385.05)" fill="rgba(0,0,0,0)"/><path d="M-1570.83,412.3c-2.314-1.828-3.146-9.043-3.289-11.039a39.757,39.757,0,0,1,1.539-6.991c7.2,1.863,14.582,3.8,21.066,6.928a23.457,23.457,0,0,1,2.348-2.841,4.978,4.978,0,0,1,4.234.986c1.7,1.607-1.072,3.715-1.733,4.463-.573.644-2.47,2.763-4.558,2.248a7.431,7.431,0,0,1-1.066,1.74c-.393.412-7.123,5.946-11.909,6.421q-.089.009-.2.009A19.749,19.749,0,0,1-1570.83,412.3Z" transform="translate(1697.273 -370.554)" fill="#f58f6b"/><path d="M111.329,7.623c-8.385-2.7-14.209,3.724-14.209,3.724s-1.639,5.355-2.932,10.11c7.91,2.048,16.038,4.183,22.957,7.89,1.575-4.308,3.028-9.389,3.028-9.389s-.453-9.636-8.843-12.336" transform="translate(30.503 2.254)" fill="#ef6a46"/><path d="M130.938,26.628h0c-1.611-3.572,1.6-14.505,1.246-18.012s-11.352-3.217-14.982-6-10.116-4.59-12.439,1.284c-2.972,7.508-6.912,8.608-7.006,9.08L83.974,16.451a148.6,148.6,0,0,1,50.5,18.46Z" transform="translate(27.195 0)" fill="#2b5484"/><path d="M133.483,34.529l-3.54-8.283c-1.611-3.572,1.6-14.505,1.246-18.012s-11.352-3.216-14.982-6a13.375,13.375,0,0,0-1.594-1.048c-3.375,1.992,8.1,9.344,1.235,10-1.459-.559-4.841-1.323-7.484-2.334-6.448-.694-6.28,2.237-6.323,4.011,2.916,1.113,6.8,2.7,9.108,5.27-6.7-5.554-16.262-4.219-24.1-1.341,8.222,1.631,27.673,6.4,46.438,17.741" transform="translate(28.19 0.382)" fill="#2b5484" opacity="0.6" style="mix-blend-mode:multiply;isolation:isolate"/><path d="M126.635,21.671s-20.514-10.795-30.562-11.2a77.755,77.755,0,0,1,30.516,8.867Z" transform="translate(31.114 3.392)" fill="#2b5484" opacity="0.6" style="mix-blend-mode:multiply;isolation:isolate"/><path d="M119.1,22.735s4.232-14.709,1.09-16.687S116.379,4.9,115.025,4.6c0,0,4.109.834,4.226,3.829s-4.99,11.96-4.99,11.96Z" transform="translate(37.004 1.489)" fill="#2a5484" opacity="0.6" style="mix-blend-mode:multiply;isolation:isolate"/><path d="M126.45,86.543c2.133-9.774,9.451-28.389,4.721-39.669s-9.35-13.521-9.35-13.521l-16.83,9.456a40.37,40.37,0,0,0-2.787,6.225l-3.075,2.642s.5,2.882-1.708,7.555a20.633,20.633,0,0,1-3.713,4.717c-6.4,5.638-.046,14.239,1.876,16.213s-.025,33.684-2.423,42.042c0,0,23.935,7.948,45.608-3.708,0,0-14.452-22.179-12.318-31.953" transform="translate(29.444 10.801)" fill="#ffc807"/><path d="M118.532,31.884,99.682,44.446s2.364,3.369-2.562,7.706c0,0,10.791-7.685,11.306-1.182L121.65,34.8Z" transform="translate(31.453 10.326)" fill="#ffda6a"/><path d="M127.269,47.83s-8.34-9.873-11.642-7.816-6.315,13.8-3.344,23.62c0,0-9-23.509,2.253-25.4s18.417,12.7,18.417,12.7Z" transform="translate(35.259 12.329)" fill="#3e2861"/><path d="M114.872,38.986c-8.89,1.458-1.54,33.99,0,40.1s-2.395,5.518-2,7.486-1.131,3.942.193,5.126,12.283,5.317,13.662,3.151,2.125-3.349,3.307-5.121.553-7.49.553-7.49-3.067-45.314-15.713-43.248" transform="translate(35.804 12.603)" fill="#ffda6a"/><path d="M133.593,53.2s2.935-7.424-.733-11.312-6.7,1.9-6.7,1.9l-1.73-.568s5.6-8.518,10.732-2.676,1.362,15.1,1.362,15.1L133.173,53.3" transform="translate(40.298 12.466)" fill="#3e2861"/></g></g></svg>