<svg xmlns="http://www.w3.org/2000/svg" width="20" height="19.437" viewBox="0 0 20 19.437"><path d="M76.374,10.483H71.051a.769.769,0,1,1,0-1.538h5.323l-.738-.738a.769.769,0,0,1,1.087-1.088L78.774,9.17a.78.78,0,0,1,.164.246.742.742,0,0,1,0,.595.78.78,0,0,1-.164.246l-2.051,2.052a.769.769,0,1,1-1.12-1.053c.01-.012.022-.023.033-.034ZM60.364,1.59A1.794,1.794,0,0,0,59,3.334V16.145a1.794,1.794,0,0,0,1.363,1.743l6.154,1.538a2.07,2.07,0,0,0,.431,0,1.835,1.835,0,0,0,1.108-.379,1.856,1.856,0,0,0,.338-.359h5.733a1.8,1.8,0,0,0,1.795-1.8V14.842a.769.769,0,1,0-1.538,0v2.052a.258.258,0,0,1-.256.256H68.744V2.278h5.385a.258.258,0,0,1,.256.256V4.586h0a.769.769,0,0,0,1.538,0V2.534A1.8,1.8,0,0,0,74.128.739H68.394A1.856,1.856,0,0,0,68.056.38,1.809,1.809,0,0,0,66.518.052L60.364,1.591" transform="translate(-59 0)" fill="#fff"/></svg>