<svg xmlns="http://www.w3.org/2000/svg" width="13.034" height="20" viewBox="0 0 13.034 20"><path d="M6.493,20c-.5-.653-1.01-1.294-1.494-1.952a35.434,35.434,0,0,1-3.282-5.316A17.744,17.744,0,0,1,.237,8.707a8.217,8.217,0,0,1-.118-3.32A6.492,6.492,0,0,1,1.926,1.9,6.33,6.33,0,0,1,5.653.058,6.487,6.487,0,0,1,12.814,4.91,7.81,7.81,0,0,1,12.9,8.227,16.527,16.527,0,0,1,11.4,12.562a37.856,37.856,0,0,1-4.783,7.318c-.025.031-.05.06-.077.09a.325.325,0,0,1-.05.031M6.508,9.965A3.286,3.286,0,1,0,3.231,6.68,3.286,3.286,0,0,0,6.508,9.965" transform="translate(0 0)" fill="#666"/></svg>