<svg xmlns="http://www.w3.org/2000/svg" width="24.549" height="37.132" viewBox="0 0 24.549 37.132"><g transform="translate(541.5 -577.368)"><ellipse cx="7.5" cy="8" rx="7.5" ry="8" transform="translate(-537 582)" fill="#fff"/><path d="M11.73,36.132c-.9-1.179-1.824-2.337-2.7-3.527A64.015,64.015,0,0,1,3.1,23,32.056,32.056,0,0,1,.428,15.73a14.845,14.845,0,0,1-.214-6A11.728,11.728,0,0,1,3.48,3.44,11.435,11.435,0,0,1,10.213.105,11.719,11.719,0,0,1,23.149,8.87a14.109,14.109,0,0,1,.147,5.992,29.858,29.858,0,0,1-2.7,7.832,68.391,68.391,0,0,1-8.641,13.22c-.045.056-.091.108-.139.162a.588.588,0,0,1-.09.056M11.758,18a5.936,5.936,0,1,0-5.92-5.934A5.937,5.937,0,0,0,11.758,18" transform="translate(-541 577.868)" fill="#f5813c"/><path d="M11.73,36.632a.5.5,0,0,1-.4-.2c-.284-.37-.574-.745-.855-1.107-.613-.79-1.247-1.607-1.85-2.427a64.2,64.2,0,0,1-5.974-9.679A32.149,32.149,0,0,1-.06,15.838a15.311,15.311,0,0,1-.217-6.2,12.265,12.265,0,0,1,3.4-6.554A11.958,11.958,0,0,1,10.147-.39,12.642,12.642,0,0,1,11.8-.5a12.05,12.05,0,0,1,7.552,2.628,12.325,12.325,0,0,1,4.283,6.619,14.514,14.514,0,0,1,.155,6.2,29.975,29.975,0,0,1-2.74,7.963,68.616,68.616,0,0,1-8.7,13.315c-.054.068-.108.128-.155.181a.593.593,0,0,1-.158.124l-.043.026A.5.5,0,0,1,11.73,36.632ZM11.8.5a11.639,11.639,0,0,0-1.521.1A10.979,10.979,0,0,0,3.834,3.794,11.283,11.283,0,0,0,.706,9.825a14.338,14.338,0,0,0,.211,5.8A31.186,31.186,0,0,0,3.55,22.78a63.214,63.214,0,0,0,5.883,9.529c.6.81,1.226,1.622,1.835,2.407l.5.642A67.3,67.3,0,0,0,20.15,22.475a29.013,29.013,0,0,0,2.654-7.7,13.536,13.536,0,0,0-.14-5.783A11.2,11.2,0,0,0,11.8.5Zm.014,18h-.061A6.436,6.436,0,0,1,11.78,5.63h.131a6.437,6.437,0,0,1-.1,12.872ZM11.78,6.63A5.436,5.436,0,0,0,11.758,17.5h.056a5.437,5.437,0,0,0,.077-10.872Z" transform="translate(-541 577.868)" fill="#fff"/></g></svg>