<svg xmlns="http://www.w3.org/2000/svg" xmlns:xlink="http://www.w3.org/1999/xlink" width="100" height="100" viewBox="0 0 100 100"><defs><clipPath id="a"><circle cx="50" cy="50" r="50" transform="translate(1966 -409)" fill="#fff7ec"/></clipPath></defs><g transform="translate(-1966 409)" clip-path="url(#a)"><rect width="100" height="100" transform="translate(1966 -409)" fill="#f3f8ff"/><g transform="translate(1921.535 -397)"><path d="M123.423,49.324l.01.924.079,7.636L112.346,67.25l-3.627-3.6-5.883-5.832-.1-9.386Z" transform="translate(-18.59 -8.764)" fill="#ffd5b3"/><path d="M123.423,49.324l.01.924.079,7.636L112.346,67.25l-3.627-3.6-5.883-5.832-.1-9.386Z" transform="translate(-18.59 -8.764)" fill="#fcc9a2"/><path d="M95.287,24.511a4.6,4.6,0,0,0,.586.276c.768.209.574-.86.551-1.32a12.11,12.11,0,0,0-.243-1.823c-.679-3.367-2.644-7.3-.378-10.488a8.583,8.583,0,0,1,5.9-3.3c1.22-.161,2.071-.361,2.792-.418,8.155-.637,10.642-2.926,14.787-1.606a22.2,22.2,0,0,1,3.9,1.942,5.427,5.427,0,0,1,2.148,1.864,5.274,5.274,0,0,1,.875,3.438,27.9,27.9,0,0,0,.152,3.282c-.011,2.667-.873,5.286-.553,7.964.068.559.168,1.828,1.08,1.256.568-.356.468-1.208.577-1.217.272-.022,2.261,4.994.069,8.014a17,17,0,0,1-2.379,2.455c-.97.979-.787,2.879-1.141,4.093a15.732,15.732,0,0,1-1.111,2.239,15.356,15.356,0,0,1-8,6.553l-7.108.075A15.365,15.365,0,0,1,99.656,41.4a15.776,15.776,0,0,1-1.16-2.216c-.378-1.207-.235-3.109-1.224-4.068-.894-.866-1.784-1.2-2.43-2.4a13.522,13.522,0,0,1-1.394-6.891c.043-1,.81-1.761,1.84-1.309" transform="translate(-16.906 -0.981)" fill="#ffd5b3"/><path d="M127.7,21.663a8.8,8.8,0,0,0-.556,3.255c.007.161.025.409.022.673l-1.65.017a7.765,7.765,0,0,1,0-.815,18.62,18.62,0,0,0-.061-2.465,32.181,32.181,0,0,0-1.665-6.76c-17.642-4.749-23.545-2.883-25.477,0-2.279,3.4-.312,10.14-1.383,10.336-.45.083-1.175-.994-1.778-2.695C93.5,18.541,92.826,16.2,93.086,12.668A12.619,12.619,0,0,1,97.424,3.9a19.892,19.892,0,0,1,3.121-1.764A7.154,7.154,0,0,1,104.8.949c.129.016,1.624.125,1.437.285.783-.669,2.164-.73,3.135-.957,5.181-1.209,11.777,1.732,15.583,4.909,3.4,2.834,4.578,7.9,4.034,12.138a22.988,22.988,0,0,1-1.291,4.338" transform="translate(-16.834)" fill="#4f2018"/><path d="M167.176,118.448c-3.114-11.731-4.673-25.452-7.353-37-1.1-4.754-4.6-10.194-10.012-10.169,0-.048-10.169-2.026-12.861-2.8-1.632-.471-3.522-1.96-5.105-2.186-3.168-.455-5.064,4.353-6.041,6.689-1.682,4.019-3.245,8.114-4.89,12.126-1.287,3.139-4.038,5.41-5,8.8-1.623,5.74-4.06,11.467-4.778,17.42-.474,3.933.414,7.587.645,11.474.051.87-.1,7.269-.314,15.465h30.787a49.612,49.612,0,0,1-3.4,4.85c-.658.863,14.272,1.383,16.939-1.329,3.165-3.218,7.054-6.57,9-10.726a11.175,11.175,0,0,0,.616-1.61c1.271-4.291,2.974-6.4,1.754-11" transform="translate(-20.086 -11.99)" fill="#2c546f"/><path d="M76.3,77.018c.135,5.261.419,10.516.635,15.773.22,5.305.383,10.619.24,15.931-.133,4.923-1.294,9.862-1.387,14.732-.061,3.237-.207,8.278-.423,14.132H105.2c.006-.232.012-.481.017-.708,0,0,.889-35.556.2-35.569-.011,0-.016.057-.314.886l-.206.571.016-.236L99.2,78.063l-2.686-15.55S91.494,64.5,89.2,65.371a47.373,47.373,0,0,1-7.543,2.5c-1.623.322-8.531,2.514-9.211,4.3-.564,1.482,3.805,3.229,3.847,4.848" transform="translate(-13.1 -11.311)" fill="#25485b"/><path d="M104.739,92.75a54.628,54.628,0,0,1,3.422,9.024c.491,1.6.926,4.081,2.763,4.284,2.275.251,4.275-3.828,5.3-5.475,1.52-2.436,2.878-4.946,4.384-7.367.183-2.444.047-5.437.915-7.756.7-1.878,2.166-2.828,2-5.122a4.108,4.108,0,0,0-2.148-3.42A11.316,11.316,0,0,1,118.75,75.8a18.974,18.974,0,0,1-1.916-2.346c-.792-.93-2.294-3.035-3.7-3.035-2.483-.493-5.957,4.992-7.7,6.661a18.455,18.455,0,0,0-5.087,8.992,37.73,37.73,0,0,1,4.39,6.673" transform="translate(-18.158 -12.737)" fill="#cad9e0"/><path d="M106.376,96.067,111.157,78.6a2.446,2.446,0,0,0-.089-1.632l-1.175-2.677a.527.527,0,0,1,.129-.5l1.721-1.85a5.666,5.666,0,0,0,1.1-1.351c.179-.379.654-1.238,1.107-.924.4.272.5.74.738,1.125a7.767,7.767,0,0,0,.928,1.018l1.286,1.412a.447.447,0,0,1,.053.48l-1.587,2.9a2.772,2.772,0,0,0-.339,1.664l2.112,16.675a.462.462,0,0,1-.038.251l-5.8,13.236a.456.456,0,0,1-.528.276.328.328,0,0,1-.495-.155l-3.905-12.228a.429.429,0,0,1,0-.249" transform="translate(-19.245 -12.594)" fill="#113747"/><path d="M101.581,56.258l10.513,10.31a.417.417,0,0,0,.592-.047L124.63,54.7l4.9,8.855L120.085,79.7l-7.406-12.24a.424.424,0,0,0-.722.057L102.4,81.338,98.559,64.612Z" transform="translate(-17.834 -9.897)" fill="#fffdfd"/><path d="M138.216,72.8c-.257-1.189.011-4.084-1.595-5.895a21.419,21.419,0,0,0-6.29-4.934L123.74,79.453l-2,4.914-9.48,21.835-.3,17.568s4.954-14.278,9.126-22.644a90.443,90.443,0,0,1,15.735-22.282l-5.836-3.909Z" transform="translate(-20.258 -11.214)" fill="#25485b"/><path d="M88.357,73.787C88.759,72.639,89.5,68.6,91.32,67a25.2,25.2,0,0,1,6.649-4.435l4.587,18.475,1.378,5.124,4.821,18.475-.9,20.161s-2.227-13.107-5.335-21.924A90.49,90.49,0,0,0,89.652,78.825l6.272-3.16Z" transform="translate(-15.988 -11.321)" fill="#2c546f"/><path d="M73.647,70.785c-2.967,1.158-7.068,2.048-9.054,4.781-2.7,3.723-4.312,9.922-5.392,14.318-2.569,10.452-5.231,20.407-7.065,31.14-.531,3.108.027,6.728.251,9.854a6.684,6.684,0,0,0,.565,2.636,6.932,6.932,0,0,0,2.288,2.252q9.605,6.863,19.209,13.727a4.619,4.619,0,0,0,2.011.985,4.628,4.628,0,0,0,2.824-.918q4.737-2.8,9.475-5.6c.862-.509-8.178-9.125-8.974-9.788-3.976-3.313-4.543-4.444-4.751-9.969C74.628,113.461,77.9,102.977,77.9,92.25c0-4.117-1.03-8.1-1.942-12.089A16.56,16.56,0,0,1,75.378,75c.139-1.528,1.107-3.067.92-4.609a.522.522,0,0,0-.168-.374.578.578,0,0,0-.531.019c-.63.24-1.283.489-1.953.749" transform="translate(-9.394 -12.659)" fill="#25485b"/><path d="M104.145,120.576c-.969,0-1.768-.508-1.787-1.138l-.212-6.857c-.018-.618.688-1.111,1.6-1.169L73.571,95.622a5.378,5.378,0,0,0-.627,3.174l3.618,32.933c.306,2.786,3.22,5.008,6.513,5.008h59.684a7.088,7.088,0,0,0,5.184-2.194l-26.687-13.967Z" transform="translate(-13.193 -17.302)" fill="#5e7477"/><path d="M108.6,116.069l.211,6.858c.02.629.819,1.138,1.788,1.138h17.11L110.2,114.9c-.91.059-1.615.55-1.6,1.169" transform="translate(-19.651 -20.791)" fill="#6a8284"/><path d="M153.045,98.123l-3.624,32.925a5.092,5.092,0,0,1-1.327,2.808L121.4,119.9h.434c.97,0,1.761-.506,1.786-1.141l.2-6.859c.025-.654-.767-1.2-1.761-1.2H104.052c-.051,0-.1.021-.154.021L73.712,94.935a6.086,6.086,0,0,1,5.461-3.059h67.772a6.084,6.084,0,0,1,5.487,3.059,5.369,5.369,0,0,1,.613,3.188" transform="translate(-13.338 -16.625)" fill="#536668"/><path d="M128.5,124.059c.967,0,1.768-.508,1.787-1.138l.211-6.857c.021-.657-.768-1.192-1.763-1.192H110.721c-.06,0-.11.019-.167.023l17.512,9.164Z" transform="translate(-20.004 -20.786)" fill="#607575"/><path d="M109.4,71.946c-.028,0,0,.007.007.011.043-.011.049-.017-.007-.011" transform="translate(-19.793 -13.018)" fill="#536668"/><path d="M152.432,94.935H73.712a6.086,6.086,0,0,1,5.461-3.059h67.772a6.085,6.085,0,0,1,5.487,3.059" transform="translate(-13.338 -16.625)" fill="#5e7477"/></g></g></svg>