<svg xmlns="http://www.w3.org/2000/svg" width="12.896" height="9.783" viewBox="0 0 12.896 9.783"><path d="M12.006,7.56H4.892a.889.889,0,0,0,0,1.779h7.115a.889.889,0,0,0,0-1.779m0-3.557H4.892a.889.889,0,0,0,0,1.779h7.115a.889.889,0,0,0,0-1.779M4.892,2.223h7.115a.889.889,0,0,0,0-1.779H4.892a.889.889,0,0,0,0,1.779M1.334,7.115a1.334,1.334,0,1,0,0,2.668,1.334,1.334,0,1,0,0-2.668m0-3.557a1.334,1.334,0,0,0,0,2.668,1.334,1.334,0,0,0,0-2.668M1.334,0A1.31,1.31,0,0,0,0,1.334,1.31,1.31,0,0,0,1.334,2.668,1.31,1.31,0,0,0,2.668,1.334,1.31,1.31,0,0,0,1.334,0" fill="#fff"/></svg>