<svg xmlns="http://www.w3.org/2000/svg" xmlns:xlink="http://www.w3.org/1999/xlink" width="100" height="100" viewBox="0 0 100 100"><defs><clipPath id="a"><circle cx="50" cy="50" r="50" transform="translate(1816 -575)" fill="#fff7ec"/></clipPath></defs><g transform="translate(-1816 575)" clip-path="url(#a)"><rect width="100" height="100" transform="translate(1816 -575)" fill="#f8f3ff"/><g transform="translate(1730.5 -562.006)"><path d="M-1725.051,622.314s-.671-18.929-1.495-33.113a18.623,18.623,0,0,1,1.466-8.969,19.821,19.821,0,0,1-2.541-.06c-1.877-.387-2.967-3.027-2.875-5.03.131-2.84,2.964-4.806,8.623-8.623,7.444-5.022,9.833-4.67,10.935-4.355a7.309,7.309,0,0,1,3.442,2.294,8.448,8.448,0,0,1,4.59-1.147,9.772,9.772,0,0,1,7.591,4.858c3.275,4.1,5.847,13.52,8,27.622,2.525,16.528,5.533,29.727,5.533,29.727Z" transform="translate(1844.536 -562.005)" fill="#38210a"/><path d="M-1681.142,626.068l-.675-.05-43.718-3.238-.016-.448c-.007-.189-.681-19.086-1.494-33.1a19.732,19.732,0,0,1,1.205-8.493h-.107a10.344,10.344,0,0,1-1.775-.075c-2.091-.431-3.381-3.214-3.273-5.543.146-3.149,3.235-5.232,8.843-9.014,4.587-3.095,7.891-4.6,10.1-4.6a4.376,4.376,0,0,1,1.253.178,7.559,7.559,0,0,1,3.411,2.15,8.836,8.836,0,0,1,4.057-1.034c.151,0,.3,0,.454.013a9.529,9.529,0,0,1,4.668,1.6,10.5,10.5,0,0,1,3.308,3.47c1.654,2.084,3.122,5.423,4.487,10.2a146.085,146.085,0,0,1,3.595,17.625c2.493,16.319,5.5,29.56,5.526,29.691Zm-43.425-4.219,42.153,3.122c-.636-2.877-3.21-14.814-5.393-29.1-2.225-14.562-4.809-23.52-7.9-27.386l-.024-.03-.019-.033a9.314,9.314,0,0,0-7.186-4.607,7.853,7.853,0,0,0-4.317,1.084l-.354.2-.267-.305a6.734,6.734,0,0,0-3.2-2.142,3.371,3.371,0,0,0-.978-.139c-1.975,0-5.184,1.49-9.54,4.428-5.742,3.873-8.286,5.692-8.4,8.232-.087,1.874.954,4.2,2.476,4.517a11.049,11.049,0,0,0,1.573.055c.253,0,.543,0,.862,0l.788-.008-.329.717a18.262,18.262,0,0,0-1.422,8.731C-1725.3,601.995-1724.675,618.9-1724.567,621.848Z" transform="translate(1844.536 -562.005)" fill="rgba(0,0,0,0)"/><path d="M-1723.891,624.511c-3.217-.477-6.773-2.83-6.6-4.75.118-1.332,1.973-1.867,6.762-4.311,4.158-2.125,6.238-3.187,7.621-4.257,4.557-3.522,12.425-17.708,14.561-20.917,0-.007,0-.011.008-.012,1.341-3.033,3.159-8.065,4.374-11.82a105.106,105.106,0,0,0,3.1-11.948c3.832-4.313,5.813-4.791,6.919-4.364,3.475,1.341,2.5,13.241.29,21.415a60.048,60.048,0,0,1-4.346,12.113l.026.006a70.781,70.781,0,0,1-9.165,12.235,70.768,70.768,0,0,1-10.539,9.249c-.423.605-5.359,7.457-11.719,7.456A8.775,8.775,0,0,1-1723.891,624.511Z" transform="translate(1808.267 -500.044)" fill="#f9b69b"/><path d="M-1722.6,625.106v-1c2.538,0,5.149-1.137,7.76-3.38a22.767,22.767,0,0,0,3.548-3.862l.049-.07.07-.05a70.413,70.413,0,0,0,10.464-9.184,70.427,70.427,0,0,0,8.8-11.655l.26-.482a59.137,59.137,0,0,0,4.3-12.006,58.035,58.035,0,0,0,1.971-13.15c.089-4.359-.625-7.154-1.958-7.668a1.411,1.411,0,0,0-.517-.092c-.907,0-2.641.736-5.758,4.22a106.013,106.013,0,0,1-3.089,11.871c-1.107,3.422-2.923,8.517-4.33,11.726l.011.044-.091.137-.1.218-.052.007c-.472.725-1.176,1.891-2.048,3.336-3.325,5.508-8.89,14.727-12.507,17.523-1.417,1.1-3.507,2.164-7.671,4.292l-.029.015c-1.083.553-2,1-2.811,1.4-2.481,1.211-3.613,1.763-3.68,2.514-.062.7.618,1.622,1.82,2.463a10.74,10.74,0,0,0,4.359,1.749,8.314,8.314,0,0,0,1.215.09v1a9.31,9.31,0,0,1-1.363-.1c-3.351-.5-7.234-2.967-7.028-5.289a2.383,2.383,0,0,1,1.2-1.715,27.218,27.218,0,0,1,3.032-1.609c.806-.393,1.72-.839,2.795-1.388l.028-.015c4.109-2.1,6.171-3.153,7.514-4.193,3.47-2.682,8.974-11.8,12.263-17.249.932-1.545,1.673-2.772,2.156-3.5a.5.5,0,0,1,.026-.047c1.4-3.172,3.22-8.283,4.329-11.711a105.012,105.012,0,0,0,3.086-11.891l.026-.133.09-.1c2.785-3.134,4.942-4.657,6.6-4.657a2.428,2.428,0,0,1,.877.159c.986.38,1.7,1.425,2.127,3.106a21.407,21.407,0,0,1,.471,5.516,59.093,59.093,0,0,1-2.006,13.391,64.118,64.118,0,0,1-4.085,11.637l.063.014-.351.592a71.456,71.456,0,0,1-9.23,12.322,71.425,71.425,0,0,1-10.544,9.265,23.644,23.644,0,0,1-3.667,3.977,17.162,17.162,0,0,1-3.741,2.493A10.816,10.816,0,0,1-1722.6,625.106Z" transform="translate(1808.267 -500.044)" fill="rgba(0,0,0,0)"/><path d="M-1690.79,651.7a121.175,121.175,0,0,1-31.691-8.513c.358-3.946.791-9.339,1.132-15.76.258-4.9.593-11.249.57-19.121q0-1.457-.008-2.832-1.466-.531-3.019-1.182a62.1,62.1,0,0,1-6.7-3.315s2.266-14.543,4.621-22.845a16.821,16.821,0,0,1,6.828-9.458c2.832-3.495,7.723-4.429,12.56-5.288,7.62-1.353,13.352-2.3,17.763.078a5.662,5.662,0,0,1,2.782,1.26c4.113,3,9.386,10.763,10.244,15.385,1.5,8.069,2.551,15.951,1.809,23.914l-5.935-.292c.828,7.127,1.225,9.479,1.517,12.449,0,0,.238,2.6.39,5.461.263,4.953.311,16.174-.07,30.981A119.785,119.785,0,0,1-1690.79,651.7Z" transform="translate(1840.472 -520.147)" fill="#eb524f"/><path d="M-1677.505,653.131l-.5-.009a120.774,120.774,0,0,1-12.85-.927,121.808,121.808,0,0,1-31.822-8.548l-.338-.142.033-.365c.471-5.193.852-10.489,1.131-15.741.264-5,.592-11.227.569-19.093l-.007-2.484c-.9-.331-1.809-.69-2.714-1.071a62.849,62.849,0,0,1-6.75-3.342l-.3-.171.053-.34c.023-.146,2.3-14.669,4.634-22.9a17.276,17.276,0,0,1,6.968-9.695c3.02-3.668,8.221-4.592,12.813-5.407a66.8,66.8,0,0,1,11.141-1.387,14.241,14.241,0,0,1,6.854,1.467,6.305,6.305,0,0,1,2.932,1.346,29.794,29.794,0,0,1,6.463,7.209,25.291,25.291,0,0,1,3.977,8.489c1.4,7.56,2.593,15.706,1.815,24.051l-.044.477-5.823-.286c.38,3.243.663,5.429.892,7.2.239,1.845.411,3.178.557,4.667,0,.029.24,2.647.391,5.483.3,5.614.271,17.79-.07,31.02Zm-44.444-10.266a120.77,120.77,0,0,0,31.222,8.337,119.809,119.809,0,0,0,12.247.909c.4-15.769.281-26.243.058-30.444-.15-2.817-.386-5.416-.388-5.442-.144-1.47-.316-2.8-.553-4.633-.244-1.884-.547-4.228-.962-7.8l-.068-.586,6.044.3c.678-8.059-.483-15.956-1.845-23.3a24.326,24.326,0,0,0-3.825-8.115,29.226,29.226,0,0,0-6.222-6.958,5.278,5.278,0,0,0-2.521-1.166l-.109-.007-.1-.052a13.215,13.215,0,0,0-6.472-1.4,66.129,66.129,0,0,0-10.966,1.371c-4.444.789-9.481,1.683-12.259,5.11l-.047.058-.062.042a16.29,16.29,0,0,0-6.627,9.18c-2.12,7.475-4.2,20.2-4.554,22.445a61.857,61.857,0,0,0,6.342,3.118c1,.42,2.006.815,2.994,1.172l.329.119.009,3.182c.023,7.894-.32,14.4-.57,19.149C-1721.122,632.593-1721.492,637.776-1721.949,642.865Z" transform="translate(1840.472 -520.147)" fill="rgba(0,0,0,0)"/><path d="M-1712.694,595.36a5.727,5.727,0,0,1-2.786-2.786v-2.652a12.578,12.578,0,0,1-3.986.753,6.892,6.892,0,0,1-2.207-.339,9.708,9.708,0,0,1-4.709-4.158,25.45,25.45,0,0,1-3.144-7.627c-.17-.728-.363-1.591-.5-2.48a31.878,31.878,0,0,1-.085-10.419c.284.014.687.022,1.23.022,1.29,0,3.132-.04,5.264-.088h.011c2.335-.051,4.977-.11,7.327-.122.322,0,.653-.907.973-1.782s.614-1.676.9-1.676c.143,0,.273.9.4,1.771s.245,1.7.375,1.7c2.743.045,4.167.2,4.353.482a18.124,18.124,0,0,0,2.162,5.721,16.026,16.026,0,0,0,1.074,1.6c.337-1.625,1.186-2.788,2.245-3.012a1.974,1.974,0,0,1,1.045.07c1.311.472,2.068,2.442,1.76,4a6.006,6.006,0,0,1-1.972,3.023q-.036,2.65.028,5.467c.063,2.708.2,5.3.387,7.775-2.264,3.355-5.431,5.161-8.109,5.161A5.133,5.133,0,0,1-1712.694,595.36Z" transform="translate(1847.473 -547.441)" fill="#f9b69b"/><path d="M-1710.663,596.258v0a5.624,5.624,0,0,1-2.227-.438,6.267,6.267,0,0,1-3.033-3.015l-.057-.109v-2.088a12.24,12.24,0,0,1-3.486.567,7.389,7.389,0,0,1-2.367-.366,10.19,10.19,0,0,1-4.968-4.36,25.952,25.952,0,0,1-3.209-7.778v-.006c-.172-.736-.367-1.611-.508-2.514a32.384,32.384,0,0,1-.085-10.582l.073-.439.445.023c.278.014.673.021,1.2.021,1.319,0,3.23-.043,5.253-.088l.1,0c2.269-.05,4.836-.106,7.132-.119a8.573,8.573,0,0,0,.624-1.454c.442-1.208.734-2,1.369-2,.507,0,.621.581.7.963.069.349.134.8.2,1.237.058.4.139.961.207,1.275,3.727.075,4.209.349,4.442.7l.055.083.019.1a17.623,17.623,0,0,0,2.1,5.564c.159.269.309.508.45.719a3.45,3.45,0,0,1,2.335-2.368,2.386,2.386,0,0,1,.494-.051,2.505,2.505,0,0,1,.823.14c1.644.591,2.416,2.88,2.082,4.565a6.133,6.133,0,0,1-1.965,3.147c-.021,1.74-.011,3.5.031,5.235.06,2.563.189,5.17.386,7.749l.013.173-.1.144C-1704.38,594.2-1707.646,596.258-1710.663,596.258Zm-4.317-3.809a5.233,5.233,0,0,0,2.483,2.452,4.629,4.629,0,0,0,1.833.357h0c2.647,0,5.545-1.834,7.6-4.8-.19-2.539-.316-5.1-.375-7.626-.043-1.817-.053-3.663-.028-5.486l0-.217.16-.146a5.428,5.428,0,0,0,1.818-2.751c.277-1.4-.422-3.063-1.438-3.429a1.5,1.5,0,0,0-.486-.081,1.383,1.383,0,0,0-.286.03c-.849.18-1.562,1.185-1.86,2.625l-.223,1.078-.665-.877a16.468,16.468,0,0,1-1.106-1.646,18.589,18.589,0,0,1-2.178-5.666,17.612,17.612,0,0,0-3.914-.291c-.492-.01-.6-.561-.671-.926-.064-.327-.125-.751-.19-1.2-.026-.183-.059-.409-.094-.633-.087.222-.172.453-.239.636-.447,1.224-.77,2.107-1.44,2.111-2.317.012-4.929.069-7.233.12l-.1,0c-2.026.045-3.94.088-5.27.088-.312,0-.579,0-.806-.007a31.592,31.592,0,0,0,.154,9.822v.006c.136.871.326,1.722.494,2.441a24.946,24.946,0,0,0,3.077,7.471,9.229,9.229,0,0,0,4.449,3.956,6.393,6.393,0,0,0,2.047.313,11.935,11.935,0,0,0,3.823-.726l.663-.228Z" transform="translate(1847.473 -547.441)" fill="rgba(0,0,0,0)"/><path d="M-1715.48,592.016h0v-2.093a22.457,22.457,0,0,0,2.15-.879,17.428,17.428,0,0,0,7.52-6.77,24.985,24.985,0,0,0,2.126-4.319c.251-.194.492-.4.715-.6-.025,1.8-.016,3.639.028,5.467.025,1.063.065,2.184.122,3.424a12.356,12.356,0,0,1-5.51,4.088,25.654,25.654,0,0,1-7.15,1.682Z" transform="translate(1847.473 -547.441)" fill="#f69b7d"/><path d="M-1715.979,592.57v-3l.337-.116a21.978,21.978,0,0,0,2.1-.861,16.929,16.929,0,0,0,7.3-6.578l0-.005a24.466,24.466,0,0,0,2.081-4.23l.05-.131.111-.086c.241-.186.471-.379.685-.574l.852-.775-.016,1.152c-.025,1.806-.015,3.639.028,5.448.025,1.059.064,2.175.122,3.413l.008.173-.1.141a12.845,12.845,0,0,1-5.727,4.26,26.149,26.149,0,0,1-7.289,1.717Zm1-2.295v1.183a24.617,24.617,0,0,0,6.46-1.586,11.986,11.986,0,0,0,5.193-3.778c-.053-1.176-.091-2.245-.115-3.26-.032-1.339-.046-2.691-.041-4.035a25.069,25.069,0,0,1-1.9,3.74,17.924,17.924,0,0,1-7.736,6.96C-1713.525,589.683-1714.168,589.978-1714.98,590.275Z" transform="translate(1847.473 -547.441)" fill="rgba(0,0,0,0)"/><path d="M-1697.486,696.092c-.763,0-1.559-.011-2.365-.034a81.424,81.424,0,0,1-18.145-2.6,81.677,81.677,0,0,1-12.5-4.37,357.506,357.506,0,0,0,14.461-79.676c.517-7.935.767-16.008.743-23.995h.01c.031-3.236.149-6.52.351-9.759.136-2.2.318-4.459.54-6.711a5.3,5.3,0,0,1,1.354-1.431,5.374,5.374,0,0,1,2.047-.906l-.082,18.54,11.9-.359,6.289-.189c.023-.195.055-.412.083-.6.021-.139.041-.279.059-.414a62.315,62.315,0,0,1,2.644-11.52,63.336,63.336,0,0,1,4.18-9.752,3.569,3.569,0,0,1,1.441-.31,3,3,0,0,1,1.345.31,3.137,3.137,0,0,1,1.3,1.227,3.313,3.313,0,0,0-1.216-.265c-2.415,0-2.957,3.746-3.338,7.919-.033.366-.066.734-.1,1.1l-.006.07v.01l-.029.333-.012.14,0,.053-.033.378c-.068.758-.123,2.034-.164,3.794a39.271,39.271,0,0,0-.587,6.44c0,.353,0,.72.006,1.089l.5.93c-.014,7.959.1,17.359.166,17.392l9.355.461,1.128,2.115c2.3,14.251,4.173,28.781,5.573,43.187,1.344,13.833,2.281,27.9,2.786,41.8a81.723,81.723,0,0,1-12.162,3.695A81.511,81.511,0,0,1-1697.486,696.092Z" transform="translate(1834.63 -519.968)" fill="#fff"/><path d="M-1697.486,696.592c-.767,0-1.568-.012-2.379-.034a81.924,81.924,0,0,1-18.257-2.612,82.181,82.181,0,0,1-12.581-4.4l-.4-.179.127-.422a357.01,357.01,0,0,0,14.441-79.565c.516-7.924.766-15.986.741-23.961v-.5h.017c.038-3.078.154-6.2.346-9.287.136-2.2.318-4.469.542-6.729l.012-.12.065-.1a5.794,5.794,0,0,1,1.481-1.565,5.876,5.876,0,0,1,2.237-.991l.6-.126-.082,18.641,17.251-.52.027-.187c.021-.14.041-.278.059-.411a62.809,62.809,0,0,1,2.665-11.611,63.839,63.839,0,0,1,4.213-9.83l.079-.149.153-.07a4.086,4.086,0,0,1,1.65-.355,3.493,3.493,0,0,1,1.568.362,3.636,3.636,0,0,1,1.51,1.422l.74,1.26-1.357-.543a2.826,2.826,0,0,0-1.03-.229c-.547,0-1.345.213-1.957,2.052a25.7,25.7,0,0,0-.883,5.412c-.033.365-.065.733-.1,1.1l-.086.984c-.067.749-.122,2.015-.162,3.762v.038l-.007.037a38.78,38.78,0,0,0-.579,6.358c0,.308,0,.63,0,.956l.5.935v.125c-.013,7.315.077,15.067.137,16.914l8.908.438.283.014,1.3,2.439.013.082c2.3,14.261,4.176,28.8,5.577,43.219,1.345,13.843,2.283,27.916,2.788,41.826l.013.354-.33.129a82.222,82.222,0,0,1-12.237,3.717A82.01,82.01,0,0,1-1697.486,696.592Zm-32.409-7.78a81.214,81.214,0,0,0,12.024,4.166,80.929,80.929,0,0,0,18.034,2.58c.8.022,1.592.034,2.351.034a81.008,81.008,0,0,0,17.408-1.9,81.245,81.245,0,0,0,11.757-3.543c-.508-13.775-1.44-27.706-2.771-41.411-1.4-14.368-3.265-28.86-5.555-43.074l-.955-1.792-9.094-.448-.091-.009-.082-.04a.564.564,0,0,1-.292-.531c0-.077-.01-.185-.015-.331-.009-.275-.019-.675-.029-1.189-.02-1.027-.04-2.45-.057-4.116-.039-3.779-.058-7.98-.053-11.549l-.494-.926,0-.12c-.007-.376-.009-.747-.006-1.1a39.78,39.78,0,0,1,.588-6.486c.041-1.751.1-3.026.165-3.79l.086-.982c.032-.368.064-.737.1-1.1a26.467,26.467,0,0,1,.93-5.637,5.068,5.068,0,0,1,1.057-1.931,2.471,2.471,0,0,1,1.593-.794l-.052-.027a2.5,2.5,0,0,0-1.123-.257,3.076,3.076,0,0,0-1.083.2,62.838,62.838,0,0,0-4.063,9.518,61.826,61.826,0,0,0-2.623,11.428c-.019.138-.039.279-.06.421-.028.191-.059.4-.081.59l-.051.428-19.141.577.081-18.4a4.859,4.859,0,0,0-1.25.653,4.8,4.8,0,0,0-1.162,1.2c-.216,2.208-.394,4.417-.526,6.57-.2,3.237-.319,6.512-.35,9.733l0,.5h0c.012,7.833-.238,15.745-.745,23.525A357.983,357.983,0,0,1-1729.894,688.813Z" transform="translate(1834.63 -519.968)" fill="rgba(0,0,0,0)"/><path d="M-1722.683,646.02a7.646,7.646,0,0,1-3.534-.828,8.8,8.8,0,0,1-3.426-3.254,4.466,4.466,0,0,1-.645-3.857c.289-.7.933-1.313,3.363-2.34a35.13,35.13,0,0,1,8.965-2.423,48.46,48.46,0,0,0,7.755-6.9c1.125-1.249,2.037-2.4,2.92-3.513a41.025,41.025,0,0,1,5.866-6.323,39.517,39.517,0,0,1,4.136-3.107c.235-3.854.44-7.786.606-11.685l13.478.663.049,0,.354.017-.01.126a78.947,78.947,0,0,1-.985,8.475,24.193,24.193,0,0,1-2.451,7.046c-2.218,4.172-4.942,6.558-8.1,9.32a65.873,65.873,0,0,1-18.875,11.482,14.48,14.48,0,0,1-2.131,3.4,9.7,9.7,0,0,1-5.893,3.583A8.874,8.874,0,0,1-1722.683,646.02Z" transform="translate(1847.336 -518.696)" fill="#f9b69b"/><path d="M-1722.683,646.52h0a8.14,8.14,0,0,1-3.763-.884,9.313,9.313,0,0,1-3.627-3.443,4.946,4.946,0,0,1-.677-4.3c.339-.825,1.042-1.517,3.631-2.611a35.6,35.6,0,0,1,8.969-2.441,47.918,47.918,0,0,0,7.575-6.759c1.114-1.238,2.022-2.382,2.9-3.489a41.433,41.433,0,0,1,5.932-6.391,40.058,40.058,0,0,1,3.978-3.008c.229-3.776.428-7.619.591-11.426l.021-.5.5.025,13.478.663.919.045-.053.641a79.284,79.284,0,0,1-.992,8.53,24.669,24.669,0,0,1-2.5,7.185c-2.26,4.253-5.017,6.667-8.208,9.461a66.319,66.319,0,0,1-18.829,11.494,15.2,15.2,0,0,1-2.123,3.33,10.184,10.184,0,0,1-6.2,3.755A9.352,9.352,0,0,1-1722.683,646.52Zm26.485-44.209c-.162,3.732-.359,7.495-.585,11.191l-.015.251-.21.137a39,39,0,0,0-4.084,3.067,40.614,40.614,0,0,0-5.8,6.254c-.887,1.119-1.8,2.276-2.94,3.537a48.958,48.958,0,0,1-7.835,6.975l-.1.073-.123.017a34.63,34.63,0,0,0-8.837,2.388c-2.507,1.059-2.9,1.6-3.1,2.069a3.991,3.991,0,0,0,.612,3.411,8.287,8.287,0,0,0,3.225,3.065,7.15,7.15,0,0,0,3.305.773,8.386,8.386,0,0,0,1.367-.115,9.215,9.215,0,0,0,5.59-3.411,13.92,13.92,0,0,0,2.054-3.272l.081-.189.191-.077a65.372,65.372,0,0,0,18.732-11.395c3.117-2.729,5.81-5.086,7.984-9.178a23.714,23.714,0,0,0,2.4-6.906,74.984,74.984,0,0,0,.945-8.033Z" transform="translate(1847.336 -518.696)" fill="rgba(0,0,0,0)"/></g></g></svg>