<svg xmlns="http://www.w3.org/2000/svg" width="20" height="19.438" viewBox="0 0 20 19.438"><path d="M6.092,10.483H.769a.769.769,0,0,1,0-1.538H6.092l-.738-.738A.769.769,0,0,1,6.441,7.119L8.492,9.17a.8.8,0,0,1,.164.246.75.75,0,0,1,0,.595.8.8,0,0,1-.164.246L6.441,12.309a.769.769,0,1,1-1.087-1.087ZM18.636,1.591,12.482.052a1.807,1.807,0,0,0-1.538.328,1.872,1.872,0,0,0-.338.359H4.872A1.8,1.8,0,0,0,3.077,2.534V4.586a.769.769,0,1,0,1.538,0V2.534a.257.257,0,0,1,.256-.256h5.385V17.15H4.872a.257.257,0,0,1-.256-.256V14.842a.769.769,0,1,0-1.538,0v2.051a1.8,1.8,0,0,0,1.795,1.795h5.733a1.872,1.872,0,0,0,.338.359,1.834,1.834,0,0,0,1.108.379,2.016,2.016,0,0,0,.431,0l6.154-1.538A1.794,1.794,0,0,0,20,16.145V3.334a1.794,1.794,0,0,0-1.364-1.744" transform="translate(0 0)" fill="#888"/></svg>