<svg xmlns="http://www.w3.org/2000/svg" xmlns:xlink="http://www.w3.org/1999/xlink" width="100" height="100" viewBox="0 0 100 100"><defs><clipPath id="a"><circle cx="50" cy="50" r="50" transform="translate(1816 -409)" fill="#fff7ec"/></clipPath></defs><g transform="translate(-1816 409)" clip-path="url(#a)"><rect width="100" height="100" transform="translate(1816 -409)" fill="#f3fffc"/><g transform="translate(1813.132 -395.713)"><path d="M-1799.411,456.131c-4.448-.151-9.069-1.962-11.631-5.751a13.936,13.936,0,0,1-1.5-11.478c1.394-4.838,4.82-8.653,6.551-13.334,1.56-4.216.527-8.6.234-12.932a15.333,15.333,0,0,1,2.974-10.815c3.116-4,8.382-5.686,13.109-6.051,3.61-.279,7.608.437,10.376,3.006,2.552,2.367,4.036,5.742,5.075,9.067A60.794,60.794,0,0,1-1772,421.034c.442,5.5.827,11.272,3.923,15.968,5.815,8.821-5.161,16.343-13.98,16.735l-4.266-.008c-4.04,1.209-8.16,2.415-12.355,2.415Q-1799.043,456.143-1799.411,456.131Z" transform="translate(1843.771 -395.713)" fill="#683c30"/><path d="M-1798.676,456.643v0c-.252,0-.5,0-.751-.013a17.452,17.452,0,0,1-6.717-1.558,12.771,12.771,0,0,1-5.311-4.413,13.024,13.024,0,0,1-2.072-5.75,15.717,15.717,0,0,1,.51-6.146,32.99,32.99,0,0,1,3.53-7.409,38.6,38.6,0,0,0,3.032-5.96c1.173-3.171.833-6.4.474-9.815-.1-.953-.2-1.938-.27-2.91a15.825,15.825,0,0,1,3.079-11.156,15.023,15.023,0,0,1,6.151-4.542,23.8,23.8,0,0,1,7.315-1.7c.5-.038,1-.058,1.491-.058a16.2,16.2,0,0,1,4.911.719,11.408,11.408,0,0,1,4.352,2.477c2.219,2.058,3.875,5.008,5.212,9.284a61.939,61.939,0,0,1,2.239,13.3l.036.451c.425,5.321.865,10.822,3.806,15.282a8.644,8.644,0,0,1,.75,9.087,14.789,14.789,0,0,1-6.309,5.938,21.122,21.122,0,0,1-8.816,2.484h-.023l-4.192-.008C-1790.048,455.365-1794.347,456.643-1798.676,456.643Zm10.461-60.43c-.466,0-.942.019-1.414.055-3.254.251-9.237,1.346-12.754,5.859a14.857,14.857,0,0,0-2.87,10.474c.064.953.167,1.929.266,2.873.356,3.381.724,6.877-.531,10.267a39.331,39.331,0,0,1-3.107,6.118,32.24,32.24,0,0,0-3.433,7.182,13.347,13.347,0,0,0,1.429,11.059c2.231,3.3,6.431,5.368,11.234,5.531.236.008.477.012.717.012h0c4.21,0,8.461-1.272,12.211-2.394l.071-.021,4.328.008c5.981-.269,12.112-3.655,14.267-7.877a7.6,7.6,0,0,0-.694-8.082c-3.082-4.675-3.533-10.307-3.968-15.753l-.036-.45a60.081,60.081,0,0,0-2.2-13.083c-1.283-4.1-2.852-6.915-4.938-8.849A12.554,12.554,0,0,0-1788.215,396.213Z" transform="translate(1843.771 -395.713)" fill="rgba(0,0,0,0)"/><path d="M-1813.132,413.992l3.721-4.713c3.359-6.512,6.119-11.327,10.253-12.65s7.856-1.241,9.344.434c1.259,1.415.3,6.423-3.062,9.886a2.333,2.333,0,0,1,1.7.44c.938.984-5.5,3.279-8.112,3.63a22.893,22.893,0,0,1-4.661,1.611l-2.48,4.155Z" transform="translate(1832.005 -366.129)" fill="#ffa87d"/><path d="M-1806.227,417.412l-7.706-3.212,4.1-5.193a60.748,60.748,0,0,1,4.857-8.3c1.831-2.458,3.631-3.906,5.665-4.557a18.13,18.13,0,0,1,5.387-.939c2.051,0,3.6.525,4.483,1.517,1.408,1.583.515,6.294-2.391,9.8a1.889,1.889,0,0,1,1.011.513.8.8,0,0,1,.181.842c-.086.244-.346.985-3.648,2.242a26.247,26.247,0,0,1-4.866,1.376,24.811,24.811,0,0,1-4.483,1.569Zm-6.1-3.628,5.689,2.371,2.373-3.977.222-.042a22.746,22.746,0,0,0,4.547-1.575l.067-.03.072-.01a24.724,24.724,0,0,0,4.677-1.315,9.257,9.257,0,0,0,3.031-1.56,2.149,2.149,0,0,0-1.092-.2h-.122l-1.219.027.849-.875a13,13,0,0,0,3.14-5.492c.516-1.912.326-3.242-.093-3.713a4.994,4.994,0,0,0-3.736-1.182,17.128,17.128,0,0,0-5.082.892c-1.826.584-3.468,1.919-5.168,4.2a60.231,60.231,0,0,0-4.792,8.2l-.022.043-.03.038Z" transform="translate(1832.005 -366.129)" fill="rgba(0,0,0,0)"/><path d="M23.451,36.082l-5.422-6.7A.984.984,0,0,1,18.174,28L31.36,17.324a.985.985,0,0,1,1.384.145l5.424,6.7a.985.985,0,0,1-.145,1.384L24.834,36.228a.983.983,0,0,1-1.384-.145" transform="translate(9.179 8.816)" fill="#5c90c2"/><path d="M31.591,17.412l-12.97,10.5c6.022-.077,14.3-2.469,18.409-3.781Z" transform="translate(9.597 8.974)" fill="#fff"/><path d="M18.88,25.626l-.762.617,5.948,7.347L37.8,22.474l-.509-.629c-4.107,1.312-12.387,3.7-18.409,3.781" transform="translate(9.338 11.259)" fill="#f2f2f2"/><path d="M-1788,453.935h0l-22.851-1.082,1.432-9.618,2.861-6.484a24.683,24.683,0,0,0,.154-7.155,11,11,0,0,1-4.355-5.349,23.965,23.965,0,0,1-1.57-10.731,36.559,36.559,0,0,1,.413-3.779c4.646-.912,8.5-4.912,10.912-8.107a32.953,32.953,0,0,0,10.96,12.927.868.868,0,0,0,.1.143l.092-.137c.01-.027,1.032-2.737,2.344-2.737a1.02,1.02,0,0,1,.432.1c1.147.533,1.629,1.788,1.322,3.441a7.871,7.871,0,0,1-1.763,3.575,4.837,4.837,0,0,1-3.2,1.848c-.1.255-.192.5-.284.729-.327,3.082-.46,9.051.576,11.947,1.06,2.965,2.977,3.273,3,3.276l-.58,17.194Z" transform="translate(1854.015 -393)" fill="#ffa87d"/><path d="M-1787.5,454.465l-.528-.031-23.4-1.108,1.523-10.232.027-.062,2.844-6.444a23.752,23.752,0,0,0,.154-6.692,11.711,11.711,0,0,1-4.339-5.452,24.462,24.462,0,0,1-1.61-10.958,37.074,37.074,0,0,1,.419-3.831l.056-.343.341-.067c4.491-.881,8.248-4.792,10.609-7.918l.5-.658.353.746a32.469,32.469,0,0,0,10.441,12.482c.4-.881,1.334-2.572,2.608-2.572a1.515,1.515,0,0,1,.643.146,2.813,2.813,0,0,1,1.462,1.574,4.429,4.429,0,0,1,.14,2.411,8.385,8.385,0,0,1-1.876,3.81,5.526,5.526,0,0,1-3.216,1.983c-.051.131-.1.261-.152.388-.318,3.057-.444,8.861.557,11.657.929,2.6,2.5,2.932,2.6,2.951l.437.063-.015.447-.579,17.186Zm-22.776-2.086,21.793,1.032.55-16.3a5.338,5.338,0,0,1-2.954-3.477c-1.065-2.974-.934-9.042-.6-12.168l.007-.069.026-.064c.094-.233.188-.475.28-.719l.113-.3.321-.022a4.352,4.352,0,0,0,2.851-1.675,7.356,7.356,0,0,0,1.65-3.339c.154-.829.224-2.308-1.041-2.9a.524.524,0,0,0-.221-.053c-.662,0-1.511,1.44-1.876,2.412l-.02.054-.478.713-.43-.467a1.278,1.278,0,0,1-.1-.127,33.457,33.457,0,0,1-10.691-12.34c-2.419,3.058-6.037,6.588-10.376,7.583-.167,1.084-.285,2.223-.354,3.391a23.467,23.467,0,0,0,1.53,10.5,10.506,10.506,0,0,0,4.14,5.11l.229.129.024.261a25.129,25.129,0,0,1-.167,7.322l-.01.041-.017.039-2.834,6.422Z" transform="translate(1854.015 -393)" fill="rgba(0,0,0,0)"/><path d="M31.151,34.33c2.255,1.872,9.2,4.546,21.194,1.262,2.778,35.361.488,53.018.488,53.018L26.709,89.642Z" transform="translate(13.766 17.694)" fill="#fefefe"/><path d="M-1801.505,431.495q-.086,0-.173,0a6.094,6.094,0,0,1-4.374-1.95,4.483,4.483,0,0,0,.866.183,20.786,20.786,0,0,0,2.169.122,10.122,10.122,0,0,0,7.5-2.758,12.081,12.081,0,0,1-2.058,2.628A5.74,5.74,0,0,1-1801.505,431.495Z" transform="translate(1854.763 -392.464)" fill="#ff9c71"/><path d="M-1801.505,431.995c-.064,0-.129,0-.192,0a6.585,6.585,0,0,1-4.723-2.111l-1.266-1.376,1.784.56a3.987,3.987,0,0,0,.769.163,20.283,20.283,0,0,0,2.116.12,9.652,9.652,0,0,0,7.151-2.617l.78.611a12.546,12.546,0,0,1-2.148,2.741A6.22,6.22,0,0,1-1801.505,431.995Zm-2.764-1.69a5.889,5.889,0,0,0,2.61.687l.154,0a5.262,5.262,0,0,0,3.585-1.641l.011-.01a11.972,11.972,0,0,1-5.109,1C-1803.417,430.347-1803.835,430.333-1804.269,430.305Z" transform="translate(1854.763 -392.464)" fill="rgba(0,0,0,0)"/><path d="M47.6,43.205l2.794,8.239L40.207,70.563c-.059-11.991,4.54-42.039,4.54-42.039a44.029,44.029,0,0,1,6.981,1.449C51.953,41.264,52.1,41.5,52.1,41.5Z" transform="translate(20.723 14.701)" fill="#8ca3c0"/><path d="M-1787.89,476.007c-5.678,2.44-15.226,3.556-17.474-.668-3.125-5.872-7.577-26.9-7.767-38.547,0-.157,0-.328,0-.49l10.183-19.117-2.794-8.24,4.5-1.7s-.142-.238-.366-11.529c2.913.854,5.649,2.861,8.118,4.836a2.692,2.692,0,0,1,.24.217l.01-.031s6.111,5.907,7.248,19.166,8.767,60,8.767,60l-8.625.672C-1786.546,479.184-1787.226,477.652-1787.89,476.007Zm-11.6-34.953a38.733,38.733,0,0,0,3.7,8.38c-1.384-5.877-2.53-11.415-3.379-15.76A18.41,18.41,0,0,0-1799.492,441.054Z" transform="translate(1874.062 -351.04)" fill="#a6b4cc"/><path d="M-1786.149,481.1l-.151-.3c-.615-1.23-1.241-2.619-1.863-4.133a28.675,28.675,0,0,1-10.087,2.013c-3.864,0-6.476-1.072-7.556-3.1-1.524-2.864-3.406-9.31-5.033-17.242a128.687,128.687,0,0,1-2.793-21.532V436.8c0-.079,0-.162,0-.245s0-.164,0-.244v-.126l.059-.111,10.082-18.926-2.88-8.492,4.59-1.739c-.018-.249-.037-.618-.061-1.177-.058-1.345-.152-4.173-.267-10.01l-.014-.681.654.192a24.807,24.807,0,0,1,7.968,4.669l.028-.087.579.56a20.193,20.193,0,0,1,3.291,4.735,33.673,33.673,0,0,1,2.475,6.057,42.586,42.586,0,0,1,1.632,8.691c1.122,13.09,8.686,59.493,8.762,59.961l.088.537Zm-1.469-5.751.191.474c.625,1.548,1.254,2.969,1.872,4.227l7.746-.6c-.851-5.243-7.625-47.139-8.684-59.5a37.3,37.3,0,0,0-3.968-14.316,22.647,22.647,0,0,0-2.646-4l-.5-.512a2.22,2.22,0,0,0-.2-.177,26.841,26.841,0,0,0-7.292-4.534c.176,8.616.3,10.337.332,10.665l.256.428-4.606,1.745,2.709,7.987-10.226,19.2c0,.041,0,.082,0,.123,0,.081,0,.161,0,.237a127.678,127.678,0,0,0,2.773,21.345c1.585,7.726,3.476,14.23,4.936,16.973.882,1.658,3.252,2.57,6.673,2.57a27.522,27.522,0,0,0,10.162-2.127Zm-8.615-25.671a38.042,38.042,0,0,1-3.744-8.5c-.438-1.754-.336-4.239.312-7.6h.982c1.067,5.467,2.2,10.763,3.375,15.741Zm-2.882-13.135a12.81,12.81,0,0,0,.108,4.393,26.229,26.229,0,0,0,1.839,4.763C-1797.833,442.728-1798.485,439.666-1799.115,436.54Z" transform="translate(1874.062 -351.04)" fill="rgba(0,0,0,0)"/><path d="M30.5,40.215l-4.849-2.084,1.518-7.974c3.819-.859,7.209-1.468,7.209-1.468s-.658,19.9-2.276,40.392L25.654,45.866Z" transform="translate(13.222 14.786)" fill="#8ca3c0"/><path d="M0,13.767l-.031,0a.25.25,0,0,1-.217-.279L1.437-.031a.25.25,0,0,1,.279-.217.25.25,0,0,1,.217.279L.248,13.548A.25.25,0,0,1,0,13.767Z" transform="translate(74.782 68.568)" fill="#99a9bf"/><path d="M-1786.326,472c0-4.672,5.051-20.709,4.672-30.307-.188-4.753-.344-15.294-.424-24.84-5.448,2.594-17.236,8.1-21.562,9.225-5.705,1.488-10.086-.911-9.426-7.029.007-.065.017-.132.03-.2.938-5.185,15.6-21.133,15.6-21.133l7.276,2.728-.815,2.233c4.1-2.2,7.539-3.931,8.945-4.723a20.853,20.853,0,0,1,5.949-2.245l-1.518,7.974,4.849,2.083-4.849,5.651,6.451,23.215c-1.573,19.92-4.054,40.406-7.727,43.739a2.774,2.774,0,0,1-1.493.4C-1782.962,478.779-1786.326,475.866-1786.326,472Z" transform="translate(1816.477 -350.767)" fill="#a6b4cc"/><path d="M-1780.37,479.279a6.3,6.3,0,0,1-4.31-2.092,7.471,7.471,0,0,1-2.146-5.182c0-1.88.788-5.517,1.7-9.73,1.426-6.583,3.2-14.775,2.972-20.558-.2-4.983-.346-15.893-.417-24.071-6.358,3.017-16.84,7.849-20.943,8.921a12.924,12.924,0,0,1-3.243.445h0a6.845,6.845,0,0,1-5.279-2.064,7.459,7.459,0,0,1-1.526-5.947c.008-.077.02-.157.036-.238.4-2.23,3.181-6.516,8.255-12.734,3.748-4.593,7.43-8.6,7.467-8.644l.228-.248,8.055,3.02-.537,1.471c1.619-.86,3.111-1.638,4.356-2.287,1.527-.8,2.734-1.425,3.427-1.815l.029-.015c.354-.17.666-.324.967-.474a18.361,18.361,0,0,1,5.089-1.809l.743-.167-1.586,8.328,5.105,2.194-5.119,5.965,6.4,23.043-.007.088c-.911,11.536-1.948,21-3.081,28.129-1.447,9.1-3.02,14.318-4.809,15.941l-.033.03-.037.023a3.253,3.253,0,0,1-1.758.48Zm-1.214-63.211.007.785c.068,8.244.22,19.692.423,24.824.233,5.91-1.556,14.172-2.994,20.809a63.47,63.47,0,0,0-1.678,9.518,6.477,6.477,0,0,0,1.866,4.489,5.375,5.375,0,0,0,3.59,1.786v0a2.285,2.285,0,0,0,1.189-.3c1.095-1.032,2.746-4.54,4.461-15.327,1.126-7.085,2.157-16.493,3.064-27.962l-6.5-23.387,4.58-5.337-4.593-1.973,1.449-7.611a16.886,16.886,0,0,0-4.118,1.553c-.3.149-.61.3-.964.473-.709.4-1.916,1.028-3.441,1.823s-3.442,1.795-5.5,2.9l-1.155.619,1.094-3-6.495-2.435c-.857.942-4.006,4.436-7.2,8.355-4.894,6-7.675,10.244-8.043,12.28-.011.059-.019.113-.025.164a6.5,6.5,0,0,0,1.276,5.171,5.882,5.882,0,0,0,4.536,1.732,11.924,11.924,0,0,0,2.99-.412c4.335-1.132,16.462-6.806,21.474-9.192Z" transform="translate(1816.477 -350.767)" fill="rgba(0,0,0,0)"/><path d="M13,49.095a.25.25,0,0,1-.2-.4c1.66-2.214,5.4-13.816,5.439-13.933a.25.25,0,0,1,.476.153c-.155.481-3.8,11.8-5.515,14.08A.25.25,0,0,1,13,49.095Z" transform="translate(6.701 17.956)" fill="#99a9bf"/></g></g></svg>