<svg xmlns="http://www.w3.org/2000/svg" width="13.075" height="13.002" viewBox="0 0 13.075 13.002"><path d="M9.191,12.224l1.083-1.011L11.863,12.8a.715.715,0,0,0,1.011-1.011L11.285,10.2,12.3,9.118a.389.389,0,0,0-.289-.65H8.9a.342.342,0,0,0-.361.32v3.147c.072.289.433.506.65.289ZM3.811.778,2.8,1.789,1.212.2A.715.715,0,0,0,.2,1.211L1.717,2.8.706,3.883a.321.321,0,0,0-.066.449.317.317,0,0,0,.282.129H4.029a.34.34,0,0,0,.36-.32.28.28,0,0,0,0-.041V.994A.321.321,0,0,0,3.811.777Zm8.413,3.106L11.213,2.8,12.8,1.212A.715.715,0,0,0,11.79.2L10.2,1.79,9.118.779A.364.364,0,0,0,8.468,1V4.1a.342.342,0,0,0,.32.361h3.147c.289,0,.506-.361.289-.578M.707,9.118,1.79,10.129.2,11.718a.715.715,0,0,0,1.011,1.011L2.8,11.14l1.083,1.011c.144.289.506.072.506-.217V8.828a.341.341,0,0,0-.321-.36.267.267,0,0,0-.04,0H.923a.364.364,0,0,0-.216.65" transform="translate(0 0)" fill="#fff"/></svg>