<svg xmlns="http://www.w3.org/2000/svg" xmlns:xlink="http://www.w3.org/1999/xlink" width="100" height="100" viewBox="0 0 100 100"><defs><clipPath id="a"><circle cx="50" cy="50" r="50" transform="translate(1516 -409)" fill="#fff7ec"/></clipPath></defs><g transform="translate(-1516 409)" clip-path="url(#a)"><rect width="100" height="100" transform="translate(1516 -409)" fill="#f5fff3"/><g transform="translate(1522.456 -393.016)"><path d="M-1522.426,486.8c-.625-20.454,8.655-59.062,10.823-64.18,5.649-13.325,14.13-17.1,17.016-18.031.436-2.99.808-4.911.808-4.911a9.3,9.3,0,0,1,3.543-2.173l.347-1.229s.224.349.562.891a53.212,53.212,0,0,1,9.46-2.128,16.776,16.776,0,0,1,3.761.021c1.862-1.217,3.23-2.044,3.23-2.044a25.615,25.615,0,0,1,1.107,2.716c1.958.393,3.4.787,3.4.787.941,8.089-6.97,23.59-17.313,33.731.085,22.085-4.824,51.159-6.9,57.4-1.5,4.494-7.49,6.346-13.717,6.346C-1514.113,493.99-1522.294,491.074-1522.426,486.8Z" transform="translate(1526.643 -340.469)" fill="#0baaaa"/><path d="M-1506.3,494.491v-1a22.366,22.366,0,0,0,8.438-1.449c2.53-1.052,4.145-2.585,4.8-4.554.935-2.8,2.662-11.094,4.243-22.665a260.761,260.761,0,0,0,2.635-34.571v-.211l.151-.148a69.5,69.5,0,0,0,12.793-17.506c3.123-6.1,4.716-11.7,4.407-15.472-.533-.137-1.661-.416-3.036-.692l-.282-.057-.093-.272c-.3-.888-.635-1.675-.851-2.157-.555.343-1.549.965-2.739,1.743l-.147.1-.175-.017c-.78-.076-1.5-.115-2.129-.115a11.182,11.182,0,0,0-1.515.092,53.807,53.807,0,0,0-9.364,2.105l-.378.132-.173-.277-.109.385-.229.091a9.139,9.139,0,0,0-3.263,1.938c-.091.486-.414,2.253-.779,4.754l-.045.308-.3.1a21.816,21.816,0,0,0-7.3,4.271,35.818,35.818,0,0,0-9.409,13.479c-.984,2.324-3.84,13.006-6.428,26.239-1.779,9.1-4.711,26.095-4.355,37.73.055,1.779,1.786,3.466,4.874,4.751a29.145,29.145,0,0,0,10.75,1.954l0,.5v.5c-7.883,0-16.48-2.935-16.625-7.674A121.652,121.652,0,0,1-1521.8,468.8c.751-6.055,1.844-12.763,3.247-19.938,2.416-12.355,5.306-23.645,6.489-26.438a36.8,36.8,0,0,1,9.679-13.849,23.179,23.179,0,0,1,7.347-4.364c.414-2.8.764-4.611.767-4.629l.025-.13.087-.1a9.318,9.318,0,0,1,3.507-2.219l.582-2.064.6.936s.138.215.354.56a56.229,56.229,0,0,1,9.177-2.022,12.174,12.174,0,0,1,1.653-.1c.616,0,1.305.035,2.05.1,1.774-1.156,3.085-1.949,3.1-1.958l.467-.282.241.49a25.812,25.812,0,0,1,1.037,2.5c1.811.373,3.14.734,3.154.737l.326.089.039.336c.959,8.245-6.955,23.771-17.309,34a262.723,262.723,0,0,1-2.645,34.5c-1.362,9.97-3.124,19.365-4.285,22.846a7.387,7.387,0,0,1-2.034,3.1,11.2,11.2,0,0,1-3.333,2.066A23.359,23.359,0,0,1-1506.3,494.491Z" transform="translate(1526.643 -340.469)" fill="rgba(0,0,0,0)"/><path d="M-1475.307,527.288h0c-9.973,0-20.19-.4-28.032-1.111-6.174-.555-13.778-1.555-14.942-3.163a19.21,19.21,0,0,1-2.922-5.8,31.393,31.393,0,0,1-1.176-7.759c-.3-6.234.308-15.184,1.222-28.731.372-5.515.794-11.761,1.237-19,.436-7.154,2.866-43.239,7.858-51.078a34.187,34.187,0,0,1,5.613-6.883,23.171,23.171,0,0,1,5.749-3.933c.39-.187.8-.367,1.2-.535a4.3,4.3,0,0,0-.373.38,142.189,142.189,0,0,0-1.915,14.92,75.906,75.906,0,0,0-.035,12.135c.39,4.247,1.29,7.43,2.675,9.461,6.347-4.016,12.87-11.07,17.895-19.353,4.81-7.928,7.349-15.526,6.79-20.323a26.628,26.628,0,0,1,5.4,2.064,37.442,37.442,0,0,1,8.77,6.363,7.588,7.588,0,0,0-2.659-.573,3.3,3.3,0,0,0-2.92,1.541c-6.324,9.629,15.61,61.539,20.072,71.848.606,11.192,1.472,19.558,2.167,26.281v.009c1.069,10.328,1.658,16.017-.1,19.924-.476,1.057-3.994,1.924-10.173,2.507C-1459.4,527-1467,527.288-1475.307,527.288Z" transform="translate(1532.735 -340.469)" fill="#ef6968"/><path d="M-1475.307,527.788h0c-9.987,0-20.221-.406-28.077-1.113-3.8-.341-6.957-.743-9.4-1.193-4.482-.827-5.518-1.637-5.906-2.174a19.7,19.7,0,0,1-2.995-5.944,31.858,31.858,0,0,1-1.2-7.882c-.3-6.263.307-15.223,1.222-28.787v-.016c.372-5.508.794-11.751,1.236-18.982.246-4.029.954-14.559,2.223-25.31,1.638-13.876,3.56-22.625,5.712-26.006a34.679,34.679,0,0,1,5.7-6.982,23.664,23.664,0,0,1,5.872-4.016c.4-.191.812-.375,1.229-.547l.526.833c-.088.08-.17.16-.244.239a143.5,143.5,0,0,0-1.882,14.726,75.423,75.423,0,0,0-.036,12.053c.357,3.883,1.139,6.845,2.328,8.815,6.152-4.019,12.441-10.885,17.317-18.921,4.754-7.836,7.267-15.315,6.721-20.006l-.084-.724.706.182a27.134,27.134,0,0,1,5.5,2.1,37.941,37.941,0,0,1,8.888,6.447l-.524.829a7.1,7.1,0,0,0-2.48-.54,2.788,2.788,0,0,0-2.5,1.315c-1.778,2.707-2.173,11.018,6.047,35.234,5.314,15.657,12.11,31.621,14.066,36.141l.036.082,0,.089c.605,11.178,1.47,19.537,2.165,26.254V504c1.078,10.414,1.672,16.151-.143,20.181-.364.808-1.856,1.976-10.582,2.8C-1459.37,527.5-1466.987,527.788-1475.307,527.788Zm-25.184-127.5a22.678,22.678,0,0,0-5.62,3.847,33.7,33.7,0,0,0-5.53,6.784c-1.116,1.752-2.194,5.155-3.2,10.113-.839,4.119-1.633,9.325-2.358,15.473-1.3,11.027-2.027,22.117-2.218,25.254-.442,7.234-.864,13.479-1.236,18.989v.014c-.913,13.53-1.516,22.468-1.221,28.674a30.919,30.919,0,0,0,1.155,7.636,18.724,18.724,0,0,0,2.848,5.65c.383.53,2.572,1.878,14.582,2.958,7.828.7,18.029,1.109,27.987,1.109h0c8.289,0,15.873-.285,21.354-.8,8.714-.822,9.662-1.989,9.764-2.215,1.7-3.785,1.12-9.426.06-19.667v-.009c-.695-6.713-1.558-15.06-2.164-26.217-2.537-5.864-8.9-20.942-14.06-36.135a174.951,174.951,0,0,1-6.168-21.9,46.651,46.651,0,0,1-.986-8.5c0-2.585.4-4.45,1.218-5.7a3.816,3.816,0,0,1,3.338-1.766,5.878,5.878,0,0,1,.8.058,35.418,35.418,0,0,0-7.142-4.9,26.47,26.47,0,0,0-4.613-1.838c.257,4.92-2.289,12.277-6.92,19.911-5.063,8.346-11.644,15.459-18.055,19.516l-.408.258-.272-.4c-1.434-2.1-2.363-5.364-2.76-9.7a76.4,76.4,0,0,1,.035-12.217C-1501.817,408.081-1500.842,402.253-1500.491,400.288Z" transform="translate(1532.735 -340.469)" fill="rgba(0,0,0,0)"/><path d="M43.7,4.97c-8.872,6.8-17.427,14.042-27.538,19.109,2.984,9.749,8.922,20.82,20.261,17.807,12.73-3.381,16.1-26.322,7.277-36.917" transform="translate(15.339 4.716)" fill="#fff"/><path d="M-1505.527,442.833a3.462,3.462,0,0,0-.156-1.041,51.225,51.225,0,0,0-3.508-6.252l-.161-1.725a11.872,11.872,0,0,1-7.714-2.748c-9.615-8.364-3.434-37.3-3.434-37.3s13.269-2.779,20.471,2.323c3.453,2.445,5.555,6.386,6.7,10.823a2.987,2.987,0,0,1,2.64-1.133c3.819.413,6.165,11.721-.148,12.2a7.83,7.83,0,0,1-1.362-.007c-.034,1.323-.121,2.621-.252,3.869a9.121,9.121,0,0,1-.865,2.991l.813,7.638c-2.012,1.236-12.1,7.542-13.026,10.359Z" transform="translate(1545.946 -379.731)" fill="#ffc8c5"/><path d="M-1505.23,443.534l-.79-.384-.008-.3a2.928,2.928,0,0,0-.127-.886,47.165,47.165,0,0,0-3.458-6.15l-.066-.1-.131-1.408a12.24,12.24,0,0,1-7.585-2.856c-2.279-1.982-3.879-5.224-4.755-9.636a54.074,54.074,0,0,1-.739-12.546,105.667,105.667,0,0,1,1.9-15.595l.068-.318.318-.067a43.977,43.977,0,0,1,8.184-.766,31.279,31.279,0,0,1,6.548.635,16.6,16.6,0,0,1,6.132,2.536c3.092,2.189,5.336,5.651,6.677,10.3a3.289,3.289,0,0,1,2.049-.717,3.548,3.548,0,0,1,.382.021c1.182.128,2.282,1.09,3.1,2.711a10.925,10.925,0,0,1,1.115,4.938c-.053,3.269-1.689,5.342-4.378,5.546a9.081,9.081,0,0,1-.916.025c-.041,1.131-.121,2.269-.238,3.391a9.583,9.583,0,0,1-.851,3.025l.832,7.813-.269.165c-.879.54-3.974,2.464-6.888,4.566-4.683,3.377-5.722,4.91-5.924,5.524Zm-3.475-8.161a52.832,52.832,0,0,1,3.427,6.078,29.665,29.665,0,0,1,5.566-4.794c2.658-1.917,5.395-3.646,6.681-4.441l-.795-7.466.061-.128a8.632,8.632,0,0,0,.819-2.827c.132-1.267.216-2.556.249-3.831l.014-.538.535.053a7.38,7.38,0,0,0,1.275.005c3.054-.231,3.432-3.269,3.453-4.565.051-3.163-1.594-6.451-3.322-6.638a2.469,2.469,0,0,0-2.211.966l-.623.707-.236-.912c-1.247-4.82-3.437-8.366-6.508-10.54-2.758-1.954-6.943-2.987-12.1-2.987a44.769,44.769,0,0,0-7.658.683,105.435,105.435,0,0,0-1.812,15.117,53.055,53.055,0,0,0,.722,12.3c.833,4.186,2.323,7.237,4.429,9.07a11.388,11.388,0,0,0,7.395,2.625l.447.008Z" transform="translate(1545.946 -379.731)" fill="rgba(0,0,0,0)"/><path d="M22.9,12.481s.863,6.7,3.761,9,7.125-5.738,6.884-7.729S24.51,12.239,22.9,12.481" transform="translate(21.727 11.623)" fill="#fff"/><path d="M72.627,104.134S61.854,41.577,40.439,33.362,55.7,107.924,55.7,107.924c6.5,6.27,2.881,7.026,16.932-3.791" transform="translate(32.003 31.114)" fill="#0baaaa"/><path d="M-1521.754,411.341c2.157-2.19,7.05-2.889,10.488-3.1,1.6-5.682,5.088-15.834,9.521-15.194,9.647,1.394,10.181,3.14,16.564,1.612,5.781-1.386,10.884-1.128,16.222,14.555,19.172,3.649,12.928,10.965-9.814,12.2q-4.252.232-8.2.226C-1511.06,421.638-1525.935,415.585-1521.754,411.341Z" transform="translate(1532.92 -393.016)" fill="#6b4643"/><path d="M-1486.972,422.138v-1c2.673,0,5.422-.076,8.172-.226a64.147,64.147,0,0,0,15.395-2.385c3.3-1.063,5.241-2.385,5.324-3.627.072-1.069-1.263-2-2.395-2.6a32.32,32.32,0,0,0-8.576-2.6l-.286-.054-.094-.276c-1.942-5.7-3.934-9.615-6.09-11.955a7.7,7.7,0,0,0-5.939-2.791,15.886,15.886,0,0,0-3.6.516,18.5,18.5,0,0,1-4.371.607,21.088,21.088,0,0,1-5.019-.785c-1.79-.42-4.018-.942-7.362-1.426a2.308,2.308,0,0,0-.328-.024c-1.631,0-3.4,1.822-5.124,5.269a57.792,57.792,0,0,0-3.516,9.59l-.1.342-.354.022c-4.982.31-8.591,1.359-10.163,2.954a1.453,1.453,0,0,0-.436,1.708c.247.59.993,1.525,3.148,2.63a34.658,34.658,0,0,0,7.261,2.544,105.432,105.432,0,0,0,24.452,2.563l0,.5v.5a127.135,127.135,0,0,1-13.8-.718,82.611,82.611,0,0,1-10.891-1.874,35.628,35.628,0,0,1-7.476-2.625c-1.945-1-3.161-2.053-3.614-3.134a2.423,2.423,0,0,1,.646-2.8c2.166-2.2,6.809-2.972,10.46-3.227a57.808,57.808,0,0,1,3.488-9.426,17.321,17.321,0,0,1,2.656-4.06,4.709,4.709,0,0,1,3.363-1.762,3.315,3.315,0,0,1,.471.034c3.387.489,5.638,1.017,7.447,1.442a20.384,20.384,0,0,0,4.791.758,17.562,17.562,0,0,0,4.138-.58,16.813,16.813,0,0,1,3.836-.543,8.642,8.642,0,0,1,6.675,3.113c2.217,2.405,4.249,6.344,6.208,12.035a32.6,32.6,0,0,1,8.569,2.643c2.029,1.066,3.013,2.26,2.927,3.549-.115,1.722-2.2,3.282-6.015,4.512a65.12,65.12,0,0,1-15.647,2.431C-1481.514,422.061-1484.281,422.138-1486.972,422.138Z" transform="translate(1532.92 -393.016)" fill="rgba(0,0,0,0)"/><path d="M11.766,22.408s8.256-7.229,17.147,1.049C17.7,27.181,11.766,22.408,11.766,22.408" transform="translate(11.165 18.49)" fill="#fff"/></g></g></svg>