<svg xmlns="http://www.w3.org/2000/svg" xmlns:xlink="http://www.w3.org/1999/xlink" width="100" height="100" viewBox="0 0 100 100"><defs><clipPath id="a"><circle cx="50" cy="50" r="50" transform="translate(1666 -575)" fill="#fff7ec"/></clipPath></defs><g transform="translate(-1666 575)" clip-path="url(#a)"><rect width="100" height="100" transform="translate(1666 -575)" fill="#ecf9ff"/><g transform="translate(1679.016 -558.908)"><path d="M-1641.725,656.507c-7.437.323-23.757-6.594-23.757-6.594,2.043-15.856,1.846-32.385,1.152-44.851-8.511,1.528-14.685-4.489-14.685-4.489s4.849-25.258,7.275-29.382,16.61-9.3,16.61-9.3l4.542-1.22-.079.452,20.122-2.213c1.7.606,15.435,2.3,15.435,2.3s6.469-.172,11.377,7.558c4.674,7.363,11.124,20.652,11.124,20.652s-10.783,7.108-16.667,8.413c1.828,17.017,6.97,51.587,6.97,51.587-9.375,6.143-34.569,7.1-34.569,7.1Z" transform="translate(1680.195 -511.646)" fill="#e0e0e0"/><path d="M-1636.867,657.018h-.01l-4.838-.012c-.171.007-.35.011-.533.011h0c-3.228,0-8.155-1.12-14.646-3.329-4.814-1.638-8.744-3.3-8.783-3.316l-.349-.148.049-.376c2.068-16.046,1.794-32.794,1.179-44.2a16.268,16.268,0,0,1-2.314.166,18.2,18.2,0,0,1-8.838-2.433,17.821,17.821,0,0,1-3.413-2.446l-.193-.188.051-.264c.2-1.035,4.894-25.391,7.335-29.541,1.058-1.8,4.232-3.949,9.433-6.395,3.825-1.8,7.4-3.109,7.437-3.122l.042-.013,5.3-1.424-.1.568,19.574-2.153.108.039c1.346.48,11.464,1.8,15.3,2.27a11.3,11.3,0,0,1,4.31,1.046,15.174,15.174,0,0,1,3.68,2.327,19.394,19.394,0,0,1,3.781,4.417c4.635,7.3,11.087,20.569,11.152,20.7l.191.394-.366.241c-.433.285-10.427,6.845-16.4,8.379,1.846,16.964,6.869,50.788,6.92,51.13l.047.316-.268.175a32.84,32.84,0,0,1-9.505,3.767,99.64,99.64,0,0,1-11.5,2.164c-7.408,1-13.753,1.248-13.817,1.25Zm-4.868-1.012h.011l4.839.012c.286-.011,6.494-.268,13.72-1.243,9.472-1.277,16.483-3.212,20.317-5.6-.524-3.542-5.211-35.326-6.925-51.287l-.048-.445.437-.1c5.123-1.137,14.2-6.858,16.132-8.1-1.111-2.265-6.748-13.661-10.9-20.206a16.136,16.136,0,0,0-7.021-6.365,10.373,10.373,0,0,0-3.9-.961h-.059l-.037,0c-.552-.068-13.293-1.643-15.426-2.287l-20.678,2.274.059-.335-3.763,1.011c-.293.108-3.7,1.373-7.341,3.083-4.941,2.324-8.05,4.4-8.99,5.994-2.22,3.775-6.627,26.2-7.161,28.949a18.214,18.214,0,0,0,3.04,2.129,17.19,17.19,0,0,0,8.318,2.288,15.286,15.286,0,0,0,2.694-.241l.556-.1.031.564c.405,7.273.557,14.4.451,21.19a214.208,214.208,0,0,1-1.558,23.374c2.344.968,15.856,6.42,22.689,6.42h0c.172,0,.341,0,.5-.01Z" transform="translate(1680.195 -511.646)" fill="rgba(0,0,0,0)"/><path d="M9.132,50.641S7.761,81.432,15,104.711A46.923,46.923,0,0,0,18.5,86.9c0-4.361.277-41.613.277-41.613s-8.636,3.376-9.646,5.356" transform="translate(1.349 6.767)" fill="#7c5942"/><path d="M51.982,42.424a238.686,238.686,0,0,1,5.083,24.17C58.642,77.749,65.8,100.525,66.14,103.5s.185-28.179-.625-34.726-2.922-24.271-3.529-25-10.082-1.7-10-1.355" transform="translate(7.767 6.328)" fill="#7c5942"/><path d="M-1661.891,614.181c-4.71-.318-8.33-7.514-10.205-9.878A22.208,22.208,0,0,0-1670.623,594a21.178,21.178,0,0,1-3.73-7.941,3.112,3.112,0,0,1-.291.4c-2.156,2.513-4.777-6.673-4.319-8.834.366-1.734,1.677-1.735,3.073-.6-.963-12.021,5.562-17.788,12.366-18.105,9.545-.446,13.863,10.983,13.077,17.693,0,0,.8-1.755,2.265-1.123,2.168.938,1.372,9.974-3.329,10.366,0,0-.021.107-.068.3-.087,4.026-.025,10.636,1.679,12.371a32.847,32.847,0,0,0,5.45,4.06c-5.022,4.81-11.622,11.6-17.022,11.6Q-1661.683,614.195-1661.891,614.181Z" transform="translate(1699.729 -553.361)" fill="#ffc299"/><path d="M-1661.472,614.695h0c-.15,0-.3-.005-.449-.015-3.985-.269-7.13-5-9.212-8.125-.525-.789-.978-1.47-1.352-1.941l-.193-.243.132-.28a21.441,21.441,0,0,0,1.436-9.9,20.973,20.973,0,0,1-3.467-7.1,1.364,1.364,0,0,1-.846.3,1.98,1.98,0,0,1-1.481-.884,14.257,14.257,0,0,1-2.012-4.594,11.967,11.967,0,0,1-.534-4.391c.34-1.61,1.384-1.784,1.817-1.784a2.639,2.639,0,0,1,1.182.319c-.26-5.536,1.078-10.127,3.892-13.322a12.694,12.694,0,0,1,9.013-4.313c.188-.009.377-.013.563-.013a11.221,11.221,0,0,1,8.531,3.987,18.4,18.4,0,0,1,3.757,7.024,19.894,19.894,0,0,1,.839,5.758,1.9,1.9,0,0,1,1.053-.324,2.063,2.063,0,0,1,.821.178c1.405.608,1.66,3.238,1.3,5.424-.422,2.571-1.8,5.387-4.4,5.849-.169,8.343.742,11.063,1.539,11.874a32.517,32.517,0,0,0,5.349,3.98l.566.336-.475.455c-.381.365-.771.741-1.168,1.124C-1650.177,608.806-1656.28,614.694-1661.472,614.695Zm-10.044-10.458c.355.475.758,1.08,1.213,1.765,1.972,2.965,4.953,7.445,8.446,7.681.125.008.254.013.382.013v.5l0-.5c4.789,0,10.731-5.733,15.505-10.339l.7-.678a30.455,30.455,0,0,1-4.994-3.8c-1.38-1.405-1.976-5.57-1.823-12.732v-.054l.013-.053c.044-.18.064-.281.064-.283l.074-.368.374-.031c2.282-.19,3.5-2.741,3.884-5.064.37-2.255-.069-4.067-.711-4.345a1.072,1.072,0,0,0-.424-.1c-.727,0-1.185.961-1.19.971l-.95-.268a18.85,18.85,0,0,0-4.256-13.5,10.116,10.116,0,0,0-7.784-3.652c-.17,0-.344,0-.516.012a11.7,11.7,0,0,0-8.31,3.975c-2.8,3.18-4.039,7.879-3.581,13.591l.093,1.167-.907-.739a2.531,2.531,0,0,0-1.429-.677c-.156,0-.629,0-.839.991-.292,1.377.892,6.357,2.345,8.149.265.327.521.514.7.514a.592.592,0,0,0,.4-.257,2.622,2.622,0,0,0,.244-.337l.6-.989.3,1.119a20.758,20.758,0,0,0,3.634,7.754l.1.124.01.161A23.045,23.045,0,0,1-1671.516,604.236Z" transform="translate(1699.729 -553.361)" fill="rgba(0,0,0,0)"/><path d="M-1662.525,599.219l-.219,0a7.6,7.6,0,0,1-4.6-1.486,7.146,7.146,0,0,1-2.007-2.411,9.22,9.22,0,0,0,6.252,2.3c.111,0,.2,0,.292,0,3.535-.089,6.455-1.912,8.68-5.418a8.959,8.959,0,0,1-1.759,4.187A8.027,8.027,0,0,1-1662.525,599.219Z" transform="translate(1699.729 -553.361)" fill="#ffb685"/><path d="M-1662.525,599.719h0l-.227,0a8.088,8.088,0,0,1-4.891-1.588,7.649,7.649,0,0,1-2.149-2.581l.774-.6a8.734,8.734,0,0,0,5.922,2.179c.106,0,.194,0,.278,0,3.359-.085,6.142-1.83,8.272-5.186l.917.341a9.452,9.452,0,0,1-1.863,4.426A8.5,8.5,0,0,1-1662.525,599.719Zm-4.437-2.33a7.14,7.14,0,0,0,4.227,1.328l.211,0a7.553,7.553,0,0,0,6.251-2.642,7.417,7.417,0,0,0,.863-1.372,10.134,10.134,0,0,1-7.381,3.415c-.092,0-.189,0-.3,0A10.094,10.094,0,0,1-1666.963,597.39Z" transform="translate(1699.729 -553.361)" fill="rgba(0,0,0,0)"/><path d="M49.349,40.975,35.087,54.7,25.665,42.653l-7.253,3.02,9.652,12.907L35.087,54.7l7.831,3.739L57.031,42.756" transform="translate(2.751 6.123)" fill="#e0e0e0"/><path d="M-1672.509,582.572a3.248,3.248,0,0,0-1.554-.776,38.944,38.944,0,0,1-.415-8.97,10.236,10.236,0,0,1-.834-.667c-8.177-7.268-.6-10.364,1.717-9.594s6.889-3.495,13.056-3.651,8.975,3.094,8.975,3.094,8.439.824,5.782,16.817a14.415,14.415,0,0,1-.553,2.415,2.83,2.83,0,0,0-.726.916h0a17.345,17.345,0,0,0-.324-5.377l-6.108-7.974s-10.231,7.966-18.283,5.38a22.9,22.9,0,0,0-.729,8.386v0Z" transform="translate(1696.344 -558.908)" fill="#7c5942"/><path d="M-1672.007,583.358l-.77-.36-.047-.039a2.814,2.814,0,0,0-1.3-.667l-.377-.047-.056-.375a39.869,39.869,0,0,1-.445-8.809c-.219-.167-.435-.344-.642-.528-4.027-3.579-4.2-6.1-3.632-7.592a5.316,5.316,0,0,1,4.858-2.99,3.126,3.126,0,0,1,.982.14,1.469,1.469,0,0,0,.464.068,11.073,11.073,0,0,0,3.656-1.255,22.316,22.316,0,0,1,8.765-2.489c.147,0,.3-.006.442-.006a13.794,13.794,0,0,1,6.715,1.612,9.238,9.238,0,0,1,2.076,1.519,6.989,6.989,0,0,1,4.158,2.727,11.767,11.767,0,0,1,2.117,5.258,28.884,28.884,0,0,1-.244,9.376,14.969,14.969,0,0,1-.572,2.492l-.047.146-.12.094a2.367,2.367,0,0,0-.583.738l-.136.284h-.877l.063-.558a16.888,16.888,0,0,0-.295-5.106l-5.738-7.491a36.959,36.959,0,0,1-4.362,2.7c-2.6,1.371-6.514,3.006-10.357,3.006a12.069,12.069,0,0,1-3.123-.394,22.952,22.952,0,0,0-.574,7.724l0,.04Zm-1.612-1.977a3.268,3.268,0,0,1,.549.222,22.767,22.767,0,0,1,.812-7.561l.146-.489.486.156a10.829,10.829,0,0,0,3.314.492c3.639,0,7.388-1.572,9.891-2.891a34.608,34.608,0,0,0,4.618-2.9l.4-.31,6.484,8.465.023.112a20,20,0,0,1,.408,3.235c.086-.379.157-.766.213-1.158l0-.012c1.04-6.258.467-11.044-1.657-13.839a5.816,5.816,0,0,0-3.683-2.4l-.2-.021-.131-.15a7.8,7.8,0,0,0-1.981-1.464,12.823,12.823,0,0,0-6.186-1.463c-.138,0-.278,0-.417.005a21.5,21.5,0,0,0-8.378,2.4,11.244,11.244,0,0,1-4.069,1.345,2.461,2.461,0,0,1-.78-.119,2.175,2.175,0,0,0-.666-.089c-1.259,0-3.308.728-3.923,2.346-.651,1.712.512,3.956,3.362,6.489a9.769,9.769,0,0,0,.793.635l.235.168-.029.287A37.425,37.425,0,0,0-1673.619,581.381Z" transform="translate(1696.344 -558.908)" fill="rgba(0,0,0,0)"/></g></g></svg>