<?xml version="1.0" encoding="UTF-8"?>
<svg version="1.1" xmlns="http://www.w3.org/2000/svg" width="512" height="512">
<path d="M0 0 C10.06535358 7.40629749 16.7430086 17.74771651 18.703125 30.15625 C18.94977863 32.51945844 19.13922161 34.86491756 19.2421875 37.23828125 C19.98082031 37.38523438 20.71945312 37.5321875 21.48046875 37.68359375 C23.00220703 38.02003906 23.00220703 38.02003906 24.5546875 38.36328125 C25.54082031 38.57210937 26.52695312 38.7809375 27.54296875 38.99609375 C31.2421875 40.23828125 31.2421875 40.23828125 33.35366821 41.64750671 C42.22755368 47.52389643 50.66207654 47.04966507 60.90234375 46.9375 C62.70113473 46.94114138 64.49992184 46.94785505 66.2986908 46.95747375 C71.00828763 46.97644088 75.71714189 46.96260327 80.42669678 46.93896484 C87.96545857 46.90443104 95.50403786 46.91051373 103.04281425 46.93509865 C105.65853123 46.93744939 108.27354621 46.91975526 110.88917542 46.89982605 C124.77380188 46.86356577 137.06585246 49.1062538 147.7734375 58.68359375 C158.95193387 70.51615108 160.85032933 83.54102981 160.6328125 99.16015625 C160.62533347 100.7572559 160.61964842 102.35436486 160.61566162 103.95147705 C160.60053575 108.11415853 160.56137039 112.27626376 160.5168457 116.4387207 C160.47560779 120.70255747 160.45759031 124.96648919 160.4375 129.23046875 C160.39486022 137.56666794 160.3267719 145.90240251 160.2421875 154.23828125 C163.17874146 154.21482086 163.17874146 154.21482086 166.11529541 154.19136047 C187.13864683 154.6551508 205.88971933 165.60039468 220.2421875 180.23828125 C235.47690416 196.26647273 240.91658127 216.45946112 240.7109375 238.08740234 C240.16142514 256.92251105 233.02258629 274.33020022 220.2421875 288.23828125 C219.60539062 288.94339844 218.96859375 289.64851563 218.3125 290.375 C205.67790346 303.69460479 187.55477593 312.54267121 169.2421875 314.23828125 C167.67199992 314.25913035 166.10155971 314.26496327 164.53125 314.2578125 C163.3239624 314.25358276 163.3239624 314.25358276 162.09228516 314.24926758 C161.48175293 314.24564209 160.8712207 314.2420166 160.2421875 314.23828125 C160.24587467 314.87659 160.24956184 315.51489876 160.25336075 316.1725502 C160.34193879 331.74887134 160.40800696 347.32510411 160.44943619 362.90161514 C160.4700068 370.43450247 160.49802118 377.96722104 160.54394531 385.5 C160.58398266 392.07035689 160.60966024 398.64059146 160.61854148 405.21106696 C160.62372789 408.68581024 160.63580058 412.1602038 160.66510773 415.63483429 C160.69766186 419.5264765 160.69813615 423.41778563 160.69628906 427.30957031 C160.71067017 428.44462006 160.72505127 429.5796698 160.73986816 430.74911499 C160.67233656 443.97232314 156.34499894 454.53353664 147.3984375 464.23828125 C140.23382636 471.05053447 130.91775771 475.3532681 121.00180721 475.37250233 C119.93470766 475.37696017 118.86760811 475.38141801 117.7681722 475.38601094 C116.59669671 475.38582658 115.42522121 475.38564222 114.21824646 475.38545227 C112.97302296 475.38912896 111.72779946 475.39280565 110.44484192 475.39659375 C106.9862212 475.40571446 103.52764791 475.41032894 100.06901968 475.41298306 C96.33945758 475.41688911 92.60990918 475.42646729 88.88035583 475.43519592 C79.87188372 475.45495267 70.8634105 475.46502591 61.85492215 475.47392371 C57.61105008 475.47830823 53.36717926 475.48367465 49.12330818 475.48891258 C35.01262769 475.50592468 20.90194798 475.52041812 6.79125881 475.52766132 C3.12996355 475.52957117 -0.53133171 475.53149151 -4.19262695 475.53344727 C-5.10260765 475.53393101 -6.01258835 475.53441475 -6.95014422 475.53491315 C-21.68617793 475.54321072 -36.42213039 475.56854312 -51.15812863 475.60102794 C-66.29256609 475.63411865 -81.42696229 475.65211193 -96.56143612 475.65530556 C-105.0567055 475.65746888 -113.55185644 475.66619135 -122.04709053 475.69176674 C-129.28320187 475.7135013 -136.51916598 475.72151067 -143.75530625 475.71179996 C-147.44482239 475.70726309 -151.13403495 475.70910525 -154.82350922 475.7285614 C-158.83088034 475.74951063 -162.83758174 475.73918266 -166.84498596 475.72602844 C-168.00084641 475.73699769 -169.15670685 475.74796693 -170.34759337 475.75926858 C-182.61130479 475.66231071 -192.90330808 471.58458552 -201.91796875 463.23828125 C-209.44785519 455.35653095 -213.87404973 446.07529263 -213.89203358 435.15456295 C-213.89649142 433.89936004 -213.90094926 432.64415712 -213.90554219 431.35091776 C-213.9054529 429.95537562 -213.90526305 428.55983349 -213.90498352 427.16429138 C-213.90828308 425.68374967 -213.91200884 424.20320885 -213.916125 422.72266918 C-213.92614281 418.6483754 -213.92986145 414.57409634 -213.93251431 410.49979198 C-213.93641804 406.10764813 -213.94599636 401.71551593 -213.95472717 397.32337952 C-213.97449015 386.71311277 -213.98455781 376.10284508 -213.99345496 365.49256453 C-213.99783833 360.49556691 -214.00320504 355.49857035 -214.00844383 350.50157356 C-214.02545632 333.88944309 -214.03995022 317.27731328 -214.04719257 300.66517544 C-214.04910246 296.35417619 -214.05102279 292.04317696 -214.05297852 287.73217773 C-214.05346226 286.66070384 -214.053946 285.58922994 -214.0544444 284.48528714 C-214.06274368 267.1303161 -214.08807882 249.77541402 -214.12055919 232.42047309 C-214.15363671 214.60112641 -214.17164198 196.78181476 -214.17483681 178.96243721 C-214.17700132 168.95810901 -214.18574125 158.95388133 -214.21129799 148.94958305 C-214.23301447 140.42889482 -214.24105075 131.90833154 -214.23133121 123.38761877 C-214.2267892 119.04193372 -214.2286669 114.69650642 -214.24809265 110.35085678 C-214.26574441 106.367567 -214.26471051 102.38472263 -214.24919536 98.40142799 C-214.24682232 96.96528593 -214.25112706 95.52911286 -214.26302401 94.09301811 C-214.3658288 80.85668957 -211.53550533 70.36373007 -202.7578125 60.23828125 C-193.26942938 51.330123 -182.67739664 46.86742982 -169.63623047 47.03051758 C-168.48315147 47.03231522 -168.48315147 47.03231522 -167.30677795 47.03414917 C-165.65084484 47.03727924 -163.99491525 47.04454435 -162.33901596 47.05558205 C-159.70478556 47.07056975 -157.07105765 47.06879429 -154.4367981 47.06193542 C-146.95151875 47.04321457 -139.46663045 47.0364323 -131.98144531 47.08374023 C-127.38770114 47.11156088 -122.79505591 47.10481474 -118.20132828 47.07672691 C-116.46566311 47.07250789 -114.7299153 47.08073377 -112.99438095 47.10245705 C-102.47483634 47.22867019 -94.88773756 46.27507516 -85.73294067 40.88066101 C-81.57519745 38.58543441 -77.43872943 37.76677187 -72.7578125 37.23828125 C-72.74363281 36.5834375 -72.72945312 35.92859375 -72.71484375 35.25390625 C-72.04736997 22.4817053 -66.8911503 12.161815 -57.765625 3.3046875 C-41.76488797 -10.32231382 -17.51582622 -11.18928842 0 0 Z " fill="#FEFEFE" transform="translate(242.7578125,21.76171875)"/>
<path d="M0 0 C10.06535358 7.40629749 16.7430086 17.74771651 18.703125 30.15625 C18.94977863 32.51945844 19.13922161 34.86491756 19.2421875 37.23828125 C19.98082031 37.38523438 20.71945312 37.5321875 21.48046875 37.68359375 C23.00220703 38.02003906 23.00220703 38.02003906 24.5546875 38.36328125 C25.54082031 38.57210937 26.52695312 38.7809375 27.54296875 38.99609375 C31.2421875 40.23828125 31.2421875 40.23828125 33.35366821 41.64750671 C42.22755368 47.52389643 50.66207654 47.04966507 60.90234375 46.9375 C62.70113473 46.94114138 64.49992184 46.94785505 66.2986908 46.95747375 C71.00828763 46.97644088 75.71714189 46.96260327 80.42669678 46.93896484 C87.96545857 46.90443104 95.50403786 46.91051373 103.04281425 46.93509865 C105.65853123 46.93744939 108.27354621 46.91975526 110.88917542 46.89982605 C124.77380188 46.86356577 137.06585246 49.1062538 147.7734375 58.68359375 C158.95193387 70.51615108 160.85032933 83.54102981 160.6328125 99.16015625 C160.62533347 100.7572559 160.61964842 102.35436486 160.61566162 103.95147705 C160.60053575 108.11415853 160.56137039 112.27626376 160.5168457 116.4387207 C160.47560779 120.70255747 160.45759031 124.96648919 160.4375 129.23046875 C160.39486022 137.56666794 160.3267719 145.90240251 160.2421875 154.23828125 C163.17874146 154.21482086 163.17874146 154.21482086 166.11529541 154.19136047 C187.13864683 154.6551508 205.88971933 165.60039468 220.2421875 180.23828125 C235.47690416 196.26647273 240.91658127 216.45946112 240.7109375 238.08740234 C240.16142514 256.92251105 233.02258629 274.33020022 220.2421875 288.23828125 C219.60539062 288.94339844 218.96859375 289.64851563 218.3125 290.375 C205.67790346 303.69460479 187.55477593 312.54267121 169.2421875 314.23828125 C167.67199992 314.25913035 166.10155971 314.26496327 164.53125 314.2578125 C163.3239624 314.25358276 163.3239624 314.25358276 162.09228516 314.24926758 C161.48175293 314.24564209 160.8712207 314.2420166 160.2421875 314.23828125 C160.24587467 314.87659 160.24956184 315.51489876 160.25336075 316.1725502 C160.34193879 331.74887134 160.40800696 347.32510411 160.44943619 362.90161514 C160.4700068 370.43450247 160.49802118 377.96722104 160.54394531 385.5 C160.58398266 392.07035689 160.60966024 398.64059146 160.61854148 405.21106696 C160.62372789 408.68581024 160.63580058 412.1602038 160.66510773 415.63483429 C160.69766186 419.5264765 160.69813615 423.41778563 160.69628906 427.30957031 C160.71067017 428.44462006 160.72505127 429.5796698 160.73986816 430.74911499 C160.67233656 443.97232314 156.34499894 454.53353664 147.3984375 464.23828125 C140.23382636 471.05053447 130.91775771 475.3532681 121.00180721 475.37250233 C119.93470766 475.37696017 118.86760811 475.38141801 117.7681722 475.38601094 C116.59669671 475.38582658 115.42522121 475.38564222 114.21824646 475.38545227 C112.97302296 475.38912896 111.72779946 475.39280565 110.44484192 475.39659375 C106.9862212 475.40571446 103.52764791 475.41032894 100.06901968 475.41298306 C96.33945758 475.41688911 92.60990918 475.42646729 88.88035583 475.43519592 C79.87188372 475.45495267 70.8634105 475.46502591 61.85492215 475.47392371 C57.61105008 475.47830823 53.36717926 475.48367465 49.12330818 475.48891258 C35.01262769 475.50592468 20.90194798 475.52041812 6.79125881 475.52766132 C3.12996355 475.52957117 -0.53133171 475.53149151 -4.19262695 475.53344727 C-5.10260765 475.53393101 -6.01258835 475.53441475 -6.95014422 475.53491315 C-21.68617793 475.54321072 -36.42213039 475.56854312 -51.15812863 475.60102794 C-66.29256609 475.63411865 -81.42696229 475.65211193 -96.56143612 475.65530556 C-105.0567055 475.65746888 -113.55185644 475.66619135 -122.04709053 475.69176674 C-129.28320187 475.7135013 -136.51916598 475.72151067 -143.75530625 475.71179996 C-147.44482239 475.70726309 -151.13403495 475.70910525 -154.82350922 475.7285614 C-158.83088034 475.74951063 -162.83758174 475.73918266 -166.84498596 475.72602844 C-168.00084641 475.73699769 -169.15670685 475.74796693 -170.34759337 475.75926858 C-182.61130479 475.66231071 -192.90330808 471.58458552 -201.91796875 463.23828125 C-209.44785519 455.35653095 -213.87404973 446.07529263 -213.89203358 435.15456295 C-213.89649142 433.89936004 -213.90094926 432.64415712 -213.90554219 431.35091776 C-213.9054529 429.95537562 -213.90526305 428.55983349 -213.90498352 427.16429138 C-213.90828308 425.68374967 -213.91200884 424.20320885 -213.916125 422.72266918 C-213.92614281 418.6483754 -213.92986145 414.57409634 -213.93251431 410.49979198 C-213.93641804 406.10764813 -213.94599636 401.71551593 -213.95472717 397.32337952 C-213.97449015 386.71311277 -213.98455781 376.10284508 -213.99345496 365.49256453 C-213.99783833 360.49556691 -214.00320504 355.49857035 -214.00844383 350.50157356 C-214.02545632 333.88944309 -214.03995022 317.27731328 -214.04719257 300.66517544 C-214.04910246 296.35417619 -214.05102279 292.04317696 -214.05297852 287.73217773 C-214.05346226 286.66070384 -214.053946 285.58922994 -214.0544444 284.48528714 C-214.06274368 267.1303161 -214.08807882 249.77541402 -214.12055919 232.42047309 C-214.15363671 214.60112641 -214.17164198 196.78181476 -214.17483681 178.96243721 C-214.17700132 168.95810901 -214.18574125 158.95388133 -214.21129799 148.94958305 C-214.23301447 140.42889482 -214.24105075 131.90833154 -214.23133121 123.38761877 C-214.2267892 119.04193372 -214.2286669 114.69650642 -214.24809265 110.35085678 C-214.26574441 106.367567 -214.26471051 102.38472263 -214.24919536 98.40142799 C-214.24682232 96.96528593 -214.25112706 95.52911286 -214.26302401 94.09301811 C-214.3658288 80.85668957 -211.53550533 70.36373007 -202.7578125 60.23828125 C-193.26942938 51.330123 -182.67739664 46.86742982 -169.63623047 47.03051758 C-168.48315147 47.03231522 -168.48315147 47.03231522 -167.30677795 47.03414917 C-165.65084484 47.03727924 -163.99491525 47.04454435 -162.33901596 47.05558205 C-159.70478556 47.07056975 -157.07105765 47.06879429 -154.4367981 47.06193542 C-146.95151875 47.04321457 -139.46663045 47.0364323 -131.98144531 47.08374023 C-127.38770114 47.11156088 -122.79505591 47.10481474 -118.20132828 47.07672691 C-116.46566311 47.07250789 -114.7299153 47.08073377 -112.99438095 47.10245705 C-102.47483634 47.22867019 -94.88773756 46.27507516 -85.73294067 40.88066101 C-81.57519745 38.58543441 -77.43872943 37.76677187 -72.7578125 37.23828125 C-72.74363281 36.5834375 -72.72945312 35.92859375 -72.71484375 35.25390625 C-72.04736997 22.4817053 -66.8911503 12.161815 -57.765625 3.3046875 C-41.76488797 -10.32231382 -17.51582622 -11.18928842 0 0 Z M-181.0703125 84.80078125 C-183.68551002 88.57828878 -183.88382174 91.43188354 -183.88924026 95.91339493 C-183.89308141 97.10288907 -183.89692255 98.29238322 -183.9008801 99.51792264 C-183.90001362 100.83122265 -183.89914713 102.14452265 -183.89825439 103.49761963 C-183.90083741 104.9017777 -183.90385039 106.30593504 -183.9072578 107.71009135 C-183.91533858 111.57773936 -183.91711797 115.44536883 -183.91785526 119.31302428 C-183.91970395 123.48083861 -183.92725037 127.64864327 -183.93399048 131.81645203 C-183.94758212 140.93422087 -183.95359985 150.05198532 -183.95800114 159.16976261 C-183.96076223 164.86131191 -183.96499935 170.55285951 -183.96950531 176.24440765 C-183.98169921 191.99781309 -183.99199819 207.75121717 -183.9953804 223.50462723 C-183.99559997 224.51321637 -183.99581953 225.52180551 -183.99604575 226.56095795 C-183.99626403 227.5719827 -183.99648231 228.58300745 -183.9967072 229.62466931 C-183.99715067 231.67344491 -183.99759723 233.7222205 -183.99804688 235.77099609 C-183.9982683 236.78726305 -183.99848973 237.80353001 -183.99871787 238.85059294 C-184.0026662 255.31916985 -184.02012074 271.78770252 -184.0434064 288.25626233 C-184.06711192 305.15798835 -184.07958189 322.05969216 -184.08074832 338.96143508 C-184.08166555 348.45366687 -184.0874298 357.94584102 -184.10556793 367.43805695 C-184.12095815 375.52079582 -184.12609577 383.60345926 -184.11782983 391.68621001 C-184.11391945 395.81059761 -184.11487174 399.93483323 -184.12888718 404.05920219 C-184.14160295 407.83563414 -184.14044917 411.61179956 -184.12829646 415.38823101 C-184.12540708 417.40005335 -184.13729285 419.4118802 -184.14971852 421.42366624 C-184.10987966 428.67780712 -184.04597745 434.56198102 -179.00390625 440.19921875 C-178.40707031 440.66585938 -177.81023437 441.1325 -177.1953125 441.61328125 C-176.59589844 442.09539062 -175.99648437 442.5775 -175.37890625 443.07421875 C-172.44161762 445.18340432 -170.58846035 445.36461206 -167.01505661 445.36970901 C-165.50458177 445.37547073 -165.50458177 445.37547073 -163.96359229 445.38134885 C-162.84902663 445.38048237 -161.73446098 445.37961588 -160.58612061 445.37872314 C-159.40849852 445.38169427 -158.23087643 445.38466539 -157.01756883 445.38772655 C-153.73860801 445.39492213 -150.45967904 445.39758705 -147.18071151 445.39832401 C-143.6482139 445.40017168 -140.11572772 445.40771761 -136.58323669 445.41445923 C-128.8538615 445.42805553 -121.12449148 445.43406943 -113.39510632 445.43846989 C-108.57043281 445.44123041 -103.74576132 445.44546744 -98.92108917 445.44997406 C-85.56794739 445.46216897 -72.21480723 445.47246749 -58.86166 445.47584915 C-58.00659997 445.47606872 -57.15153993 445.47628828 -56.27056898 445.4765145 C-55.41343797 445.47673278 -54.55630696 445.47695106 -53.67320228 445.47717595 C-51.93626896 445.47761942 -50.19933565 445.47806598 -48.46240234 445.47851562 C-47.17002814 445.47884777 -47.17002814 445.47884777 -45.85154536 445.47918662 C-31.8912379 445.4831345 -17.93098264 445.50058721 -3.97069535 445.52387515 C10.35569624 445.54758122 24.68206163 445.56005068 39.00847316 445.56121707 C47.054783 445.56213431 55.10102485 445.5678988 63.14731598 445.58603668 C69.99932742 445.60142772 76.85124986 445.6065641 83.70327529 445.59829858 C87.19970964 445.59438836 90.69596473 445.59533957 94.19237709 445.60935593 C97.98259398 445.62199974 101.77234784 445.61623934 105.56256104 445.60577393 C106.6682038 445.61383033 107.77384657 445.62188673 108.91299367 445.63018727 C115.19722001 445.58948402 119.9893656 445.1989808 124.8515625 440.7734375 C128.48152727 436.0868049 130.49489435 433.06463709 130.48269653 427.08770752 C130.48544586 426.04726791 130.48819519 425.00682831 130.49102783 423.93486023 C130.48383728 422.79910049 130.47664673 421.66334076 130.46923828 420.49316406 C130.46967636 418.69275414 130.46967636 418.69275414 130.47012329 416.85597229 C130.46896916 413.56905573 130.45894251 410.28230972 130.44497538 406.99542713 C130.43246812 403.55878758 130.43129752 400.12214464 130.42892456 396.68548584 C130.42270978 390.17967357 130.40629899 383.67392856 130.38622558 377.1681459 C130.36386653 369.76070657 130.35287314 362.35326402 130.34283471 354.94579935 C130.32193275 339.70992104 130.28675682 324.47410982 130.2421875 309.23828125 C128.49870215 310.17597628 126.75682865 311.11666861 125.015625 312.05859375 C124.04544434 312.58211426 123.07526367 313.10563477 122.07568359 313.64501953 C119.59157846 315.04182033 117.22690463 316.51842161 114.8671875 318.11328125 C111.89387479 320.0181551 109.85482361 320.89512418 106.2421875 320.23828125 C105.9121875 319.90828125 105.5821875 319.57828125 105.2421875 319.23828125 C105.66354093 313.5500099 106.95204331 308.39559386 108.62109375 302.94921875 C109.33532159 299.83177146 109.63932293 297.42381441 109.2421875 294.23828125 C107.38451172 291.84145489 107.38451172 291.84145489 104.8046875 289.73828125 C95.2328746 280.69522289 89.17011813 269.7922556 85.2421875 257.23828125 C84.92378906 256.25988281 84.60539062 255.28148437 84.27734375 254.2734375 C78.61258366 233.98994171 82.2081367 213.10358832 92.1015625 194.87109375 C94.96317524 189.86716657 98.35460959 185.48695829 102.2421875 181.23828125 C102.83257812 180.55636719 103.42296875 179.87445313 104.03125 179.171875 C111.25612838 171.31674127 120.75150831 165.92049362 130.2421875 161.23828125 C130.35833436 152.11930424 130.44703014 143.0005841 130.50124836 133.88102722 C130.52727821 129.64584111 130.56255361 125.41116321 130.61938477 121.17626953 C130.67394304 117.08486986 130.70365772 112.99395721 130.71657372 108.90222168 C130.72577117 107.34574727 130.74373177 105.78929777 130.77083778 104.23303223 C131.07753803 92.28521938 131.07753803 92.28521938 125.2421875 82.23828125 C121.48290808 78.81070295 118.21797893 78.1124151 113.2199707 78.12475586 C112.19913895 78.12483139 111.17830719 78.12490692 110.12654114 78.12498474 C108.47642281 78.13272667 108.47642281 78.13272667 106.79296875 78.140625 C105.6652153 78.14203995 104.53746185 78.1434549 103.37553406 78.14491272 C99.76855838 78.15051655 96.16164446 78.16306972 92.5546875 78.17578125 C90.11132902 78.18079576 87.66796957 78.18535875 85.22460938 78.18945312 C79.23044763 78.20048722 73.23632198 78.2172291 67.2421875 78.23828125 C67.56574219 79.48222656 67.88929688 80.72617188 68.22265625 82.0078125 C69.51434258 86.97385757 70.1330272 91.23389192 67.9921875 96.05078125 C66.06028852 98.46565497 65.10985981 99.16079148 62.2421875 100.23828125 C58.98407078 100.49275684 58.98407078 100.49275684 55.0372467 100.49897766 C53.94710342 100.50471598 53.94710342 100.50471598 52.83493704 100.51057023 C50.39908047 100.52089106 47.96346001 100.51690987 45.52758789 100.51293945 C43.78143597 100.51728643 42.03528596 100.52246953 40.28913879 100.52842712 C35.54536812 100.54182972 30.80167705 100.54239441 26.05789113 100.53986382 C22.09902727 100.538795 18.14017958 100.54367521 14.18131918 100.54846925 C4.84262825 100.55956873 -4.49602246 100.55999931 -13.8347168 100.55395508 C-23.47207739 100.5479135 -33.10929205 100.56022996 -42.74662775 100.58152515 C-51.01848976 100.59913172 -59.29030528 100.60514401 -67.56218535 100.6018874 C-72.50368025 100.60007294 -77.44507104 100.602727 -82.386549 100.61660194 C-87.03310667 100.62916035 -91.67943657 100.62725505 -96.32599068 100.61419106 C-98.03159283 100.61182141 -99.73721091 100.61457383 -101.4427948 100.62281418 C-103.77075805 100.63325072 -106.09795263 100.62520644 -108.42588806 100.61250305 C-110.38013152 100.61275466 -110.38013152 100.61275466 -112.37385464 100.61301136 C-115.9909186 100.21246773 -117.86379044 99.39413601 -120.7578125 97.23828125 C-123.46676992 93.755336 -123.24676198 89.45906572 -122.7578125 85.23828125 C-122.10559826 82.90086698 -121.44007925 80.5671009 -120.7578125 78.23828125 C-128.05342703 78.13673099 -135.34885879 78.06675234 -142.64501953 78.01855469 C-145.12620861 77.99845884 -147.60735045 77.97117741 -150.08837891 77.93652344 C-153.65799632 77.88791831 -157.22698666 77.86529153 -160.796875 77.84765625 C-161.90334381 77.82701111 -163.00981262 77.80636597 -164.14981079 77.78509521 C-172.06592553 77.78279694 -175.68610901 78.83450171 -181.0703125 84.80078125 Z " fill="#5CBEFE" transform="translate(242.7578125,21.76171875)"/>
<path d="M0 0 C0.79120743 -0.00029205 1.58241486 -0.00058411 2.39759827 -0.00088501 C4.98393144 0.00049598 7.56996785 0.01599847 10.15625 0.03173828 C11.96085452 0.0354728 13.76546108 0.0383177 15.57006836 0.04031372 C20.29813324 0.04791564 25.02607342 0.06753428 29.75408936 0.08972168 C34.5873445 0.11025455 39.42061997 0.1193313 44.25390625 0.12939453 C53.72140867 0.15078366 63.18881893 0.18487768 72.65625 0.22705078 C70.06308972 2.862668 67.5281224 5.32948656 64.63671875 7.64111328 C61.46915346 10.38938094 59.32411087 13.14094458 56.96875 16.60205078 C56.22238281 17.68228516 55.47601563 18.76251953 54.70703125 19.87548828 C53.23266503 22.28502394 52.09821378 24.36964059 51.02807617 26.93652344 C50.57537354 28.02239746 50.1226709 29.10827148 49.65625 30.22705078 C49.04761108 30.23069641 48.43897217 30.23434204 47.81188965 30.23809814 C41.45201024 30.28005064 35.09284393 30.34948532 28.73339844 30.43457031 C26.36302844 30.46271967 23.99256562 30.48396408 21.62207031 30.49804688 C18.20589894 30.51955929 14.79083645 30.56625472 11.375 30.61767578 C10.32260132 30.61890442 9.27020264 30.62013306 8.18591309 30.62139893 C1.8584753 30.74611327 -3.08197635 31.54185303 -8.34375 35.22705078 C-12.54297888 39.64162473 -13.46794588 42.92087303 -13.47517776 48.90216446 C-13.47901891 50.0916586 -13.48286005 51.28115275 -13.4868176 52.50669217 C-13.48595112 53.81999218 -13.48508463 55.13329218 -13.48419189 56.48638916 C-13.48677491 57.89054723 -13.48978789 59.29470457 -13.4931953 60.69886088 C-13.50127608 64.5665089 -13.50305547 68.43413836 -13.50379276 72.30179381 C-13.50564145 76.46960814 -13.51318787 80.6374128 -13.51992798 84.80522156 C-13.53351962 93.9229904 -13.53953735 103.04075485 -13.54393864 112.15853214 C-13.54669973 117.85008144 -13.55093685 123.54162904 -13.55544281 129.23317719 C-13.56763671 144.98658263 -13.57793569 160.7399867 -13.5813179 176.49339676 C-13.58153747 177.5019859 -13.58175703 178.51057504 -13.58198325 179.54972748 C-13.58220153 180.56075223 -13.58241981 181.57177698 -13.5826447 182.61343884 C-13.58308817 184.66221444 -13.58353473 186.71099003 -13.58398438 188.75976562 C-13.5842058 189.77603258 -13.58442723 190.79229954 -13.58465537 191.83936247 C-13.5886037 208.30793938 -13.60605824 224.77647205 -13.6293439 241.24503186 C-13.65304942 258.14675788 -13.66551939 275.0484617 -13.66668582 291.95020461 C-13.66760305 301.4424364 -13.6733673 310.93461055 -13.69150543 320.42682648 C-13.70689565 328.50956536 -13.71203327 336.59222879 -13.70376733 344.67497954 C-13.69985695 348.79936714 -13.70080924 352.92360276 -13.71482468 357.04797173 C-13.72754045 360.82440367 -13.72638667 364.60056909 -13.71423396 368.37700054 C-13.71134458 370.38882288 -13.72323035 372.40064973 -13.73565602 374.41243577 C-13.69187156 384.45261107 -13.69187156 384.45261107 -8.80859375 392.96923828 C-4.71469812 396.00563146 -2.65721692 397.35126656 2.39900589 397.35847855 C3.90948073 397.36424026 3.90948073 397.36424026 5.45047021 397.37011838 C6.56503587 397.3692519 7.67960152 397.36838542 8.82794189 397.36749268 C10.00556398 397.3704638 11.18318607 397.37343492 12.39649367 397.37649608 C15.67545449 397.38369166 18.95438346 397.38635658 22.23335099 397.38709354 C25.7658486 397.38894121 29.29833478 397.39648714 32.83082581 397.40322876 C40.560201 397.41682506 48.28957102 397.42283896 56.01895618 397.42723942 C60.84362969 397.42999994 65.66830118 397.43423697 70.49297333 397.43874359 C83.84611511 397.45093851 97.19925527 397.46123702 110.5524025 397.46461868 C111.40746253 397.46483825 112.26252257 397.46505782 113.14349352 397.46528403 C114.00062453 397.46550231 114.85775554 397.46572059 115.74086022 397.46594548 C117.47779354 397.46638895 119.21472685 397.46683551 120.95166016 397.46728516 C122.24403436 397.4676173 122.24403436 397.4676173 123.56251714 397.46795616 C137.5228246 397.47190403 151.48307986 397.48935674 165.44336715 397.51264468 C179.76975874 397.53635075 194.09612413 397.54882021 208.42253566 397.5499866 C216.4688455 397.55090384 224.51508735 397.55666833 232.56137848 397.57480621 C239.41338992 397.59019725 246.26531236 397.59533363 253.11733779 397.58706811 C256.61377214 397.58315789 260.11002723 397.5841091 263.60643959 397.59812546 C267.39665648 397.61076927 271.18641034 397.60500887 274.97662354 397.59454346 C276.0822663 397.60259986 277.18790907 397.61065627 278.32705617 397.6189568 C283.84267414 397.58323186 287.93310492 397.41946028 292.65625 394.22705078 C296.77580002 389.76420492 298.89740789 386.17126189 298.9347229 380.07647705 C298.94588638 379.03603745 298.95704987 377.99559784 298.96855164 376.92362976 C298.97179192 375.21999016 298.97179192 375.21999016 298.97509766 373.48193359 C298.98514328 372.28166031 298.9951889 371.08138702 299.00553894 369.84474182 C299.03112601 366.55788527 299.0479842 363.27112281 299.06096697 359.98419666 C299.0766035 356.54749963 299.10339204 353.11088998 299.1289978 349.67425537 C299.17577638 343.16850827 299.21252491 336.66274471 299.24567068 330.15691543 C299.28389859 322.74941265 299.33330699 315.34199765 299.38365483 307.93456888 C299.48696098 292.69879297 299.57622562 277.46296784 299.65625 262.22705078 C308.20052328 263.2655394 308.20052328 263.2655394 311.84375 264.22705078 C315.70995173 265.14055333 319.49648343 265.51004142 323.45703125 265.78955078 C324.62016846 265.87333984 325.78330566 265.95712891 326.98168945 266.04345703 C327.86429443 266.10404297 328.74689941 266.16462891 329.65625 266.22705078 C329.7499472 282.57850717 329.82035293 298.92987564 329.86349869 315.2815361 C329.88407 322.87495685 329.91208575 330.46821019 329.95800781 338.06152344 C329.99804298 344.68461802 330.02372223 351.30759129 330.03260398 357.93080354 C330.03779075 361.43349124 330.04986583 364.93583206 330.07917023 368.4384079 C330.11171997 372.36118265 330.11219879 376.2836269 330.11035156 380.20654297 C330.12473267 381.35094345 330.13911377 382.49534393 330.15393066 383.67442322 C330.08676855 396.92805376 325.78227556 407.49712475 316.8125 417.22705078 C309.64788886 424.039304 300.33182021 428.34203763 290.41586971 428.36127186 C289.34877016 428.3657297 288.28167061 428.37018755 287.1822347 428.37478048 C286.01075921 428.37459611 284.83928371 428.37441175 283.63230896 428.3742218 C282.38708546 428.37789849 281.14186196 428.38157518 279.85890442 428.38536328 C276.4002837 428.39448399 272.94171041 428.39909847 269.48308218 428.40175259 C265.75352008 428.40565864 262.02397168 428.41523682 258.29441833 428.42396545 C249.28594622 428.4437222 240.277473 428.45379544 231.26898465 428.46269324 C227.02511258 428.46707776 222.78124176 428.47244418 218.53737068 428.47768211 C204.42669019 428.49469421 190.31601048 428.50918765 176.20532131 428.51643085 C172.54402605 428.5183407 168.88273079 428.52026104 165.22143555 428.5222168 C164.31145485 428.52270054 163.40147415 428.52318428 162.46391828 428.52368268 C147.72788457 428.53198025 132.99193211 428.55731265 118.25593387 428.58979747 C103.12149641 428.62288818 87.98710021 428.64088147 72.85262638 428.6440751 C64.357357 428.64623842 55.86220606 428.65496089 47.36697197 428.68053627 C40.13086063 428.70227083 32.89489652 428.7102802 25.65875625 428.70056949 C21.96924011 428.69603262 18.28002755 428.69787478 14.59055328 428.71733093 C10.58318216 428.73828017 6.57648076 428.7279522 2.56907654 428.71479797 C1.41321609 428.72576722 0.25735565 428.73673647 -0.93353087 428.74803811 C-13.19724229 428.65108024 -23.48924558 424.57335505 -32.50390625 416.22705078 C-40.03379269 408.34530049 -44.45998723 399.06406216 -44.47797108 388.14333248 C-44.48242892 386.88812957 -44.48688676 385.63292665 -44.49147969 384.33968729 C-44.4913904 382.94414515 -44.49120055 381.54860302 -44.49092102 380.15306091 C-44.49422058 378.6725192 -44.49794634 377.19197838 -44.5020625 375.71143872 C-44.51208031 371.63714493 -44.51579895 367.56286587 -44.51845181 363.48856151 C-44.52235554 359.09641766 -44.53193386 354.70428546 -44.54066467 350.31214905 C-44.56042765 339.7018823 -44.57049531 329.09161461 -44.57939246 318.48133406 C-44.58377583 313.48433644 -44.58914254 308.48733988 -44.59438133 303.49034309 C-44.61139382 286.87821262 -44.62588772 270.26608281 -44.63313007 253.65394497 C-44.63503996 249.34294573 -44.63696029 245.03194649 -44.63891602 240.72094727 C-44.63939976 239.64947337 -44.6398835 238.57799947 -44.6403819 237.47405667 C-44.64868118 220.11908564 -44.67401632 202.76418355 -44.70649669 185.40924262 C-44.73957421 167.58989594 -44.75757948 149.77058429 -44.76077431 131.95120674 C-44.76293882 121.94687854 -44.77167875 111.94265086 -44.79723549 101.93835258 C-44.81895197 93.41766435 -44.82698825 84.89710107 -44.81726871 76.3763883 C-44.8127267 72.03070325 -44.8146044 67.68527595 -44.83403015 63.33962631 C-44.85168191 59.35633653 -44.85064801 55.37349216 -44.83513286 51.39019752 C-44.83275982 49.95405546 -44.83706456 48.51788239 -44.84896151 47.08178764 C-44.9517663 33.84545911 -42.12144283 23.3524996 -33.34375 13.22705078 C-23.77535561 4.24377404 -13.08251826 -0.12910291 0 0 Z " fill="#435E88" transform="translate(73.34375,68.77294921875)"/>
<path d="M0 0 C10.06535358 7.40629749 16.7430086 17.74771651 18.703125 30.15625 C18.94977863 32.51945844 19.13922161 34.86491756 19.2421875 37.23828125 C19.98082031 37.38523438 20.71945312 37.5321875 21.48046875 37.68359375 C38.93726629 41.54316525 52.71553593 52.08141724 62.3671875 66.94921875 C67.01626526 75.10447599 71.06508421 83.69267937 70.2421875 93.23828125 C68.13300357 97.23066512 66.49239776 99.67616129 62.2421875 101.23828125 C58.98686409 101.49555016 58.98686409 101.49555016 55.04397583 101.50570679 C54.31791921 101.5102379 53.59186258 101.51476901 52.84380424 101.51943743 C50.41029052 101.53210027 47.97700006 101.53045987 45.54345703 101.52880859 C43.79892692 101.53479266 42.05439946 101.54159793 40.30987549 101.54916382 C35.57017709 101.56684316 30.83055088 101.57152001 26.0908227 101.57279539 C22.1345372 101.57469409 18.17826853 101.58205128 14.22198951 101.58913958 C4.88805595 101.6054284 -4.44583902 101.61030807 -13.77978516 101.60888672 C-23.40920997 101.60768506 -33.03841074 101.6287906 -42.66777885 101.66037405 C-50.93456225 101.68652242 -59.20127241 101.69725462 -67.46809685 101.6959759 C-72.40575097 101.69546585 -77.343206 101.70117263 -82.28081894 101.722332 C-86.92496556 101.74169021 -91.56872267 101.74185546 -96.212883 101.72729874 C-97.91645755 101.72520655 -99.62005634 101.72993594 -101.32358932 101.74201965 C-103.65139536 101.75746086 -105.9778564 101.74817282 -108.30563354 101.73275757 C-109.60754072 101.7338471 -110.9094479 101.73493664 -112.25080681 101.73605919 C-116.90172535 101.07591636 -120.21155226 99.20624883 -123.1328125 95.48828125 C-124.83286526 89.3680913 -123.73455323 85.16850345 -121.7578125 79.23828125 C-137.5978125 78.90828125 -153.4378125 78.57828125 -169.7578125 78.23828125 C-169.7578125 77.90828125 -169.7578125 77.57828125 -169.7578125 77.23828125 C-153.2578125 77.23828125 -136.7578125 77.23828125 -119.7578125 77.23828125 C-119.4278125 75.58828125 -119.0978125 73.93828125 -118.7578125 72.23828125 C-113.89047747 63.14722573 -108.02648433 55.521609 -99.58984375 49.59765625 C-97.74626185 48.31368758 -97.74626185 48.31368758 -96.3671875 46.7578125 C-90.16503564 40.90189727 -81.02202149 38.29873285 -72.7578125 37.23828125 C-72.74363281 36.5834375 -72.72945313 35.92859375 -72.71484375 35.25390625 C-72.04736997 22.4817053 -66.8911503 12.161815 -57.765625 3.3046875 C-41.76488797 -10.32231382 -17.51582622 -11.18928842 0 0 Z " fill="#089CFE" transform="translate(242.7578125,21.76171875)"/>
<path d="M0 0 C0.79120743 -0.00029205 1.58241486 -0.00058411 2.39759827 -0.00088501 C4.98393144 0.00049598 7.56996785 0.01599847 10.15625 0.03173828 C11.96085452 0.0354728 13.76546108 0.0383177 15.57006836 0.04031372 C20.29813324 0.04791564 25.02607342 0.06753428 29.75408936 0.08972168 C34.5873445 0.11025455 39.42061997 0.1193313 44.25390625 0.12939453 C53.72140867 0.15078366 63.18881893 0.18487768 72.65625 0.22705078 C70.06308972 2.862668 67.5281224 5.32948656 64.63671875 7.64111328 C61.46915346 10.38938094 59.32411087 13.14094458 56.96875 16.60205078 C56.22238281 17.68228516 55.47601563 18.76251953 54.70703125 19.87548828 C53.23266503 22.28502394 52.09821378 24.36964059 51.02807617 26.93652344 C50.57537354 28.02239746 50.1226709 29.10827148 49.65625 30.22705078 C49.04761108 30.23069641 48.43897217 30.23434204 47.81188965 30.23809814 C41.45201024 30.28005064 35.09284393 30.34948532 28.73339844 30.43457031 C26.36302844 30.46271967 23.99256562 30.48396408 21.62207031 30.49804688 C18.20589894 30.51955929 14.79083645 30.56625472 11.375 30.61767578 C10.32260132 30.61890442 9.27020264 30.62013306 8.18591309 30.62139893 C1.8584753 30.74611327 -3.08197635 31.54185303 -8.34375 35.22705078 C-12.36641107 39.45600216 -13.47158248 42.62823176 -13.45448208 48.37561798 C-13.45378953 49.44769328 -13.45309699 50.51976857 -13.45238346 51.624331 C-13.44654037 52.80650123 -13.44069728 53.98867146 -13.43467712 55.20666504 C-13.43142052 57.13283811 -13.42816449 59.05901118 -13.42492757 60.98518428 C-13.42042859 63.07955083 -13.41343842 65.17389617 -13.40574837 67.26825333 C-13.38937467 71.75136921 -13.37996144 76.23448359 -13.3717041 80.71762085 C-13.36252928 85.54524485 -13.35293194 90.3728659 -13.34112632 95.20048428 C-13.31211116 107.17789812 -13.30057456 119.15524295 -13.29969788 131.13269043 C-13.29955731 132.43169264 -13.29955731 132.43169264 -13.29941391 133.75693733 C-13.29869192 140.89022724 -13.29868869 148.02351712 -13.298914 155.15680707 C-13.29907523 161.58484425 -13.29856317 168.01288094 -13.29711914 174.44091797 C-13.29692115 175.3574454 -13.29672316 176.27397283 -13.29651917 177.21827382 C-13.29232387 192.05790357 -13.2557828 206.89729603 -13.20816296 221.73684222 C-13.16009246 236.97528974 -13.15011122 252.21343323 -13.17450243 267.45193815 C-13.18828105 276.84882825 -13.17203159 286.24468242 -13.11703426 295.64142591 C-13.08208871 302.08695442 -13.08393735 308.5318225 -13.11441921 314.97737092 C-13.13089397 318.69377323 -13.13134171 322.4083139 -13.08777809 326.12453842 C-12.81149152 351.20129864 -12.81149152 351.20129864 -19.1342926 358.22155762 C-20.84567849 359.58874642 -22.58177438 360.92570963 -24.34375 362.22705078 C-25.91053606 364.04255333 -27.43736498 365.89396516 -28.90625 367.78955078 C-33.78358253 373.82980602 -38.85103006 379.73433084 -44.34375 385.22705078 C-44.43532785 340.69898658 -44.50580008 296.17093236 -44.54801132 251.64279253 C-44.55301408 246.38450151 -44.55819137 241.12621067 -44.56347656 235.86791992 C-44.5645258 234.82109955 -44.56557505 233.77427918 -44.56665608 232.69573698 C-44.58405599 215.75114024 -44.61559141 198.80659784 -44.65236118 181.86203333 C-44.6897821 164.47222277 -44.71198829 147.08244066 -44.72010398 129.69259149 C-44.72558935 118.96420475 -44.74290751 108.23597162 -44.77541587 97.50763217 C-44.79657794 90.14839416 -44.8029462 82.78923544 -44.79775551 75.42996921 C-44.79519637 71.18556766 -44.7990884 66.94143434 -44.8205719 62.69708061 C-44.84012204 58.80615723 -44.84096565 54.91568096 -44.82734558 51.02473644 C-44.82566372 49.62211835 -44.83066625 48.21947169 -44.84328273 46.81690934 C-44.95436658 33.69786759 -42.0370789 23.25518215 -33.34375 13.22705078 C-23.77535561 4.24377404 -13.08251826 -0.12910291 0 0 Z " fill="#5D7599" transform="translate(73.34375,68.77294921875)"/>
<path d="M0 0 C9.26834061 6.81983869 15.55244766 16.01657097 18.2421875 27.23828125 C18.44371611 28.965912 18.62396102 30.69610369 18.78759766 32.42773438 C18.87385406 33.32850708 18.96011047 34.22927979 19.04898071 35.15734863 C19.11273895 35.8440564 19.17649719 36.53076416 19.2421875 37.23828125 C18.36731186 37.54536766 18.36731186 37.54536766 17.47476196 37.85865784 C-19.44879101 50.81869923 -19.44879101 50.81869923 -56.3203125 63.92578125 C-57.14335876 64.22011047 -57.96640503 64.5144397 -58.81439209 64.81768799 C-65.7976124 67.31497932 -72.7802398 69.81392771 -79.76239014 72.31420898 C-86.07207232 74.57349061 -92.38285089 76.82966524 -98.69503784 79.0819397 C-100.72469564 79.80681315 -102.75393728 80.53285301 -104.78274536 81.26010132 C-107.58591198 82.26483212 -110.39043491 83.26568248 -113.1953125 84.265625 C-114.4560685 84.71908295 -114.4560685 84.71908295 -115.74229431 85.18170166 C-121.52981569 87.23828125 -121.52981569 87.23828125 -123.7578125 87.23828125 C-123.0978125 84.59828125 -122.4378125 81.95828125 -121.7578125 79.23828125 C-137.5978125 78.90828125 -153.4378125 78.57828125 -169.7578125 78.23828125 C-169.7578125 77.90828125 -169.7578125 77.57828125 -169.7578125 77.23828125 C-153.2578125 77.23828125 -136.7578125 77.23828125 -119.7578125 77.23828125 C-119.4278125 75.58828125 -119.0978125 73.93828125 -118.7578125 72.23828125 C-113.89047747 63.14722573 -108.02648433 55.521609 -99.58984375 49.59765625 C-97.74626185 48.31368758 -97.74626185 48.31368758 -96.3671875 46.7578125 C-90.16503564 40.90189727 -81.02202149 38.29873285 -72.7578125 37.23828125 C-72.74363281 36.5834375 -72.72945313 35.92859375 -72.71484375 35.25390625 C-72.04736997 22.4817053 -66.8911503 12.161815 -57.765625 3.3046875 C-41.76488797 -10.32231382 -17.51582622 -11.18928842 0 0 Z " fill="#5CBEFE" transform="translate(242.7578125,21.76171875)"/>
<path d="M0 0 C1.22492157 -0.00953201 2.44984314 -0.01906403 3.71188354 -0.02888489 C5.05027291 -0.02862343 6.3886623 -0.02768622 7.72705078 -0.02612305 C9.10084157 -0.03001083 10.47463116 -0.03434567 11.84841919 -0.03910828 C14.72841283 -0.04657001 17.60828389 -0.04628006 20.48828125 -0.04101562 C24.17263461 -0.03522741 27.85648421 -0.0521359 31.54075432 -0.0753603 C34.37870196 -0.09012 37.21652899 -0.09096622 40.05450821 -0.08785057 C41.41243613 -0.08836288 42.77037096 -0.09358362 44.12826157 -0.10366249 C46.03078095 -0.11604851 47.93340215 -0.1072812 49.8359375 -0.09765625 C50.91720917 -0.09828568 51.99848083 -0.0989151 53.11251831 -0.0995636 C56.57716022 0.34221256 58.32716878 1.08394902 61.04736328 3.2746582 C63.65688024 7.37256829 64.42625184 10.55039567 64.45141602 15.3684082 C64.46410019 16.54983398 64.47678436 17.73125977 64.48985291 18.94848633 C64.48691727 20.21112305 64.48398163 21.47375977 64.48095703 22.7746582 C64.48619888 24.08370117 64.49144073 25.39274414 64.49684143 26.74145508 C64.50574962 29.5052254 64.50337534 32.26870639 64.4934082 35.0324707 C64.48191162 38.56324299 64.50215041 42.09301613 64.53132534 45.62365723 C64.55414509 49.00737632 64.54721871 52.3908641 64.54345703 55.7746582 C64.55469101 57.03729492 64.56592499 58.29993164 64.57749939 59.60083008 C64.49036346 70.57462495 64.49036346 70.57462495 60.04736328 75.2746582 C56.53773151 77.61441272 55.06659096 77.54140903 50.91113281 77.58105469 C49.64616974 77.59704208 48.38120667 77.61302948 47.07791138 77.62950134 C45.69533694 77.63587807 44.31275766 77.6412708 42.93017578 77.64575195 C41.51154485 77.6547197 40.09291488 77.66384157 38.67428589 77.67311096 C35.7001516 77.68959973 32.72612986 77.69730078 29.75195312 77.70019531 C25.94627316 77.70557803 22.14165524 77.74325169 18.3362751 77.78893948 C15.40567186 77.81872657 12.47532382 77.82591921 9.54458237 77.82692146 C8.14195773 77.83112089 6.73933213 77.8435444 5.33685684 77.86443901 C3.37221425 77.89137804 1.40718763 77.88341686 -0.55761719 77.87402344 C-1.67441864 77.87909409 -2.79122009 77.88416473 -3.94186401 77.88938904 C-7.88837216 77.08360246 -9.37606678 75.28275298 -11.95263672 72.2746582 C-12.28263672 71.9446582 -12.61263672 71.6146582 -12.95263672 71.2746582 C-13.06769547 69.30741005 -13.11231333 67.33601236 -13.12963867 65.36547852 C-13.14247391 64.10036438 -13.15530914 62.83525024 -13.16853333 61.53179932 C-13.17670155 60.13879791 -13.18414512 58.74579209 -13.19091797 57.3527832 C-13.19703126 56.30439396 -13.19703126 56.30439396 -13.20326805 55.23482513 C-13.22415083 51.53326205 -13.23844108 47.83173625 -13.24780273 44.13012695 C-13.25885264 40.30888574 -13.29322882 36.48822922 -13.33297443 32.66719437 C-13.35914716 29.72803682 -13.36749525 26.78901816 -13.37108421 23.84975433 C-13.37595109 22.44155696 -13.38756817 21.03336583 -13.40612221 19.62528229 C-13.43051533 17.65080322 -13.42712867 15.67604058 -13.42260742 13.70141602 C-13.42847366 12.57858215 -13.4343399 11.45574829 -13.44038391 10.29888916 C-12.83908048 6.57056337 -11.5591365 4.95990492 -8.95263672 2.2746582 C-5.47517697 -0.04364829 -4.1059175 0.01752145 0 0 Z " fill="#B245F1" transform="translate(100.95263671875,251.725341796875)"/>
<path d="M0 0 C1.8976712 -0.01925285 1.8976712 -0.01925285 3.8336792 -0.03889465 C5.22668061 -0.04706288 6.61968642 -0.05450645 8.01269531 -0.0612793 C8.71162148 -0.06535482 9.41054764 -0.06943035 10.13065338 -0.07362938 C13.83221646 -0.09451215 17.53374226 -0.10880241 21.23535156 -0.11816406 C25.05659278 -0.12921397 28.87724929 -0.16359015 32.69828415 -0.20333576 C35.63744169 -0.22950849 38.57646036 -0.23785658 41.51572418 -0.24144554 C42.92392155 -0.24631242 44.33211268 -0.2579295 45.74019623 -0.27648354 C47.71467529 -0.30087666 49.68943794 -0.29748999 51.6640625 -0.29296875 C52.78689636 -0.29883499 53.90973022 -0.30470123 55.06658936 -0.31074524 C58.81856197 0.29437194 60.4214875 1.51091174 63.09082031 4.17700195 C65.31393139 7.40755886 65.34837523 10.19177908 65.36547852 14.05957031 C65.37501053 15.24437485 65.38454254 16.42917938 65.3943634 17.64988708 C65.393452 18.92598343 65.39254059 20.20207977 65.39160156 21.5168457 C65.39588669 22.83109024 65.40017181 24.14533478 65.40458679 25.49940491 C65.41204003 28.27926674 65.41176431 31.05900154 65.40649414 33.83886719 C65.40070075 37.39428323 65.41763099 40.94917812 65.44083881 44.50450802 C65.45914747 47.90447553 65.45539028 51.30432918 65.45410156 54.7043457 C65.46331131 55.97841782 65.47252106 57.25248993 65.48200989 58.56517029 C65.4757811 59.75312698 65.46955231 60.94108368 65.46313477 62.16503906 C65.46376419 63.20776474 65.46439362 64.25049042 65.46504211 65.32481384 C64.87239937 69.84173022 62.56859772 73.27885411 59.09082031 76.17700195 C55.92365064 77.23272518 53.64900029 77.31637709 50.32177734 77.33813477 C49.13689728 77.34774231 47.95201721 77.35734985 46.73123169 77.36724854 C45.44997406 77.37149841 44.16871643 77.37574829 42.84863281 77.38012695 C41.53297333 77.38582703 40.21731384 77.3915271 38.86178589 77.3973999 C36.07598484 77.40789914 33.29021257 77.41374887 30.50439453 77.41723633 C26.94113773 77.42271951 23.37826335 77.44674778 19.81512642 77.47520828 C16.4096359 77.49835238 13.00419791 77.50028532 9.59863281 77.50512695 C7.68281906 77.52364716 7.68281906 77.52364716 5.728302 77.5425415 C4.53711761 77.53954041 3.34593323 77.53653931 2.11865234 77.53344727 C1.07291046 77.5370929 0.02716858 77.54073853 -1.05026245 77.54449463 C-5.25383998 77.00415581 -7.74014325 75.35299884 -10.69543457 72.38011169 C-12.31158648 69.44657979 -12.30380845 67.27091345 -12.32910156 63.92724609 C-12.34501343 62.66235855 -12.36092529 61.39747101 -12.37731934 60.09425354 C-12.3785866 58.716889 -12.37876345 57.33952308 -12.37792969 55.9621582 C-12.38503333 54.54495442 -12.39273263 53.1277535 -12.40100098 51.71055603 C-12.41443797 48.74234011 -12.41601821 45.77439014 -12.41015625 42.80615234 C-12.40426037 39.0082935 -12.43484808 35.21171317 -12.47527313 31.4141016 C-12.50116326 28.48775904 -12.50402647 25.56172382 -12.50038147 22.63528252 C-12.50207151 21.23546574 -12.51170312 19.83563459 -12.52952576 18.43593025 C-12.55173482 16.47612938 -12.53879646 14.51602628 -12.52441406 12.55615234 C-12.52646851 11.4423671 -12.52852295 10.32858185 -12.53063965 9.18104553 C-11.71607188 5.24354796 -9.9112786 3.75062628 -6.90917969 1.17700195 C-5.11514193 -0.6170358 -2.42277835 0.02130157 0 0 Z " fill="#17A244" transform="translate(99.9091796875,365.822998046875)"/>
<path d="M0 0 C1.8976712 -0.01925285 1.8976712 -0.01925285 3.8336792 -0.03889465 C5.22668061 -0.04706288 6.61968642 -0.05450645 8.01269531 -0.0612793 C8.71162148 -0.06535482 9.41054764 -0.06943035 10.13065338 -0.07362938 C13.83221646 -0.09451215 17.53374226 -0.10880241 21.23535156 -0.11816406 C25.05659278 -0.12921397 28.87724929 -0.16359015 32.69828415 -0.20333576 C35.63744169 -0.22950849 38.57646036 -0.23785658 41.51572418 -0.24144554 C42.92392155 -0.24631242 44.33211268 -0.2579295 45.74019623 -0.27648354 C47.71467529 -0.30087666 49.68943794 -0.29748999 51.6640625 -0.29296875 C52.78689636 -0.29883499 53.90973022 -0.30470123 55.06658936 -0.31074524 C58.81856197 0.29437194 60.4214875 1.51091174 63.09082031 4.17700195 C65.30664641 7.40113785 65.3530284 10.18446362 65.38134766 14.04370117 C65.39410736 15.22527802 65.40686707 16.40685486 65.42001343 17.62423706 C65.42223907 18.89719635 65.42446472 20.17015564 65.42675781 21.48168945 C65.43674301 23.44949875 65.43674301 23.44949875 65.44692993 25.45706177 C65.45889226 28.23271983 65.46261187 31.00825353 65.46142578 33.78393555 C65.4612227 37.33041333 65.48851716 40.87608882 65.5229702 44.42237663 C65.55063596 47.81715911 65.54938968 51.21179577 65.55175781 54.60668945 C65.56612885 55.87560028 65.58049988 57.14451111 65.5953064 58.45187378 C65.53744485 69.62199272 65.53744485 69.62199272 61.09082031 74.17700195 C57.31690248 76.87309988 54.72497236 77.55700572 50.1105957 77.58105469 C48.92909439 77.59373886 47.74759308 77.60642303 46.5302887 77.61949158 C45.26249069 77.61655594 43.99469269 77.6136203 42.68847656 77.6105957 C41.37801865 77.61583755 40.06756073 77.62107941 38.71739197 77.6264801 C35.94764558 77.63539778 33.17818773 77.63300393 30.40844727 77.62304688 C26.86979943 77.61156139 23.33215016 77.63176723 19.79363346 77.66096401 C16.40436254 77.68378859 13.0153224 77.67685674 9.62597656 77.6730957 C7.7273159 77.68994667 7.7273159 77.68994667 5.79029846 77.70713806 C-5.2136751 77.62000057 -5.2136751 77.62000057 -9.90917969 73.17700195 C-12.2489342 69.66737018 -12.17593051 68.19622963 -12.21557617 64.04077148 C-12.23156357 62.77580841 -12.24755096 61.51084534 -12.26402283 60.20755005 C-12.27039956 58.82497561 -12.27579229 57.44239633 -12.28027344 56.05981445 C-12.28924119 54.64118352 -12.29836306 53.22255355 -12.30763245 51.80392456 C-12.32412122 48.82979027 -12.33182227 45.85576853 -12.3347168 42.8815918 C-12.34009951 39.07591183 -12.37777317 35.27129392 -12.42346096 31.46591377 C-12.45324805 28.53531053 -12.46044069 25.60496249 -12.46144295 22.67422104 C-12.46564238 21.2715964 -12.47806589 19.8689708 -12.49896049 18.46649551 C-12.52589952 16.50185292 -12.51793834 14.5368263 -12.50854492 12.57202148 C-12.51361557 11.45522003 -12.51868622 10.33841858 -12.52391052 9.18777466 C-11.71812394 5.24126651 -9.91727446 3.75357189 -6.90917969 1.17700195 C-5.11514193 -0.6170358 -2.42277835 0.02130157 0 0 Z " fill="#FFBF02" transform="translate(99.9091796875,138.822998046875)"/>
<path d="M0 0 C10.38833778 -0.06972357 20.77661924 -0.12292438 31.16514397 -0.15543652 C35.98973777 -0.17104617 40.81417066 -0.19219796 45.63867188 -0.22631836 C50.30062553 -0.25908023 54.96242506 -0.27688831 59.62448502 -0.28463173 C61.39695789 -0.29014517 63.16942299 -0.30091111 64.94182968 -0.31719017 C79.78961481 -0.44805353 92.93219448 1.07060173 104.53125 11.4453125 C115.77530145 23.34726058 117.60616332 36.43962819 117.390625 52.140625 C117.3831463 53.760145 117.37746109 55.37967418 117.37347412 56.99920654 C117.35834562 61.22106791 117.31917779 65.44236142 117.2746582 69.66400146 C117.23342615 73.98816247 117.21540403 78.312417 117.1953125 82.63671875 C117.15266803 91.09140376 117.08457629 99.54563085 117 108 C115.7637085 108.12552246 114.52741699 108.25104492 113.25366211 108.38037109 C111.61569409 108.55278878 109.97775619 108.72549268 108.33984375 108.8984375 C107.52688843 108.9802124 106.71393311 109.0619873 105.87634277 109.14624023 C100.21330638 109.75202005 95.32921986 110.94310813 90 113 C89.01 113 88.02 113 87 113 C86.99857498 112.14079956 86.99714996 111.28159912 86.99568176 110.3963623 C86.97780764 102.2752733 86.93606385 94.15472619 86.86790943 86.0338974 C86.83370621 81.85944011 86.80853992 77.6853462 86.80444336 73.51074219 C86.80014595 69.47738935 86.77156536 65.44485527 86.72656822 61.41175842 C86.71363898 59.87773926 86.70926928 58.34362188 86.71384621 56.80955505 C86.94457533 45.96914204 86.94457533 45.96914204 82.44099426 36.41267395 C76.93321163 31.0131375 70.51934733 31.53106279 63.2578125 31.48828125 C62.13430389 31.47033005 61.01079529 31.45237885 59.85324097 31.43388367 C56.27719841 31.37985386 52.70128881 31.34590754 49.125 31.3125 C46.69529403 31.27932056 44.26560559 31.24483033 41.8359375 31.20898438 C35.89074422 31.12413146 29.94553358 31.05575044 24 31 C23.54616943 30.13044678 23.09233887 29.26089355 22.62475586 28.36499023 C17.10407762 17.92407226 11.44353285 8.77478044 1.43359375 2.0234375 C0.96050781 1.68570313 0.48742187 1.34796875 0 1 C0 0.67 0 0.34 0 0 Z " fill="#435E88" transform="translate(286,69)"/>
<path d="M0 0 C12.93007308 0 24.72117496 8.64575539 34 17 C34.68320312 17.59039062 35.36640625 18.18078125 36.0703125 18.7890625 C49.10859601 30.80473554 57.88541883 49.27860194 59.21948242 66.89892578 C60.14164105 90.80545336 55.57643044 111.96094335 39 130 C38.36320312 130.70511719 37.72640625 131.41023437 37.0703125 132.13671875 C24.29380915 145.60592409 6.41289303 154.02252618 -12 156 C-15.57015973 156.04811923 -19.12155602 155.91787723 -22.6875 155.75 C-23.66267578 155.70625244 -24.63785156 155.66250488 -25.64257812 155.61743164 C-31.85127256 155.27773209 -37.61047888 154.51739316 -43.5625 152.62109375 C-47.46263546 151.62730923 -50.35851543 151.18272157 -54.08251953 153.03686523 C-56.45080202 154.46860661 -58.76104615 155.96318012 -61.0625 157.5 C-62.62992918 158.54154069 -64.20397588 159.57320609 -65.78515625 160.59375 C-66.81974976 161.28500977 -66.81974976 161.28500977 -67.87524414 161.99023438 C-70.45320124 163.21537864 -72.1773796 163.32915495 -75 163 C-75.66 162.34 -76.32 161.68 -77 161 C-76.64165575 154.43035538 -74.8392644 148.29282913 -73 142 C-69.21978865 140.61453419 -66.57588744 141.43654108 -62.75 142.4375 C-41.68879416 147.17354318 -20.26769568 142.23895857 -1.9765625 131.06640625 C14.95257978 119.31376023 27.76572323 101.50179558 31.55078125 81.01953125 C33.6085995 65.4291181 33.30756167 49.51238464 27 35 C26.54238281 33.9171875 26.08476562 32.834375 25.61328125 31.71875 C20.10867277 19.77450366 11.48057877 10.8762777 1.57421875 2.453125 C1.05472656 1.97359375 0.53523438 1.4940625 0 1 C0 0.67 0 0.34 0 0 Z " fill="#099CFE" transform="translate(424,180)"/>
<path d="M0 0 C1.86159004 0.00022659 1.86159004 0.00022659 3.76078796 0.00045776 C5.11502238 0.01067098 6.46925516 0.02110297 7.82348633 0.03173828 C9.20925187 0.03546911 10.59502006 0.03831575 11.98078918 0.04031372 C15.62555238 0.0479447 19.27015582 0.06758848 22.91485596 0.08972168 C26.63502847 0.1101917 30.35522684 0.1193179 34.07543945 0.12939453 C41.37303827 0.15083498 48.67050553 0.18496434 55.96801758 0.22705078 C55.96801758 0.55705078 55.96801758 0.88705078 55.96801758 1.22705078 C55.13447754 1.40864746 54.3009375 1.59024414 53.44213867 1.77734375 C48.71946766 3.74805496 45.9090759 6.78652431 42.38208008 10.42236328 C41.32940445 11.48352859 41.32940445 11.48352859 40.25546265 12.56613159 C38.02505197 14.81886037 35.80898379 17.08512071 33.59301758 19.35205078 C32.07962122 20.88551785 30.5653081 22.41808073 29.05004883 23.94970703 C25.34535231 27.69841032 21.65232187 31.45830953 17.96801758 35.22705078 C18.62801758 36.54705078 19.28801758 37.86705078 19.96801758 39.22705078 C25.48236958 34.69302803 30.36680009 29.7415677 35.22192383 24.52001953 C38.28833094 21.9595914 40.00901377 21.34252173 43.96801758 21.22705078 C46.40551758 22.72705078 46.40551758 22.72705078 47.96801758 25.22705078 C47.79165948 31.08179483 46.27606684 33.65509881 42.12817383 37.68798828 C41.64601913 38.16402496 41.16386444 38.64006165 40.667099 39.13052368 C39.135143 40.63570703 37.58333139 42.11842771 36.03051758 43.60205078 C34.99078784 44.6202376 33.9523618 45.63975751 32.9152832 46.66064453 C24.32401705 55.06177661 24.32401705 55.06177661 20.14770508 55.57080078 C16.02457569 55.12505706 14.85889041 53.7443666 12.09301758 50.72705078 C11.3118457 49.89173828 10.53067383 49.05642578 9.72583008 48.19580078 C9.14575195 47.54611328 8.56567383 46.89642578 7.96801758 46.22705078 C2.38493844 50.77141753 -2.64378207 55.77036963 -7.67529297 60.9074707 C-9.11034368 62.36445313 -10.56906236 63.7980535 -12.03198242 65.22705078 C-12.36198242 65.22705078 -12.69198242 65.22705078 -13.03198242 65.22705078 C-13.12478605 57.75125519 -13.19579943 50.27558441 -13.23923111 42.7993288 C-13.26007954 39.32751894 -13.28834537 35.85610405 -13.33374023 32.38452148 C-13.38563681 28.39058709 -13.40495016 24.39706563 -13.42260742 20.40283203 C-13.44325256 19.15995926 -13.46389771 17.91708649 -13.48516846 16.6365509 C-13.48547058 15.47572495 -13.48577271 14.31489899 -13.48608398 13.11889648 C-13.49496643 12.09963577 -13.50384888 11.08037506 -13.51300049 10.03022766 C-12.89930149 6.45384051 -11.51748632 4.82495567 -9.03198242 2.22705078 C-5.52555536 -0.11056726 -4.14342292 -0.01680902 0 0 Z " fill="#C175FE" transform="translate(101.031982421875,251.77294921875)"/>
<path d="M0 0 C1.02814316 0.00222061 2.05628632 0.00444122 3.11558533 0.00672913 C4.27671341 0.00680466 5.43784149 0.00688019 6.63415527 0.00695801 C8.52943214 0.01469994 8.52943214 0.01469994 10.46299744 0.02259827 C12.39193092 0.02472069 12.39193092 0.02472069 14.35983276 0.02688599 C17.78427561 0.03071034 21.20867628 0.0405399 24.63310242 0.05158997 C28.12522308 0.06180587 31.61735053 0.06638399 35.10948181 0.07142639 C41.96561897 0.08216225 48.82172806 0.09923767 55.67784119 0.12025452 C51.73299209 4.87189215 47.59720939 9.28748234 43.15049744 13.56947327 C41.93442409 14.75833488 40.71894566 15.94780529 39.50401306 17.13783264 C37.61121831 18.98712055 35.71494598 20.83219977 33.80845642 22.66737366 C31.95274555 24.45680068 30.11309418 26.26147472 28.27549744 28.06947327 C27.69856644 28.61746078 27.12163544 29.1654483 26.52722168 29.7300415 C24.75194277 31.43489931 24.75194277 31.43489931 22.67784119 34.12025452 C22.66287971 36.4512088 22.66287971 36.4512088 23.67784119 38.12025452 C26.70280699 36.76963165 28.75841059 35.26996215 31.06065369 32.89759827 C31.67038025 32.27691467 32.28010681 31.65623108 32.90830994 31.01673889 C33.53350525 30.37027405 34.15870056 29.7238092 34.80284119 29.05775452 C36.05320193 27.77301522 37.30570635 26.4903577 38.56065369 25.21009827 C39.38653992 24.35726257 39.38653992 24.35726257 40.22911072 23.48719788 C42.41134588 21.42815934 43.58028626 21.12855706 46.61534119 20.87025452 C49.67784119 21.12025452 49.67784119 21.12025452 51.61534119 22.18275452 C53.35130139 25.348329 52.48151599 27.68594258 51.67784119 31.12025452 C49.54820251 34.01039124 49.54820251 34.01039124 46.75987244 36.79994202 C46.26500839 37.29817474 45.77014435 37.79640747 45.26028442 38.30973816 C44.21589682 39.35382821 43.16407201 40.39052637 42.10533142 41.4200592 C40.49286488 42.99279301 38.9118771 44.59284782 37.33213806 46.19837952 C36.30979602 47.21316289 35.28576139 48.22624451 34.25987244 49.23744202 C33.33408386 50.1512262 32.40829529 51.06501038 31.45445251 52.00648499 C28.37578199 54.35020515 26.52410572 55.01636482 22.67784119 55.12025452 C20.26377869 53.21400452 20.26377869 53.21400452 18.05284119 50.62025452 C15.94063354 48.04139912 15.94063354 48.04139912 13.67784119 46.12025452 C9.92361898 46.40453969 8.14514589 48.31322019 5.60362244 50.93666077 C4.47923767 52.08231506 4.47923767 52.08231506 3.33213806 53.25111389 C2.55934509 54.0535553 1.78655212 54.8559967 0.99034119 55.68275452 C-0.5531753 57.26939307 -2.09863847 58.85414102 -3.64637756 60.43666077 C-4.32788879 61.14250305 -5.00940002 61.84834534 -5.71156311 62.57557678 C-7.32215881 64.12025452 -7.32215881 64.12025452 -8.32215881 64.12025452 C-8.43816238 56.64452178 -8.52692865 49.16898402 -8.58121967 41.69253254 C-8.60728108 38.22060603 -8.64261268 34.74929659 -8.69935608 31.27772522 C-8.76422715 27.28376953 -8.78836743 23.29045894 -8.81044006 19.29603577 C-8.83624649 18.05316299 -8.86205292 16.81029022 -8.88864136 15.52975464 C-8.89176493 5.92859429 -8.89176493 5.92859429 -5.85414124 2.85926819 C-5.01858704 2.28539368 -4.18303284 1.71151917 -3.32215881 1.12025452 C-2.32215881 0.12025452 -2.32215881 0.12025452 0 0 Z " fill="#FFD80C" transform="translate(96.32215881347656,138.87974548339844)"/>
<path d="M0 0 C1.02814316 0.00222061 2.05628632 0.00444122 3.11558533 0.00672913 C4.27671341 0.00680466 5.43784149 0.00688019 6.63415527 0.00695801 C8.52943214 0.01469994 8.52943214 0.01469994 10.46299744 0.02259827 C12.39193092 0.02472069 12.39193092 0.02472069 14.35983276 0.02688599 C17.78427561 0.03071034 21.20867628 0.0405399 24.63310242 0.05158997 C28.12522308 0.06180587 31.61735053 0.06638399 35.10948181 0.07142639 C41.96561897 0.08216225 48.82172806 0.09923767 55.67784119 0.12025452 C51.73299209 4.87189215 47.59720939 9.28748234 43.15049744 13.56947327 C41.93442409 14.75833488 40.71894566 15.94780529 39.50401306 17.13783264 C37.61121831 18.98712055 35.71494598 20.83219977 33.80845642 22.66737366 C31.95274555 24.45680068 30.11309418 26.26147472 28.27549744 28.06947327 C27.69856644 28.61746078 27.12163544 29.1654483 26.52722168 29.7300415 C24.75194277 31.43489931 24.75194277 31.43489931 22.67784119 34.12025452 C22.66287971 36.4512088 22.66287971 36.4512088 23.67784119 38.12025452 C27.33087306 37.55239701 28.88412597 36.21412732 31.35752869 33.52259827 C32.03944275 32.80394592 32.72135681 32.08529358 33.42393494 31.34486389 C34.84153866 29.82191531 36.25303434 28.29325791 37.65830994 26.75892639 C42.91822205 21.24641963 42.91822205 21.24641963 47.06455994 20.55775452 C49.67784119 21.12025452 49.67784119 21.12025452 51.61534119 22.18275452 C53.35130139 25.348329 52.48151599 27.68594258 51.67784119 31.12025452 C49.54820251 34.01039124 49.54820251 34.01039124 46.75987244 36.79994202 C46.26500839 37.29817474 45.77014435 37.79640747 45.26028442 38.30973816 C44.21589682 39.35382821 43.16407201 40.39052637 42.10533142 41.4200592 C40.49286488 42.99279301 38.9118771 44.59284782 37.33213806 46.19837952 C36.30979602 47.21316289 35.28576139 48.22624451 34.25987244 49.23744202 C33.33408386 50.1512262 32.40829529 51.06501038 31.45445251 52.00648499 C28.36956647 54.35493688 26.5311003 55.01400595 22.67784119 55.12025452 C19.90440369 53.24916077 19.90440369 53.24916077 17.30284119 50.68275452 C16.42885681 49.83841858 15.55487244 48.99408264 14.65440369 48.12416077 C14.00213806 47.4628717 13.34987244 46.80158264 12.67784119 46.12025452 C9.42004852 47.54454971 7.29664987 49.27649519 4.82237244 51.81556702 C3.76566345 52.88871155 3.76566345 52.88871155 2.68760681 53.98353577 C1.59996033 55.10308655 1.59996033 55.10308655 0.49034119 56.24525452 C-0.95931032 57.72914976 -2.41101772 59.21104035 -3.86512756 60.69056702 C-4.50474426 61.34815002 -5.14436096 62.00573303 -5.80335999 62.6832428 C-7.32215881 64.12025452 -7.32215881 64.12025452 -8.32215881 64.12025452 C-8.43816238 56.64452178 -8.52692865 49.16898402 -8.58121967 41.69253254 C-8.60728108 38.22060603 -8.64261268 34.74929659 -8.69935608 31.27772522 C-8.76422715 27.28376953 -8.78836743 23.29045894 -8.81044006 19.29603577 C-8.83624649 18.05316299 -8.86205292 16.81029022 -8.88864136 15.52975464 C-8.89176493 5.92859429 -8.89176493 5.92859429 -5.85414124 2.85926819 C-5.01858704 2.28539368 -4.18303284 1.71151917 -3.32215881 1.12025452 C-2.32215881 0.12025452 -2.32215881 0.12025452 0 0 Z " fill="#4CC66E" transform="translate(96.32215881347656,365.87974548339844)"/>
<path d="M0 0 C2.69990662 1.79993774 4.5418865 3.083773 6 6 C6.51865035 9.2415647 6.80946993 11.78497266 4.91870117 14.62304688 C-0.95347642 21.08675259 -7.09679978 27.28289665 -13.27124023 33.45654297 C-15.19869691 35.38620975 -17.11798108 37.32377307 -19.03710938 39.26171875 C-20.26774003 40.49527984 -21.498843 41.72836994 -22.73046875 42.9609375 C-23.30033005 43.53798431 -23.87019135 44.11503113 -24.45732117 44.70956421 C-30.73211854 50.94845724 -30.73211854 50.94845724 -35.75 51.0625 C-40.60312416 49.47590172 -43.3710171 46.51539971 -47 43 C-48.19590286 41.91197761 -49.39258113 40.82480718 -50.58984375 39.73828125 C-51.87406376 38.53563275 -53.15660385 37.33118801 -54.4375 36.125 C-55.06527344 35.56079346 -55.69304687 34.99658691 -56.33984375 34.4152832 C-60.36978492 30.52398173 -61.77539869 27.60908766 -62.20727539 22.01123047 C-62 20 -62 20 -60 17 C-56.29454706 14.52969804 -54.47805622 13.69640297 -50 14 C-46.95227804 15.96684382 -44.51859906 18.40507975 -42 21 C-41.39285156 21.59554687 -40.78570312 22.19109375 -40.16015625 22.8046875 C-38.75605058 24.18566672 -37.37529317 25.5903245 -36 27 C-32.01295714 25.40247219 -29.3698311 22.60944346 -26.4296875 19.58984375 C-25.64623459 18.79858849 -25.64623459 18.79858849 -24.84695435 17.99134827 C-23.18479666 16.3114287 -21.52950195 14.62495728 -19.875 12.9375 C-18.21249027 11.24736984 -16.54854046 9.5587228 -14.88162231 7.87294006 C-13.8460278 6.82509029 -12.81311817 5.77457886 -11.78317261 4.72117615 C-7.78467291 0.66681031 -5.78961394 -0.56760921 0 0 Z " fill="#FCFEFF" transform="translate(434,231)"/>
<path d="M0 0 C1.40053368 -0.01485695 1.40053368 -0.01485695 2.82936096 -0.03001404 C4.355261 -0.02326157 4.355261 -0.02326157 5.9119873 -0.01637268 C6.98879257 -0.02323593 8.06559784 -0.03009918 9.17503357 -0.03717041 C12.73787586 -0.05548649 16.30027987 -0.05159425 19.86315918 -0.0459137 C22.33650863 -0.05047285 24.8098568 -0.05577762 27.28320312 -0.0617981 C32.46827337 -0.07073844 37.65318966 -0.06829508 42.83825684 -0.05836487 C49.49003737 -0.04686839 56.14108301 -0.06709253 62.79282379 -0.09628201 C67.90056749 -0.11460733 73.00818322 -0.11435893 78.11595154 -0.10864449 C80.56880945 -0.10849085 83.02167582 -0.11456964 85.47450256 -0.12693596 C88.90061967 -0.14177603 92.32574546 -0.13121968 95.75183105 -0.11402893 C96.76909775 -0.1236969 97.78636444 -0.13336487 98.8344574 -0.14332581 C105.67490472 -0.07127838 105.67490472 -0.07127838 108.96582031 2.22763062 C110.81861922 5.15726232 110.83845588 6.98658079 110.33190918 10.38768005 C108.73786675 12.52491696 107.85478679 13.29480963 105.20638275 13.76520348 C104.37974373 13.76633455 103.55310471 13.76746563 102.70141602 13.76863098 C101.27553413 13.78132019 101.27553413 13.78132019 99.82084656 13.79426575 C98.77971207 13.78819305 97.73857758 13.78212036 96.66589355 13.77586365 C95.56812088 13.78112061 94.47034821 13.78637756 93.33930969 13.79179382 C89.70128255 13.80502538 86.06369098 13.79624427 82.42565918 13.78611755 C79.90364498 13.78813737 77.38163134 13.79104804 74.85961914 13.79481506 C69.57020985 13.79924271 64.28095747 13.79307815 58.99157715 13.77879333 C52.87541494 13.76246646 46.75955274 13.7677549 40.64339781 13.78427255 C34.7610038 13.79952335 28.87870307 13.79791366 22.99629211 13.78912735 C20.49237527 13.78712202 17.9884508 13.78959621 15.48454285 13.79656601 C11.98879534 13.80416052 8.49362888 13.7926037 4.9979248 13.77586365 C3.95679031 13.78193634 2.91565582 13.78800903 1.8429718 13.79426575 C0.89238388 13.78580627 -0.05820404 13.7773468 -1.03759766 13.76863098 C-1.86423668 13.7674999 -2.6908757 13.76636883 -3.54256439 13.76520348 C-6.20467461 13.29237522 -7.08484563 12.55540305 -8.66809082 10.38768005 C-9.10559082 6.88768005 -9.10559082 6.88768005 -8.66809082 3.38768005 C-5.87080869 0.65658817 -3.85572585 0.0115714 0 0 Z " fill="#CED5DF" transform="translate(233.6680908203125,381.61231994628906)"/>
<path d="M0 0 C1.41109291 -0.01268921 1.41109291 -0.01268921 2.85069275 -0.02563477 C4.39601181 -0.01652573 4.39601181 -0.01652573 5.97254944 -0.00723267 C7.05896225 -0.01248962 8.14537506 -0.01774658 9.26470947 -0.02316284 C12.86546596 -0.03639508 16.46578238 -0.02761245 20.06654358 -0.01748657 C22.56374191 -0.01950652 25.06093968 -0.02241729 27.55813599 -0.02618408 C32.79625457 -0.03061193 38.03425821 -0.02444716 43.27235413 -0.01016235 C49.32601345 0.00615607 55.37936954 0.00088236 61.43302149 -0.01564157 C67.25775678 -0.03090371 73.08237694 -0.02927804 78.90712166 -0.02049637 C81.38509221 -0.01849251 83.86307048 -0.02096009 86.34103203 -0.02793503 C89.8030494 -0.03553997 93.26448195 -0.02395756 96.72645569 -0.00723267 C97.75464417 -0.01330536 98.78283264 -0.01937805 99.84217834 -0.02563477 C101.25750099 -0.01294556 101.25750099 -0.01294556 102.70141602 0 C103.92893034 0.00169662 103.92893034 0.00169662 105.18124294 0.00342751 C107.9871457 0.47781822 109.36851389 1.42586631 111.41419983 3.38095093 C111.99739025 6.80719462 111.91670418 8.58866033 110.04420471 11.54100037 C105.89384076 14.44459364 101.78143214 13.9296785 96.8341217 13.88265991 C95.2189138 13.89076439 95.2189138 13.89076439 93.57107544 13.89903259 C90.00808818 13.91155015 86.44590416 13.89500788 82.88294983 13.87704468 C80.40960142 13.87719959 77.93625275 13.87868735 75.46290588 13.88145447 C70.2777789 13.88283983 65.09292807 13.87025705 59.90785217 13.84750366 C53.25612924 13.8191188 46.60507271 13.82185457 39.95328522 13.83459377 C34.84553598 13.84154348 29.73789313 13.83376969 24.63015747 13.82133675 C22.17731128 13.81681538 19.72445369 13.8164914 17.27160645 13.82040215 C13.8455915 13.82330733 10.42021261 13.8068396 6.99427795 13.78500366 C5.97701126 13.78950531 4.95974457 13.79400696 3.91165161 13.79864502 C2.97796249 13.78874039 2.04427338 13.77883575 1.08229065 13.76863098 C0.27262093 13.76620109 -0.5370488 13.76377119 -1.37125397 13.76126766 C-4.17957207 13.27897907 -5.55579437 12.36292204 -7.58580017 10.38095093 C-8.33317779 4.40193001 -8.33317779 4.40193001 -6.34506893 1.68601036 C-4.08752177 0.01131841 -2.79653831 0.00386703 0 0 Z " fill="#CDD4DF" transform="translate(196.58580017089844,297.6190490722656)"/>
<path d="M0 0 C1.40053368 -0.01485695 1.40053368 -0.01485695 2.82936096 -0.03001404 C4.355261 -0.02326157 4.355261 -0.02326157 5.9119873 -0.01637268 C6.98879257 -0.02323593 8.06559784 -0.03009918 9.17503357 -0.03717041 C12.73787586 -0.05548649 16.30027987 -0.05159425 19.86315918 -0.0459137 C22.33650863 -0.05047285 24.8098568 -0.05577762 27.28320312 -0.0617981 C32.46827337 -0.07073844 37.65318966 -0.06829508 42.83825684 -0.05836487 C49.49003737 -0.04686839 56.14108301 -0.06709253 62.79282379 -0.09628201 C67.90056749 -0.11460733 73.00818322 -0.11435893 78.11595154 -0.10864449 C80.56880945 -0.10849085 83.02167582 -0.11456964 85.47450256 -0.12693596 C88.90061967 -0.14177603 92.32574546 -0.13121968 95.75183105 -0.11402893 C96.76909775 -0.1236969 97.78636444 -0.13336487 98.8344574 -0.14332581 C105.67589399 -0.07126796 105.67589399 -0.07126796 108.96191406 2.22763062 C110.83441353 5.17997065 110.9150996 6.96143636 110.33190918 10.38768005 C107.48910184 13.10458239 105.5043594 13.76326099 101.61912537 13.76863098 C100.20380272 13.78132019 100.20380272 13.78132019 98.7598877 13.79426575 C97.73169922 13.78819305 96.70351074 13.78212036 95.64416504 13.77586365 C94.55599991 13.78112061 93.46783478 13.78637756 92.34669495 13.79179382 C88.74656867 13.80500756 85.14688378 13.79625115 81.54675293 13.78611755 C79.04858821 13.78813774 76.55042405 13.79104871 74.05226135 13.79481506 C68.8159229 13.79924016 63.57969954 13.79308628 58.34338379 13.77879333 C52.28911578 13.76245859 46.23515073 13.76776198 40.18089002 13.78427255 C34.35561527 13.79952278 28.53045573 13.79791425 22.70517159 13.78912735 C20.22637451 13.78712229 17.74756974 13.78959529 15.26878166 13.79656601 C11.80906371 13.80416034 8.34993286 13.79260439 4.89025879 13.77586365 C3.86004608 13.78193634 2.82983337 13.78800903 1.7684021 13.79426575 C0.82767349 13.78580627 -0.11305511 13.7773468 -1.08229065 13.76863098 C-2.30923944 13.76693437 -2.30923944 13.76693437 -3.56097507 13.76520348 C-6.21012616 13.29056577 -7.08986774 12.54366214 -8.66809082 10.38768005 C-9.10559082 6.88768005 -9.10559082 6.88768005 -8.66809082 3.38768005 C-5.87080869 0.65658817 -3.85572585 0.0115714 0 0 Z " fill="#CDD4DF" transform="translate(233.6680908203125,154.61231994628906)"/>
<path d="M0 0 C24.42 0 48.84 0 74 0 C67.32116788 8.90510949 67.32116788 8.90510949 63.6875 12.8125 C58.90238728 18.04519979 54.45615532 23.48285532 50 29 C60.89 29.495 60.89 29.495 72 30 C72 30.33 72 30.66 72 31 C56.16 31 40.32 31 24 31 C21.69 26.71 19.38 22.42 17 18 C12.65660998 11.65306928 7.8231024 6.33293066 1.43359375 2.0234375 C0.96050781 1.68570313 0.48742187 1.34796875 0 1 C0 0.67 0 0.34 0 0 Z " fill="#5F769A" transform="translate(286,69)"/>
<path d="M0 0 C0.95058792 -0.00845947 1.90117584 -0.01691895 2.88056946 -0.02563477 C3.92170395 -0.01956207 4.96283844 -0.01348938 6.03552246 -0.00723267 C7.13329514 -0.01248962 8.23106781 -0.01774658 9.36210632 -0.02316284 C13.00013347 -0.0363944 16.63772504 -0.02761329 20.27575684 -0.01748657 C22.79777104 -0.01950639 25.31978468 -0.02241706 27.84179688 -0.02618408 C33.13120617 -0.03061173 38.42045854 -0.02444717 43.70983887 -0.01016235 C49.82600107 0.00616452 55.94186327 0.00087609 62.05801821 -0.01564157 C67.94041221 -0.03089237 73.82271294 -0.02928268 79.7051239 -0.02049637 C82.20904075 -0.01849104 84.71296522 -0.02096522 87.21687317 -0.02793503 C90.71262067 -0.03552954 94.20778713 -0.02397272 97.70349121 -0.00723267 C98.7446257 -0.01330536 99.78576019 -0.01937805 100.85844421 -0.02563477 C101.80903214 -0.01717529 102.75962006 -0.00871582 103.73901367 0 C104.56565269 0.00113108 105.39229172 0.00226215 106.24398041 0.00342751 C108.89348382 0.47401662 109.77992041 1.23791037 111.36950684 3.38095093 C112.01134335 8.51564303 112.01134335 8.51564303 110.13547516 11.04464149 C107.86299757 12.76422684 106.57298761 12.75802417 103.73901367 12.76190186 C102.31313179 12.77459106 102.31313179 12.77459106 100.85844421 12.78753662 C99.81730972 12.78146393 98.77617523 12.77539124 97.70349121 12.76913452 C96.60571854 12.77439148 95.50794586 12.77964844 94.37690735 12.7850647 C90.7388802 12.79829625 87.10128863 12.78951515 83.46325684 12.77938843 C80.94124263 12.78140825 78.419229 12.78431891 75.8972168 12.78808594 C70.6078075 12.79251359 65.31855513 12.78634903 60.0291748 12.77206421 C53.9130126 12.75573733 47.7971504 12.76102577 41.68099546 12.77754343 C35.79860146 12.79279422 29.91630073 12.79118454 24.03388977 12.78239822 C21.52997292 12.7803929 19.02604845 12.78286708 16.5221405 12.78983688 C13.026393 12.79743139 9.53122654 12.78587457 6.03552246 12.76913452 C4.99438797 12.77520721 3.95325348 12.78127991 2.88056946 12.78753662 C1.92998154 12.77907715 0.97939362 12.77061768 0 12.76190186 C-0.82663902 12.76077078 -1.65327805 12.7596397 -2.50496674 12.75847435 C-5.15447015 12.28788524 -6.04090674 11.52399149 -7.63049316 9.38095093 C-8.27232968 4.24625882 -8.27232968 4.24625882 -6.39646149 1.71726036 C-4.1239839 -0.00232498 -2.83397393 0.00387768 0 0 Z " fill="#CDD4DF" transform="translate(196.6304931640625,411.6190490722656)"/>
<path d="M0 0 C0.95058792 -0.00845947 1.90117584 -0.01691895 2.88056946 -0.02563477 C3.92170395 -0.01956207 4.96283844 -0.01348938 6.03552246 -0.00723267 C7.13329514 -0.01248962 8.23106781 -0.01774658 9.36210632 -0.02316284 C13.00013347 -0.0363944 16.63772504 -0.02761329 20.27575684 -0.01748657 C22.79777104 -0.01950639 25.31978468 -0.02241706 27.84179688 -0.02618408 C33.13120617 -0.03061173 38.42045854 -0.02444717 43.70983887 -0.01016235 C49.82600107 0.00616452 55.94186327 0.00087609 62.05801821 -0.01564157 C67.94041221 -0.03089237 73.82271294 -0.02928268 79.7051239 -0.02049637 C82.20904075 -0.01849104 84.71296522 -0.02096522 87.21687317 -0.02793503 C90.71262067 -0.03552954 94.20778713 -0.02397272 97.70349121 -0.00723267 C98.7446257 -0.01330536 99.78576019 -0.01937805 100.85844421 -0.02563477 C101.80903214 -0.01717529 102.75962006 -0.00871582 103.73901367 0 C104.56565269 0.00113108 105.39229172 0.00226215 106.24398041 0.00342751 C108.89348382 0.47401662 109.77992041 1.23791037 111.36950684 3.38095093 C112.01134335 8.51564303 112.01134335 8.51564303 110.13547516 11.04464149 C107.86299757 12.76422684 106.57298761 12.75802417 103.73901367 12.76190186 C102.31313179 12.77459106 102.31313179 12.77459106 100.85844421 12.78753662 C99.81730972 12.78146393 98.77617523 12.77539124 97.70349121 12.76913452 C96.60571854 12.77439148 95.50794586 12.77964844 94.37690735 12.7850647 C90.7388802 12.79829625 87.10128863 12.78951515 83.46325684 12.77938843 C80.94124263 12.78140825 78.419229 12.78431891 75.8972168 12.78808594 C70.6078075 12.79251359 65.31855513 12.78634903 60.0291748 12.77206421 C53.9130126 12.75573733 47.7971504 12.76102577 41.68099546 12.77754343 C35.79860146 12.79279422 29.91630073 12.79118454 24.03388977 12.78239822 C21.52997292 12.7803929 19.02604845 12.78286708 16.5221405 12.78983688 C13.026393 12.79743139 9.53122654 12.78587457 6.03552246 12.76913452 C4.99438797 12.77520721 3.95325348 12.78127991 2.88056946 12.78753662 C1.92998154 12.77907715 0.97939362 12.77061768 0 12.76190186 C-0.82663902 12.76077078 -1.65327805 12.7596397 -2.50496674 12.75847435 C-5.15447015 12.28788524 -6.04090674 11.52399149 -7.63049316 9.38095093 C-8.27232968 4.24625882 -8.27232968 4.24625882 -6.39646149 1.71726036 C-4.1239839 -0.00232498 -2.83397393 0.00387768 0 0 Z " fill="#CDD4DF" transform="translate(196.6304931640625,184.61904907226563)"/>
<path d="M0 0 C1.2304454 -0.00618599 1.2304454 -0.00618599 2.48574829 -0.01249695 C3.3819841 -0.00171112 4.27821991 0.00907471 5.20161438 0.02018738 C6.1481488 0.0197493 7.09468323 0.01931122 8.06990051 0.01885986 C11.2029625 0.02095226 14.33549141 0.04430482 17.46846008 0.0677948 C19.63893339 0.07338914 21.80941047 0.07766 23.97988892 0.08065796 C29.69611547 0.09211942 35.41211381 0.12159794 41.12825012 0.1547699 C46.95972099 0.18544267 52.79122869 0.19915733 58.62275696 0.21427917 C70.06751876 0.24646627 81.51211108 0.29767844 92.95674133 0.36076355 C93.46186377 1.96332463 93.9606576 3.56788147 94.45674133 5.17326355 C94.73517883 6.06658386 95.01361633 6.95990417 95.30049133 7.8802948 C95.95674133 10.36076355 95.95674133 10.36076355 95.95674133 13.36076355 C83.11788928 13.45337414 70.27911646 13.5244833 57.43999863 13.56801224 C51.47850003 13.58890217 45.51722966 13.61724593 39.55586243 13.66252136 C33.80464174 13.70592827 28.05364081 13.72989006 22.30226898 13.74027252 C20.10616342 13.74767311 17.91007012 13.76212444 15.71405792 13.78368378 C12.64201707 13.81264869 9.57088857 13.81672238 6.49873352 13.81486511 C5.1317205 13.83643677 5.1317205 13.83643677 3.73709106 13.85844421 C-2.40356287 13.81817545 -2.40356287 13.81817545 -5.61228943 11.52378845 C-7.54763567 8.59835722 -7.5553628 6.799177 -7.04325867 3.36076355 C-4.90134783 0.56953446 -3.47263874 -0.01347725 0 0 Z " fill="#CED5E0" transform="translate(232.0432586669922,268.6392364501953)"/>
<path d="M0 0 C2 3 2 3 1.92749023 6.34619141 C0.82426824 10.69228786 -0.64566744 12.3553222 -3.83984375 15.4609375 C-4.32199844 15.93697418 -4.80415314 16.41301086 -5.30091858 16.9034729 C-6.83287457 18.40865625 -8.38468618 19.89137693 -9.9375 21.375 C-10.97722974 22.39318681 -12.01565578 23.41270673 -13.05273438 24.43359375 C-21.55039086 32.74318784 -21.55039086 32.74318784 -25.66796875 33.47265625 C-30.63695657 32.76779397 -32.92039823 29.9580094 -36.3125 26.4375 C-37.26092773 25.52387695 -37.26092773 25.52387695 -38.22851562 24.59179688 C-42.16141349 20.60831511 -43.97108625 17.84057808 -44 12 C-42.9375 10.0625 -42.9375 10.0625 -41 9 C-38.3125 8.375 -38.3125 8.375 -35 9 C-32.77909749 10.69091441 -30.81119211 12.50130015 -28.83203125 14.46875 C-27.0143075 16.32065507 -27.0143075 16.32065507 -24 16 C-22.12723289 14.52705297 -22.12723289 14.52705297 -20.27734375 12.53515625 C-19.57416016 11.81779297 -18.87097656 11.10042969 -18.14648438 10.36132812 C-17.41751953 9.60271484 -16.68855469 8.84410156 -15.9375 8.0625 C-14.49041576 6.57214324 -13.04129463 5.08376069 -11.58984375 3.59765625 C-10.94909912 2.93258057 -10.30835449 2.26750488 -9.64819336 1.58227539 C-6.38855583 -1.54699595 -4.25870098 -1.06467525 0 0 Z " fill="#FCF9FE" transform="translate(147,274)"/>
<path d="M0 0 C1.9375 1.0625 1.9375 1.0625 3 3 C2.77124022 8.91943585 1.22404142 11.535864 -2.91796875 15.6796875 C-3.41283279 16.17792023 -3.90769684 16.67615295 -4.41755676 17.18948364 C-5.46194437 18.23357369 -6.51376918 19.27027185 -7.57250977 20.29980469 C-9.18497631 21.87253849 -10.76596408 23.4725933 -12.34570312 25.078125 C-13.36804517 26.09290838 -14.39207979 27.10598999 -15.41796875 28.1171875 C-16.34375732 29.03097168 -17.2695459 29.94475586 -18.22338867 30.88623047 C-21.34034005 33.25909295 -23.09127096 34.00919315 -27 34 C-29.14990234 32.72412109 -29.14990234 32.72412109 -31.0859375 30.7734375 C-31.78847656 30.07089844 -32.49101563 29.36835938 -33.21484375 28.64453125 C-33.92769531 27.89558594 -34.64054687 27.14664063 -35.375 26.375 C-36.11105469 25.64925781 -36.84710938 24.92351562 -37.60546875 24.17578125 C-42.91016034 18.75298892 -42.91016034 18.75298892 -43.31103516 15.39306641 C-43 13 -43 13 -41.3125 10.6875 C-38.49947983 8.63475555 -37.41501673 8.53754982 -34 9 C-31.76171875 10.75 -31.76171875 10.75 -29.6875 13 C-28.99011719 13.7425 -28.29273437 14.485 -27.57421875 15.25 C-26.79498047 16.11625 -26.79498047 16.11625 -26 17 C-22.97503419 15.64937713 -20.9194306 14.14970763 -18.6171875 11.77734375 C-17.70259766 10.84631836 -17.70259766 10.84631836 -16.76953125 9.89648438 C-15.83173828 8.92678711 -15.83173828 8.92678711 -14.875 7.9375 C-13.62463926 6.6527607 -12.37213484 5.37010319 -11.1171875 4.08984375 C-10.29130127 3.23700806 -10.29130127 3.23700806 -9.44873047 2.36694336 C-6.49496967 -0.42006485 -3.94178137 -0.32177807 0 0 Z " fill="#FFFDF8" transform="translate(146,160)"/>
<path d="M0 0 C2.61328125 0.5625 2.61328125 0.5625 4.55078125 1.625 C6.28674145 4.79057449 5.41695605 7.12818807 4.61328125 10.5625 C2.48364258 13.45263672 2.48364258 13.45263672 -0.3046875 16.2421875 C-0.79955154 16.74042023 -1.29441559 17.23865295 -1.80427551 17.75198364 C-2.84866312 18.79607369 -3.90048793 19.83277185 -4.95922852 20.86230469 C-6.57169506 22.43503849 -8.15268283 24.0350933 -9.73242188 25.640625 C-10.75476392 26.65540838 -11.77879854 27.66848999 -12.8046875 28.6796875 C-13.73047607 29.59347168 -14.65626465 30.50725586 -15.61010742 31.44873047 C-18.69478378 33.79702273 -20.53468915 34.45029203 -24.38671875 34.5625 C-27.16015625 32.76171875 -27.16015625 32.76171875 -29.76171875 30.25 C-30.63570312 29.42886719 -31.5096875 28.60773438 -32.41015625 27.76171875 C-34.38671875 25.5625 -34.38671875 25.5625 -34.38671875 23.5625 C-35.00546875 23.294375 -35.62421875 23.02625 -36.26171875 22.75 C-38.38671875 21.5625 -38.38671875 21.5625 -40.38671875 18.5625 C-40.89703055 15.24547328 -40.67371478 13.98195574 -38.76171875 11.1875 C-36.38671875 9.5625 -36.38671875 9.5625 -33.57421875 9.375 C-29.62805265 10.84514031 -27.77378946 12.98536907 -25.09765625 16.1640625 C-23.50975865 17.79811598 -23.50975865 17.79811598 -21.50976562 17.37475586 C-18.86342592 16.36229355 -17.62074215 15.04732245 -15.70703125 12.96484375 C-15.02511719 12.24619141 -14.34320313 11.52753906 -13.640625 10.78710938 C-12.22302128 9.26416079 -10.8115256 7.73550339 -9.40625 6.20117188 C-4.14633789 0.68866512 -4.14633789 0.68866512 0 0 Z " fill="#FAFDFB" transform="translate(143.38671875,386.4375)"/>
<path d="M0 0 C0.639375 0.495 1.27875 0.99 1.9375 1.5 C1.69666031 6.4372137 0.19364228 9.22307931 -3.0546875 12.76171875 C-10.71841773 19.39666029 -19.71116835 22.66111011 -29.6953125 22.86328125 C-32.53815848 22.42700291 -33.92093906 21.37016496 -36.0625 19.5 C-35.64445173 14.16988461 -34.97027729 11.21715401 -31.0625 7.5 C-22.38457751 1.36614471 -10.53478756 -5.15989595 0 0 Z " fill="#87CFFF" transform="translate(394.0625,188.5)"/>
<path d="M0 0 C3.45211024 2.30140683 4.9826251 4.1448704 6.8125 7.875 C7.68394036 12.33001655 7.18890112 15.16252646 5.0625 19.1875 C2.45293086 22.30448536 0.52313452 24.59128501 -3.58984375 25.2734375 C-12.54023973 25.19069116 -12.54023973 25.19069116 -16.1875 21.875 C-19.04704569 17.73358899 -19.77579996 13.99309395 -19.609375 9.05859375 C-18.74951796 4.60803738 -15.90338981 2.1333192 -12.3125 -0.5 C-7.92422853 -1.79066808 -4.28345394 -1.51180727 0 0 Z " fill="#FCFDFF" transform="translate(222.1875,41.125)"/>
<path d="M0 0 C1.19625 -0.0103125 2.3925 -0.020625 3.625 -0.03125 C7.5715958 0.58997341 9.27918617 1.60398224 12 4.5 C12 8.125 12 8.125 11 11.5 C7.29182221 13.97211853 4.3574099 13.86730992 0.0625 13.875 C-0.65357422 13.89949219 -1.36964844 13.92398437 -2.10742188 13.94921875 C-5.64364612 13.96888265 -7.61309964 13.79262401 -10.46875 11.6328125 C-12 9.5 -12 9.5 -12.5625 7 C-11.1506494 0.72510844 -5.62456398 -0.04848762 0 0 Z " fill="#CFD5E0" transform="translate(200,381.5)"/>
<path d="M0 0 C0.71607422 -0.02449219 1.43214844 -0.04898437 2.16992188 -0.07421875 C5.70614612 -0.09388265 7.67559964 0.08237599 10.53125 2.2421875 C12.0625 4.375 12.0625 4.375 12.625 6.875 C11.80921852 10.50069547 10.14354507 11.38455366 7.0625 13.375 C3.6875 13.90625 3.6875 13.90625 0.0625 13.875 C-1.13375 13.8853125 -2.33 13.895625 -3.5625 13.90625 C-7.5090958 13.28502659 -9.21668617 12.27101776 -11.9375 9.375 C-11.9375 5.75 -11.9375 5.75 -10.9375 2.375 C-7.22932221 -0.09711853 -4.2949099 0.00769008 0 0 Z " fill="#CFD5E0" transform="translate(199.9375,268.625)"/>
<path d="M0 0 C1.29808594 -0.0103125 2.59617188 -0.020625 3.93359375 -0.03125 C8.03267838 0.56883128 9.70387711 1.55475217 12.5625 4.5 C13.125 7 13.125 7 12.5625 9.5 C11.02734375 11.625 11.02734375 11.625 8.5625 13.5 C5.73184716 13.90100915 3.37903341 14.06122899 0.5625 14 C-0.1490625 14.01546875 -0.860625 14.0309375 -1.59375 14.046875 C-5.10448711 14.02067547 -7.08063115 13.77103963 -9.90625 11.625 C-11.4375 9.5 -11.4375 9.5 -11.9375 7 C-10.62487396 0.43686982 -5.92994216 -0.04701639 0 0 Z " fill="#CED5E0" transform="translate(199.4375,154.5)"/>
</svg>
