<?xml version="1.0" encoding="UTF-8"?>
<svg version="1.1" xmlns="http://www.w3.org/2000/svg" width="512" height="512">
<path d="M0 0 C2.41473548 -0.00243248 4.82946994 -0.0061562 7.24420166 -0.01106262 C13.08448438 -0.01944405 18.92463017 -0.01401553 24.76490363 -0.00179968 C31.5831378 0.01192281 38.40134331 0.01017357 45.21958778 0.00806699 C57.39267378 0.00488786 69.56570097 0.01648403 81.73876953 0.03613281 C93.52068877 0.05514491 105.30253917 0.06221571 117.08447266 0.05664062 C129.9538258 0.05056889 142.8231488 0.05078442 155.69249946 0.06212646 C157.06723996 0.0633336 158.44198046 0.06453958 159.81672096 0.0657444 C160.83100023 0.06664971 160.83100023 0.06664971 161.86576998 0.06757331 C166.60625847 0.07143509 171.34673566 0.07106567 176.08722496 0.06915855 C182.47725322 0.06726778 188.86719386 0.07544012 195.25720215 0.09121895 C197.59479726 0.09544217 199.9324013 0.09632565 202.26999855 0.09352875 C226.30695997 0.06914238 245.42002462 2.01468239 263.90356445 19.05981445 C274.76471654 30.47852055 280.85087107 45.51155576 280.83631897 61.25692749 C280.83838097 62.9857869 280.83838097 62.9857869 280.84048462 64.74957275 C280.83688934 65.99970154 280.83329407 67.24983032 280.82958984 68.5378418 C280.82930752 69.87861123 280.82946659 71.21938081 280.83003235 72.56015015 C280.83031855 76.18779197 280.82445039 79.81540054 280.81745839 83.44303465 C280.81119544 87.23868356 280.81061873 91.03433329 280.80943298 94.82998657 C280.80632834 102.01215225 280.79812664 109.19430266 280.78808349 116.37646163 C280.77689544 124.55540314 280.77140512 132.73434539 280.76638806 140.91329265 C280.75594329 157.73297577 280.73815855 174.55264256 280.71606445 191.37231445 C286.65606445 191.37231445 292.59606445 191.37231445 298.71606445 191.37231445 C298.68125977 189.05973633 298.64645508 186.7471582 298.6105957 184.36450195 C298.58716136 182.11060825 298.56896697 179.85672841 298.55126953 177.6027832 C298.53623576 176.04315052 298.5158031 174.48355973 298.48974609 172.92407227 C298.45312235 170.6749433 298.43628425 168.42637598 298.4230957 166.17700195 C298.40761185 165.48613495 298.39212799 164.79526794 298.37617493 164.08346558 C298.37458038 159.43737984 299.27625301 156.31718297 301.71606445 152.37231445 C305.4062345 149.38028469 308.04307492 148.98747577 312.71606445 149.37231445 C315.33032227 150.64208984 315.33032227 150.64208984 317.91918945 152.4074707 C318.87374023 153.04958496 319.82829102 153.69169922 320.81176758 154.35327148 C321.77018555 155.01955566 322.72860352 155.68583984 323.71606445 156.37231445 C324.59713867 156.97285645 325.47821289 157.57339844 326.38598633 158.19213867 C329.09176007 160.04745453 331.78042056 161.92549203 334.46606445 163.80981445 C336.48814966 165.22264673 338.51028657 166.63540502 340.5324707 168.0480957 C341.55614746 168.76433105 342.57982422 169.48056641 343.63452148 170.21850586 C347.59130555 172.98405403 351.55530492 175.73913933 355.51977539 178.49365234 C363.59575443 184.1048579 371.66236492 189.72918048 379.71606445 195.37231445 C386.95815212 200.44620812 394.20851704 205.50805645 401.46606445 210.55981445 C402.42923584 211.23101318 403.39240723 211.90221191 404.38476562 212.59375 C408.79282054 215.66158154 413.20846853 218.71566772 417.6574707 221.72387695 C418.77460449 222.48148315 418.77460449 222.48148315 419.91430664 223.25439453 C421.28011631 224.17844521 422.64905651 225.09789313 424.02172852 226.01171875 C427.56733405 228.4123293 430.21192027 230.205649 431.2277832 234.5715332 C431.49201143 238.31183059 431.52823506 241.17766815 429.37231445 244.34887695 C426.95375405 246.60428051 424.42493864 248.47012706 421.71606445 250.37231445 C421.06637695 250.82944824 420.41668945 251.28658203 419.74731445 251.75756836 C415.8149495 254.51004573 411.8512165 257.21296707 407.8684082 259.8918457 C402.858604 263.26355648 397.90622764 266.71212398 392.96606445 270.18481445 C383.85285792 276.58048565 374.71767054 282.94399677 365.57543945 289.2980957 C361.68756295 292.00031234 357.80226666 294.70617481 353.91918945 297.4152832 C344.10971125 304.25623435 334.27977601 311.06546022 324.40356445 317.80981445 C322.98805298 318.77769897 322.98805298 318.77769897 321.54394531 319.76513672 C320.67648682 320.35609131 319.80902832 320.9470459 318.9152832 321.5559082 C318.15046631 322.07725342 317.38564941 322.59859863 316.59765625 323.13574219 C312.7796066 325.6449444 310.37078665 325.49531909 305.91137695 324.95043945 C303.71606445 324.37231445 303.71606445 324.37231445 301.21606445 321.99731445 C298.67831084 317.55624564 298.58205197 313.83614973 298.6184082 308.8605957 C298.62053062 307.76825874 298.62053062 307.76825874 298.62269592 306.65385437 C298.62828787 304.33079906 298.64083883 302.00784057 298.65356445 299.68481445 C298.6585805 298.10864397 298.66314322 296.53247198 298.66723633 294.95629883 C298.67740325 291.09490351 298.69698009 287.2337172 298.71606445 283.37231445 C292.77606445 283.37231445 286.83606445 283.37231445 280.71606445 283.37231445 C280.7249469 284.62717651 280.73382935 285.88203857 280.74298096 287.17492676 C280.82443152 299.06053696 280.88420392 310.94608977 280.92331314 322.83191681 C280.9440962 328.94104234 280.97224271 335.04994071 281.01782227 341.15893555 C281.06161291 347.06582337 281.08527116 352.9724941 281.09557343 358.87953186 C281.10290558 361.12154045 281.11722166 363.36353854 281.13898468 365.60545349 C281.33638546 386.80361971 279.23515382 406.10316902 264.02636719 422.20947266 C250.28398254 436.10909811 234.79620838 440.61224728 215.7121582 440.78637695 C213.73361595 440.81542618 213.73361595 440.81542618 211.71510315 440.84506226 C208.23825874 440.89600557 204.76137599 440.93583126 201.28436279 440.97320557 C197.72439386 441.01348478 194.16457915 441.06446693 190.60473633 441.11450195 C183.64195889 441.21081236 176.67908201 441.29535809 169.71606445 441.37231445 C169.44634827 442.20072342 169.17663208 443.02913239 168.89874268 443.88264465 C168.54229675 444.96696274 168.18585083 446.05128082 167.81860352 447.16845703 C167.46638733 448.244366 167.11417114 449.32027496 166.75128174 450.42878723 C161.92464079 464.15281332 150.56139505 475.1956204 137.9152832 481.8449707 C116.79713101 491.86367914 96.97089919 487.63008523 75.58325195 480.93481445 C74.16063623 480.49686168 72.73777177 480.05971623 71.31468201 479.62330627 C67.521721 478.45780334 63.73210832 477.28177339 59.9432106 476.10313797 C55.969621 474.8685239 51.99352502 473.64203623 48.01757812 472.41503906 C43.11877226 470.90297452 38.22014926 469.39034253 33.32273865 467.87376404 C23.17217695 464.7325772 13.0080707 461.64047915 2.82926178 458.59212112 C-1.42070144 457.31806937 -5.66844546 456.03663275 -9.91629791 454.75556374 C-13.24701864 453.7518802 -16.5790504 452.75311247 -19.91461182 451.765625 C-41.16611843 445.45870443 -60.75846768 439.12519164 -73.28393555 419.37231445 C-79.64732562 407.42442502 -81.58453174 397.6732344 -81.55136108 384.28633118 C-81.55510123 382.85325878 -81.5597042 381.42018843 -81.56509173 379.98712128 C-81.57729231 376.06252281 -81.57706474 372.13800977 -81.57470298 368.21339667 C-81.57429406 363.97533528 -81.58534113 359.737301 -81.59481812 355.49925232 C-81.61141327 347.2007699 -81.616927 338.9023159 -81.61804287 330.60381828 C-81.61899411 323.85592772 -81.6231082 317.10804652 -81.62944412 310.36015892 C-81.64705299 291.21581309 -81.65628362 272.07148967 -81.65478317 252.92713568 C-81.65470326 251.89559985 -81.65462335 250.86406402 -81.65454102 249.80126953 C-81.65445925 248.76846964 -81.65437749 247.73566975 -81.65429325 246.67157289 C-81.6534806 229.93898813 -81.672614 213.20649345 -81.70081775 196.47393475 C-81.72956896 179.28047362 -81.74335679 162.08705638 -81.7416302 144.8935706 C-81.74096704 135.24582978 -81.74642678 125.59818337 -81.7679863 115.95046425 C-81.78622761 107.73514742 -81.79052129 99.51996779 -81.77696745 91.30463944 C-81.77045248 87.1166512 -81.77026705 82.92892595 -81.78767395 78.74096298 C-81.80347544 74.89958043 -81.8004697 71.05866785 -81.78310569 67.21729627 C-81.77861533 65.18528951 -81.79363739 63.15326777 -81.80958498 61.12131864 C-81.68774918 44.78612328 -76.01275528 30.59399608 -64.7644043 18.72387695 C-45.94288069 0.88047977 -24.55898316 -0.0872337 0 0 Z " fill="#062B75" transform="translate(81.283935546875,11.627685546875)"/>
<path d="M0 0 C1.11890625 0.3403125 2.2378125 0.680625 3.390625 1.03125 C5.99695434 1.83823063 8.59930107 2.65345536 11.19921875 3.48046875 C17.10112511 5.35540131 23.01910398 7.17790909 28.9375 9 C30.06349609 9.34675781 31.18949219 9.69351563 32.34960938 10.05078125 C39.27637488 12.17837414 46.21514443 14.25682524 53.171875 16.28393555 C58.25128502 17.76812226 63.30443487 19.32700061 68.35229492 20.91479492 C74.87388372 22.96533672 81.40445477 24.98627168 87.9375 27 C89.62709839 27.52146606 89.62709839 27.52146606 91.35083008 28.0534668 C96.90830463 29.76311689 102.47122779 31.43995973 108.06274414 33.03466797 C139.3946359 42.00359354 139.3946359 42.00359354 148.38699389 56.09172535 C153.68311473 65.64071209 154.58380852 75.51222963 154.50793457 86.23168945 C154.51255522 87.61958371 154.51891589 89.00747306 154.52684355 90.39535236 C154.54340057 94.17194772 154.53535347 97.94813401 154.52289867 101.72473001 C154.51379404 105.81206817 154.52784456 109.89933928 154.53881836 113.98666382 C154.55655076 121.97903245 154.55278723 129.97125032 154.5411678 137.96362472 C154.53211289 144.46254822 154.53091835 150.96142965 154.53526306 157.46035767 C154.53587599 158.38736428 154.53648893 159.31437089 154.53712043 160.26946861 C154.53839941 162.15300617 154.53969626 164.03654372 154.5410108 165.92008126 C154.55240113 183.5579758 154.5393272 201.19578701 154.51780933 218.83366787 C154.49993976 233.94872394 154.5030443 249.06365709 154.52148438 264.17871094 C154.54291845 281.75599152 154.55130264 299.33319917 154.53903532 316.91049099 C154.5377612 318.78687476 154.53650372 320.66325854 154.53526306 322.53964233 C154.53433741 323.92425776 154.53433741 323.92425776 154.53339306 325.33684522 C154.52994776 331.82359057 154.53575075 338.31028944 154.54518127 344.79702759 C154.55643087 352.70847845 154.5532992 360.61977068 154.5320583 368.53120351 C154.52158756 372.56327364 154.51735759 376.59507984 154.53065491 380.62714767 C154.54266789 384.32587155 154.5358718 388.02408952 154.5147447 391.72276819 C154.50823532 393.67797414 154.52113465 395.63321586 154.53497362 397.58838367 C154.43116149 409.41455416 152.12940444 420.10447368 144 429 C143.236875 429.86625 142.47375 430.7325 141.6875 431.625 C132.09869278 440.09882963 122.50196663 443.86899126 109.625 443.609375 C100.46652365 442.71646452 91.63676485 439.17364181 82.95849609 436.28662109 C75.19416787 433.73730045 67.35082778 431.43073135 59.52868652 429.06668091 C55.69343443 427.90732879 51.85881982 426.74588774 48.02441406 425.58374023 C47.32811764 425.37270944 46.63182121 425.16167864 45.9144249 424.94425297 C40.01326415 423.15552344 34.11252906 421.36539183 28.21207047 419.5743475 C24.40875641 418.41998413 20.60512055 417.26670312 16.80078125 416.11572266 C-12.50128301 407.24888 -12.50128301 407.24888 -25.28515625 403.0234375 C-26.10621857 402.75398315 -26.92728088 402.48452881 -27.77322388 402.20690918 C-38.96988952 398.44478384 -48.08997354 392.73251502 -53.5703125 381.89453125 C-56.27972088 375.5390333 -58.12210531 370.16943556 -58.13422108 363.24424648 C-58.13867892 362.06219488 -58.14313676 360.88014327 -58.14772969 359.66227192 C-58.14754533 358.36239513 -58.14736097 357.06251834 -58.14717102 355.72325134 C-58.15047082 354.32933038 -58.15419663 352.93541036 -58.1583125 351.54149157 C-58.16832759 347.70663074 -58.17204851 343.87178557 -58.17470181 340.03691351 C-58.17860635 335.90244038 -58.18818463 331.76797963 -58.19691467 327.6335144 C-58.21667546 317.64616776 -58.22674508 307.65882011 -58.23564246 297.67145881 C-58.24002624 292.96734335 -58.24539284 288.26322902 -58.25063133 283.55911446 C-58.26764368 267.91977008 -58.28213743 252.28042639 -58.28938007 236.64107418 C-58.29128995 232.5827376 -58.29321028 228.52440102 -58.29516602 224.46606445 C-58.29564976 223.45739347 -58.2961335 222.44872248 -58.2966319 221.40948571 C-58.30493058 205.07299052 -58.33026475 188.73656861 -58.36274669 172.40010541 C-58.39582884 155.6248901 -58.4138299 138.849712 -58.41702431 122.0744639 C-58.4191884 112.6569922 -58.42792222 103.23962732 -58.45348549 93.82218742 C-58.47520831 85.8010571 -58.48323515 77.78005954 -58.47351871 69.75890314 C-58.4689785 65.66839555 -58.47084375 61.57816179 -58.49028015 57.48769188 C-58.50794506 53.73754634 -58.50688756 49.98787373 -58.49138286 46.23772294 C-58.48789482 44.24977117 -58.50400826 42.26181424 -58.52098733 40.27393192 C-58.43140243 27.74268542 -54.75132515 17.35968632 -46.22265625 8.0625 C-33.05263866 -4.43420381 -16.62257572 -5.12736166 0 0 Z " fill="#FCCA50" transform="translate(78,36)"/>
<path d="M0 0 C0.68545898 0.20882812 1.37091797 0.41765625 2.07714844 0.6328125 C6.72990921 2.05250627 11.36835934 3.51293771 16 5 C15.42149924 7.39708561 14.83723368 9.7925507 14.25 12.1875 C14.09273438 12.84169922 13.93546875 13.49589844 13.7734375 14.16992188 C12.71224723 18.47590548 11.4710076 22.68402382 10.11328125 26.90625 C7.51680651 35.26036209 5.71788443 43.7551992 3.9375 52.3125 C3.67512039 53.56432068 3.67512039 53.56432068 3.40744019 54.84143066 C-5.64741742 98.25702177 -7.77591721 145.08135764 -1 189 C-0.78297949 190.44348853 -0.56619575 191.88701267 -0.34960938 193.33056641 C5.44983325 231.63297089 15.39281706 268.34877377 31.86328125 303.56054688 C32.9772196 305.95111217 34.05425568 308.35545516 35.125 310.765625 C50.44642498 344.76877825 72.52074466 376.91445441 97.6640625 404.41796875 C98.9611476 405.85170328 100.25134868 407.29208381 101.51245117 408.75756836 C106.14007614 414.13457388 111.03470014 419.18486011 116.0625 424.1875 C116.83916016 424.96802734 117.61582031 425.74855469 118.41601562 426.55273438 C122.45998315 430.58985352 126.53378658 434.4341752 131 438 C130 440 130 440 128.2421875 440.8515625 C111.96465863 446.16996302 98.54463668 441.4717003 82.95849609 436.28662109 C75.19416787 433.73730045 67.35082778 431.43073135 59.52868652 429.06668091 C55.69343443 427.90732879 51.85881982 426.74588774 48.02441406 425.58374023 C47.32811764 425.37270944 46.63182121 425.16167864 45.9144249 424.94425297 C40.01326415 423.15552344 34.11252906 421.36539183 28.21207047 419.5743475 C24.40875641 418.41998413 20.60512055 417.26670312 16.80078125 416.11572266 C-12.50128301 407.24888 -12.50128301 407.24888 -25.28515625 403.0234375 C-26.10621857 402.75398315 -26.92728088 402.48452881 -27.77322388 402.20690918 C-38.96988952 398.44478384 -48.08997354 392.73251502 -53.5703125 381.89453125 C-56.27972088 375.5390333 -58.12210531 370.16943556 -58.13422108 363.24424648 C-58.13867892 362.06219488 -58.14313676 360.88014327 -58.14772969 359.66227192 C-58.14754533 358.36239513 -58.14736097 357.06251834 -58.14717102 355.72325134 C-58.15047082 354.32933038 -58.15419663 352.93541036 -58.1583125 351.54149157 C-58.16832759 347.70663074 -58.17204851 343.87178557 -58.17470181 340.03691351 C-58.17860635 335.90244038 -58.18818463 331.76797963 -58.19691467 327.6335144 C-58.21667546 317.64616776 -58.22674508 307.65882011 -58.23564246 297.67145881 C-58.24002624 292.96734335 -58.24539284 288.26322902 -58.25063133 283.55911446 C-58.26764368 267.91977008 -58.28213743 252.28042639 -58.28938007 236.64107418 C-58.29128995 232.5827376 -58.29321028 228.52440102 -58.29516602 224.46606445 C-58.29564976 223.45739347 -58.2961335 222.44872248 -58.2966319 221.40948571 C-58.30493058 205.07299052 -58.33026475 188.73656861 -58.36274669 172.40010541 C-58.39582884 155.6248901 -58.4138299 138.849712 -58.41702431 122.0744639 C-58.4191884 112.6569922 -58.42792222 103.23962732 -58.45348549 93.82218742 C-58.47520831 85.8010571 -58.48323515 77.78005954 -58.47351871 69.75890314 C-58.4689785 65.66839555 -58.47084375 61.57816179 -58.49028015 57.48769188 C-58.50794506 53.73754634 -58.50688756 49.98787373 -58.49138286 46.23772294 C-58.48789482 44.24977117 -58.50400826 42.26181424 -58.52098733 40.27393192 C-58.43140243 27.74268542 -54.75132515 17.35968632 -46.22265625 8.0625 C-33.05262198 -4.43421963 -16.62168064 -5.12668704 0 0 Z " fill="#FC8E01" transform="translate(78,36)"/>
<path d="M0 0 C22.02707135 -0.0467434 44.05413451 -0.08200033 66.08124542 -0.10362434 C76.3090633 -0.1139321 86.53685035 -0.1279829 96.76464844 -0.15087891 C105.68032906 -0.17082807 114.59598734 -0.18372008 123.51168966 -0.18817699 C128.23143879 -0.19078177 132.95112403 -0.1968938 137.67085266 -0.21146011 C142.11622322 -0.2250681 146.56150375 -0.22921613 151.00689316 -0.22621536 C152.63544581 -0.22676409 154.26400157 -0.23072233 155.89253616 -0.23841095 C158.12316875 -0.2484227 160.35346541 -0.24594643 162.58410645 -0.24050903 C164.45350262 -0.24327441 164.45350262 -0.24327441 166.36066437 -0.24609566 C177.07742345 0.47858273 187.11969902 5.0782374 194.4375 13.01171875 C200.11628844 20.23797704 204.25730284 27.68232006 204.24050903 37.03646851 C204.24463303 38.81581284 204.24463303 38.81581284 204.24884033 40.63110352 C204.2380545 42.56240112 204.2380545 42.56240112 204.22705078 44.53271484 C204.22648616 45.91289258 204.22680422 47.29307091 204.22793579 48.67324829 C204.22850833 52.40836407 204.21677008 56.14335073 204.20278788 59.87843657 C204.19026401 63.78618937 204.18910871 67.69394531 204.18673706 71.60171509 C204.18052715 78.99639771 204.16412297 86.39102102 204.14403808 93.78567755 C204.12166384 102.20644619 204.11068182 110.6272177 204.10064721 119.04800868 C204.0797563 136.3653734 204.04458985 153.68268042 204 171 C203.39722733 171.00142502 202.79445465 171.00285004 202.17341614 171.00431824 C195.89501543 171.02401712 189.61758672 171.07829479 183.33959961 171.15258789 C180.99722265 171.17577332 178.65474136 171.19016486 176.31225586 171.19555664 C172.94318584 171.20484176 169.57575809 171.2458257 166.20703125 171.29296875 C165.16102249 171.2890361 164.11501373 171.28510345 163.03730774 171.28105164 C158.41939118 171.37355271 155.76314752 171.49994584 151.8380127 174.07189941 C149.59154463 177.65070194 149.30638018 180.45408208 149.38476562 184.55664062 C149.37644211 185.67222603 149.37644211 185.67222603 149.36795044 186.81034851 C149.35617535 189.25964553 149.38040499 191.70708343 149.40625 194.15625 C149.40796177 195.86348384 149.40789474 197.57072031 149.40612793 199.2779541 C149.40777995 202.85238869 149.42645557 206.42619518 149.45800781 210.00048828 C149.49768531 214.57713449 149.50205238 219.15295839 149.49454498 223.72974396 C149.49147219 227.25400293 149.50360677 230.77807779 149.52067566 234.30229187 C149.52769588 235.98954615 149.53083138 237.67682129 149.52998352 239.36408997 C149.53178577 241.72422839 149.55320274 244.08339031 149.58007812 246.44335938 C149.57714752 247.13753464 149.57421692 247.8317099 149.57119751 248.54692078 C149.64656232 252.84669379 150.37837659 255.57249312 153 259 C155.41906791 260.20953395 157.02166308 260.15679908 159.72509766 260.20532227 C160.70596344 260.22526749 161.68682922 260.24521271 162.69741821 260.26576233 C163.75891083 260.28247482 164.82040344 260.29918732 165.9140625 260.31640625 C167.54122696 260.3475779 167.54122696 260.3475779 169.20126343 260.37937927 C172.67577621 260.44490634 176.15036624 260.50377447 179.625 260.5625 C181.97657058 260.60568221 184.32813326 260.6492964 186.6796875 260.69335938 C192.4530427 260.80059093 198.2264752 260.90235144 204 261 C204.11615031 274.61334289 204.20484568 288.22656674 204.25906086 301.84030533 C204.28508919 308.1625959 204.32036416 314.48454597 204.37719727 320.80664062 C204.4317574 326.91452098 204.46147135 333.02207501 204.47438622 339.13018036 C204.48358302 341.45366294 204.50154183 343.77712885 204.52865028 346.1004715 C204.70459383 361.81303285 204.39998857 374.94783818 193 387 C184.12450957 395.60544508 173.26527799 399.57062132 160.98905945 399.56648254 C159.83122452 399.54067612 158.67338959 399.51486969 157.48046875 399.48828125 C156.25588455 399.48120651 155.03130035 399.47413177 153.76960754 399.46684265 C149.90824886 399.43914524 146.04841071 399.37645033 142.1875 399.3125 C139.54884926 399.28738542 136.91017549 399.26457785 134.27148438 399.24414062 C127.84714888 399.18939955 121.42368311 399.10602359 115 399 C114.99940291 398.31339401 114.99880582 397.62678801 114.99819064 396.91937578 C114.96226892 356.19330688 114.9055873 315.4673127 114.82207905 274.74131223 C114.81206202 269.84739856 114.80221782 264.95348455 114.79248047 260.05957031 C114.7905391 259.08531163 114.78859772 258.11105294 114.78659752 257.10727127 C114.75560656 241.34810781 114.73860498 225.58895891 114.72680578 209.82977073 C114.71437916 193.65014416 114.68684369 177.47059374 114.64538693 161.29101527 C114.62029476 151.31351918 114.60687959 141.33614946 114.60857043 131.35862137 C114.60860026 124.50952062 114.59390706 117.66054825 114.56783572 110.81149755 C114.55323965 106.86446349 114.54494368 102.91769267 114.55419731 98.97063637 C114.56254657 95.34780789 114.55216114 91.72550596 114.52766338 88.10275514 C114.51938324 86.19043058 114.53044837 84.27805138 114.54249835 82.36574686 C114.36355378 64.12448457 107.55019695 49.122859 95.12890625 36.02734375 C85.09949628 26.54006405 71.56178394 22.98682916 58.6875 19.0625 C56.98719926 18.53594009 55.28716859 18.00850734 53.58740234 17.48022461 C48.72895177 15.9735749 43.86504278 14.48519638 39 13 C37.14544189 12.43152344 37.14544189 12.43152344 35.25341797 11.8515625 C30.45441157 10.38086477 25.65304039 8.91846983 20.84765625 7.46875 C13.88200612 5.36528225 6.94017283 3.18580189 0 1 C0 0.67 0 0.34 0 0 Z " fill="#D1DBFC" transform="translate(137,33)"/>
<path d="M0 0 C22.02707135 -0.0467434 44.05413451 -0.08200033 66.08124542 -0.10362434 C76.3090633 -0.1139321 86.53685035 -0.1279829 96.76464844 -0.15087891 C105.68032906 -0.17082807 114.59598734 -0.18372008 123.51168966 -0.18817699 C128.23143879 -0.19078177 132.95112403 -0.1968938 137.67085266 -0.21146011 C142.11622322 -0.2250681 146.56150375 -0.22921613 151.00689316 -0.22621536 C152.63544581 -0.22676409 154.26400157 -0.23072233 155.89253616 -0.23841095 C158.12316875 -0.2484227 160.35346541 -0.24594643 162.58410645 -0.24050903 C164.45350262 -0.24327441 164.45350262 -0.24327441 166.36066437 -0.24609566 C177.07742345 0.47858273 187.11969902 5.0782374 194.4375 13.01171875 C201.48844879 21.98405108 204.31252017 29.92523945 204.22705078 41.22802734 C204.22734283 42.24327484 204.22763489 43.25852234 204.22793579 44.30453491 C204.2265464 47.64842378 204.21100339 50.99208772 204.1953125 54.3359375 C204.19158099 56.65906655 204.18873467 58.98219718 204.18673706 61.30532837 C204.17911152 67.41107551 204.1594722 73.51672707 204.1373291 79.62243652 C204.11324457 86.95295741 204.10408456 94.2835103 204.09242249 101.61405945 C204.07304729 112.74277272 204.03471699 123.87127637 204 135 C174.63 135 145.26 135 115 135 C114.75 104.375 114.75 104.375 114.70214844 94.79443359 C114.67274238 92.24575026 114.64191018 89.69708281 114.609375 87.1484375 C114.60768311 85.215448 114.60768311 85.215448 114.60595703 83.2434082 C114.31647942 64.58622332 107.88400547 49.47478656 95.12890625 36.02734375 C85.09949628 26.54006405 71.56178394 22.98682916 58.6875 19.0625 C56.98719926 18.53594009 55.28716859 18.00850734 53.58740234 17.48022461 C48.72895177 15.9735749 43.86504278 14.48519638 39 13 C37.14544189 12.43152344 37.14544189 12.43152344 35.25341797 11.8515625 C30.45441157 10.38086477 25.65304039 8.91846983 20.84765625 7.46875 C13.88200612 5.36528225 6.94017283 3.18580189 0 1 C0 0.67 0 0.34 0 0 Z " fill="#FEFEFE" transform="translate(137,33)"/>
<path d="M0 0 C9.68388236 5.96316847 18.93078752 12.50583155 28.22607422 19.05126953 C32.91029781 22.342017 37.61150594 25.60827535 42.3125 28.875 C44.23438715 30.21092002 46.15626204 31.54685768 48.078125 32.8828125 C49.04298828 33.55344727 50.00785156 34.22408203 51.00195312 34.91503906 C54.12220984 37.08498958 57.24096349 39.2570862 60.359375 41.4296875 C61.39795654 42.1530127 62.43653809 42.87633789 63.5065918 43.62158203 C65.49274402 45.0049227 67.47860048 46.38868814 69.46411133 47.77294922 C70.36411865 48.39959473 71.26412598 49.02624023 72.19140625 49.671875 C73.02559082 50.25388672 73.85977539 50.83589844 74.71923828 51.43554688 C76.67367528 52.77616262 78.65126787 54.05912155 80.65234375 55.328125 C81.42707031 55.87984375 82.20179688 56.4315625 83 57 C83 57.66 83 58.32 83 59 C80.78380931 60.67142873 78.56202432 62.22013956 76.25 63.75 C74.76627051 64.75032892 73.28322809 65.75167748 71.80078125 66.75390625 C70.62056396 67.54885498 70.62056396 67.54885498 69.41650391 68.35986328 C65.39228485 71.09119321 61.41639764 73.89074722 57.4375 76.6875 C49.24743177 82.43155443 41.04284572 88.15437185 32.82739258 93.86206055 C28.25052787 97.04197679 23.67564623 100.22456789 19.10939026 103.41970825 C17.48984876 104.55281779 15.86956387 105.68486458 14.24926758 106.81689453 C12.19702695 108.25091311 10.14604193 109.6867306 8.09643555 111.12451172 C7.18031494 111.76404785 6.26419434 112.40358398 5.3203125 113.0625 C4.50836426 113.63097656 3.69641602 114.19945312 2.85986328 114.78515625 C1 116 1 116 0 116 C-0.0093457 115.23856689 -0.01869141 114.47713379 -0.02832031 113.69262695 C-0.08210937 110.2319338 -0.16574184 106.77257982 -0.25 103.3125 C-0.26417969 102.11431641 -0.27835937 100.91613281 -0.29296875 99.68164062 C-0.32519531 98.52470703 -0.35742188 97.36777344 -0.390625 96.17578125 C-0.4220459 94.58117065 -0.4220459 94.58117065 -0.45410156 92.9543457 C-1.12754267 89.3097523 -2.41554716 87.61703738 -5 85 C-8.7942951 83.73523497 -12.37178549 83.82303544 -16.3269043 83.79467773 C-17.17590302 83.78477814 -18.02490173 83.77487854 -18.89962769 83.76467896 C-21.70779627 83.73307417 -24.51598178 83.70831052 -27.32421875 83.68359375 C-29.27049704 83.66302334 -31.21677088 83.64202685 -33.16304016 83.62062073 C-38.28728628 83.56540901 -43.41157265 83.51599573 -48.53588867 83.46777344 C-54.68332577 83.40872299 -60.83068925 83.34249994 -66.97806549 83.27747345 C-76.31866539 83.17947525 -85.65931236 83.09061142 -95 83 C-95 66.5 -95 50 -95 33 C-88.77769531 32.96261719 -82.55539062 32.92523438 -76.14453125 32.88671875 C-72.20244625 32.85644254 -68.2604066 32.82529696 -64.31835938 32.79101562 C-58.06146521 32.73668656 -51.80466075 32.68557672 -45.54760742 32.65356445 C-40.50298274 32.62755383 -35.45865919 32.5871671 -30.41422081 32.53681374 C-28.4897505 32.52012989 -26.56522809 32.50862507 -24.64069557 32.50238609 C-21.94479434 32.49276157 -19.24966614 32.46472209 -16.55395508 32.43237305 C-15.36064827 32.43452568 -15.36064827 32.43452568 -14.14323425 32.4367218 C-9.59329924 32.35951597 -6.62520707 31.81187233 -3 29 C-0.77382659 25.84871847 -0.70208841 22.93488822 -0.5859375 19.140625 C-0.54726563 18.02558594 -0.50859375 16.91054687 -0.46875 15.76171875 C-0.4378125 14.60285156 -0.406875 13.44398438 -0.375 12.25 C-0.33632813 11.07566406 -0.29765625 9.90132812 -0.2578125 8.69140625 C-0.1636018 5.79442732 -0.07798398 2.89745374 0 0 Z " fill="#BB99F3" transform="translate(401,191)"/>
<path d="M0 0 C29.37 0 58.74 0 89 0 C89.103125 11.3025 89.20625 22.605 89.3125 34.25 C89.35802002 37.79524414 89.40354004 41.34048828 89.45043945 44.99316406 C89.47302246 49.38232422 89.47302246 49.38232422 89.47721863 51.44866943 C89.48480734 52.86655567 89.50220391 54.28441331 89.52787781 55.7020874 C89.75210564 68.75656837 87.26160728 80.20855248 78 90 C69.10830472 98.62115688 58.2386015 102.5723396 45.94299316 102.5657959 C44.80036011 102.54021606 43.65772705 102.51463623 42.48046875 102.48828125 C40.84881775 102.48072815 40.84881775 102.48072815 39.1842041 102.47302246 C35.18502821 102.44718889 31.18623292 102.37738653 27.1875 102.3125 C18.215625 102.209375 9.24375 102.10625 0 102 C0 68.34 0 34.68 0 0 Z " fill="#FEFEFE" transform="translate(252,330)"/>
<path d="M0 0 C5.57894737 3.15789474 5.57894737 3.15789474 7 6 C7.28544013 11.65279853 7.31378534 17.30674035 7.35009766 22.96606445 C7.36665332 24.85844219 7.39393835 26.7507575 7.43212891 28.64282227 C7.48694472 31.37288814 7.50877818 34.1014889 7.5234375 36.83203125 C7.54610687 37.67490189 7.56877625 38.51777252 7.59213257 39.38618469 C7.57635038 43.78297543 7.43319775 45.45834907 4.59228516 49.01049805 C0.81287739 51.91108139 -1.21792893 52.4688305 -6 52 C-9.48245014 49.78389537 -11.56332415 47.85583719 -13 44 C-13.21567213 41.2803563 -13.32784341 38.6655484 -13.3359375 35.9453125 C-13.3425943 35.16614471 -13.3492511 34.38697693 -13.35610962 33.584198 C-13.36621741 31.93848016 -13.37092722 30.2927215 -13.37060547 28.64697266 C-13.37497342 26.14025677 -13.41129517 23.63531022 -13.44921875 21.12890625 C-13.45508856 19.52604765 -13.45905685 17.92318074 -13.4609375 16.3203125 C-13.47530853 15.57637238 -13.48967957 14.83243225 -13.50448608 14.06594849 C-13.45949235 8.89343601 -12.28662077 5.96609858 -9 2 C-5.46569344 -0.35620437 -4.16428713 -0.48991613 0 0 Z " fill="#FEFDFA" transform="translate(199,223)"/>
</svg>
