<?xml version="1.0" encoding="UTF-8"?>
<svg version="1.1" xmlns="http://www.w3.org/2000/svg" width="512" height="512">
<path d="M0 0 C1.35185413 -0.00489257 2.70370407 -0.01108407 4.05554694 -0.01845789 C7.76020474 -0.03483441 11.46464941 -0.03254419 15.16933072 -0.02708292 C19.16878111 -0.02440987 23.16817506 -0.03894972 27.16760254 -0.05117798 C34.9993318 -0.07222295 42.83098702 -0.07677335 50.66274122 -0.07499009 C57.02977493 -0.07368193 63.39678556 -0.07748936 69.76381493 -0.08491516 C71.59857215 -0.08701438 73.43332938 -0.08911198 75.26808661 -0.09120798 C76.18133185 -0.09225151 77.0945771 -0.09329504 78.03549644 -0.09437019 C95.30413819 -0.11326898 112.57273746 -0.11222354 129.84138527 -0.10540086 C145.63197546 -0.09982633 161.42240336 -0.12064764 177.21295563 -0.15376133 C193.43343751 -0.1875121 209.65384167 -0.20266489 225.87435931 -0.1980443 C234.9782178 -0.19580093 244.08192631 -0.20102336 253.18575478 -0.22593689 C260.93678783 -0.24696799 268.68758868 -0.25052416 276.43863133 -0.2316373 C280.39136947 -0.22249033 284.34367487 -0.22130405 288.29637909 -0.24199295 C291.9194061 -0.26074611 295.5416473 -0.25615208 299.1646448 -0.23344713 C301.08658251 -0.2273039 303.00855117 -0.24561886 304.93040115 -0.26498365 C313.35622298 -0.17909676 320.30725823 1.31018182 326.67845851 7.13661051 C333.67364128 14.59008549 334.92921889 23.13965761 334.89361572 33.04402161 C334.89489736 34.34899944 334.89489736 34.34899944 334.89620489 35.68034047 C334.89785159 38.59457249 334.89235154 41.50874691 334.8868866 44.42297363 C334.88660452 46.51235452 334.88676285 48.6017355 334.8873291 50.69111633 C334.88761629 56.36420171 334.88173214 62.03726599 334.87475514 67.71034646 C334.86850864 73.63873961 334.86791678 79.56713324 334.86672974 85.49552917 C334.86362025 96.72222896 334.85541201 107.94891903 334.84538025 119.17561454 C334.83420724 131.95662265 334.82870566 144.73763124 334.82368481 157.51864302 C334.81322909 183.81057047 334.79563704 210.10248928 334.77336121 236.39440918 C335.86985489 236.52414627 336.96634857 236.65388336 338.09606934 236.78755188 C339.55012502 236.96338452 341.00415935 237.13939381 342.45817566 237.31555176 C343.1790461 237.40037056 343.89991653 237.48518936 344.64263153 237.57257843 C349.95813541 238.22168952 354.91219583 239.26397909 359.96086121 241.08190918 C360.70932312 241.34318604 361.45778503 241.60446289 362.22892761 241.87365723 C388.40618186 251.33946435 407.30148441 270.53072083 419.04679871 295.38269043 C427.76880811 314.87255434 429.44339592 341.0546075 422.77336121 361.39440918 C422.38277527 362.6551123 421.99218933 363.91581543 421.58976746 365.21472168 C414.65751476 386.23320991 401.00443697 403.08153683 382.77336121 415.39440918 C382.01152527 415.93452637 381.24968933 416.47464355 380.46476746 417.03112793 C375.09220817 420.57869307 369.3337911 422.88662661 363.33586121 425.14440918 C362.56105408 425.43847656 361.78624695 425.73254395 360.98796082 426.03552246 C337.55629791 434.49511938 309.92924337 432.47207549 287.39665222 422.23498535 C265.15931234 411.54508462 249.03277062 393.54878603 238.77336121 371.39440918 C238.77336121 370.73440918 238.77336121 370.07440918 238.77336121 369.39440918 C236.88407819 369.39717456 236.88407819 369.39717456 234.95662785 369.3999958 C205.04312732 369.44333238 175.12963491 369.47630067 145.21611068 369.49653984 C141.53247603 369.49904118 137.84884146 369.50162984 134.16520691 369.50427246 C133.43187647 369.50479708 132.69854603 369.5053217 131.94299345 369.50586222 C120.07652066 369.51455953 108.21006729 369.53032578 96.343606 369.54871477 C84.16316009 369.56743259 71.98272433 369.57852989 59.80226463 369.58258617 C52.28919614 369.58532732 44.77618255 369.59397812 37.26313096 369.61024211 C31.49744069 369.62208599 25.73178543 369.62331576 19.96608543 369.62062454 C17.6042408 369.62117432 15.24239406 369.62514664 12.88056183 369.63282013 C9.65188632 369.64279457 6.42344428 369.64036881 3.19476318 369.63491821 C1.79832662 369.64365674 1.79832662 369.64365674 0.37367922 369.6525718 C-9.46184103 369.60780221 -17.70466476 368.08374443 -25.22663879 361.39440918 C-29.7647087 355.81933797 -32.3466546 351.16309425 -32.36365318 343.89946651 C-32.36872773 342.75013982 -32.37380227 341.60081312 -32.37903059 340.41665834 C-32.37952834 339.14820513 -32.3800261 337.87975191 -32.38053894 336.57286072 C-32.38455355 335.21621308 -32.38899177 333.85956664 -32.3938185 332.50292164 C-32.40579026 328.76648732 -32.41143385 325.03006592 -32.41599965 321.29361618 C-32.42195355 317.26684653 -32.43356401 313.24009235 -32.44429016 309.21333313 C-32.46882035 299.48364454 -32.48344289 289.75395083 -32.49635023 280.02424082 C-32.50006193 277.27613986 -32.50403518 274.5280394 -32.50810289 271.77993894 C-32.53334087 254.71535288 -32.55539447 237.65076603 -32.56783104 220.58616543 C-32.57076075 216.63284235 -32.57372241 212.6795193 -32.57673645 208.72619629 C-32.5774825 207.74361302 -32.57822855 206.76102976 -32.57899721 205.74867124 C-32.59164809 189.8349748 -32.62486705 173.92139016 -32.66653828 158.00774597 C-32.70896963 141.66988267 -32.73252753 125.33207658 -32.7377516 108.99415833 C-32.74116452 99.82091875 -32.75290554 90.64785383 -32.78585434 81.4746685 C-32.81387261 73.66134171 -32.82484644 65.84822538 -32.81365888 58.03485226 C-32.80847659 54.04972496 -32.81133047 50.06503826 -32.83612442 46.07997513 C-32.8586607 42.42720608 -32.85784401 38.77519299 -32.83892055 35.1224103 C-32.83480919 33.18435825 -32.8552341 31.2463013 -32.87670743 29.30836385 C-32.80012662 20.85066491 -31.34072609 13.86917275 -25.4712013 7.48507494 C-17.8044182 0.2509513 -10.11392307 -0.04314281 0 0 Z " fill="#D6EAEA" transform="translate(59.22663879394531,40.6055908203125)"/>
<path d="M0 0 C1.35185413 -0.00489257 2.70370407 -0.01108407 4.05554694 -0.01845789 C7.76020474 -0.03483441 11.46464941 -0.03254419 15.16933072 -0.02708292 C19.16878111 -0.02440987 23.16817506 -0.03894972 27.16760254 -0.05117798 C34.9993318 -0.07222295 42.83098702 -0.07677335 50.66274122 -0.07499009 C57.02977493 -0.07368193 63.39678556 -0.07748936 69.76381493 -0.08491516 C71.59857215 -0.08701438 73.43332938 -0.08911198 75.26808661 -0.09120798 C76.18133185 -0.09225151 77.0945771 -0.09329504 78.03549644 -0.09437019 C95.30413819 -0.11326898 112.57273746 -0.11222354 129.84138527 -0.10540086 C145.63197546 -0.09982633 161.42240336 -0.12064764 177.21295563 -0.15376133 C193.43343751 -0.1875121 209.65384167 -0.20266489 225.87435931 -0.1980443 C234.9782178 -0.19580093 244.08192631 -0.20102336 253.18575478 -0.22593689 C260.93678783 -0.24696799 268.68758868 -0.25052416 276.43863133 -0.2316373 C280.39136947 -0.22249033 284.34367487 -0.22130405 288.29637909 -0.24199295 C291.9194061 -0.26074611 295.5416473 -0.25615208 299.1646448 -0.23344713 C301.08658251 -0.2273039 303.00855117 -0.24561886 304.93040115 -0.26498365 C313.35622298 -0.17909676 320.30725823 1.31018182 326.67845851 7.13661051 C333.67364128 14.59008549 334.92921889 23.13965761 334.89361572 33.04402161 C334.89489736 34.34899944 334.89489736 34.34899944 334.89620489 35.68034047 C334.89785159 38.59457249 334.89235154 41.50874691 334.8868866 44.42297363 C334.88660452 46.51235452 334.88676285 48.6017355 334.8873291 50.69111633 C334.88761629 56.36420171 334.88173214 62.03726599 334.87475514 67.71034646 C334.86850864 73.63873961 334.86791678 79.56713324 334.86672974 85.49552917 C334.86362025 96.72222896 334.85541201 107.94891903 334.84538025 119.17561454 C334.83420724 131.95662265 334.82870566 144.73763124 334.82368481 157.51864302 C334.81322909 183.81057047 334.79563704 210.10248928 334.77336121 236.39440918 C335.86985489 236.52414627 336.96634857 236.65388336 338.09606934 236.78755188 C339.55012502 236.96338452 341.00415935 237.13939381 342.45817566 237.31555176 C343.1790461 237.40037056 343.89991653 237.48518936 344.64263153 237.57257843 C349.95813541 238.22168952 354.91219583 239.26397909 359.96086121 241.08190918 C360.70932312 241.34318604 361.45778503 241.60446289 362.22892761 241.87365723 C388.40618186 251.33946435 407.30148441 270.53072083 419.04679871 295.38269043 C427.76880811 314.87255434 429.44339592 341.0546075 422.77336121 361.39440918 C422.38277527 362.6551123 421.99218933 363.91581543 421.58976746 365.21472168 C414.65751476 386.23320991 401.00443697 403.08153683 382.77336121 415.39440918 C382.01152527 415.93452637 381.24968933 416.47464355 380.46476746 417.03112793 C375.09220817 420.57869307 369.3337911 422.88662661 363.33586121 425.14440918 C362.56105408 425.43847656 361.78624695 425.73254395 360.98796082 426.03552246 C337.55629791 434.49511938 309.92924337 432.47207549 287.39665222 422.23498535 C265.15931234 411.54508462 249.03277062 393.54878603 238.77336121 371.39440918 C238.77336121 370.73440918 238.77336121 370.07440918 238.77336121 369.39440918 C236.88407819 369.39717456 236.88407819 369.39717456 234.95662785 369.3999958 C205.04312732 369.44333238 175.12963491 369.47630067 145.21611068 369.49653984 C141.53247603 369.49904118 137.84884146 369.50162984 134.16520691 369.50427246 C133.43187647 369.50479708 132.69854603 369.5053217 131.94299345 369.50586222 C120.07652066 369.51455953 108.21006729 369.53032578 96.343606 369.54871477 C84.16316009 369.56743259 71.98272433 369.57852989 59.80226463 369.58258617 C52.28919614 369.58532732 44.77618255 369.59397812 37.26313096 369.61024211 C31.49744069 369.62208599 25.73178543 369.62331576 19.96608543 369.62062454 C17.6042408 369.62117432 15.24239406 369.62514664 12.88056183 369.63282013 C9.65188632 369.64279457 6.42344428 369.64036881 3.19476318 369.63491821 C1.79832662 369.64365674 1.79832662 369.64365674 0.37367922 369.6525718 C-9.46184103 369.60780221 -17.70466476 368.08374443 -25.22663879 361.39440918 C-29.7647087 355.81933797 -32.3466546 351.16309425 -32.36365318 343.89946651 C-32.36872773 342.75013982 -32.37380227 341.60081312 -32.37903059 340.41665834 C-32.37952834 339.14820513 -32.3800261 337.87975191 -32.38053894 336.57286072 C-32.38455355 335.21621308 -32.38899177 333.85956664 -32.3938185 332.50292164 C-32.40579026 328.76648732 -32.41143385 325.03006592 -32.41599965 321.29361618 C-32.42195355 317.26684653 -32.43356401 313.24009235 -32.44429016 309.21333313 C-32.46882035 299.48364454 -32.48344289 289.75395083 -32.49635023 280.02424082 C-32.50006193 277.27613986 -32.50403518 274.5280394 -32.50810289 271.77993894 C-32.53334087 254.71535288 -32.55539447 237.65076603 -32.56783104 220.58616543 C-32.57076075 216.63284235 -32.57372241 212.6795193 -32.57673645 208.72619629 C-32.5774825 207.74361302 -32.57822855 206.76102976 -32.57899721 205.74867124 C-32.59164809 189.8349748 -32.62486705 173.92139016 -32.66653828 158.00774597 C-32.70896963 141.66988267 -32.73252753 125.33207658 -32.7377516 108.99415833 C-32.74116452 99.82091875 -32.75290554 90.64785383 -32.78585434 81.4746685 C-32.81387261 73.66134171 -32.82484644 65.84822538 -32.81365888 58.03485226 C-32.80847659 54.04972496 -32.81133047 50.06503826 -32.83612442 46.07997513 C-32.8586607 42.42720608 -32.85784401 38.77519299 -32.83892055 35.1224103 C-32.83480919 33.18435825 -32.8552341 31.2463013 -32.87670743 29.30836385 C-32.80012662 20.85066491 -31.34072609 13.86917275 -25.4712013 7.48507494 C-17.8044182 0.2509513 -10.11392307 -0.04314281 0 0 Z M-24.22663879 78.39440918 C-24.30913879 122.44940918 -24.39163879 166.50440918 -24.47663879 211.89440918 C-24.51305481 225.81306152 -24.54947083 239.73171387 -24.58699036 254.07214355 C-24.60036678 266.53143112 -24.60036678 266.53143112 -24.6084137 278.99072266 C-24.61214546 284.54710651 -24.62682483 290.10332969 -24.64894104 295.65966797 C-24.674413 302.0685659 -24.68598013 308.47730959 -24.6804186 314.88625851 C-24.67801011 318.164386 -24.68404814 321.44209927 -24.70349932 324.72017956 C-24.72337726 328.23308657 -24.71860597 331.74513004 -24.70765686 335.25805664 C-24.71930752 336.27723427 -24.73095818 337.2964119 -24.74296188 338.34647369 C-24.69170057 344.46019925 -24.14333397 349.50616629 -20.22663879 354.39440918 C-14.25617798 360.04553375 -8.77978863 361.26573071 -0.76727295 361.11593628 C0.24905431 361.12106283 1.26538156 361.12618938 2.31250662 361.13147128 C5.69863449 361.14130948 9.08295592 361.10842849 12.46891785 361.07556152 C14.90371153 361.07386814 17.33850827 361.07482091 19.77330017 361.07821655 C25.00515076 361.07958031 30.2365972 361.06262701 35.46832466 361.02878952 C43.03235118 360.97989932 50.59616094 360.96438789 58.16032832 360.95686157 C70.43437614 360.94374972 82.70818388 360.9038745 94.98210144 360.8470459 C106.90070907 360.79191999 118.81925134 360.74947488 130.73796082 360.72399902 C131.47338421 360.72242268 132.20880761 360.72084634 132.96651656 360.71922223 C136.65614604 360.71139166 140.34577598 360.70380949 144.03540623 360.69635081 C174.6148964 360.63421255 205.19409539 360.52814031 235.77336121 360.39440918 C235.6196405 359.14135986 235.4659198 357.88831055 235.30754089 356.59729004 C235.221073 355.8924498 235.1346051 355.18760956 235.04551697 354.46141052 C234.81159521 352.68479338 234.52418407 350.91536491 234.22648621 349.14831543 C232.53847235 335.16399371 232.48696247 319.89569751 236.77336121 306.39440918 C237.10207214 305.35026855 237.43078308 304.30612793 237.76945496 303.23034668 C246.82501912 277.47369014 264.06673652 258.32476702 288.48429871 246.33581543 C300.64858296 240.67104829 312.15506846 238.99656127 325.77336121 237.39440918 C325.77336121 184.92440918 325.77336121 132.45440918 325.77336121 78.39440918 C210.27336121 78.39440918 94.77336121 78.39440918 -24.22663879 78.39440918 Z " fill="#666666" transform="translate(59.22663879394531,40.6055908203125)"/>
<path d="M0 0 C115.5 0 231 0 350 0 C350 0.33 350 0.66 350 1 C245.72 1 141.44 1 34 1 C39.21188731 18.8774265 39.21188731 18.8774265 45.9375 36 C46.56374268 37.4089856 46.56374268 37.4089856 47.20263672 38.84643555 C50.09301116 45.26003701 53.21871316 51.52812183 56.66381836 57.66210938 C59 61.82234953 59 61.82234953 59 64 C59.99 64.495 59.99 64.495 61 65 C60.57589844 65.41507812 60.15179688 65.83015625 59.71484375 66.2578125 C47.50514076 79.08470926 44.34274887 93.99758932 44.6875 111.10546875 C45.27130879 123.82033778 51.48917339 133.96944587 59.5625 143.4375 C64.43862306 149.25260622 68.61725724 155.46810381 69.26953125 163.19140625 C69 166 69 166 66.625 168.125 C65.75875 168.74375 64.8925 169.3625 64 170 C61.03102563 174.62065636 61.50834845 179.70706378 62 185 C63.63476933 189.73222701 65.79284428 192.29539989 70 195 C72.68507329 195.78946609 72.68507329 195.78946609 75 196 C75.15855469 196.58007812 75.31710938 197.16015625 75.48046875 197.7578125 C77.28739006 203.80750484 79.347599 208.68854135 84.92578125 212.21875 C88.73066347 214.22509091 91.67956644 215.13591329 96 216 C96.495 225.405 96.495 225.405 97 235 C111.97686358 235.02311964 126.95372447 235.04097956 141.93060207 235.05181217 C148.88416081 235.05697496 155.83770827 235.06401734 162.79125977 235.07543945 C169.49557209 235.08644694 176.19987025 235.09227621 182.90419197 235.09487724 C185.46837613 235.09673202 188.03255962 235.10035364 190.59673882 235.10573006 C194.17445158 235.11293659 197.75211519 235.11399111 201.32983398 235.11352539 C202.93744347 235.1189183 202.93744347 235.1189183 204.57752991 235.12442017 C205.54653229 235.1230455 206.51553467 235.12167084 207.51390076 235.12025452 C208.36102851 235.12117631 209.20815626 235.1220981 210.08095455 235.12304783 C212.00859312 235.21154402 212.00859312 235.21154402 213 234 C213 232.35 213 230.7 213 229 C177.03 228.67 141.06 228.34 104 228 C104 224.04 104 220.08 104 216 C105.711875 215.4225 107.42375 214.845 109.1875 214.25 C116.39078324 211.59032619 119.90976403 208.91065909 123.203125 202 C124.07446028 200.01428256 124.07446028 200.01428256 124.37109375 197.83984375 C125 196 125 196 126.70703125 195.12890625 C127.74923828 194.84853516 127.74923828 194.84853516 128.8125 194.5625 C132.84427556 193.24747643 134.66957728 191.63545944 137 188 C137.33 187.34 137.66 186.68 138 186 C165.91401137 184.31614421 188.1861645 183.39455922 211.99511719 199.09375 C216.54719686 201.98151715 221.32703289 204.19912742 226.25 206.375 C227.53934448 206.95870361 227.53934448 206.95870361 228.85473633 207.55419922 C237.10886399 211.21223466 245.60067755 214.22529118 254.14355469 217.13427734 C255.65997559 217.65562256 255.65997559 217.65562256 257.20703125 218.1875 C258.1091333 218.49042969 259.01123535 218.79335938 259.94067383 219.10546875 C262 220 262 220 263 222 C262.51171875 223.77734375 262.51171875 223.77734375 261.6875 225.9375 C258.38222241 235.33432223 257.67709749 244.59740931 257.75 254.5 C257.74226563 255.55058594 257.73453125 256.60117187 257.7265625 257.68359375 C257.74181277 263.85232829 258.28680187 269.60616553 259.57128906 275.64257812 C260 278 260 278 260 282 C228.68690544 282.13694036 197.37389021 282.2430913 166.0605672 282.30639198 C162.36191085 282.31389602 158.66325508 282.32166197 154.96459961 282.32958984 C154.22827855 282.33116371 153.4919575 282.33273757 152.73332369 282.33435912 C140.81826983 282.36045144 128.90339005 282.40775021 116.98843939 282.46291678 C104.75828258 282.51906956 92.52821681 282.55236188 80.29793638 282.56453097 C72.75396783 282.57275477 65.21049135 282.5987073 57.66667431 282.6474988 C51.87741593 282.68302991 46.08847131 282.68672011 40.29912567 282.67864609 C37.92757834 282.68029548 35.55601222 282.69221371 33.18457603 282.71523285 C29.94215867 282.74516018 26.7018333 282.73788273 23.45936584 282.7215271 C22.52451719 282.73900415 21.58966853 282.7564812 20.62649113 282.77448785 C13.73867937 282.68080449 9.03534828 280.76602749 4 276 C-0.60747067 270.24963273 -0.5620468 263.95188831 -0.48101807 256.86364746 C-0.48444214 255.76506409 -0.48786621 254.66648071 -0.49139404 253.53460693 C-0.49799912 249.85288292 -0.47594745 246.17189155 -0.45410156 242.49023438 C-0.45287591 239.80594548 -0.45323323 237.12169984 -0.45556259 234.43741608 C-0.45768513 227.98092613 -0.43925618 221.52465958 -0.41355728 215.06822696 C-0.38471017 207.5965696 -0.38157573 200.12504562 -0.37841797 192.65332031 C-0.35743313 172.93551158 -0.30158847 153.21775242 -0.25 133.5 C-0.1675 89.445 -0.085 45.39 0 0 Z " fill="#C5DCE1" transform="translate(35,119)"/>
<path d="M0 0 C1.12269293 -0.00445784 2.24538586 -0.00891569 3.40209979 -0.01350862 C5.26013459 -0.01323207 5.26013459 -0.01323207 7.15570545 -0.01294994 C9.12343936 -0.01846498 9.12343936 -0.01846498 11.13092548 -0.02409142 C14.78001081 -0.03411631 18.4290797 -0.037829 22.07817686 -0.04048073 C26.01083633 -0.04438234 29.94348276 -0.05396078 33.87613392 -0.0626936 C43.37741126 -0.0824621 52.87868967 -0.09252472 62.37998244 -0.10142139 C66.85336881 -0.10580367 71.326754 -0.11117063 75.80013943 -0.11641026 C90.66911257 -0.13342295 105.53808497 -0.14791737 120.40706635 -0.155159 C124.26621661 -0.15706892 128.12536686 -0.15898925 131.9845171 -0.16094494 C133.42329155 -0.16167055 133.42329155 -0.16167055 134.89113215 -0.16241082 C150.43110336 -0.17071206 165.97099761 -0.19605037 181.51093521 -0.22852562 C197.46232541 -0.26158918 213.4136765 -0.27960712 229.36510116 -0.28280324 C238.32250859 -0.28496899 247.2798038 -0.29372717 256.23717785 -0.31926441 C263.86535961 -0.34096181 271.4934019 -0.34902658 279.12161102 -0.33929763 C283.01326908 -0.33475011 286.90463931 -0.33666514 290.79625797 -0.35605907 C295.01710679 -0.37691194 299.23731614 -0.36671459 303.45819569 -0.35352612 C304.68573195 -0.36449536 305.91326821 -0.37546461 307.17800254 -0.38676625 C314.12524742 -0.33427713 318.89383475 0.04935332 324.62440968 4.13422108 C330.62440968 13.13422108 330.62440968 13.13422108 330.62440968 62.13422108 C215.12440968 62.13422108 99.62440968 62.13422108 -19.37559032 62.13422108 C-19.37559032 13.13422108 -19.37559032 13.13422108 -14.37559032 5.13422108 C-9.56898404 1.38506818 -6.02924172 0.01108657 0 0 Z " fill="#CF4C4C" transform="translate(54.375590324401855,48.86577892303467)"/>
<path d="M0 0 C1.35185413 -0.00489257 2.70370407 -0.01108407 4.05554694 -0.01845789 C7.76020474 -0.03483441 11.46464941 -0.03254419 15.16933072 -0.02708292 C19.16878111 -0.02440987 23.16817506 -0.03894972 27.16760254 -0.05117798 C34.9993318 -0.07222295 42.83098702 -0.07677335 50.66274122 -0.07499009 C57.02977493 -0.07368193 63.39678556 -0.07748936 69.76381493 -0.08491516 C71.59857215 -0.08701438 73.43332938 -0.08911198 75.26808661 -0.09120798 C76.18133185 -0.09225151 77.0945771 -0.09329504 78.03549644 -0.09437019 C95.30413819 -0.11326898 112.57273746 -0.11222354 129.84138527 -0.10540086 C145.63197546 -0.09982633 161.42240336 -0.12064764 177.21295563 -0.15376133 C193.43343751 -0.1875121 209.65384167 -0.20266489 225.87435931 -0.1980443 C234.9782178 -0.19580093 244.08192631 -0.20102336 253.18575478 -0.22593689 C260.93678783 -0.24696799 268.68758868 -0.25052416 276.43863133 -0.2316373 C280.39136947 -0.22249033 284.34367487 -0.22130405 288.29637909 -0.24199295 C291.9194061 -0.26074611 295.5416473 -0.25615208 299.1646448 -0.23344713 C301.08658251 -0.2273039 303.00855117 -0.24561886 304.93040115 -0.26498365 C313.35622298 -0.17909676 320.30725823 1.31018182 326.67845851 7.13661051 C333.67364128 14.59008549 334.92921889 23.13965761 334.89361572 33.04402161 C334.89489736 34.34899944 334.89489736 34.34899944 334.89620489 35.68034047 C334.89785159 38.59457249 334.89235154 41.50874691 334.8868866 44.42297363 C334.88660452 46.51235452 334.88676285 48.6017355 334.8873291 50.69111633 C334.88761629 56.36420171 334.88173214 62.03726599 334.87475514 67.71034646 C334.86850864 73.63873961 334.86791678 79.56713324 334.86672974 85.49552917 C334.86362025 96.72222896 334.85541201 107.94891903 334.84538025 119.17561454 C334.83420724 131.95662265 334.82870566 144.73763124 334.82368481 157.51864302 C334.81322909 183.81057047 334.79563704 210.10248928 334.77336121 236.39440918 C335.86985489 236.52414627 336.96634857 236.65388336 338.09606934 236.78755188 C339.55012502 236.96338452 341.00415935 237.13939381 342.45817566 237.31555176 C343.1790461 237.40037056 343.89991653 237.48518936 344.64263153 237.57257843 C349.95813541 238.22168952 354.91219583 239.26397909 359.96086121 241.08190918 C360.70932312 241.34318604 361.45778503 241.60446289 362.22892761 241.87365723 C388.40618186 251.33946435 407.30148441 270.53072083 419.04679871 295.38269043 C427.76880811 314.87255434 429.44339592 341.0546075 422.77336121 361.39440918 C422.38277527 362.6551123 421.99218933 363.91581543 421.58976746 365.21472168 C414.65751476 386.23320991 401.00443697 403.08153683 382.77336121 415.39440918 C382.01152527 415.93452637 381.24968933 416.47464355 380.46476746 417.03112793 C375.09220817 420.57869307 369.3337911 422.88662661 363.33586121 425.14440918 C362.56105408 425.43847656 361.78624695 425.73254395 360.98796082 426.03552246 C337.55629791 434.49511938 309.92924337 432.47207549 287.39665222 422.23498535 C265.15931234 411.54508462 249.03277062 393.54878603 238.77336121 371.39440918 C238.77336121 370.73440918 238.77336121 370.07440918 238.77336121 369.39440918 C236.88407819 369.39717456 236.88407819 369.39717456 234.95662785 369.3999958 C205.04312732 369.44333238 175.12963491 369.47630067 145.21611068 369.49653984 C141.53247603 369.49904118 137.84884146 369.50162984 134.16520691 369.50427246 C133.43187647 369.50479708 132.69854603 369.5053217 131.94299345 369.50586222 C120.07652066 369.51455953 108.21006729 369.53032578 96.343606 369.54871477 C84.16316009 369.56743259 71.98272433 369.57852989 59.80226463 369.58258617 C52.28919614 369.58532732 44.77618255 369.59397812 37.26313096 369.61024211 C31.49744069 369.62208599 25.73178543 369.62331576 19.96608543 369.62062454 C17.6042408 369.62117432 15.24239406 369.62514664 12.88056183 369.63282013 C9.65188632 369.64279457 6.42344428 369.64036881 3.19476318 369.63491821 C1.79832662 369.64365674 1.79832662 369.64365674 0.37367922 369.6525718 C-9.46184103 369.60780221 -17.70466476 368.08374443 -25.22663879 361.39440918 C-29.7647087 355.81933797 -32.3466546 351.16309425 -32.36365318 343.89946651 C-32.36872773 342.75013982 -32.37380227 341.60081312 -32.37903059 340.41665834 C-32.37952834 339.14820513 -32.3800261 337.87975191 -32.38053894 336.57286072 C-32.38455355 335.21621308 -32.38899177 333.85956664 -32.3938185 332.50292164 C-32.40579026 328.76648732 -32.41143385 325.03006592 -32.41599965 321.29361618 C-32.42195355 317.26684653 -32.43356401 313.24009235 -32.44429016 309.21333313 C-32.46882035 299.48364454 -32.48344289 289.75395083 -32.49635023 280.02424082 C-32.50006193 277.27613986 -32.50403518 274.5280394 -32.50810289 271.77993894 C-32.53334087 254.71535288 -32.55539447 237.65076603 -32.56783104 220.58616543 C-32.57076075 216.63284235 -32.57372241 212.6795193 -32.57673645 208.72619629 C-32.5774825 207.74361302 -32.57822855 206.76102976 -32.57899721 205.74867124 C-32.59164809 189.8349748 -32.62486705 173.92139016 -32.66653828 158.00774597 C-32.70896963 141.66988267 -32.73252753 125.33207658 -32.7377516 108.99415833 C-32.74116452 99.82091875 -32.75290554 90.64785383 -32.78585434 81.4746685 C-32.81387261 73.66134171 -32.82484644 65.84822538 -32.81365888 58.03485226 C-32.80847659 54.04972496 -32.81133047 50.06503826 -32.83612442 46.07997513 C-32.8586607 42.42720608 -32.85784401 38.77519299 -32.83892055 35.1224103 C-32.83480919 33.18435825 -32.8552341 31.2463013 -32.87670743 29.30836385 C-32.80012662 20.85066491 -31.34072609 13.86917275 -25.4712013 7.48507494 C-17.8044182 0.2509513 -10.11392307 -0.04314281 0 0 Z M-21.22663879 16.39440918 C-30.50184293 31.85308274 -24.22663879 52.3666528 -24.22663879 70.39440918 C91.27336121 70.39440918 206.77336121 70.39440918 325.77336121 70.39440918 C330.30341281 26.38671095 330.30341281 26.38671095 319.77336121 12.39440918 C313.0526179 7.60702166 306.68693812 7.83003508 298.62733459 7.89320374 C297.30982873 7.88766934 295.99232287 7.88213494 294.63489258 7.87643284 C290.99309489 7.86171813 287.35173134 7.8718353 283.70994782 7.88616955 C279.77671861 7.89729808 275.84354935 7.88533064 271.9103241 7.87632751 C264.21171385 7.8624066 256.51326782 7.86994235 248.81466542 7.8850031 C239.84858719 7.90187503 230.88254973 7.89865151 221.91646053 7.89490902 C205.9196716 7.88903271 189.92296142 7.9031939 173.92619324 7.92785645 C158.4040278 7.95178458 142.88196756 7.95885728 127.35978699 7.94836426 C110.45355527 7.93695608 93.54737218 7.93502313 76.64114106 7.94946235 C74.83866827 7.95098819 73.03619548 7.95250854 71.23372269 7.95402336 C70.34688336 7.95478118 69.46004402 7.95553899 68.54633077 7.95631977 C62.29631537 7.96106273 56.04632168 7.95921112 49.79630661 7.95495796 C42.1813607 7.95003242 34.56651425 7.95601087 26.95159112 7.97585226 C23.06628318 7.98572632 19.18112673 7.99082813 15.2958107 7.98295975 C11.0855369 7.97460765 6.87566718 7.98947815 2.66542053 8.00672913 C1.43546919 8.00071908 0.20551784 7.99470904 -1.06170475 7.98851687 C-10.0033432 8.05538066 -15.15021659 9.49684883 -21.22663879 16.39440918 Z M-24.22663879 78.39440918 C-24.30913879 122.44940918 -24.39163879 166.50440918 -24.47663879 211.89440918 C-24.51305481 225.81306152 -24.54947083 239.73171387 -24.58699036 254.07214355 C-24.60036678 266.53143112 -24.60036678 266.53143112 -24.6084137 278.99072266 C-24.61214546 284.54710651 -24.62682483 290.10332969 -24.64894104 295.65966797 C-24.674413 302.0685659 -24.68598013 308.47730959 -24.6804186 314.88625851 C-24.67801011 318.164386 -24.68404814 321.44209927 -24.70349932 324.72017956 C-24.72337726 328.23308657 -24.71860597 331.74513004 -24.70765686 335.25805664 C-24.71930752 336.27723427 -24.73095818 337.2964119 -24.74296188 338.34647369 C-24.69170057 344.46019925 -24.14333397 349.50616629 -20.22663879 354.39440918 C-14.25617798 360.04553375 -8.77978863 361.26573071 -0.76727295 361.11593628 C0.24905431 361.12106283 1.26538156 361.12618938 2.31250662 361.13147128 C5.69863449 361.14130948 9.08295592 361.10842849 12.46891785 361.07556152 C14.90371153 361.07386814 17.33850827 361.07482091 19.77330017 361.07821655 C25.00515076 361.07958031 30.2365972 361.06262701 35.46832466 361.02878952 C43.03235118 360.97989932 50.59616094 360.96438789 58.16032832 360.95686157 C70.43437614 360.94374972 82.70818388 360.9038745 94.98210144 360.8470459 C106.90070907 360.79191999 118.81925134 360.74947488 130.73796082 360.72399902 C131.47338421 360.72242268 132.20880761 360.72084634 132.96651656 360.71922223 C136.65614604 360.71139166 140.34577598 360.70380949 144.03540623 360.69635081 C174.6148964 360.63421255 205.19409539 360.52814031 235.77336121 360.39440918 C235.6196405 359.14135986 235.4659198 357.88831055 235.30754089 356.59729004 C235.221073 355.8924498 235.1346051 355.18760956 235.04551697 354.46141052 C234.81159521 352.68479338 234.52418407 350.91536491 234.22648621 349.14831543 C232.53847235 335.16399371 232.48696247 319.89569751 236.77336121 306.39440918 C237.10207214 305.35026855 237.43078308 304.30612793 237.76945496 303.23034668 C246.82501912 277.47369014 264.06673652 258.32476702 288.48429871 246.33581543 C300.64858296 240.67104829 312.15506846 238.99656127 325.77336121 237.39440918 C325.77336121 184.92440918 325.77336121 132.45440918 325.77336121 78.39440918 C210.27336121 78.39440918 94.77336121 78.39440918 -24.22663879 78.39440918 Z M269.77336121 267.39440918 C268.94062683 268.13304199 268.10789246 268.8716748 267.24992371 269.63269043 C253.36531841 282.68421941 241.75072292 302.82220481 240.61222839 322.12658691 C240.18426063 352.20625123 245.88863929 375.71174127 267.26945496 397.99597168 C277.70812573 408.01585477 289.99663922 415.03035439 303.77336121 419.39440918 C304.73886902 419.71280762 305.70437683 420.03120605 306.69914246 420.35925293 C328.85290856 426.5944893 352.60639091 421.89474317 372.64836121 411.51940918 C395.77658418 398.16027143 408.77615686 377.9584178 415.97648621 352.81628418 C421.15346031 330.58574831 416.9290837 307.84761028 405.92570496 288.07409668 C392.61284566 267.13436316 372.11880371 251.89076546 347.77336121 246.39440918 C319.34985227 241.93931374 291.5553808 247.91830371 269.77336121 267.39440918 Z " fill="#020101" transform="translate(59.22663879394531,40.6055908203125)"/>
<path d="M0 0 C0.79486816 0.00749268 1.58973633 0.01498535 2.40869141 0.02270508 C7.85450119 0.1228489 12.88866554 0.43062964 18.0625 2.25 C19.01382813 2.58 19.96515625 2.91 20.9453125 3.25 C36.19819591 9.06062225 47.0314612 20.18562966 53.6875 34.95703125 C59.0629549 47.83063488 58.90305748 64.1903735 54.0625 77.25 C51.56170798 83.29621868 47.6409415 88.08883493 43.5625 93.125 C37.77038036 100.28087777 32.82812923 107.80723953 32.0625 117.25 C32.64 117.45625 33.2175 117.6625 33.8125 117.875 C36.94598274 119.78990612 38.28364587 122.07347477 40.0625 125.25 C40.0625 126.57 40.0625 127.89 40.0625 129.25 C73.7225 129.25 107.3825 129.25 142.0625 129.25 C142.3925 131.23 142.7225 133.21 143.0625 135.25 C141.0625 137.25 141.0625 137.25 139.22343254 137.49609566 C138.47309305 137.49425207 137.72275356 137.49240849 136.94967651 137.49050903 C136.08868347 137.49325836 135.22769043 137.49600769 134.34060669 137.49884033 C133.39402191 137.49164978 132.44743713 137.48445923 131.47216797 137.47705078 C129.97943359 137.47748886 129.97943359 137.47748886 128.45654297 137.47793579 C125.15583684 137.4765386 121.85535437 137.46095904 118.5546875 137.4453125 C116.270682 137.44158376 113.9866749 137.43873613 111.70266724 137.43673706 C105.6823487 137.4290897 99.66212621 137.40943174 93.6418457 137.3873291 C87.5021291 137.3668944 81.36239703 137.35774043 75.22265625 137.34765625 C63.16922857 137.32618689 51.11587226 137.29203767 39.0625 137.25 C38.77890625 138.02859375 38.4953125 138.8071875 38.203125 139.609375 C36.74035537 142.99578689 35.16037181 144.27862703 32.0625 146.25 C28.75 147 28.75 147 26.0625 147.25 C26.02125 148.24 25.98 149.23 25.9375 150.25 C25.1754893 155.2691105 22.68716189 158.77787899 19.0625 162.25 C14.43524435 165.26682494 10.63432086 167.25 5.0625 167.25 C5.0625 171.21 5.0625 175.17 5.0625 179.25 C7.10750954 179.24666908 7.10750954 179.24666908 9.1938324 179.24327087 C22.01128307 179.22304229 34.82873052 179.20802923 47.6461935 179.19818783 C54.23654785 179.19295828 60.82688937 179.18585933 67.41723633 179.17456055 C73.77142018 179.16373422 80.12559165 179.15772371 86.47978401 179.15512276 C88.90999611 179.15326805 91.34020749 179.14964657 93.77041435 179.14426994 C97.16132981 179.13706289 100.55219341 179.13600892 103.94311523 179.13647461 C104.95875046 179.13287933 105.97438568 179.12928406 107.02079773 179.12557983 C107.93931519 179.1269545 108.85783264 179.12832916 109.80418396 179.12974548 C110.60706565 179.12882369 111.40994734 179.1279019 112.23715878 179.12695217 C114.0625 179.25 114.0625 179.25 115.0625 180.25 C115.25 182.6875 115.25 182.6875 115.0625 185.25 C112.60202514 187.71047486 111.93435093 187.50230671 108.55226135 187.51069641 C107.6030481 187.51778122 106.65383484 187.52486603 105.67585754 187.53216553 C104.63112778 187.52968811 103.58639801 187.52721069 102.51000977 187.5246582 C100.86356979 187.5323246 100.86356979 187.5323246 99.18386841 187.54014587 C95.54049286 187.5540933 91.89730539 187.55308123 88.25390625 187.55078125 C85.73046294 187.55466534 83.20702029 187.55899941 80.68357849 187.56376648 C75.38823053 187.57123979 70.09295213 187.57106693 64.79760742 187.56567383 C58.67409438 187.55963321 52.55081107 187.57194515 46.42733723 187.5932439 C40.54015321 187.61296903 34.65304053 187.6160354 28.76582146 187.61250877 C26.25910846 187.61302351 23.75239191 187.61828951 21.24569893 187.62832069 C17.74507907 187.64060913 14.24499556 187.6339388 10.74438477 187.62231445 C9.70167923 187.62995819 8.65897369 187.63760193 7.58467102 187.64547729 C6.63263794 187.63846298 5.68060486 187.63144867 4.69972229 187.6242218 C3.45781553 187.62447341 3.45781553 187.62447341 2.19081974 187.62473011 C-0.43842962 187.16180206 -1.32503082 186.33905254 -2.9375 184.25 C-3.27807617 182.34887695 -3.27807617 182.34887695 -3.23046875 180.23828125 C-3.2159668 179.10229492 -3.2159668 179.10229492 -3.20117188 177.94335938 C-3.17603516 177.15767578 -3.15089844 176.37199219 -3.125 175.5625 C-3.11146484 174.76521484 -3.09792969 173.96792969 -3.08398438 173.14648438 C-3.04867089 171.18070033 -2.99486447 169.21526418 -2.9375 167.25 C-4.16984375 167.14042969 -5.4021875 167.03085937 -6.671875 166.91796875 C-13.28264172 166.08361427 -17.21558314 162.32513057 -21.375 157.3125 C-23.11655716 153.89904796 -23.63338733 151.05140843 -23.9375 147.25 C-24.96875 147.229375 -26 147.20875 -27.0625 147.1875 C-32.11825514 145.96433343 -34.15803028 143.52180246 -36.9375 139.25 C-38.90204134 133.35637599 -38.92983868 127.27011802 -36.1875 121.6875 C-34.07762697 119.40180422 -32.69340241 118.50636728 -29.9375 117.25 C-31.64882665 106.81090746 -36.09422226 99.20553829 -43 91.25 C-51.49683458 81.39878277 -55.33608157 70.50793826 -55.25 57.5625 C-55.24436035 56.67763916 -55.2387207 55.79277832 -55.23291016 54.88110352 C-54.92664136 38.29861907 -48.79389691 25.7907524 -36.9375 14.25 C-26.5058349 4.71088379 -14.09355134 -0.17568139 0 0 Z " fill="#060606" transform="translate(133.9375,167.75)"/>
<path d="M0 0 C5.28 0 10.56 0 16 0 C18 6 18 6 18.4296875 8.37890625 C18.95799815 10.96948214 19.55516669 12.77047274 21 15 C23.88154202 16.63081136 26.74208988 17.66482745 29.875 18.73046875 C33.14155141 20.05750526 35.04842259 21.56796899 37.625 23.9375 C40.15147644 26.0643338 41.26891182 26.99012043 44.6015625 27.03515625 C47.15357644 26.51948382 49.53037804 25.81775562 52 25 C53.66262114 24.64704132 55.32850661 24.30821864 57 24 C57.9893091 25.38866323 58.96603078 26.78629851 59.9375 28.1875 C60.48277344 28.96480469 61.02804687 29.74210937 61.58984375 30.54296875 C63.11859715 33.20664157 63.83345885 34.93172074 64 38 C62.16845703 39.72851562 62.16845703 39.72851562 59.6328125 41.40625 C56.55754896 43.95244879 55.18054752 45.34583659 54.10839844 49.23046875 C53.78970206 53.02203338 53.77159438 56.69697095 53.875 60.5 C53.84019531 61.78003906 53.80539062 63.06007813 53.76953125 64.37890625 C53.75573163 71.49751119 53.75573163 71.49751119 57.11816406 77.51171875 C59.5693512 79.61667056 59.5693512 79.61667056 62.16845703 81.27148438 C62.77286621 81.84189453 63.37727539 82.41230469 64 83 C63.7818644 87.01883209 62.21878273 89.56045866 59.9375 92.8125 C59.38964844 93.60269531 58.84179688 94.39289063 58.27734375 95.20703125 C57.85582031 95.79871094 57.43429687 96.39039063 57 97 C56.43152344 96.86722656 55.86304688 96.73445313 55.27734375 96.59765625 C53.66846051 96.22968128 52.05618999 95.87630774 50.44140625 95.53515625 C48.40390343 95.08853563 46.38577115 94.55469549 44.375 94 C40.22879951 94 39.08861003 95.35681045 36.234375 98.19140625 C32.3469584 101.33803892 27.58939754 103.05508011 23.01171875 104.99609375 C19.73092966 106.76492645 19.73092966 106.76492645 18.70703125 110.28515625 C18.47371094 111.51105469 18.24039063 112.73695313 18 114 C17.34 116.31 16.68 118.62 16 121 C10.72 121 5.44 121 0 121 C-0.45572917 117.97265625 -0.91145833 114.9453125 -1.3671875 111.91796875 C-1.85132338 108.82678207 -1.85132338 108.82678207 -4 106 C-6.0415476 105.05288658 -6.0415476 105.05288658 -8.4375 104.3125 C-12.82963418 102.70035826 -16.02548981 100.59080642 -19.6875 97.6875 C-23.69192639 94.56336667 -23.69192639 94.56336667 -28.625 93.875 C-29.73875 94.24625 -30.8525 94.6175 -32 95 C-33.64285721 95.36772488 -35.28888907 95.7214965 -36.9375 96.0625 C-38.29227399 96.37235649 -39.64666562 96.6839151 -41 97 C-42.17192047 95.04480616 -43.3373929 93.0857461 -44.5 91.125 C-45.47453125 89.48917969 -45.47453125 89.48917969 -46.46875 87.8203125 C-48 85 -48 85 -48 83 C-46.3203125 81.34375 -46.3203125 81.34375 -44.125 79.5 C-39.65961178 76.17470773 -39.65961178 76.17470773 -37.61425781 71.34545898 C-37.43932482 67.70923825 -37.33075634 64.07704143 -37.25 60.4375 C-37.17523438 59.18646484 -37.10046875 57.93542969 -37.0234375 56.64648438 C-36.87549125 49.34239626 -36.87549125 49.34239626 -40.27929688 43.09033203 C-42.7576409 40.85816085 -45.23878495 38.86690828 -48 37 C-42.6925053 25.27413962 -42.6925053 25.27413962 -39.54296875 24.02734375 C-36.87244349 23.99862842 -35.39828869 24.37821981 -33 25.5 C-29.49831485 26.90459386 -27.61577549 27.53670458 -24 26 C-21.98903203 24.57792721 -20.05282088 23.08153548 -18.1171875 21.55859375 C-14.26860685 18.72541353 -10.01418803 16.50954162 -5.375 15.3359375 C-2.64894127 14.14633832 -2.64894127 14.14633832 -1.85546875 10.7421875 C-1.63503906 9.46601563 -1.41460937 8.18984375 -1.1875 6.875 C-0.795625 4.60625 -0.40375 2.3375 0 0 Z " fill="#B0B1B1" transform="translate(380,314)"/>
<path d="M0 0 C12.41210395 7.15604849 20.744273 17.36673157 24.640625 31.2890625 C26.60154501 46.08121994 25.72349923 58.86544302 16.6875 71.0625 C15.12891592 73.04475191 13.56652242 75.02401557 12 77 C5.59162469 85.61010118 2.37812062 92.2984572 0 103 C-6.27 103 -12.54 103 -19 103 C-19 90.13 -19 77.26 -19 64 C-15.37 62.68 -11.74 61.36 -8 60 C-4.73876137 57.74974726 -4.73876137 57.74974726 -3 55 C-3.04497842 52.72476911 -3.04497842 52.72476911 -4 51 C-5.67828408 50.03375833 -5.67828408 50.03375833 -8 50 C-10.80344619 52.07966601 -10.80344619 52.07966601 -12.4375 53.67578125 C-16.45302838 57.07894155 -20.20208753 57.53304093 -25.33203125 57.46484375 C-29.27936178 56.77709509 -31.87550004 54.84255255 -34.9921875 52.41015625 C-37.04789551 50.96636133 -38.52227682 50.33787134 -41 50 C-42.2523002 51.04653055 -42.2523002 51.04653055 -42.28515625 53.36328125 C-42.24886319 56.04626516 -42.24886319 56.04626516 -40.49609375 57.73046875 C-39.47708984 58.45169922 -39.47708984 58.45169922 -38.4375 59.1875 C-37.77621094 59.67605469 -37.11492187 60.16460937 -36.43359375 60.66796875 C-33.38024493 62.45554546 -33.38024493 62.45554546 -27 64 C-27 76.87 -27 89.74 -27 103 C-32.94 103 -38.88 103 -45 103 C-45.66 100.69 -46.32 98.38 -47 96 C-49.67736331 87.41314111 -53.93360981 81.24740242 -59.61230469 74.44311523 C-69.38149568 62.64856704 -72.02620968 51.1879033 -71 36 C-68.92069372 23.82771067 -62.98835794 12.47188807 -53.1875 4.75 C-37.32694917 -6.33698699 -17.47240091 -9.5457792 0 0 Z " fill="#F9AF3A" transform="translate(158,181)"/>
<path d="M0 0 C1.12067871 0.01047363 2.24135742 0.02094727 3.39599609 0.03173828 C4.60771484 0.03818359 5.81943359 0.04462891 7.06787109 0.05126953 C8.33888672 0.06802734 9.60990234 0.08478516 10.91943359 0.10205078 C12.19818359 0.11107422 13.47693359 0.12009766 14.79443359 0.12939453 C17.96128526 0.15302775 21.12776783 0.18597449 24.29443359 0.22705078 C25.51155329 3.22901122 26.63185595 6.14549082 27.41943359 9.28955078 C27.58701172 9.94052734 27.75458984 10.59150391 27.92724609 11.26220703 C28.29443359 13.22705078 28.29443359 13.22705078 28.29443359 17.22705078 C29.01630859 17.33146484 29.73818359 17.43587891 30.48193359 17.54345703 C33.57062374 18.29418033 35.62391767 19.4579242 38.29443359 21.16455078 C43.98574712 25.14962439 43.98574712 25.14962439 50.54052734 25.76611328 C51.26369141 25.46447266 51.98685547 25.16283203 52.73193359 24.85205078 C56.40148949 23.34221562 59.31338846 22.72345652 63.29443359 23.22705078 C65.20068359 25.02783203 65.20068359 25.02783203 66.79443359 27.53955078 C67.37193359 28.44576172 67.94943359 29.35197266 68.54443359 30.28564453 C69.12193359 31.25630859 69.69943359 32.22697266 70.29443359 33.22705078 C70.89255859 34.20802734 71.49068359 35.18900391 72.10693359 36.19970703 C76.34163118 43.48299477 76.34163118 43.48299477 76.16162109 46.32080078 C75.09298388 48.66987718 73.78107328 50.0689613 71.91943359 51.85205078 C71.31357422 52.44244141 70.70771484 53.03283203 70.08349609 53.64111328 C68.29443359 55.22705078 68.29443359 55.22705078 65.29443359 57.22705078 C64.55109411 60.74164022 64.69251077 64.33066505 64.66943359 67.91455078 C64.62431641 68.89617187 64.57919922 69.87779297 64.53271484 70.88916016 C64.47239339 76.47889961 64.47239339 76.47889961 66.80908203 81.41821289 C68.55689987 83.17630932 70.33030305 84.71799031 72.29443359 86.22705078 C74.79443359 88.41455078 74.79443359 88.41455078 76.29443359 90.22705078 C75.84900065 93.46464045 74.45955687 95.94307639 72.82568359 98.73876953 C72.33712891 99.57859375 71.84857422 100.41841797 71.34521484 101.28369141 C70.83345703 102.151875 70.32169922 103.02005859 69.79443359 103.91455078 C69.28267578 104.79433594 68.77091797 105.67412109 68.24365234 106.58056641 C64.45046618 113.0710182 64.45046618 113.0710182 63.29443359 114.22705078 C59.26792713 113.88582142 55.91976581 113.44775627 52.10693359 112.10205078 C48.83098038 111.08286534 47.56545426 111.29247345 44.29443359 112.22705078 C42.21660748 113.32802877 40.17554592 114.50025527 38.16943359 115.72705078 C32.56633692 119.13641634 32.56633692 119.13641634 29.29443359 120.22705078 C28.46409967 122.72987224 27.80661508 125.10331602 27.23193359 127.66455078 C25.54035751 134.98112687 25.54035751 134.98112687 23.29443359 137.22705078 C19.16692212 137.68521066 15.00692592 137.55105936 10.85693359 137.53955078 C9.69871094 137.55566406 8.54048828 137.57177734 7.34716797 137.58837891 C6.23792969 137.58902344 5.12869141 137.58966797 3.98583984 137.59033203 C2.9669165 137.59331299 1.94799316 137.59629395 0.89819336 137.59936523 C-1.70556641 137.22705078 -1.70556641 137.22705078 -3.515625 135.9140625 C-5.44479756 133.17902303 -5.50194389 130.31896263 -5.89306641 127.03955078 C-6.05162109 125.76724609 -6.21017578 124.49494141 -6.37353516 123.18408203 C-6.48310547 122.20826172 -6.59267578 121.23244141 -6.70556641 120.22705078 C-7.65431641 120.04142578 -8.60306641 119.85580078 -9.58056641 119.66455078 C-13.2372639 118.67665267 -15.6167846 116.86426714 -18.58056641 114.53955078 C-22.0728382 111.97748837 -24.15255637 110.71419866 -28.51806641 111.16455078 C-31.01145519 111.67725111 -33.08912907 112.38396278 -35.45556641 113.35205078 C-38.35723871 114.4804789 -39.75445913 114.15182173 -42.70556641 113.22705078 C-45.20712792 110.58412338 -46.87690952 107.36319734 -48.70556641 104.22705078 C-49.28306641 103.28087891 -49.86056641 102.33470703 -50.45556641 101.35986328 C-54.72296668 94.06972115 -54.72296668 94.06972115 -54.65087891 90.57861328 C-53.41816774 87.51211691 -51.97130549 86.9896853 -49.14306641 85.35205078 C-45.32236572 82.19156718 -44.37174261 79.62444706 -43.86572266 74.84033203 C-43.77628014 72.78298951 -43.72373681 70.72375647 -43.70556641 68.66455078 C-43.66967407 67.15562256 -43.66967407 67.15562256 -43.63305664 65.61621094 C-43.76355359 60.29703229 -44.24890565 57.0485456 -48.08056641 53.19970703 C-49.2744287 52.19143317 -50.48229014 51.19942855 -51.70556641 50.22705078 C-53.42993164 48.70385742 -53.42993164 48.70385742 -54.70556641 47.22705078 C-54.78601575 41.27379907 -51.2313097 36.68682868 -48.14306641 31.85205078 C-47.62292969 31.02060547 -47.10279297 30.18916016 -46.56689453 29.33251953 C-45.28844206 27.29168715 -44.00124238 25.25697497 -42.70556641 23.22705078 C-38.02244568 23.65594265 -33.70197265 24.08552412 -29.26806641 25.72705078 C-26.14757612 26.48402836 -25.05514832 26.40909113 -22.16259766 24.90283203 C-20.42814033 23.65118885 -18.72944155 22.34859094 -17.06884766 21.00048828 C-14.801405 19.29896933 -13.46484912 18.76635913 -10.76806641 18.16455078 C-7.41286757 16.50168 -7.41286757 16.50168 -6.68212891 13.00830078 C-6.16256739 10.47736746 -5.70370909 7.93309279 -5.31103516 5.37939453 C-4.56079164 1.47328797 -4.04779959 0.33969082 0 0 Z M2.29443359 8.22705078 C2.19388672 9.19126953 2.09333984 10.15548828 1.98974609 11.14892578 C0.47253656 21.33293497 0.47253656 21.33293497 -2.77978516 23.80126953 C-5.26806641 24.66455078 -5.26806641 24.66455078 -7.92822266 25.37158203 C-13.52125575 27.09433062 -18.5897549 31.11123927 -22.70556641 35.22705078 C-25.96078133 34.93112215 -28.69900118 34.2294625 -31.76806641 33.10205078 C-35.10256172 32.10879686 -36.45914665 32.02597598 -39.70556641 33.22705078 C-41.61907168 35.96368732 -41.61907168 35.96368732 -43.01806641 39.28955078 C-43.91389974 41.26871745 -44.80973307 43.24788411 -45.70556641 45.22705078 C-44.99674316 45.71359131 -44.28791992 46.20013184 -43.55761719 46.70141602 C-39.45486607 49.86759915 -36.24970962 52.37991569 -34.75146484 57.46582031 C-34.43301114 61.11882223 -34.43781099 64.62613818 -34.58056641 68.28955078 C-34.55865234 69.51738281 -34.53673828 70.74521484 -34.51416016 72.01025391 C-34.61703902 78.37845533 -35.08206592 82.38920106 -39.65087891 87.03564453 C-41.63426565 88.72812554 -43.37789399 90.06321457 -45.70556641 91.22705078 C-43.94127441 96.1991464 -41.31164981 100.66143139 -38.70556641 105.22705078 C-38.13708984 105.09427734 -37.56861328 104.96150391 -36.98291016 104.82470703 C-35.36960878 104.45572157 -33.75200143 104.1052403 -32.13134766 103.77001953 C-29.51999706 103.22855256 -29.51999706 103.22855256 -26.33056641 102.10205078 C-21.141417 102.28098697 -18.60112739 104.93465132 -14.63134766 108.11376953 C-11.68627587 110.24098426 -9.03358473 111.40699287 -5.64306641 112.66455078 C-1.0283411 114.60102868 -1.0283411 114.60102868 0.39208984 117.35595703 C0.90822705 119.67666286 1.14024112 121.85735594 1.29443359 124.22705078 C1.62443359 125.87705078 1.95443359 127.52705078 2.29443359 129.22705078 C7.57443359 129.22705078 12.85443359 129.22705078 18.29443359 129.22705078 C18.70693359 127.14392578 19.11943359 125.06080078 19.54443359 122.91455078 C20.76110799 116.77034509 20.76110799 116.77034509 22.96630859 114.52392578 C26.62088444 112.48815535 30.37139581 110.68468866 34.16162109 108.92041016 C37.90037464 107.11922953 40.39423994 105.1401056 43.29443359 102.22705078 C46.48193359 102.35205078 46.48193359 102.35205078 50.29443359 103.22705078 C51.10396484 103.40107422 51.91349609 103.57509766 52.74755859 103.75439453 C54.9349406 104.22557588 57.1155712 104.71815548 59.29443359 105.22705078 C60.28374269 103.83838755 61.26046437 102.44075227 62.23193359 101.03955078 C62.77720703 100.26224609 63.32248047 99.48494141 63.88427734 98.68408203 C65.41303074 96.02040922 66.12789244 94.29533004 66.29443359 91.22705078 C64.44440113 89.38234198 64.44440113 89.38234198 61.92724609 87.82080078 C58.85198255 85.274602 57.47498111 83.88121419 56.40283203 79.99658203 C56.08413565 76.2050174 56.06602797 72.53007984 56.16943359 68.72705078 C56.11722656 66.80699219 56.11722656 66.80699219 56.06396484 64.84814453 C56.15018845 55.58389656 56.15018845 55.58389656 59.41259766 51.71533203 C61.92724609 49.63330078 61.92724609 49.63330078 64.46289062 47.95556641 C65.0672998 47.38515625 65.67170898 46.81474609 66.29443359 46.22705078 C66.076298 42.20821869 64.51321633 39.66659212 62.23193359 36.41455078 C61.68408203 35.62435547 61.13623047 34.83416016 60.57177734 34.02001953 C60.15025391 33.42833984 59.72873047 32.83666016 59.29443359 32.22705078 C58.47458984 32.45521484 57.65474609 32.68337891 56.81005859 32.91845703 C55.19357422 33.34964844 55.19357422 33.34964844 53.54443359 33.78955078 C52.47708984 34.07958984 51.40974609 34.36962891 50.31005859 34.66845703 C46.25187027 35.42016808 44.51295033 35.03505118 41.10302734 32.77392578 C40.32056641 32.18095703 39.53810547 31.58798828 38.73193359 30.97705078 C35.01467536 28.23047126 31.71695991 26.59394308 27.35693359 25.10205078 C23.60977271 23.54822102 22.56133928 22.86479004 20.97021484 19.06298828 C20.23859767 15.78677091 19.73589957 12.55213495 19.29443359 9.22705078 C18.10590504 7.8093024 18.10590504 7.8093024 14.69677734 8.12939453 C13.20846492 8.13606858 11.72016927 8.14802895 10.23193359 8.16455078 C9.09401367 8.17131836 9.09401367 8.17131836 7.93310547 8.17822266 C6.05351488 8.19004398 4.17396461 8.20798 2.29443359 8.22705078 Z " fill="#040404" transform="translate(377.70556640625,305.77294921875)"/>
<path d="M0 0 C6.9558776 7.11396573 11.01080935 14.46804678 11.125 24.5625 C10.93424397 34.64077681 7.95311721 41.50701459 1.04296875 48.83203125 C-6.60686072 55.43929452 -14.82316135 57.17486067 -24.66796875 57.09375 C-29.57831653 56.7082047 -33.07933015 55.34826727 -37.25 52.8125 C-37.87390625 52.461875 -38.4978125 52.11125 -39.140625 51.75 C-46.00325655 47.4533959 -50.16721388 40.52546595 -52.25 32.8125 C-53.32762095 21.53507142 -52.21477106 12.44865541 -45.0625 3.5 C-33.02541829 -9.3153413 -14.06977724 -9.47004238 0 0 Z " fill="#676767" transform="translate(409.25,349.1875)"/>
<path d="M0 0 C1.10285088 -0.00855011 1.10285088 -0.00855011 2.22798157 -0.01727295 C3.78730835 -0.02672748 5.34665516 -0.03325873 6.90600586 -0.03710938 C9.2742896 -0.04676697 11.64168743 -0.0777644 14.00976562 -0.109375 C15.52733862 -0.11591017 17.0449178 -0.12115862 18.5625 -0.125 C19.26380539 -0.1373468 19.96511078 -0.1496936 20.68766785 -0.16241455 C26.53598417 -0.13636317 30.96138336 1.10453848 35.58959961 4.76708984 C40.6235942 11.0223086 40.41522377 17.04834354 40.17578125 24.828125 C40.17384766 26.02953125 40.17191406 27.2309375 40.16992188 28.46875 C40.05558542 36.10811928 39.31956364 40.98484324 34.30078125 46.953125 C27.93067208 52.28623965 20.22603604 51.57555913 12.35546875 51.57373047 C10.25047606 51.57809969 8.14759093 51.61446252 6.04296875 51.65234375 C-1.41324206 51.71542001 -7.11114266 51.48718986 -13.38671875 47.203125 C-19.07692444 40.0538922 -18.63054798 33.6667499 -18.69921875 24.890625 C-18.72822266 23.66666016 -18.75722656 22.44269531 -18.78710938 21.18164062 C-18.86626214 9.9845684 -18.86626214 9.9845684 -14.38671875 5.203125 C-9.42775616 0.8345151 -6.46993181 0.0386497 0 0 Z " fill="#CD4C4C" transform="translate(309.38671875,212.796875)"/>
<path d="M0 0 C1.62937773 -0.0164943 3.25868507 -0.04369774 4.88769531 -0.08203125 C21.57541127 -0.47240703 21.57541127 -0.47240703 26.91821289 3.90429688 C27.38573975 4.38141113 27.8532666 4.85852539 28.33496094 5.35009766 C29.1509375 6.16478516 29.96691406 6.97947266 30.80761719 7.81884766 C33.21941862 13.3949819 32.87156923 18.84605331 32.77246094 24.85009766 C32.77955078 26.06052734 32.78664063 27.27095703 32.79394531 28.51806641 C32.73933816 36.15466619 32.08476164 41.08006439 27.02246094 47.10009766 C20.65235177 52.43321231 12.94771573 51.72253179 5.07714844 51.72070312 C2.97215575 51.72507234 0.86927062 51.76143517 -1.23535156 51.79931641 C-8.69156238 51.86239266 -14.38946297 51.63416251 -20.66503906 47.35009766 C-26.35524476 40.20086486 -25.90886829 33.81372256 -25.97753906 25.03759766 C-26.00654297 23.81363281 -26.03554688 22.58966797 -26.06542969 21.32861328 C-26.14458245 10.13154106 -26.14458245 10.13154106 -21.66503906 5.35009766 C-14.84008596 -0.66236103 -8.66182701 0.06417453 0 0 Z " fill="#CD4C4C" transform="translate(316.6650390625,142.64990234375)"/>
<path d="M0 0 C6.9558776 7.11396573 11.01080935 14.46804678 11.125 24.5625 C10.93424397 34.64077681 7.95311721 41.50701459 1.04296875 48.83203125 C-6.60686072 55.43929452 -14.82316135 57.17486067 -24.66796875 57.09375 C-29.57831653 56.7082047 -33.07933015 55.34826727 -37.25 52.8125 C-37.87390625 52.461875 -38.4978125 52.11125 -39.140625 51.75 C-46.00325655 47.4533959 -50.16721388 40.52546595 -52.25 32.8125 C-53.32762095 21.53507142 -52.21477106 12.44865541 -45.0625 3.5 C-33.02541829 -9.3153413 -14.06977724 -9.47004238 0 0 Z M-40.1953125 9.91015625 C-45.23330535 16.92819746 -45.48388323 24.4463978 -44.25 32.8125 C-41.90579202 39.46470424 -36.19824227 44.88475084 -29.921875 47.94921875 C-24.0838605 49.83547782 -17.39343701 49.88329068 -11.578125 47.90234375 C-4.79681911 44.36377641 0.18417101 39.10485609 2.75 31.8125 C3.57467559 23.81427645 3.30952396 16.37457722 -1.76171875 9.875 C-7.56475047 3.61555005 -12.64393455 1.66910607 -21.0625 1.25 C-29.33683334 1.4698282 -34.58435965 3.85979143 -40.1953125 9.91015625 Z " fill="#040404" transform="translate(409.25,349.1875)"/>
<path d="M0 0 C1.10285088 -0.00855011 1.10285088 -0.00855011 2.22798157 -0.01727295 C3.78730835 -0.02672748 5.34665516 -0.03325873 6.90600586 -0.03710938 C9.2742896 -0.04676697 11.64168743 -0.0777644 14.00976562 -0.109375 C15.52733862 -0.11591017 17.0449178 -0.12115862 18.5625 -0.125 C19.26380539 -0.1373468 19.96511078 -0.1496936 20.68766785 -0.16241455 C26.53598417 -0.13636317 30.96138336 1.10453848 35.58959961 4.76708984 C40.6235942 11.0223086 40.41522377 17.04834354 40.17578125 24.828125 C40.17384766 26.02953125 40.17191406 27.2309375 40.16992188 28.46875 C40.05558542 36.10811928 39.31956364 40.98484324 34.30078125 46.953125 C27.93067208 52.28623965 20.22603604 51.57555913 12.35546875 51.57373047 C10.25047606 51.57809969 8.14759093 51.61446252 6.04296875 51.65234375 C-1.41324206 51.71542001 -7.11114266 51.48718986 -13.38671875 47.203125 C-19.07692444 40.0538922 -18.63054798 33.6667499 -18.69921875 24.890625 C-18.72822266 23.66666016 -18.75722656 22.44269531 -18.78710938 21.18164062 C-18.86626214 9.9845684 -18.86626214 9.9845684 -14.38671875 5.203125 C-9.42775616 0.8345151 -6.46993181 0.0386497 0 0 Z M-10.38671875 13.203125 C-11.36900618 17.32764682 -11.12979512 21.47448792 -11.07421875 25.703125 C-11.10193359 26.83105469 -11.12964844 27.95898438 -11.15820312 29.12109375 C-11.14354424 34.07579713 -11.01112371 37.23866307 -8.28515625 41.44921875 C-3.38018045 44.55223298 3.02420963 43.90323003 8.60864258 43.80004883 C10.67472092 43.76564266 12.73653546 43.77943065 14.80273438 43.79882812 C23.56089751 43.91872522 23.56089751 43.91872522 30.61328125 39.203125 C32.66578564 35.09811622 31.88647959 29.83995556 31.92578125 25.328125 C31.95478516 24.22597656 31.98378906 23.12382812 32.01367188 21.98828125 C32.02624023 20.39693359 32.02624023 20.39693359 32.0390625 18.7734375 C32.05364502 17.80164551 32.06822754 16.82985352 32.08325195 15.82861328 C31.48222384 12.47097361 30.21649298 11.32991415 27.61328125 9.203125 C23.22505712 7.00901293 17.36628247 7.89361078 12.49243164 7.85302734 C11.03653967 7.83648496 9.58072835 7.80921664 8.12524414 7.77099609 C6.02057002 7.71604377 3.91779618 7.69432884 1.8125 7.6796875 C-0.07722534 7.6499585 -0.07722534 7.6499585 -2.00512695 7.61962891 C-6.35101555 8.36951511 -7.7844545 9.6875194 -10.38671875 13.203125 Z " fill="#060505" transform="translate(309.38671875,212.796875)"/>
<path d="M0 0 C1.62937773 -0.0164943 3.25868507 -0.04369774 4.88769531 -0.08203125 C21.57541127 -0.47240703 21.57541127 -0.47240703 26.91821289 3.90429688 C27.38573975 4.38141113 27.8532666 4.85852539 28.33496094 5.35009766 C29.1509375 6.16478516 29.96691406 6.97947266 30.80761719 7.81884766 C33.21941862 13.3949819 32.87156923 18.84605331 32.77246094 24.85009766 C32.77955078 26.06052734 32.78664063 27.27095703 32.79394531 28.51806641 C32.73933816 36.15466619 32.08476164 41.08006439 27.02246094 47.10009766 C20.65235177 52.43321231 12.94771573 51.72253179 5.07714844 51.72070312 C2.97215575 51.72507234 0.86927062 51.76143517 -1.23535156 51.79931641 C-8.69156238 51.86239266 -14.38946297 51.63416251 -20.66503906 47.35009766 C-26.35524476 40.20086486 -25.90886829 33.81372256 -25.97753906 25.03759766 C-26.00654297 23.81363281 -26.03554688 22.58966797 -26.06542969 21.32861328 C-26.14458245 10.13154106 -26.14458245 10.13154106 -21.66503906 5.35009766 C-14.84008596 -0.66236103 -8.66182701 0.06417453 0 0 Z M-17.66503906 13.35009766 C-18.6473265 17.47461948 -18.40811544 21.62146057 -18.35253906 25.85009766 C-18.38025391 26.97802734 -18.40796875 28.10595703 -18.43652344 29.26806641 C-18.42186455 34.22276978 -18.28944402 37.38563572 -15.56347656 41.59619141 C-10.65850076 44.69920564 -4.25411069 44.05020269 1.33032227 43.94702148 C3.39640061 43.91261531 5.45821514 43.92640331 7.52441406 43.94580078 C16.2825772 44.06569787 16.2825772 44.06569787 23.33496094 39.35009766 C25.38746533 35.24508887 24.60815928 29.98692822 24.64746094 25.47509766 C24.67646484 24.37294922 24.70546875 23.27080078 24.73535156 22.13525391 C24.74791992 20.54390625 24.74791992 20.54390625 24.76074219 18.92041016 C24.77532471 17.94861816 24.78990723 16.97682617 24.80493164 15.97558594 C24.20390352 12.61794627 22.93817267 11.47688681 20.33496094 9.35009766 C15.94673681 7.15598559 10.08796216 8.04058343 5.21411133 8 C3.75821936 7.98345762 2.30240804 7.9561893 0.84692383 7.91796875 C-1.25775029 7.86301642 -3.36052413 7.8413015 -5.46582031 7.82666016 C-7.35554565 7.79693115 -7.35554565 7.79693115 -9.28344727 7.76660156 C-13.62933586 8.51648776 -15.06277481 9.83449205 -17.66503906 13.35009766 Z " fill="#060505" transform="translate(316.6650390625,142.64990234375)"/>
<path d="M0 0 C1.70175133 -0.01418472 1.70175133 -0.01418472 3.43788147 -0.02865601 C4.66292892 -0.02258331 5.88797638 -0.01651062 7.15014648 -0.01025391 C8.40633286 -0.01312408 9.66251923 -0.01599426 10.95677185 -0.01895142 C13.61423665 -0.02099453 16.27087568 -0.01695169 18.92822266 -0.00292969 C22.33715378 0.01418015 25.74537728 0.00430908 29.15428257 -0.01364708 C32.40292949 -0.02708022 35.65149035 -0.01768221 38.90014648 -0.01025391 C40.74075401 -0.01936295 40.74075401 -0.01936295 42.61854553 -0.02865601 C43.74989426 -0.01919952 44.88124298 -0.00974304 46.046875 0 C47.04598404 0.00238678 48.04509308 0.00477356 49.07447815 0.00723267 C50.25468788 0.19580338 50.25468788 0.19580338 51.45874023 0.38818359 C53.8622995 3.99352249 54.20959292 7.18179384 53.45874023 11.38818359 C52.27563477 13.48303223 52.27563477 13.48303223 50.45874023 15.38818359 C47.9921875 15.89611816 47.9921875 15.89611816 45.02514648 15.90576172 C43.91389404 15.91837036 42.8026416 15.930979 41.65771484 15.94396973 C39.85765991 15.93182434 39.85765991 15.93182434 38.02124023 15.91943359 C36.78962158 15.9232605 35.55800293 15.9270874 34.2890625 15.93103027 C31.01513554 15.9344525 27.74196595 15.91833895 24.46813965 15.89599609 C22.4605288 15.88819055 20.45361729 15.89596691 18.44604492 15.90966797 C14.59577806 15.93433092 10.7465498 15.93139733 6.89624023 15.91943359 C5.69620361 15.92753052 4.49616699 15.93562744 3.25976562 15.94396973 C2.14851318 15.93136108 1.03726074 15.91875244 -0.10766602 15.90576172 C-1.57635132 15.90098816 -1.57635132 15.90098816 -3.07470703 15.89611816 C-5.54125977 15.38818359 -5.54125977 15.38818359 -7.35595703 13.48303223 C-9.36091653 9.93956056 -8.92509518 7.41845544 -8.54125977 3.38818359 C-6.20851064 -0.02407776 -3.964721 0.00946382 0 0 Z " fill="#B2B3B3" transform="translate(112.541259765625,291.61181640625)"/>
<path d="M0 0 C3.89398123 1.32248419 5.65313142 2.60749082 8.375 5.6875 C10.30080229 9.61317391 10.80422047 12.74912039 10 17 C8.61784766 20.89798021 6.70565734 23.49127029 3.3125 25.9375 C-0.95363356 27.30588246 -4.57748661 27.96574816 -9 27 C-12.92209221 24.67742025 -15.54848549 22.35454354 -17 18 C-17.4906917 13.92725886 -17.9487216 9.79854173 -15.98828125 6.08203125 C-11.17506785 0.22812306 -7.18099918 -0.77466258 0 0 Z " fill="#FEF0AE" transform="translate(159,195)"/>
<path d="M0 0 C0.71071655 0.53657227 0.71071655 0.53657227 1.43579102 1.08398438 C6.56394817 4.94430377 11.73532891 8.74014759 16.9375 12.5 C18.05801758 13.31404297 18.05801758 13.31404297 19.20117188 14.14453125 C19.94818359 14.68464844 20.69519531 15.22476562 21.46484375 15.78125 C22.120896 16.25626953 22.77694824 16.73128906 23.45288086 17.22070312 C24.29343018 17.80787109 25.13397949 18.39503906 26 19 C26.56952896 19.4978299 27.13905792 19.99565979 27.72584534 20.50857544 C34.85482313 26.19394566 42.27837669 25.86241022 50.97265625 25.8046875 C52.50681126 25.81595463 54.04094904 25.82984266 55.57505798 25.84622192 C59.58483925 25.88207757 63.59385524 25.88265695 67.60375977 25.87554932 C71.70667993 25.87463267 75.80931899 25.9075478 79.91210938 25.9375 C87.94151151 25.99119044 95.97042285 26.007565 104 26 C104 26.33 104 26.66 104 27 C71 27 38 27 4 27 C3.01 24.36 2.02 21.72 1 19 C0.0925 18.360625 -0.815 17.72125 -1.75 17.0625 C-4 15 -4 15 -4.203125 12.97265625 C-3.78184098 8.10358512 -2.50231615 4.24305782 0 0 Z " fill="#B9CED2" transform="translate(170,270)"/>
<path d="M0 0 C11.22 0 22.44 0 34 0 C32.85007292 5.7496354 31.36667979 7.45742399 27 11 C22.47338193 13.7662666 17.14615511 13.64427607 12 13 C6.62959077 11.17882076 3.17749982 7.52553004 0 3 C0 2.01 0 1.02 0 0 Z " fill="#646464" transform="translate(118,315)"/>
<path d="M0 0 C3.4375 0.9375 3.4375 0.9375 5.4375 2.0625 C7.12135831 5.21973433 6.33452275 7.58861508 5.4375 10.9375 C3.32814525 13.27285705 2.0054316 13.82391368 -1.0625 14.4375 C-3.5625 13.9375 -3.5625 13.9375 -5.875 11.75 C-7.71206543 8.68822428 -8.276437 7.4179429 -7.5625 3.9375 C-5.24143877 0.40948693 -4.27159402 -0.07494025 0 0 Z " fill="#FEEEAA" transform="translate(132.5625,187.0625)"/>
<path d="M0 0 C2.4140625 0.078125 2.4140625 0.078125 5 1 C6.8359375 3.109375 6.8359375 3.109375 8.375 5.75 C8.89835937 6.61109375 9.42171875 7.4721875 9.9609375 8.359375 C11.16108248 11.40936751 10.94447041 12.9110262 10 16 C8.35 16.33 6.7 16.66 5 17 C-2 7.36697248 -2 7.36697248 -2 2 C-1.34 1.34 -0.68 0.68 0 0 Z " fill="#0E0F0F" transform="translate(92,150)"/>
<path d="M0 0 C3.8518019 0.33662807 6.5903955 1.67673873 9.8125 3.75 C10.60269531 4.23984375 11.39289063 4.7296875 12.20703125 5.234375 C14 7 14 7 14.32421875 9.640625 C14 12 14 12 13 13 C7.1265906 12.760269 2.40502937 11.00355834 -2 7 C-2.625 4.3125 -2.625 4.3125 -2 2 C-1.34 1.34 -0.68 0.68 0 0 Z " fill="#090A0A" transform="translate(62,180)"/>
<path d="M0 0 C0.886875 0.165 1.77375 0.33 2.6875 0.5 C3.63197041 3.5889738 3.84858248 5.09063249 2.6484375 8.140625 C2.12507812 9.00171875 1.60171875 9.8628125 1.0625 10.75 C0.55460938 11.62140625 0.04671875 12.4928125 -0.4765625 13.390625 C-2.3125 15.5 -2.3125 15.5 -4.8984375 16.421875 C-5.69507813 16.44765625 -6.49171875 16.4734375 -7.3125 16.5 C-7.9725 15.84 -8.6325 15.18 -9.3125 14.5 C-9.16755745 8.41241304 -6.46496022 0.97584305 0 0 Z " fill="#0A0B0B" transform="translate(176.3125,150.5)"/>
<path d="M0 0 C0.70253906 0.00386719 1.40507812 0.00773438 2.12890625 0.01171875 C2.83144531 0.00785156 3.53398437 0.00398437 4.2578125 0 C9.50229247 0.01010497 9.50229247 0.01010497 10.62890625 1.13671875 C10.81640625 3.57421875 10.81640625 3.57421875 10.62890625 6.13671875 C8.62890625 8.13671875 8.62890625 8.13671875 5.66015625 8.40234375 C4.49484375 8.3971875 3.32953125 8.39203125 2.12890625 8.38671875 C0.96359375 8.391875 -0.20171875 8.39703125 -1.40234375 8.40234375 C-4.37109375 8.13671875 -4.37109375 8.13671875 -6.37109375 6.13671875 C-6.55859375 3.57421875 -6.55859375 3.57421875 -6.37109375 1.13671875 C-4.61549433 -0.61888067 -2.33526933 0.00449956 0 0 Z " fill="#0B0C0C" transform="translate(210.37109375,221.86328125)"/>
<path d="M0 0 C0.70253906 0.00386719 1.40507813 0.00773438 2.12890625 0.01171875 C2.83144531 0.00785156 3.53398438 0.00398437 4.2578125 0 C9.50229247 0.01010497 9.50229247 0.01010497 10.62890625 1.13671875 C10.81640625 3.57421875 10.81640625 3.57421875 10.62890625 6.13671875 C8.62890625 8.13671875 8.62890625 8.13671875 5.66015625 8.40234375 C4.49484375 8.3971875 3.32953125 8.39203125 2.12890625 8.38671875 C0.96359375 8.391875 -0.20171875 8.39703125 -1.40234375 8.40234375 C-4.37109375 8.13671875 -4.37109375 8.13671875 -6.37109375 6.13671875 C-6.55859375 3.57421875 -6.55859375 3.57421875 -6.37109375 1.13671875 C-4.61549433 -0.61888067 -2.33526933 0.00449956 0 0 Z " fill="#0A0B0B" transform="translate(55.37109375,221.86328125)"/>
<path d="M0 0 C1 1 1 1 1.35546875 3.35546875 C1 6 1 6 -1.01171875 7.80078125 C-1.89472656 8.29964844 -2.77773437 8.79851562 -3.6875 9.3125 C-4.55761719 9.82425781 -5.42773438 10.33601562 -6.32421875 10.86328125 C-9.14626854 12.06213744 -10.9696122 12.31312238 -14 12 C-15 11 -15 11 -15.3203125 8.64453125 C-15 6 -15 6 -13.2421875 4.19921875 C-5.23273502 -0.91572863 -5.23273502 -0.91572863 0 0 Z " fill="#080808" transform="translate(209,181)"/>
<path d="M0 0 C3 0.125 3 0.125 4 1.125 C4.12537741 3.26807896 4.17574364 5.41578886 4.1875 7.5625 C4.20167969 8.73683594 4.21585938 9.91117188 4.23046875 11.12109375 C4 14.125 4 14.125 2 16.125 C-2.55555556 15.56944444 -2.55555556 15.56944444 -4 14.125 C-4.0989294 11.96019203 -4.129711 9.79206215 -4.125 7.625 C-4.12757813 6.4390625 -4.13015625 5.253125 -4.1328125 4.03125 C-3.95612165 0.1648384 -3.95612165 0.1648384 0 0 Z " fill="#050606" transform="translate(135,140.875)"/>
<path d="M0 0 C2.5 0.125 2.5 0.125 3.5 1.125 C3.57258946 3.31139453 3.58373783 5.50000389 3.5625 7.6875 C3.55347656 8.88503906 3.54445313 10.08257812 3.53515625 11.31640625 C3.52355469 12.24324219 3.51195313 13.17007813 3.5 14.125 C-1.25 15.25 -1.25 15.25 -3.5 14.125 C-3.52685938 11.97923363 -3.54633088 9.83337355 -3.5625 7.6875 C-3.57410156 6.49253906 -3.58570312 5.29757813 -3.59765625 4.06640625 C-3.46840705 0.17342035 -3.46840705 0.17342035 0 0 Z " fill="#020202" transform="translate(107.5,72.875)"/>
<path d="M0 0 C2.5 0.125 2.5 0.125 3.5 1.125 C3.62514928 3.10119447 3.6757276 5.08238173 3.6875 7.0625 C3.70167969 8.14402344 3.71585938 9.22554687 3.73046875 10.33984375 C3.5 13.125 3.5 13.125 1.5 15.125 C-1.125 14.75 -1.125 14.75 -3.5 14.125 C-3.52685938 11.97923363 -3.54633088 9.83337355 -3.5625 7.6875 C-3.57410156 6.49253906 -3.58570313 5.29757813 -3.59765625 4.06640625 C-3.46840705 0.17342035 -3.46840705 0.17342035 0 0 Z " fill="#010101" transform="translate(146.5,72.875)"/>
<path d="M0 0 C2.5 0.125 2.5 0.125 3.5 1.125 C3.57258946 3.31139453 3.58373783 5.50000389 3.5625 7.6875 C3.55347656 8.88503906 3.54445313 10.08257812 3.53515625 11.31640625 C3.52355469 12.24324219 3.51195313 13.17007813 3.5 14.125 C1.125 14.75 1.125 14.75 -1.5 15.125 C-3.5 13.125 -3.5 13.125 -3.73046875 10.33984375 C-3.71628906 9.25832031 -3.70210938 8.17679688 -3.6875 7.0625 C-3.68105469 5.97839844 -3.67460938 4.89429687 -3.66796875 3.77734375 C-3.43964689 0.17198234 -3.43964689 0.17198234 0 0 Z " fill="#010101" transform="translate(73.5,72.875)"/>
</svg>
