<?xml version="1.0" encoding="UTF-8"?>
<svg version="1.1" xmlns="http://www.w3.org/2000/svg" width="512" height="512">
<path d="M0 0 C0.15855469 -0.64066406 0.31710937 -1.28132813 0.48046875 -1.94140625 C2.47174752 -9.3234397 4.86314113 -14.47687439 10.875 -19.3125 C18.31033716 -23.32758206 25.57884832 -24.18854479 33.625 -21.8125 C40.96453315 -19.06332779 44.85002193 -14.91813398 48.078125 -7.875 C50.38562966 -0.67871429 50.05359316 6.53056309 47 13.4375 C43.519988 19.40877406 39.40788598 22.90027729 32.81640625 25.02734375 C29.88775051 25.77589298 26.96915012 26.43586148 24 27 C24.60328125 27.99 25.2065625 28.98 25.828125 30 C37 48.41622875 37 48.41622875 37 52 C38.24090897 51.99333817 39.48181793 51.98667633 40.7603302 51.97981262 C52.48564344 51.91885464 64.21092429 51.87395695 75.93636036 51.84456348 C81.96374456 51.82894375 87.99100027 51.80777299 94.01831055 51.77368164 C99.84087567 51.74095648 105.66331761 51.72311924 111.48596764 51.71536827 C113.70139185 51.70984834 115.91680974 51.69906953 118.13218117 51.68280983 C121.24817821 51.66086075 124.36367375 51.65804037 127.47973633 51.65942383 C128.38461288 51.648638 129.28948944 51.63785217 130.2217865 51.6267395 C141.73145128 51.68161635 152.38791439 55.00658907 161.00390625 62.81640625 C167.18243533 69.4219611 172.11066812 77.87812315 172.13422108 87.10031223 C172.13867892 87.91312391 172.14313676 88.72593558 172.14772969 89.56337792 C172.14745315 90.89453232 172.14745315 90.89453232 172.14717102 92.25257874 C172.15084771 93.19970291 172.1545244 94.14682709 172.1583125 95.12265199 C172.16934813 98.30451109 172.17319301 101.48633752 172.17700195 104.66821289 C172.18326675 106.94649357 172.18991357 109.22477322 172.19691467 111.50305176 C172.21795754 118.99291268 172.22831807 126.48277381 172.23828125 133.97265625 C172.24232888 136.55163522 172.24644581 139.13061407 172.25063133 141.70959282 C172.26750107 152.4386843 172.28213509 163.16777207 172.28938007 173.89687443 C172.29128985 176.67986617 172.2932102 179.4628579 172.29516602 182.24584961 C172.29564976 182.93751543 172.2961335 183.62918125 172.2966319 184.34180664 C172.30492589 195.53742947 172.33025253 206.73294523 172.36274669 217.92852134 C172.39586506 229.43336435 172.41350077 240.93813694 172.41702431 252.44302934 C172.41937353 258.8982845 172.42831744 265.35337045 172.45348549 271.8085804 C172.47679338 277.88495355 172.48098828 283.9610464 172.47072411 290.0374527 C172.47022928 292.26301189 172.47653381 294.488585 172.49028015 296.71410179 C172.57964599 312.04491937 172.13882333 324.33726474 161 336 C153.36558361 343.11064146 143.55800052 347.13187764 133.10881042 347.12025452 C132.1511377 347.12162918 131.19346497 347.12300385 130.20677185 347.12442017 C129.16811478 347.12082489 128.1294577 347.11722961 127.05932617 347.11352539 C125.40500076 347.11374443 125.40500076 347.11374443 123.71725464 347.1139679 C120.07580593 347.11327184 116.43440851 347.10549373 112.79296875 347.09765625 C110.26662728 347.09579098 107.74028544 347.09436759 105.21394348 347.09336853 C99.24650924 347.08994192 93.27909699 347.08206226 87.31167156 347.07201904 C80.51604054 347.06083089 73.72040864 347.05534065 66.92477071 347.05032361 C52.94983698 347.03987891 38.97491949 347.02229632 25 347 C25.27263672 347.9286084 25.54527344 348.8572168 25.82617188 349.81396484 C26.83522538 353.25344317 27.84075581 356.69394301 28.84521484 360.13476562 C29.28077415 361.62495662 29.7172935 363.11486735 30.15478516 364.60449219 C30.78279073 366.74341366 31.40735767 368.88331318 32.03125 371.0234375 C32.22811401 371.69120209 32.42497803 372.35896667 32.62780762 373.04696655 C34 377.77225659 34 377.77225659 34 380 C34.72298908 379.99631283 35.44597816 379.99262566 36.19087601 379.98882675 C53.77557942 379.90052355 71.36022658 379.83431376 88.94510269 379.79275131 C97.44899707 379.77211823 105.95274353 379.7439835 114.45654297 379.69824219 C121.86769608 379.65839711 129.27874209 379.63257261 136.68999934 379.62364602 C140.61495264 379.61842727 144.53959949 379.60614622 148.46445465 379.57707977 C152.1580726 379.54994721 155.85125761 379.54155046 159.54496574 379.54756927 C161.54812513 379.54594262 163.55123726 379.52440851 165.55427551 379.50231934 C166.74616989 379.50781799 167.93806427 379.51331665 169.16607666 379.51898193 C170.20217197 379.51529476 171.23826729 379.51160759 172.30575943 379.50780869 C175.72094902 380.13170496 176.90398502 381.28035429 179 384 C179.49852036 387.41842532 179.39683108 389.2658625 177.75 392.3125 C174.21791714 395.71843704 169.80489138 395.12597496 165.1186533 395.12863445 C164.42330269 395.13038749 163.72795209 395.13214053 163.01153025 395.13394669 C160.67014777 395.13861664 158.32882712 395.13613863 155.98744202 395.13371277 C154.29638459 395.13558024 152.6053276 395.13788068 150.9142713 395.14057809 C146.25831158 395.14671037 141.60236979 395.14656082 136.94640696 395.14538372 C131.92860868 395.14518007 126.91081622 395.15069496 121.89302063 395.15544128 C112.05928975 395.16375599 102.22556485 395.16649649 92.39183075 395.16705366 C84.40140658 395.16752839 76.41098438 395.16958097 68.42056084 395.17275429 C45.7811341 395.18156274 23.1417121 395.18617331 0.50228364 395.18542381 C-0.71880932 395.18538386 -1.93990227 395.1853439 -3.19799805 395.18530273 C-5.03186579 395.18524141 -5.03186579 395.18524141 -6.90278137 395.18517885 C-26.72552752 395.18477223 -46.54825468 395.19434549 -66.37099534 395.2084411 C-86.71024066 395.22279024 -107.04947673 395.22971211 -127.38872725 395.22884732 C-138.81358711 395.22851487 -150.23842708 395.23128315 -161.66328239 395.24202538 C-171.38891721 395.25111111 -181.11452309 395.25332151 -190.8401603 395.24651595 C-195.80475603 395.2432411 -200.7692962 395.24322871 -205.73388672 395.2518692 C-210.27557754 395.25969259 -214.81716837 395.25834568 -219.35885663 395.24958507 C-221.00484518 395.24804086 -222.65084105 395.2499006 -224.29682099 395.25544515 C-226.52894029 395.26246816 -228.76070518 395.25724102 -230.99281216 395.24888897 C-232.23422795 395.24910634 -233.47564374 395.24932371 -234.75467819 395.24954766 C-237.98328799 395.00128506 -240.15502672 394.52449622 -243 393 C-245.32749345 389.50875983 -245.50299316 388.10777749 -245 384 C-242.81423055 381.06387392 -241.62746292 380.10218756 -237.97779465 379.50780869 C-236.78683811 379.51149586 -235.59588158 379.51518303 -234.36883545 379.51898193 C-233.70388227 379.51556423 -233.03892909 379.51214653 -232.35382581 379.50862527 C-230.12704599 379.50203973 -227.90147331 379.52403139 -225.67480469 379.54589844 C-224.07817615 379.54702678 -222.48154554 379.54639331 -220.88491821 379.54412842 C-216.55040099 379.54297982 -212.21632571 379.56651256 -207.88191128 379.59442425 C-203.35222547 379.61941366 -198.82252975 379.62177796 -194.29278564 379.62652588 C-185.71507377 379.6389629 -177.13756558 379.67179432 -168.55994344 379.71192384 C-158.79464807 379.75661896 -149.02934302 379.7786229 -139.26397085 379.79870558 C-119.17586684 379.84052633 -99.08794625 379.9108925 -79 380 C-78.80289429 378.45783813 -78.80289429 378.45783813 -78.60180664 376.88452148 C-78.06552969 373.42297889 -77.32963749 370.21127338 -76.37109375 366.84765625 C-76.05849609 365.74228516 -75.74589844 364.63691406 -75.42382812 363.49804688 C-75.09833984 362.36431641 -74.77285156 361.23058594 -74.4375 360.0625 C-74.10814453 358.90169922 -73.77878906 357.74089844 -73.43945312 356.54492188 C-72.6303404 353.69543794 -71.81708013 350.84720753 -71 348 C-71.90334894 347.99641747 -71.90334894 347.99641747 -72.82494736 347.99276257 C-87.52516471 347.93344932 -102.22523642 347.85779592 -116.9252739 347.76428509 C-124.03431458 347.71945059 -131.14330655 347.68000803 -138.25244141 347.65356445 C-144.45372627 347.63048375 -150.65485535 347.59697491 -156.8560164 347.55129844 C-160.13501953 347.52750074 -163.41383898 347.51024087 -166.6929245 347.50238609 C-170.36680209 347.49269868 -174.04012716 347.46458278 -177.71386719 347.43237305 C-178.78346176 347.43380814 -179.85305634 347.43524323 -180.95506287 347.4367218 C-193.48834448 347.28232293 -204.02118807 344.71757298 -213.19140625 335.890625 C-223.65233422 324.71688978 -225.32992051 313.39870641 -225.19189453 298.46044922 C-225.18768745 296.63875465 -225.18768745 296.63875465 -225.18339539 294.78025818 C-225.17692512 292.15735796 -225.16705954 289.53470394 -225.15213394 286.91186142 C-225.12999041 282.74801324 -225.12977363 278.58433546 -225.13400269 274.42044067 C-225.13519578 272.98727991 -225.13636479 271.55411913 -225.1375103 270.12095833 C-225.13809055 269.40365618 -225.1386708 268.68635403 -225.13926864 267.94731545 C-225.14526314 258.27071641 -225.1330522 248.59442628 -225.07910156 238.91796875 C-225.04275364 232.36709163 -225.035364 225.81683868 -225.05959976 219.26589787 C-225.0711839 215.81204677 -225.06865506 212.35959541 -225.03009415 208.90591049 C-224.88127929 193.14135569 -225.38869152 181.39210922 -234 168 C-249.93062674 133.83386418 -248.32648516 92.89354673 -236 58 C-222.68918742 21.6481056 -194.33743307 -6.98773779 -159.8125 -23.6875 C-106.34901022 -48.42571508 -44.31328979 -37.42452726 0 0 Z M16 -3 C14.71958429 0.61529142 14.63621783 2.1767035 16.1875 5.6875 C18.03903267 8.0498003 19.36199138 9.56793818 22 11 C25.85913158 11.40199287 28.85428947 11.38640109 32 9 C34.13513938 5.76047819 35.0154753 3.7737648 34.9375 -0.125 C33.86656749 -3.40919303 32.65180522 -4.83034119 30 -7 C24.12303336 -9.93848332 20.16324992 -7.45370922 16 -3 Z " fill="#FDCC55" transform="translate(289,77)"/>
<path d="M0 0 C0.15855469 -0.64066406 0.31710937 -1.28132813 0.48046875 -1.94140625 C2.47174752 -9.3234397 4.86314113 -14.47687439 10.875 -19.3125 C18.31033716 -23.32758206 25.57884832 -24.18854479 33.625 -21.8125 C40.96453315 -19.06332779 44.85002193 -14.91813398 48.078125 -7.875 C50.38562966 -0.67871429 50.05359316 6.53056309 47 13.4375 C43.519988 19.40877406 39.40788598 22.90027729 32.81640625 25.02734375 C29.88775051 25.77589298 26.96915012 26.43586148 24 27 C24.60328125 27.99 25.2065625 28.98 25.828125 30 C37 48.41622875 37 48.41622875 37 52 C38.24090897 51.99333817 39.48181793 51.98667633 40.7603302 51.97981262 C52.48564344 51.91885464 64.21092429 51.87395695 75.93636036 51.84456348 C81.96374456 51.82894375 87.99100027 51.80777299 94.01831055 51.77368164 C99.84087567 51.74095648 105.66331761 51.72311924 111.48596764 51.71536827 C113.70139185 51.70984834 115.91680974 51.69906953 118.13218117 51.68280983 C121.24817821 51.66086075 124.36367375 51.65804037 127.47973633 51.65942383 C128.38461288 51.648638 129.28948944 51.63785217 130.2217865 51.6267395 C141.73145128 51.68161635 152.38791439 55.00658907 161.00390625 62.81640625 C167.18243533 69.4219611 172.11066812 77.87812315 172.13422108 87.10031223 C172.13867892 87.91312391 172.14313676 88.72593558 172.14772969 89.56337792 C172.14745315 90.89453232 172.14745315 90.89453232 172.14717102 92.25257874 C172.15084771 93.19970291 172.1545244 94.14682709 172.1583125 95.12265199 C172.16934813 98.30451109 172.17319301 101.48633752 172.17700195 104.66821289 C172.18326675 106.94649357 172.18991357 109.22477322 172.19691467 111.50305176 C172.21795754 118.99291268 172.22831807 126.48277381 172.23828125 133.97265625 C172.24232888 136.55163522 172.24644581 139.13061407 172.25063133 141.70959282 C172.26750107 152.4386843 172.28213509 163.16777207 172.28938007 173.89687443 C172.29128985 176.67986617 172.2932102 179.4628579 172.29516602 182.24584961 C172.29564976 182.93751543 172.2961335 183.62918125 172.2966319 184.34180664 C172.30492589 195.53742947 172.33025253 206.73294523 172.36274669 217.92852134 C172.39586506 229.43336435 172.41350077 240.93813694 172.41702431 252.44302934 C172.41937353 258.8982845 172.42831744 265.35337045 172.45348549 271.8085804 C172.47679338 277.88495355 172.48098828 283.9610464 172.47072411 290.0374527 C172.47022928 292.26301189 172.47653381 294.488585 172.49028015 296.71410179 C172.57964599 312.04491937 172.13882333 324.33726474 161 336 C153.36558361 343.11064146 143.55800052 347.13187764 133.10881042 347.12025452 C132.1511377 347.12162918 131.19346497 347.12300385 130.20677185 347.12442017 C129.16811478 347.12082489 128.1294577 347.11722961 127.05932617 347.11352539 C125.40500076 347.11374443 125.40500076 347.11374443 123.71725464 347.1139679 C120.07580593 347.11327184 116.43440851 347.10549373 112.79296875 347.09765625 C110.26662728 347.09579098 107.74028544 347.09436759 105.21394348 347.09336853 C99.24650924 347.08994192 93.27909699 347.08206226 87.31167156 347.07201904 C80.51604054 347.06083089 73.72040864 347.05534065 66.92477071 347.05032361 C52.94983698 347.03987891 38.97491949 347.02229632 25 347 C25.27263672 347.9286084 25.54527344 348.8572168 25.82617188 349.81396484 C26.83522538 353.25344317 27.84075581 356.69394301 28.84521484 360.13476562 C29.28077415 361.62495662 29.7172935 363.11486735 30.15478516 364.60449219 C30.78279073 366.74341366 31.40735767 368.88331318 32.03125 371.0234375 C32.22811401 371.69120209 32.42497803 372.35896667 32.62780762 373.04696655 C34 377.77225659 34 377.77225659 34 380 C34.72298908 379.99631283 35.44597816 379.99262566 36.19087601 379.98882675 C53.77557942 379.90052355 71.36022658 379.83431376 88.94510269 379.79275131 C97.44899707 379.77211823 105.95274353 379.7439835 114.45654297 379.69824219 C121.86769608 379.65839711 129.27874209 379.63257261 136.68999934 379.62364602 C140.61495264 379.61842727 144.53959949 379.60614622 148.46445465 379.57707977 C152.1580726 379.54994721 155.85125761 379.54155046 159.54496574 379.54756927 C161.54812513 379.54594262 163.55123726 379.52440851 165.55427551 379.50231934 C166.74616989 379.50781799 167.93806427 379.51331665 169.16607666 379.51898193 C170.20217197 379.51529476 171.23826729 379.51160759 172.30575943 379.50780869 C175.72094902 380.13170496 176.90398502 381.28035429 179 384 C179.49852036 387.41842532 179.39683108 389.2658625 177.75 392.3125 C174.21791714 395.71843704 169.80489138 395.12597496 165.1186533 395.12863445 C164.42330269 395.13038749 163.72795209 395.13214053 163.01153025 395.13394669 C160.67014777 395.13861664 158.32882712 395.13613863 155.98744202 395.13371277 C154.29638459 395.13558024 152.6053276 395.13788068 150.9142713 395.14057809 C146.25831158 395.14671037 141.60236979 395.14656082 136.94640696 395.14538372 C131.92860868 395.14518007 126.91081622 395.15069496 121.89302063 395.15544128 C112.05928975 395.16375599 102.22556485 395.16649649 92.39183075 395.16705366 C84.40140658 395.16752839 76.41098438 395.16958097 68.42056084 395.17275429 C45.7811341 395.18156274 23.1417121 395.18617331 0.50228364 395.18542381 C-0.71880932 395.18538386 -1.93990227 395.1853439 -3.19799805 395.18530273 C-5.03186579 395.18524141 -5.03186579 395.18524141 -6.90278137 395.18517885 C-26.72552752 395.18477223 -46.54825468 395.19434549 -66.37099534 395.2084411 C-86.71024066 395.22279024 -107.04947673 395.22971211 -127.38872725 395.22884732 C-138.81358711 395.22851487 -150.23842708 395.23128315 -161.66328239 395.24202538 C-171.38891721 395.25111111 -181.11452309 395.25332151 -190.8401603 395.24651595 C-195.80475603 395.2432411 -200.7692962 395.24322871 -205.73388672 395.2518692 C-210.27557754 395.25969259 -214.81716837 395.25834568 -219.35885663 395.24958507 C-221.00484518 395.24804086 -222.65084105 395.2499006 -224.29682099 395.25544515 C-226.52894029 395.26246816 -228.76070518 395.25724102 -230.99281216 395.24888897 C-232.23422795 395.24910634 -233.47564374 395.24932371 -234.75467819 395.24954766 C-237.98328799 395.00128506 -240.15502672 394.52449622 -243 393 C-245.32749345 389.50875983 -245.50299316 388.10777749 -245 384 C-242.81423055 381.06387392 -241.62746292 380.10218756 -237.97779465 379.50780869 C-236.78683811 379.51149586 -235.59588158 379.51518303 -234.36883545 379.51898193 C-233.70388227 379.51556423 -233.03892909 379.51214653 -232.35382581 379.50862527 C-230.12704599 379.50203973 -227.90147331 379.52403139 -225.67480469 379.54589844 C-224.07817615 379.54702678 -222.48154554 379.54639331 -220.88491821 379.54412842 C-216.55040099 379.54297982 -212.21632571 379.56651256 -207.88191128 379.59442425 C-203.35222547 379.61941366 -198.82252975 379.62177796 -194.29278564 379.62652588 C-185.71507377 379.6389629 -177.13756558 379.67179432 -168.55994344 379.71192384 C-158.79464807 379.75661896 -149.02934302 379.7786229 -139.26397085 379.79870558 C-119.17586684 379.84052633 -99.08794625 379.9108925 -79 380 C-78.80289429 378.45783813 -78.80289429 378.45783813 -78.60180664 376.88452148 C-78.06552969 373.42297889 -77.32963749 370.21127338 -76.37109375 366.84765625 C-76.05849609 365.74228516 -75.74589844 364.63691406 -75.42382812 363.49804688 C-75.09833984 362.36431641 -74.77285156 361.23058594 -74.4375 360.0625 C-74.10814453 358.90169922 -73.77878906 357.74089844 -73.43945312 356.54492188 C-72.6303404 353.69543794 -71.81708013 350.84720753 -71 348 C-71.90334894 347.99641747 -71.90334894 347.99641747 -72.82494736 347.99276257 C-87.52516471 347.93344932 -102.22523642 347.85779592 -116.9252739 347.76428509 C-124.03431458 347.71945059 -131.14330655 347.68000803 -138.25244141 347.65356445 C-144.45372627 347.63048375 -150.65485535 347.59697491 -156.8560164 347.55129844 C-160.13501953 347.52750074 -163.41383898 347.51024087 -166.6929245 347.50238609 C-170.36680209 347.49269868 -174.04012716 347.46458278 -177.71386719 347.43237305 C-178.78346176 347.43380814 -179.85305634 347.43524323 -180.95506287 347.4367218 C-193.48834448 347.28232293 -204.02118807 344.71757298 -213.19140625 335.890625 C-223.65233422 324.71688978 -225.32992051 313.39870641 -225.19189453 298.46044922 C-225.18768745 296.63875465 -225.18768745 296.63875465 -225.18339539 294.78025818 C-225.17692512 292.15735796 -225.16705954 289.53470394 -225.15213394 286.91186142 C-225.12999041 282.74801324 -225.12977363 278.58433546 -225.13400269 274.42044067 C-225.13519578 272.98727991 -225.13636479 271.55411913 -225.1375103 270.12095833 C-225.13809055 269.40365618 -225.1386708 268.68635403 -225.13926864 267.94731545 C-225.14526314 258.27071641 -225.1330522 248.59442628 -225.07910156 238.91796875 C-225.04275364 232.36709163 -225.035364 225.81683868 -225.05959976 219.26589787 C-225.0711839 215.81204677 -225.06865506 212.35959541 -225.03009415 208.90591049 C-224.88127929 193.14135569 -225.38869152 181.39210922 -234 168 C-249.93062674 133.83386418 -248.32648516 92.89354673 -236 58 C-222.68918742 21.6481056 -194.33743307 -6.98773779 -159.8125 -23.6875 C-106.34901022 -48.42571508 -44.31328979 -37.42452726 0 0 Z M16 -3 C14.71958429 0.61529142 14.63621783 2.1767035 16.1875 5.6875 C18.03903267 8.0498003 19.36199138 9.56793818 22 11 C25.85913158 11.40199287 28.85428947 11.38640109 32 9 C34.13513938 5.76047819 35.0154753 3.7737648 34.9375 -0.125 C33.86656749 -3.40919303 32.65180522 -4.83034119 30 -7 C24.12303336 -9.93848332 20.16324992 -7.45370922 16 -3 Z M-206 76 C-209.91211061 82.14438122 -211.14794251 87.63919506 -211.12025452 94.87760925 C-211.12111053 95.68675781 -211.12196655 96.49590637 -211.12284851 97.32957458 C-211.1245081 100.05852436 -211.11897293 102.78741322 -211.11352539 105.51635742 C-211.11321917 107.49915979 -211.11335235 109.48196227 -211.11389065 111.4647646 C-211.11411685 116.78515594 -211.10831176 122.1055249 -211.10128021 127.42591095 C-211.09559454 132.41435315 -211.0953176 137.40278985 -211.09460449 142.39123535 C-211.08935258 156.98999321 -211.07539149 171.58874689 -211.0625 186.1875 C-211.041875 218.795625 -211.02125 251.40375 -211 285 C-89.23 285 32.54 285 158 285 C158.103125 252.20625 158.20625 219.4125 158.3125 185.625 C158.35802002 175.27463379 158.40354004 164.92426758 158.45043945 154.26025391 C158.4671628 144.97307239 158.4671628 144.97307239 158.47721863 135.68588257 C158.48187234 131.55285186 158.5005911 127.42014305 158.52787781 123.28720093 C158.56225781 118.00970293 158.57244039 112.7326708 158.56536138 107.45507121 C158.56684091 105.52176007 158.57670634 103.58843209 158.59607565 101.65521741 C158.96847246 87.50945831 158.96847246 87.50945831 153 75 C144.30190422 66.62989437 135.31487342 65.55642468 123.6776123 65.61904907 C122.32759584 65.61558873 120.97758221 65.61082164 119.62757444 65.60486734 C115.93270199 65.59237928 112.2380629 65.59851762 108.54318976 65.60782599 C104.55266752 65.61462519 100.56218486 65.60413095 96.57167053 65.59588623 C88.76012259 65.58255598 80.94866119 65.58542348 73.13710988 65.59412415 C66.78772403 65.60090307 60.43836242 65.60181652 54.088974 65.5985527 C53.18482458 65.598093 52.28067515 65.59763331 51.34912726 65.59715968 C49.51228638 65.59620049 47.6754455 65.59522785 45.83860463 65.5942419 C28.62008637 65.58569008 11.40161605 65.59551888 -5.81689435 65.611643 C-20.58677519 65.62504599 -35.35658528 65.62271784 -50.12646484 65.60888672 C-67.28394787 65.59282724 -84.44138889 65.58651404 -101.59887838 65.59572351 C-103.42891025 65.59667914 -105.25894212 65.59762226 -107.088974 65.5985527 C-108.43954169 65.59924694 -108.43954169 65.59924694 -109.81739357 65.59995521 C-116.15814427 65.60254399 -122.4988683 65.59817651 -128.83961487 65.59111404 C-136.56831596 65.58269476 -144.29692565 65.58498819 -152.02561629 65.60095628 C-155.96788285 65.60883323 -159.90999711 65.61194045 -163.8522625 65.60200882 C-167.46326033 65.59304942 -171.0739651 65.59801504 -174.68493646 65.61394148 C-176.60530392 65.61886373 -178.52569181 65.60910387 -180.44603777 65.59876978 C-191.10469119 65.67127457 -198.71918042 67.84741931 -206 76 Z " fill="#4D251E" transform="translate(289,77)"/>
<path d="M0 0 C0.15855469 -0.64066406 0.31710937 -1.28132813 0.48046875 -1.94140625 C2.47174752 -9.3234397 4.86314113 -14.47687439 10.875 -19.3125 C18.31033716 -23.32758206 25.57884832 -24.18854479 33.625 -21.8125 C40.96453315 -19.06332779 44.85002193 -14.91813398 48.078125 -7.875 C50.38562966 -0.67871429 50.05359316 6.53056309 47 13.4375 C43.519988 19.40877406 39.40788598 22.90027729 32.81640625 25.02734375 C29.88775051 25.77589298 26.96915012 26.43586148 24 27 C24.60328125 27.99 25.2065625 28.98 25.828125 30 C37 48.41389787 37 48.41389787 37 53 C35.81870577 53.00146656 34.63741154 53.00293312 33.42032051 53.00444412 C5.35566646 53.0401744 -22.7088921 53.09645636 -50.77345114 53.17792095 C-54.23047742 53.18793797 -57.68750417 53.19778217 -61.14453125 53.20751953 C-61.83274016 53.2094609 -62.52094907 53.21140228 -63.23001279 53.21340248 C-74.36184416 53.24439258 -85.49365493 53.26139476 -96.62552129 53.27319422 C-108.05458001 53.28562132 -119.48350629 53.31345373 -130.91250241 53.35461307 C-137.32918547 53.37723592 -143.74571477 53.39291017 -150.16244125 53.39188385 C-156.20516674 53.39113775 -162.24755223 53.40906926 -168.29018974 53.44116783 C-170.50485241 53.44966881 -172.71955321 53.45141544 -174.93422508 53.44580269 C-177.965812 53.43914448 -180.99632286 53.45712774 -184.02780151 53.48101807 C-184.89748216 53.47325765 -185.7671628 53.46549723 -186.6631974 53.45750165 C-197.48455114 53.60773472 -205.83961444 58.33477546 -213.65234375 65.51953125 C-224.7999206 77.17768414 -223.73751774 91.6759222 -223.70703125 106.703125 C-223.72016312 108.99527288 -223.73547188 111.28740922 -223.75285339 113.57952881 C-223.79254148 119.57670249 -223.80288344 125.57357232 -223.80688477 131.57086182 C-223.81624674 137.7048861 -223.85367944 143.83873411 -223.88867188 149.97265625 C-223.95308293 161.98176271 -223.98645816 173.99073588 -224 186 C-243.91403785 161.76363487 -246.97118606 124.12523429 -244.79785156 94.21826172 C-240.8605659 56.13059454 -221.03313571 20.7517331 -191.8125 -3.71875 C-135.20649158 -49.46773991 -54.98396889 -46.43638628 0 0 Z M16 -3 C14.71958429 0.61529142 14.63621783 2.1767035 16.1875 5.6875 C18.03903267 8.0498003 19.36199138 9.56793818 22 11 C25.85913158 11.40199287 28.85428947 11.38640109 32 9 C34.13513938 5.76047819 35.0154753 3.7737648 34.9375 -0.125 C33.86656749 -3.40919303 32.65180522 -4.83034119 30 -7 C24.12303336 -9.93848332 20.16324992 -7.45370922 16 -3 Z " fill="#F8D6F5" transform="translate(289,77)"/>
<path d="M0 0 C-0.54385701 2.3567137 -1.20179722 4.55132525 -2.03515625 6.828125 C-4.28136212 14.21241311 -4.18533021 22.44878968 -0.9375 29.5 C3.07129683 36.37706273 8.42579329 40.51879435 16 43 C18.99622297 43.48898359 21.9743356 43.77704387 25 44 C25.22429687 45.06734375 25.44859375 46.1346875 25.6796875 47.234375 C27.4427056 54.29266615 30.64851958 60.85775572 33.54296875 67.5078125 C33.98511719 68.54164063 34.42726563 69.57546875 34.8828125 70.640625 C35.49213623 72.04103027 35.49213623 72.04103027 36.11376953 73.46972656 C37 76 37 76 37 80 C36.08476562 80.19335938 35.16953125 80.38671875 34.2265625 80.5859375 C33.03804688 80.84632813 31.84953125 81.10671875 30.625 81.375 C29.44164062 81.63023437 28.25828125 81.88546875 27.0390625 82.1484375 C23.91803033 82.75523965 23.91803033 82.75523965 22 85 C21.36142878 87.91935269 21.36142878 87.91935269 20.96484375 91.37109375 C20.71057617 93.31725586 20.71057617 93.31725586 20.45117188 95.30273438 C20.27993091 96.68098747 20.10870705 98.05924269 19.9375 99.4375 C19.76310333 100.7806944 19.58798065 102.12379475 19.41210938 103.46679688 C18.44834288 110.96645113 17.61066332 118.46320721 17 126 C15.70582153 126.02187378 15.70582153 126.02187378 14.38549805 126.04418945 C11.18150353 126.10527754 7.97815375 126.17943549 4.7746582 126.26245117 C3.38870623 126.29568549 2.00261939 126.32372226 0.61645508 126.34643555 C-1.37706843 126.38000617 -3.37021741 126.43388 -5.36328125 126.48828125 C-6.56251221 126.51446533 -7.76174316 126.54064941 -8.99731445 126.56762695 C-12.34236828 126.74326094 -12.34236828 126.74326094 -15 130 C-15 137.59 -15 145.18 -15 153 C-34.14 153 -53.28 153 -73 153 C-73.25 127.5 -73.25 127.5 -73.29785156 119.49414062 C-73.32723784 117.38148846 -73.35806657 115.26885566 -73.390625 113.15625 C-73.39175293 112.0744043 -73.39288086 110.99255859 -73.39404297 109.87792969 C-73.55114972 101.51678529 -75.39446485 95.75232984 -80.875 89.25 C-91.57554883 75.37992152 -93.54065088 60.90034603 -93 44 C-92.24976562 43.97421875 -91.49953125 43.9484375 -90.7265625 43.921875 C-81.04330602 43.38527137 -73.42107555 41.99585395 -66.5625 34.75 C-61.23593782 28.14291075 -59.37308739 22.32020327 -59.5625 13.8203125 C-60.1914226 9.76600791 -61.85116856 6.61022268 -63.90625 3.09375 C-65 1 -65 1 -65 -2 C-63.14985947 -2.96608323 -61.29466527 -3.9224907 -59.4375 -4.875 C-58.40496094 -5.40867188 -57.37242187 -5.94234375 -56.30859375 -6.4921875 C-37.61504916 -15.01132353 -16.87189662 -9.93264881 0 0 Z " fill="#FDDCD3" transform="translate(206,188)"/>
<path d="M0 0 C121.44 0 242.88 0 368 0 C368 16.46853147 368 16.46853147 364 23 C363.195625 24.36125 363.195625 24.36125 362.375 25.75 C356.76271948 31.06689733 349.22009286 34.12032494 341.54911613 34.13422108 C340.40962293 34.13867892 339.27012972 34.14313676 338.09610641 34.14772969 C336.83864392 34.14754533 335.58118143 34.14736097 334.28561401 34.14717102 C332.94062828 34.1504699 331.59564354 34.15419552 330.25066006 34.1583125 C326.54649749 34.16833799 322.84235113 34.17205018 319.13817692 34.17470181 C315.14619316 34.17860328 311.15422226 34.18818177 307.1622467 34.19691467 C297.51709914 34.21668428 287.87195051 34.22674625 278.22678775 34.23564246 C273.68529071 34.24002484 269.14379485 34.24539181 264.60229874 34.25063133 C249.50600107 34.26764465 234.40970414 34.28213872 219.31339836 34.28938007 C215.39513015 34.29128999 211.47686194 34.29321032 207.55859375 34.29516602 C206.09778315 34.29589163 206.09778315 34.29589163 204.60746123 34.2966319 C188.83213791 34.30493178 173.05689043 34.33026754 157.28160022 34.36274669 C141.08725255 34.39581689 124.89294341 34.41382883 108.69856179 34.41702431 C99.6053072 34.41918952 90.51216318 34.4279397 81.4189415 34.45348549 C73.67440787 34.47519201 65.93001167 34.48324318 58.18545108 34.47351871 C54.23493799 34.46897375 50.28470844 34.47087135 46.33423424 34.49028015 C42.71429404 34.50791117 39.09484423 34.50691503 35.47489883 34.49138286 C33.55202842 34.48788497 31.62915287 34.50403369 29.70635402 34.52098733 C20.16506545 34.45011039 12.58282025 32.38159159 5.5078125 25.734375 C-1.3164876 17.88466193 0 10.75162119 0 0 Z " fill="#FCFCFC" transform="translate(79,376)"/>
<path d="M0 0 C1.73231019 1.17504394 1.73231019 1.17504394 3.609375 0.640625 C4.33125 0.41890625 5.053125 0.1971875 5.796875 -0.03125 C16.16701024 -0.69534733 23.84027179 -0.42706906 32.046875 6.15625 C36.90801135 10.65447244 40.35695274 16.63443395 41.03515625 23.31640625 C41.26371344 31.67678783 39.48490741 38.05888468 34.734375 44.96875 C32.796875 46.96875 32.796875 46.96875 29.796875 48.96875 C30.10061997 58.28359587 33.99792551 66.06011585 37.80029297 74.39404297 C43.91947435 87.89618713 43.91947435 87.89618713 41.796875 95.96875 C38.2995022 100.9962234 33.57624246 102.63754738 27.796875 103.96875 C26.806875 103.96875 25.816875 103.96875 24.796875 103.96875 C24.7467627 104.52111328 24.69665039 105.07347656 24.64501953 105.64257812 C24.14141384 111.15597558 23.61527541 116.66680495 23.0703125 122.17626953 C22.89865044 123.9293683 22.73132272 125.68290258 22.5703125 127.43701172 C22.37043269 129.59543602 22.14935974 131.75058597 21.921875 133.90625 C21.80070313 135.13214844 21.67953125 136.35804688 21.5546875 137.62109375 C20.46289727 142.44410524 18.38778056 145.51777112 14.75390625 148.83203125 C10.0682755 150.63324466 5.45210828 150.28020496 0.484375 150.15625 C-0.54236328 150.14271484 -1.56910156 150.12917969 -2.62695312 150.11523438 C-5.15288409 150.07998883 -7.6777316 150.030717 -10.203125 149.96875 C-10.15671875 151.00515625 -10.1103125 152.0415625 -10.0625 153.109375 C-10.02497225 154.47913779 -9.98857316 155.84893182 -9.953125 157.21875 C-9.91960937 157.90066406 -9.88609375 158.58257812 -9.8515625 159.28515625 C-9.78430599 162.74886666 -9.93508553 164.6090731 -12.03125 167.421875 C-14.9858546 169.52623367 -16.65145792 169.56069451 -20.203125 168.96875 C-23.11825583 166.76112355 -24.09270523 165.52438794 -24.8125 161.90234375 C-24.85890625 160.74863281 -24.9053125 159.59492188 -24.953125 158.40625 C-25.00339844 157.17003906 -25.05367188 155.93382812 -25.10546875 154.66015625 C-25.13769531 153.44199219 -25.16992188 152.22382813 -25.203125 150.96875 C-25.26628906 149.90527344 -25.32945312 148.84179688 -25.39453125 147.74609375 C-25.43449219 146.78832031 -25.47445312 145.83054687 -25.515625 144.84375 C-25.57169922 143.57144531 -25.57169922 143.57144531 -25.62890625 142.2734375 C-25.02801072 139.02088372 -23.78817221 137.99893595 -21.203125 135.96875 C-18.08691406 135.51464844 -18.08691406 135.51464844 -14.46875 135.578125 C-13.17324219 135.59101563 -11.87773437 135.60390625 -10.54296875 135.6171875 C-9.17967676 135.65060634 -7.81639551 135.68446609 -6.453125 135.71875 C-5.07424436 135.73882293 -3.69533588 135.75707233 -2.31640625 135.7734375 C1.05539244 135.82059552 4.42578187 135.88640462 7.796875 135.96875 C7.76533325 135.04739258 7.76533325 135.04739258 7.7331543 134.10742188 C7.59131316 126.46616756 8.32284936 119.05496782 9.34106445 111.48632812 C9.61245255 109.44560818 9.86221628 107.40292007 10.11132812 105.359375 C10.28212891 104.06515625 10.45292969 102.7709375 10.62890625 101.4375 C10.78077393 100.26638672 10.9326416 99.09527344 11.08911133 97.88867188 C11.8200464 94.87315497 12.33024007 93.77393445 14.796875 91.96875 C16.91796875 91.23828125 16.91796875 91.23828125 19.234375 90.78125 C19.99621094 90.62269531 20.75804687 90.46414063 21.54296875 90.30078125 C23.796875 89.96875 23.796875 89.96875 27.796875 89.96875 C26.9264264 87.59199318 26.05155201 85.21709589 25.171875 82.84375 C24.77234619 81.76407959 24.77234619 81.76407959 24.36474609 80.66259766 C22.12108479 74.6729289 19.58603544 68.85714255 16.8984375 63.0546875 C15.74104659 59.81235127 15.58157109 57.38285486 15.796875 53.96875 C14.518125 54.071875 13.239375 54.175 11.921875 54.28125 C5.14874724 54.24930128 -0.27723729 51.59271684 -5.28515625 47.1015625 C-12.19348572 39.62602282 -13.75739089 33.57837381 -13.57421875 23.50390625 C-13.05175256 18.52672835 -11.48589869 14.39162403 -9.203125 9.96875 C-9.91984375 9.6903125 -10.6365625 9.411875 -11.375 9.125 C-15.02411436 7.63309689 -18.54769051 5.90807325 -22.09375 4.1875 C-36.02524205 -1.27308482 -52.66687571 -1.07217801 -66.390625 4.6796875 C-67.31875 5.10507813 -68.246875 5.53046875 -69.203125 5.96875 C-70.86697056 6.6424266 -72.5326737 7.31162394 -74.203125 7.96875 C-73.77 8.77957031 -73.336875 9.59039062 -72.890625 10.42578125 C-68.75030392 18.65850302 -66.34337698 25.28018256 -68.87109375 34.37109375 C-72.04901559 42.48936569 -77.42955554 48.71973802 -85.40625 52.27734375 C-89.28414518 53.76949038 -92.24588308 54.07581712 -96.390625 54.03125 C-97.47730469 54.02222656 -98.56398438 54.01320313 -99.68359375 54.00390625 C-100.51503906 53.99230469 -101.34648438 53.98070312 -102.203125 53.96875 C-101.5154697 73.98189049 -97.39012828 89.55614152 -84.8046875 105.76171875 C-82.26359921 109.26346237 -82.0693128 112.09011682 -82.02612305 116.29467773 C-82.00687019 117.92668373 -82.00687019 117.92668373 -81.98722839 119.59165955 C-81.97984146 120.76668533 -81.97245453 121.94171112 -81.96484375 123.15234375 C-81.956772 124.35939468 -81.94870026 125.56644562 -81.94038391 126.81007385 C-81.92654734 129.36466028 -81.91582328 131.91926516 -81.90795898 134.47387695 C-81.89070882 138.38723469 -81.84681285 142.29975587 -81.80273438 146.21289062 C-81.79261082 148.69270211 -81.78409366 151.17252079 -81.77734375 153.65234375 C-81.75983566 154.82534531 -81.74232758 155.99834686 -81.72428894 157.20689392 C-81.72721451 158.29805008 -81.73014008 159.38920624 -81.7331543 160.51342773 C-81.72728806 161.47256577 -81.72142181 162.4317038 -81.71537781 163.41990662 C-82.34899922 166.73105177 -83.58271861 167.91164714 -86.203125 169.96875 C-89.203125 170.53125 -89.203125 170.53125 -92.203125 169.96875 C-94.80900252 167.77963691 -96.06258611 166.00219374 -96.52597046 162.59472656 C-96.61368734 159.57638512 -96.57221886 156.58115947 -96.49609375 153.5625 C-96.48621039 151.26823484 -96.47779447 148.97396298 -96.47070312 146.6796875 C-96.43768978 143.08294471 -96.39101765 139.48773703 -96.31665039 135.89160156 C-96.04268748 120.90117811 -96.02951627 111.36029507 -106.203125 99.96875 C-108.57140211 95.75454127 -110.46256566 91.47621673 -112.203125 86.96875 C-112.61691406 85.91171875 -113.03070313 84.8546875 -113.45703125 83.765625 C-116.67630362 73.93955325 -116.47532385 64.50403073 -116.05615234 54.24755859 C-116.02215332 53.12172363 -115.9881543 51.99588867 -115.953125 50.8359375 C-115.88351563 49.32169189 -115.88351563 49.32169189 -115.8125 47.77685547 C-116.31185367 44.18712679 -117.79526389 42.61062906 -120.203125 39.96875 C-123.5354455 34.07501897 -124.27705874 27.59720989 -123.203125 20.96875 C-119.9321416 11.58497139 -115.3796617 5.79231547 -106.765625 1.09375 C-102.62596595 -0.33734307 -98.57519022 -0.00477652 -94.265625 0.15625 C-88.00672914 0.36020442 -84.26242316 -0.39605283 -79.34765625 -4.37109375 C-57.36502885 -21.38861041 -20.74774347 -16.26623088 0 0 Z " fill="#4F271F" transform="translate(215.203125,178.03125)"/>
<path d="M0 0 C1.15249741 0.00222061 2.30499481 0.00444122 3.49241638 0.00672913 C5.4443264 0.00684242 5.4443264 0.00684242 7.43566895 0.00695801 C8.86661313 0.01206543 10.29755694 0.01728144 11.72850037 0.02259827 C13.18438672 0.02446249 14.64027369 0.02588637 16.09616089 0.02688599 C19.93488791 0.03071086 23.77357731 0.04054088 27.61228943 0.05158997 C31.52667227 0.06180474 35.44106117 0.06638375 39.35545349 0.07142639 C47.04101755 0.08216318 54.72655057 0.09923923 62.41209412 0.12025452 C63.69897891 4.47870209 64.98058004 8.83865511 66.25730896 13.2000885 C66.69238215 14.68358751 67.12889631 16.16666471 67.56687927 17.64930725 C68.19616407 19.78045657 68.82025174 21.91306893 69.44334412 24.04603577 C69.64020813 24.70863907 69.83707214 25.37124237 70.03990173 26.05392456 C70.85389442 28.8566535 71.41209412 31.18303466 71.41209412 34.12025452 C44.02209412 34.12025452 16.63209412 34.12025452 -11.58790588 34.12025452 C-10.46209155 23.98792553 -10.46209155 23.98792553 -8.99415588 19.02650452 C-8.53202698 17.4525592 -8.53202698 17.4525592 -8.06056213 15.84681702 C-7.73958557 14.78205139 -7.41860901 13.71728577 -7.08790588 12.62025452 C-6.60644104 10.97669983 -6.60644104 10.97669983 -6.11524963 9.29994202 C-3.40448471 0.15819921 -3.40448471 0.15819921 0 0 Z " fill="#D3D2D2" transform="translate(236.58790588378906,422.87974548339844)"/>
<path d="M0 0 C6.96649601 4.37113475 11.50287785 9.23133884 13.9921875 17.25 C15.2665333 26.46106087 13.81347821 33.56328631 8.671875 41.21484375 C4.47532153 46.63825849 -0.60842539 49.11687096 -7.0078125 51.25 C-15.97670232 52.08272797 -23.63103518 51.14068148 -31.04296875 45.77734375 C-36.63411489 40.75599595 -39.43684095 34.70593257 -40.38671875 27.29296875 C-40.70820335 19.21437197 -39.44226051 12.14193239 -33.984375 5.95703125 C-24.42122161 -3.00230529 -12.13220191 -6.39940321 0 0 Z " fill="#4E261F" transform="translate(194.0078125,248.75)"/>
<path d="M0 0 C5.61066307 5.28154596 8.05259349 11.84303552 8.375 19.4375 C8.04826883 26.73736224 6.09222367 32.57430003 0.8828125 37.81640625 C-5.16914084 42.70271099 -11.45535847 44.62124049 -19.25 43.9375 C-25.97347624 42.32440792 -32.69980573 38.75176751 -36.60546875 32.91015625 C-40.29342107 25.76058803 -41.87694418 18.12243424 -39.4140625 10.2734375 C-36.0320246 2.76031974 -31.37626767 -1.44146627 -23.75 -4.4375 C-14.78543454 -6.03831526 -7.70917235 -4.89235937 0 0 Z M-25.25 14.9375 C-26.53041571 18.55279142 -26.61378217 20.1142035 -25.0625 23.625 C-23.21096733 25.9873003 -21.88800862 27.50543818 -19.25 28.9375 C-15.39086842 29.33949287 -12.39571053 29.32390109 -9.25 26.9375 C-7.11486062 23.69797819 -6.2345247 21.7112648 -6.3125 17.8125 C-7.38343251 14.52830697 -8.59819478 13.10715881 -11.25 10.9375 C-17.12696664 7.99901668 -21.08675008 10.48379078 -25.25 14.9375 Z " fill="#4C241D" transform="translate(330.25,59.0625)"/>
<path d="M0 0 C3.25415039 0.93164062 3.25415039 0.93164062 5.25415039 2.93164062 C5.89406877 6.24758131 6.17627031 7.7765605 5.25415039 10.93164062 C3.21826172 13.33374023 3.21826172 13.33374023 0.71118164 15.70898438 C-0.11792725 16.50425537 -0.94703613 17.29952637 -1.80126953 18.11889648 C-2.44298096 18.71710205 -3.08469238 19.31530762 -3.74584961 19.93164062 C-2.27776855 19.94565918 -2.27776855 19.94565918 -0.7800293 19.95996094 C2.8582883 19.99989521 6.4957633 20.06566196 10.13354492 20.13916016 C11.70667683 20.16735016 13.27994986 20.1885746 14.85327148 20.20263672 C17.11783995 20.22409504 19.38071543 20.2707541 21.64477539 20.32226562 C22.34596497 20.32349426 23.04715454 20.3247229 23.76959229 20.32598877 C27.12569877 20.42620008 28.99468076 20.74207144 31.73364258 22.74316406 C33.25415039 24.93164062 33.25415039 24.93164062 33.19165039 28.55664062 C32.25415039 31.93164062 32.25415039 31.93164062 29.25415039 33.93164062 C26.71828191 34.17157718 24.28199008 34.30417282 21.74243164 34.34570312 C21.014207 34.36506927 20.28598236 34.38443542 19.53569031 34.40438843 C17.21279564 34.46410438 14.8898512 34.51053679 12.56665039 34.55664062 C10.99045707 34.59482784 9.41428444 34.63388001 7.83813477 34.67382812 C3.97697504 34.7697991 0.11571763 34.85385912 -3.74584961 34.93164062 C-3.10558838 35.53057129 -2.46532715 36.12950195 -1.80566406 36.74658203 C-0.97768311 37.54241699 -0.14970215 38.33825195 0.70336914 39.15820312 C1.52925537 39.94275879 2.3551416 40.72731445 3.20605469 41.53564453 C5.32503578 44.01456698 5.95901115 45.10113657 6.06665039 48.30664062 C5.25415039 51.93164062 5.25415039 51.93164062 3.56665039 53.93164062 C0.74966098 55.14979821 -0.69135331 55.35394528 -3.74584961 54.93164062 C-5.87493456 53.32408675 -7.62259904 51.80361297 -9.48413086 49.92773438 C-10.27257637 49.15357933 -10.27257637 49.15357933 -11.07695007 48.36378479 C-12.18326318 47.26962071 -13.28314976 46.1689256 -14.37695312 45.06225586 C-16.04971054 43.3778399 -17.7518622 41.72786905 -19.45874023 40.078125 C-20.53164505 39.00910625 -21.60267406 37.93820091 -22.67163086 36.86523438 C-23.18091629 36.37639267 -23.69020172 35.88755096 -24.21492004 35.38389587 C-26.7500873 32.76350737 -27.72546076 31.04486196 -28.37573242 27.43383789 C-27.59898785 23.11507788 -25.77731822 20.93169052 -22.74194336 17.96289062 C-22.22584 17.43771851 -21.70973663 16.91254639 -21.17799377 16.37145996 C-20.08617479 15.27052819 -18.98542799 14.17838711 -17.87646484 13.09472656 C-16.18584259 11.43408939 -14.53908303 9.73722826 -12.89233398 8.03320312 C-11.82378066 6.96568096 -10.75289027 5.90049192 -9.67944336 4.83789062 C-9.19060165 4.32971802 -8.70175995 3.82154541 -8.19810486 3.29797363 C-5.31232969 0.54440904 -4.04962558 -0.07390309 0 0 Z " fill="#4D251D" transform="translate(304.745849609375,266.068359375)"/>
<path d="M0 0 C3.25415039 0.93164062 3.25415039 0.93164062 5.25415039 2.93164062 C5.89406877 6.24758131 6.17627031 7.7765605 5.25415039 10.93164062 C3.21826172 13.33374023 3.21826172 13.33374023 0.71118164 15.70898438 C-0.11792725 16.50425537 -0.94703613 17.29952637 -1.80126953 18.11889648 C-2.44298096 18.71710205 -3.08469238 19.31530762 -3.74584961 19.93164062 C-2.27776855 19.94565918 -2.27776855 19.94565918 -0.7800293 19.95996094 C2.8582883 19.99989521 6.4957633 20.06566196 10.13354492 20.13916016 C11.70667683 20.16735016 13.27994986 20.1885746 14.85327148 20.20263672 C17.11783995 20.22409504 19.38071543 20.2707541 21.64477539 20.32226562 C22.34596497 20.32349426 23.04715454 20.3247229 23.76959229 20.32598877 C27.12569877 20.42620008 28.99468076 20.74207144 31.73364258 22.74316406 C33.25415039 24.93164062 33.25415039 24.93164062 33.19165039 28.55664062 C32.25415039 31.93164062 32.25415039 31.93164062 29.25415039 33.93164062 C26.71828191 34.17157718 24.28199008 34.30417282 21.74243164 34.34570312 C21.014207 34.36506927 20.28598236 34.38443542 19.53569031 34.40438843 C17.21279564 34.46410438 14.8898512 34.51053679 12.56665039 34.55664062 C10.99045707 34.59482784 9.41428444 34.63388001 7.83813477 34.67382812 C3.97697504 34.7697991 0.11571763 34.85385912 -3.74584961 34.93164062 C-3.10558838 35.53057129 -2.46532715 36.12950195 -1.80566406 36.74658203 C-0.97768311 37.54241699 -0.14970215 38.33825195 0.70336914 39.15820312 C1.52925537 39.94275879 2.3551416 40.72731445 3.20605469 41.53564453 C5.32503578 44.01456698 5.95901115 45.10113657 6.06665039 48.30664062 C5.25415039 51.93164062 5.25415039 51.93164062 3.56665039 53.93164062 C0.74966098 55.14979821 -0.69135331 55.35394528 -3.74584961 54.93164062 C-5.87493456 53.32408675 -7.62259904 51.80361297 -9.48413086 49.92773438 C-10.27257637 49.15357933 -10.27257637 49.15357933 -11.07695007 48.36378479 C-12.18326318 47.26962071 -13.28314976 46.1689256 -14.37695312 45.06225586 C-16.04971054 43.3778399 -17.7518622 41.72786905 -19.45874023 40.078125 C-20.53164505 39.00910625 -21.60267406 37.93820091 -22.67163086 36.86523438 C-23.18091629 36.37639267 -23.69020172 35.88755096 -24.21492004 35.38389587 C-26.7500873 32.76350737 -27.72546076 31.04486196 -28.37573242 27.43383789 C-27.59898785 23.11507788 -25.77731822 20.93169052 -22.74194336 17.96289062 C-22.22584 17.43771851 -21.70973663 16.91254639 -21.17799377 16.37145996 C-20.08617479 15.27052819 -18.98542799 14.17838711 -17.87646484 13.09472656 C-16.18584259 11.43408939 -14.53908303 9.73722826 -12.89233398 8.03320312 C-11.82378066 6.96568096 -10.75289027 5.90049192 -9.67944336 4.83789062 C-9.19060165 4.32971802 -8.70175995 3.82154541 -8.19810486 3.29797363 C-5.31232969 0.54440904 -4.04962558 -0.07390309 0 0 Z " fill="#4D251D" transform="translate(304.745849609375,191.068359375)"/>
<path d="M0 0 C2.19780682 1.52347973 4.0302078 3.17090724 6 5 C6.67095703 4.3503125 6.67095703 4.3503125 7.35546875 3.6875 C12.25680542 -0.82716405 12.25680542 -0.82716405 15.6875 -1.625 C18.86562081 -0.76604843 20.09493505 0.31879748 22 3 C22.61275161 6.13184156 22.65243685 8.00667054 20.87109375 10.71875 C19.64422678 12.20077734 18.32686637 13.60679031 17 15 C17.99936512 17.22935295 18.74171995 18.78145534 20.625 20.375 C22 22 22 22 22.4375 24.9375 C22 28 22 28 20.375 30.375 C17.24988831 32.51323431 15.71837535 32.6829669 12 32 C9.125 29.5 9.125 29.5 7 27 C4.76889149 28.03587181 2.99362603 29.00552411 1.125 30.625 C-1.79560904 32.51480585 -3.58511593 32.49800393 -7 32 C-9.375 30.3125 -9.375 30.3125 -11 28 C-11.37096019 24.95211087 -11.25311687 23.43165467 -9.6875 20.76171875 C-9.130625 20.07722656 -8.57375 19.39273438 -8 18.6875 C-7.1646875 17.64142578 -7.1646875 17.64142578 -6.3125 16.57421875 C-5.879375 16.05472656 -5.44625 15.53523438 -5 15 C-5.66708984 14.34644531 -5.66708984 14.34644531 -6.34765625 13.6796875 C-10.96859021 8.81665449 -10.96859021 8.81665449 -11.125 4.75 C-8.80577189 -0.91922428 -5.72261252 -1.83123601 0 0 Z " fill="#502822" transform="translate(141,73)"/>
<path d="M0 0 C1.09130722 -0.00953201 2.18261444 -0.01906403 3.30699158 -0.02888489 C4.4903157 -0.02797348 5.67363983 -0.02706207 6.89282227 -0.02612305 C8.10365982 -0.03040817 9.31449738 -0.0346933 10.56202698 -0.03910828 C13.12679417 -0.04486015 15.69157767 -0.04534557 18.25634766 -0.04101562 C22.18949109 -0.03785764 26.12188141 -0.06129858 30.05493164 -0.08666992 C32.5425609 -0.08894294 35.03019218 -0.0896464 37.51782227 -0.08862305 C38.69912216 -0.09783279 39.88042206 -0.10704254 41.09751892 -0.11653137 C42.73920799 -0.10718819 42.73920799 -0.10718819 44.4140625 -0.09765625 C45.37843735 -0.09828568 46.34281219 -0.0989151 47.33641052 -0.0995636 C49.77172852 0.2746582 49.77172852 0.2746582 51.58314514 1.57917786 C53.57309737 4.41778807 53.12947826 6.93566056 52.77172852 10.2746582 C51.58215332 11.96815491 51.58215332 11.96815491 49.77172852 13.2746582 C47.34313965 13.66233826 47.34313965 13.66233826 44.42993164 13.67871094 C43.33869995 13.69139511 42.24746826 13.70407928 41.12316895 13.71714783 C39.9450061 13.71421219 38.76684326 13.71127655 37.55297852 13.70825195 C36.34355591 13.7134938 35.1341333 13.71873566 33.88806152 13.72413635 C31.32927214 13.73056407 28.77045324 13.72920993 26.21166992 13.72070312 C22.28714648 13.71219164 18.36407686 13.74094965 14.43969727 13.77270508 C11.95662479 13.77431702 9.47354972 13.77373969 6.99047852 13.77075195 C5.22323425 13.78760292 5.22323425 13.78760292 3.42028809 13.80479431 C1.78344055 13.79072289 1.78344055 13.79072289 0.11352539 13.77636719 C-0.84783325 13.77620102 -1.80919189 13.77603485 -2.79968262 13.77586365 C-5.22827148 13.2746582 -5.22827148 13.2746582 -7.07385254 11.46986389 C-8.80781637 8.17261441 -8.07878052 5.8075419 -7.22827148 2.2746582 C-4.64133791 -0.31227537 -3.59888197 0.01720819 0 0 Z " fill="#4D251D" transform="translate(346.228271484375,327.725341796875)"/>
<path d="M0 0 C0.98226059 -0.0038269 1.96452118 -0.00765381 2.97654724 -0.01159668 C5.04842151 -0.01431328 7.12033022 -0.00696976 9.19213867 0.00976562 C12.36389482 0.03120135 15.53339172 0.0099432 18.70507812 -0.015625 C20.72005708 -0.01298213 22.73503463 -0.00785799 24.75 0 C26.17198448 -0.01214539 26.17198448 -0.01214539 27.62269592 -0.02453613 C34.14463979 0.06843559 34.14463979 0.06843559 37.40600586 2.34179688 C39.46761578 5.55998969 39.35109593 7.80154754 38.80859375 11.53125 C36.02358367 14.23104498 34.02540598 14.90931309 30.1953125 14.93530273 C28.83369995 14.95432899 28.83369995 14.95432899 27.44458008 14.97373962 C25.98507935 14.96933617 25.98507935 14.96933617 24.49609375 14.96484375 C23.49022217 14.9700856 22.48435059 14.97532745 21.44799805 14.98072815 C19.32308881 14.98714648 17.19814404 14.98581382 15.07324219 14.97729492 C11.82032132 14.9687807 8.56915383 14.99755675 5.31640625 15.02929688 C3.25130261 15.03090886 1.18619586 15.03033141 -0.87890625 15.02734375 C-1.85190674 15.03857773 -2.82490723 15.04981171 -3.82739258 15.06138611 C-10.53920805 14.99202363 -10.53920805 14.99202363 -13.80078125 12.68774414 C-15.72847474 9.69839782 -15.84494935 8.01681319 -15.19140625 4.53125 C-10.80493968 -0.44703694 -6.18008568 -0.052898 0 0 Z " fill="#51291E" transform="translate(394.19140625,299.46875)"/>
<path d="M0 0 C1.42662964 -0.01418472 1.42662964 -0.01418472 2.88208008 -0.02865601 C3.90712646 -0.02258331 4.93217285 -0.01651062 5.98828125 -0.01025391 C7.04233154 -0.01312408 8.09638184 -0.01599426 9.18237305 -0.01895142 C11.41162656 -0.02099354 13.64089792 -0.01545339 15.87011719 -0.00292969 C19.28751593 0.01312129 22.7037319 -0.00277399 26.12109375 -0.02197266 C28.28515887 -0.01999025 30.44922325 -0.01614663 32.61328125 -0.01025391 C33.63832764 -0.0163266 34.66337402 -0.02239929 35.71948242 -0.02865601 C36.67056885 -0.01919952 37.62165527 -0.00974304 38.6015625 0 C39.43856689 0.00238678 40.27557129 0.00477356 41.13793945 0.00723267 C43.82418029 0.48037219 44.70989512 1.19605652 46.30078125 3.38818359 C46.95434825 9.48814223 46.95434825 9.48814223 45.07104492 12.0816803 C42.7846501 13.76910259 41.42911919 13.77398404 38.6015625 13.79223633 C37.65047607 13.8049205 36.69938965 13.81760468 35.71948242 13.83067322 C34.69443604 13.82773758 33.66938965 13.82480194 32.61328125 13.82177734 C31.03220581 13.82964012 31.03220581 13.82964012 29.41918945 13.83766174 C27.18995037 13.84408716 24.96067741 13.84273826 22.73144531 13.83422852 C19.31384165 13.82571612 15.89790728 13.85447812 12.48046875 13.88623047 C10.31640675 13.88784242 8.15234179 13.88726506 5.98828125 13.88427734 C4.96323486 13.89551132 3.93818848 13.9067453 2.88208008 13.9183197 C1.93099365 13.90893875 0.97990723 13.8995578 0 13.88989258 C-0.83700439 13.88972641 -1.67400879 13.88956024 -2.53637695 13.88938904 C-4.69921875 13.38818359 -4.69921875 13.38818359 -6.46948242 11.54823303 C-8.12962183 8.63217444 -8.12083735 6.69086265 -7.69921875 3.38818359 C-5.43208347 0.32904753 -3.7185742 0.01060379 0 0 Z " fill="#4D251D" transform="translate(386.69921875,170.61181640625)"/>
<path d="M0 0 C3.22887109 1.27809481 4.54896002 2.48674761 6.8125 5.0625 C8.57021759 9.41053825 8.65950013 13.37608898 8 18 C6.22128603 21.76266417 4.66862969 23.51796464 1.3125 25.9375 C-3.09734204 27.35197764 -6.55872415 27.30298612 -11 26 C-14.25640926 24.20240678 -16.42642427 21.89777071 -18.4375 18.75 C-19.5328404 13.39500248 -19.08042424 8.69266465 -16.125 4.0625 C-11.07535991 -0.83862126 -6.71955762 -0.63057432 0 0 Z " fill="#A6B658" transform="translate(186,260)"/>
<path d="M0 0 C3.60250698 1.38900785 6.35803369 3.27519932 8.9375 6.1875 C10.44707816 10.18344219 10.57547825 13.77982617 10 18 C8.52406483 21.23300086 6.73407055 23.72160787 4 26 C-0.72862677 27.57620892 -6.3026876 28.32393541 -10.91796875 26.05859375 C-14.14217999 23.51902983 -16.05558104 20.96655961 -17 17 C-17.45659831 12.81451546 -17.29820536 10.58494127 -15.375 6.8125 C-10.87137449 1.47925927 -7.08950776 -0.99501863 0 0 Z " fill="#A7B658" transform="translate(232,191)"/>
<path d="M0 0 C4.28712087 2.26965223 7.52115655 4.80503416 10 9 C10.61977106 14.57793957 10.24218073 18.24480159 7 23 C3.4967262 26.24693669 0.67474052 27.30240166 -4 27.5625 C-7.49306424 27.41520211 -9.72073452 26.96506836 -12.5 24.8125 C-16.3427209 20.48943899 -17.58674197 16.94164669 -17.453125 11.0625 C-16.60069506 7.18247408 -13.96509542 4.5162507 -11 2 C-7.21315465 -0.22755609 -4.40481345 -0.45567036 0 0 Z " fill="#A7B758" transform="translate(123,191)"/>
<path d="M0 0 C0.69512695 -0.00287018 1.39025391 -0.00574036 2.10644531 -0.00869751 C3.57227394 -0.01073384 5.03813001 -0.00523406 6.50390625 0.00732422 C8.74280777 0.0233859 10.97990437 0.00746292 13.21875 -0.01171875 C14.6458373 -0.00973624 16.07292349 -0.0058924 17.5 0 C18.79421875 0.00338379 20.0884375 0.00676758 21.421875 0.01025391 C24.91373649 0.41753529 26.3678234 0.84747426 28.75 3.3984375 C29.30593752 7.22050792 29.46866987 9.401372 27.171875 12.58789062 C23.85872058 15.06474075 21.61086894 14.91535678 17.5 14.9296875 C16.80487305 14.9335144 16.10974609 14.93734131 15.39355469 14.94128418 C13.92771959 14.9439993 12.46183572 14.93666585 10.99609375 14.91992188 C8.75671025 14.89850169 6.52053413 14.91973193 4.28125 14.9453125 C2.85415961 14.94266915 1.42707121 14.937544 0 14.9296875 C-1.29421875 14.92517578 -2.5884375 14.92066406 -3.921875 14.91601562 C-7.25 14.3984375 -7.25 14.3984375 -9.671875 12.58789062 C-11.96866987 9.401372 -11.80593752 7.22050792 -11.25 3.3984375 C-7.92097942 -0.16645737 -4.69649528 0.01227918 0 0 Z " fill="#51291E" transform="translate(404.25,190.6015625)"/>
<path d="M0 0 C1.14082031 -0.01998047 2.28164063 -0.03996094 3.45703125 -0.06054688 C5.10251953 -0.05958008 5.10251953 -0.05958008 6.78125 -0.05859375 C8.28268555 -0.06137329 8.28268555 -0.06137329 9.81445312 -0.06420898 C13.23173816 0.57420199 14.41079613 1.70197154 16.5 4.4375 C17 8 17 8 16.5 11.4375 C12.57061043 15.42698612 8.39759529 14.88553786 3.1015625 14.9453125 C1.91304688 14.94273437 0.72453125 14.94015625 -0.5 14.9375 C-1.68851562 14.96585937 -2.87703125 14.99421875 -4.1015625 15.0234375 C-5.24367188 15.02601563 -6.38578125 15.02859375 -7.5625 15.03125 C-8.60535156 15.03833984 -9.64820313 15.04542969 -10.72265625 15.05273438 C-13.5 14.4375 -13.5 14.4375 -15.87109375 12.09570312 C-17.5 9.4375 -17.5 9.4375 -17.5 6.3125 C-14.75368726 -1.58314912 -7.00567555 -0.0435381 0 0 Z " fill="#522A1F" transform="translate(416.5,258.5625)"/>
<path d="M0 0 C1.14533203 -0.00386719 2.29066406 -0.00773437 3.47070312 -0.01171875 C4.66759766 -0.00011719 5.86449219 0.01148438 7.09765625 0.0234375 C8.29068359 0.01183594 9.48371094 0.00023437 10.71289062 -0.01171875 C11.85951172 -0.00785156 13.00613281 -0.00398438 14.1875 0 C15.76132446 0.00507568 15.76132446 0.00507568 17.36694336 0.01025391 C20.53963364 0.45117494 21.92473716 1.12525241 24.16015625 3.3984375 C24.72265625 6.8359375 24.72265625 6.8359375 24.16015625 10.3984375 C21.92654437 13.13546738 20.08168313 14.25672451 16.58032227 14.79516602 C13.43038821 14.97435928 10.31485898 14.99293627 7.16015625 14.9609375 C5.53980469 14.99670898 5.53980469 14.99670898 3.88671875 15.03320312 C-4.9266137 15.01688214 -4.9266137 15.01688214 -8.08984375 12.05859375 C-9.83984375 9.3984375 -9.83984375 9.3984375 -9.83984375 6.2734375 C-7.92784534 0.77644207 -5.68119328 0.01834193 0 0 Z " fill="#522A1F" transform="translate(408.83984375,279.6015625)"/>
<path d="M0 0 C2.70567626 1.82339052 4.53728718 3.07457436 6 6 C6.89761944 12.73214583 6.89761944 12.73214583 4.68359375 15.859375 C1.66499093 18.69564611 -0.4526222 19.89436569 -4.5625 20.6875 C-9.09432561 19.78113488 -10.75195336 18.24804664 -14 15 C-15.55024464 11.89951072 -15.28992015 9.42105782 -15 6 C-10.96884399 -0.47864359 -7.37458466 -1.8113015 0 0 Z " fill="#512A23" transform="translate(270,383)"/>
<path d="M0 0 C0.91523438 -0.01611328 1.83046875 -0.03222656 2.7734375 -0.04882812 C3.65257812 -0.04947266 4.53171875 -0.05011719 5.4375 -0.05078125 C6.24058594 -0.05376221 7.04367187 -0.05674316 7.87109375 -0.05981445 C10.53849802 0.4066754 11.41489542 1.14141925 13 3.3125 C13.65438656 9.42010786 13.65438656 9.42010786 11.75952148 12.00415039 C8.37411605 14.52147906 4.12683731 13.78164028 0.0625 13.75 C-0.84435547 13.76998047 -1.75121094 13.78996094 -2.68554688 13.81054688 C-9.27892931 13.80569523 -9.27892931 13.80569523 -12.6328125 11.51171875 C-14 9.3125 -14 9.3125 -13.9375 5.6875 C-11.97831983 -1.36554861 -6.0983189 -0.02147295 0 0 Z " fill="#4E261D" transform="translate(420,327.6875)"/>
<path d="M0 0 C3.26600019 2.46764459 4.78253791 3.95618195 5.625 8 C4.76814736 12.11289267 3.42264067 13.59686932 0 16 C-3.51955419 16 -5.84920059 15.63108355 -8.9375 13.9375 C-10.69816113 10.72688264 -10.75353146 7.50004798 -10 4 C-7.03506276 0.61150029 -4.50444973 -1.01350119 0 0 Z " fill="#532C26" transform="translate(194,50)"/>
</svg>
