<?xml version="1.0" encoding="UTF-8"?>
<svg version="1.1" xmlns="http://www.w3.org/2000/svg" width="512" height="512">
<path d="M0 0 C1.40043549 -0.00574036 1.40043549 -0.00574036 2.8291626 -0.01159668 C4.7889515 -0.01430317 6.74877731 -0.00703104 8.70849609 0.00976562 C11.70882089 0.03129086 14.70677771 0.00987152 17.70703125 -0.015625 C19.61719277 -0.01298339 21.52735283 -0.00786188 23.4375 0 C24.33233093 -0.00809692 25.22716187 -0.01619385 26.14910889 -0.02453613 C32.30244976 0.06840611 32.30244976 0.06840611 35.54785156 2.37695312 C36.953125 4.53125 36.953125 4.53125 36.953125 7.53125 C43.553125 7.53125 50.153125 7.53125 56.953125 7.53125 C57.613125 5.88125 58.273125 4.23125 58.953125 2.53125 C61.79101997 -0.30664497 63.64795513 0.27846742 67.62684822 0.27398109 C68.32405747 0.27047502 69.02126672 0.26696895 69.73960352 0.26335663 C72.09943928 0.25397818 74.45903172 0.25898238 76.81887817 0.26382446 C78.51844736 0.26009141 80.21801482 0.25549128 81.91757953 0.25009382 C86.60648542 0.23780518 91.29532028 0.23813116 95.98423862 0.24048257 C101.03417638 0.24088927 106.0840909 0.22986547 111.13401794 0.22036743 C121.03587539 0.20372321 130.93770904 0.1982563 140.8395793 0.19714268 C148.88723637 0.1961936 156.93488555 0.19209036 164.98254013 0.18574142 C187.78460176 0.16811791 210.58664453 0.15890402 233.38871302 0.16040237 C235.23430789 0.16052224 235.23430789 0.16052224 237.1171875 0.16064453 C238.96502912 0.16076717 238.96502912 0.16076717 240.85020088 0.16089229 C260.81010208 0.161705 280.76992779 0.14257406 300.72980715 0.1143678 C321.21025924 0.08565373 341.69067449 0.07182676 362.17114723 0.07355535 C373.67496353 0.07421987 385.17870073 0.06870064 396.68249893 0.04719925 C406.47912246 0.02900664 416.27563106 0.02462414 426.07226415 0.0382181 C431.07170743 0.04475808 436.07093012 0.04482787 441.07035255 0.0275116 C445.6475394 0.01182086 450.22433004 0.01460357 454.80150698 0.03207986 C456.4570312 0.03515864 458.1125847 0.03148438 459.76807441 0.02035971 C476.87026168 -0.08694858 476.87026168 -0.08694858 484.046875 6.43359375 C488.58593206 13.002618 488.97097555 18.71114266 487.953125 26.53125 C486.28897822 32.99990643 483.63680191 39.16298645 481.140625 45.34375 C480.41732045 47.18217655 479.69601403 49.02139031 478.9765625 50.86132812 C477.05548848 55.75812488 475.10783481 60.64389926 473.15325928 65.52740479 C471.16383302 70.50678807 469.19394653 75.49388423 467.22265625 80.48046875 C464.82780051 86.53546312 462.43086756 92.58959378 460.02416992 98.63989258 C454.88795424 111.56228215 449.8709859 124.52431312 444.953125 137.53125 C438.87156517 153.61598003 432.59269431 169.61537843 426.23486328 185.59277344 C420.35844109 200.36764289 414.61958659 215.1873413 408.99697876 230.06048584 C402.55969083 247.07641304 395.88264141 263.99418882 389.15820312 280.8984375 C388.76687698 281.88246552 388.37555084 282.86649353 387.97236633 283.88034058 C387.24295172 285.71348358 386.51270095 287.54629421 385.78141785 289.37869263 C385.45224869 290.20521332 385.12307953 291.03173401 384.78393555 291.88330078 C384.5013237 292.59157013 384.21871185 293.29983948 383.92753601 294.02957153 C382.56891515 297.51766076 381.2629495 301.02454669 379.953125 304.53125 C381.04591766 304.53267502 382.13871033 304.53410004 383.26461792 304.53556824 C393.59243863 304.55227981 403.91986742 304.59518034 414.24748039 304.66334057 C419.55631978 304.69754651 424.86487334 304.72271062 430.17382812 304.72680664 C435.30288522 304.73110327 440.43129822 304.75967921 445.56015396 304.80468178 C447.51119349 304.8176132 449.46231028 304.82198 451.4133873 304.81740379 C472.78140776 304.77897908 472.78140776 304.77897908 480.83615112 312.28630066 C486.62848998 318.32261665 488.41966661 324.82335764 488.421875 332.95703125 C488.42948853 333.74466354 488.43710205 334.53229584 488.44494629 335.34379578 C488.45569509 337.00187023 488.45862175 338.6600121 488.45410156 340.31811523 C488.45313141 342.82718506 488.4947622 345.33316915 488.5390625 347.84179688 C488.61250722 357.63582649 488.21578864 365.8668619 481.19726562 373.42114258 C474.98439578 379.35952948 468.47495784 380.98336041 460.14379883 380.91943359 C458.86443199 380.92731903 458.86443199 380.92731903 457.55921936 380.93536377 C454.75934165 380.9484944 451.96003904 380.93985278 449.16015625 380.9296875 C447.20676057 380.93170967 445.25336563 380.9346223 443.29997253 380.93838501 C439.21561461 380.94279847 435.13145406 380.93640669 431.04711914 380.92236328 C425.81135078 380.90523794 420.57604267 380.91513997 415.34029102 380.93308067 C411.31085229 380.94391587 407.28152292 380.94047396 403.25208092 380.9326973 C401.32116326 380.93069633 399.39023567 380.93315095 397.45932961 380.94013596 C394.76404065 380.9477498 392.0695007 380.93614881 389.37426758 380.91943359 C388.57678101 380.92550629 387.77929443 380.93157898 386.9576416 380.93783569 C383.75889172 380.90106116 381.35526763 380.73923377 378.48930359 379.25698853 C376.953125 377.53125 376.953125 377.53125 375.953125 373.53125 C369.353125 373.20125 362.753125 372.87125 355.953125 372.53125 C355.623125 374.51125 355.293125 376.49125 354.953125 378.53125 C351.47504315 380.84997123 350.14201967 380.78388169 346.03651333 380.79131222 C344.79313495 380.79837781 343.54975657 380.8054434 342.26870006 380.8127231 C340.8813171 380.81047152 339.49393444 380.808025 338.10655212 380.80540466 C336.63853337 380.80985482 335.17051702 380.81516813 333.70250422 380.82127339 C329.65820814 380.83549127 325.61398877 380.83711596 321.56967127 380.83667648 C317.21160255 380.83832142 312.85356574 380.85138208 308.49551392 380.86286926 C298.96020073 380.88574607 289.42490976 380.89364314 279.88957286 380.89869571 C273.93601254 380.90195041 267.98245871 380.90847161 262.02890205 380.9156971 C245.54720104 380.93526856 229.06550607 380.95166889 212.58379269 380.95457363 C211.52847645 380.9547612 210.47316022 380.95494877 209.38586471 380.95514202 C207.24642726 380.95550828 205.10698981 380.95587198 202.96755236 380.95623314 C201.90551838 380.95641595 200.8434844 380.95659876 199.74926758 380.95678711 C198.15427278 380.95705793 198.15427278 380.95705793 196.52705587 380.95733423 C179.30388633 380.96087454 162.08084193 380.98788558 144.85771578 381.025285 C127.17739179 381.06336998 109.49712986 381.08273113 91.81676394 381.08303314 C81.88900485 381.08361776 71.96139493 381.09211238 62.03367424 381.12103081 C53.57805154 381.14554753 45.12263236 381.1528258 36.66698372 381.13778328 C32.35378253 381.13061488 28.04098319 381.13146846 23.72782707 381.15419388 C19.77529787 381.17481923 15.82347854 381.17215088 11.87095673 381.15131903 C10.4448968 381.14783082 9.01878529 381.1527059 7.59279298 381.16702347 C-1.84022745 381.25559246 -9.77099329 380.39200415 -16.95220524 373.77583879 C-22.70303216 367.69689436 -24.51341276 361.25330761 -24.515625 353.10546875 C-24.52704529 351.92402031 -24.52704529 351.92402031 -24.53869629 350.71870422 C-24.54944509 349.06062977 -24.55237175 347.4024879 -24.54785156 345.74438477 C-24.54688141 343.23531494 -24.5885122 340.72933085 -24.6328125 338.22070312 C-24.70625722 328.42667351 -24.30953864 320.1956381 -17.29101562 312.64135742 C-11.03142789 306.65831661 -4.46876055 305.08396416 3.91772461 305.09887695 C4.78681458 305.0886853 5.65590454 305.07849365 6.55133057 305.06799316 C9.40277652 305.03797761 12.25388589 305.02861476 15.10546875 305.01953125 C17.09087734 305.00267608 19.07627532 304.98452471 21.06166077 304.96513367 C26.27133873 304.91771863 31.48097363 304.88785428 36.6907959 304.86169434 C42.01335145 304.83184595 47.33575878 304.7853303 52.65820312 304.74023438 C63.08976608 304.6542979 73.52135962 304.58690965 83.953125 304.53125 C83.51818726 303.41754028 83.08324951 302.30383057 82.63513184 301.15637207 C74.91772565 281.39375044 67.20065434 261.63112686 59.54248047 241.84545898 C53.36944346 225.89821613 47.17659197 209.95887717 40.953125 194.03125 C35.16100064 179.20614598 29.39289687 164.37186301 23.640625 149.53125 C23.24442963 148.509104 22.84823425 147.48695801 22.44003296 146.43383789 C19.20405912 138.08478074 15.96925833 129.7352692 12.73449707 121.38574219 C9.9120813 114.1007015 7.08915239 106.81585991 4.265625 99.53125 C3.87450531 98.52208527 3.48338562 97.51292053 3.08041382 96.47317505 C-3.27452945 80.0782154 -9.65603824 63.69373423 -16.0612793 47.31835938 C-16.37647018 46.51201553 -16.69166107 45.70567169 -17.0164032 44.87489319 C-17.59462684 43.39573161 -18.17328749 41.91674073 -18.7525177 40.43797302 C-19.52143459 38.47063949 -20.28508789 36.50135411 -21.046875 34.53125 C-21.32494492 33.81868546 -21.60301483 33.10612091 -21.88951111 32.3719635 C-24.62483141 25.2582603 -25.86928504 18.1373413 -22.98046875 10.8359375 C-17.57240141 1.90599525 -9.98061614 -0.09113476 0 0 Z " fill="#F8EFEE" transform="translate(24.046875,65.46875)"/>
<path d="M0 0 C1.40043549 -0.00574036 1.40043549 -0.00574036 2.8291626 -0.01159668 C4.7889515 -0.01430317 6.74877731 -0.00703104 8.70849609 0.00976562 C11.70882089 0.03129086 14.70677771 0.00987152 17.70703125 -0.015625 C19.61719277 -0.01298339 21.52735283 -0.00786188 23.4375 0 C24.33233093 -0.00809692 25.22716187 -0.01619385 26.14910889 -0.02453613 C32.32830653 0.06879666 32.32830653 0.06879666 35.52832031 2.43725586 C37.15663983 4.83034985 37.38881689 5.76719889 36.953125 8.59375 C36.870625 9.26535156 36.788125 9.93695313 36.703125 10.62890625 C35.61404502 13.39131224 34.56795982 14.06754943 31.953125 15.53125 C28.91152706 16.00892687 25.88705774 16.01997209 22.8125 16.04296875 C21.93031799 16.06091995 21.04813599 16.07887115 20.13922119 16.09736633 C17.32723745 16.15145971 14.51542335 16.18536176 11.703125 16.21875 C9.79424723 16.25192395 7.88539185 16.28641368 5.9765625 16.32226562 C1.30220575 16.40718561 -3.37210076 16.47400141 -8.046875 16.53125 C-8.59779458 22.41650832 -6.64733959 26.81380862 -4.453125 32.140625 C-4.07514771 33.08270813 -3.69717041 34.02479126 -3.30773926 34.99542236 C-2.49063279 37.02947739 -1.66897238 39.06170772 -0.84326172 41.09228516 C1.3703215 46.53744976 3.55014057 51.99613735 5.734375 57.453125 C6.179021 58.56143677 6.62366699 59.66974854 7.08178711 60.81164551 C11.16368518 71.0051705 15.07847131 81.25756206 18.953125 91.53125 C24.64277007 106.5896616 30.50169047 121.57445147 36.453125 136.53125 C42.42097998 151.53115806 48.29903427 166.5587296 54.015625 181.65625 C59.57513902 196.33653692 65.22176816 210.97964704 70.953125 225.59375 C71.32691284 226.54686066 71.70070068 227.49997131 72.08581543 228.48196411 C73.58568511 232.30552811 75.08602319 236.12890775 76.58706665 239.95201111 C80.3122391 249.44102804 84.02181627 258.93610857 87.72729492 268.43283081 C88.73122108 271.00558339 89.73569316 273.57812229 90.74023438 276.15063477 C91.9394769 279.22202878 93.13608577 282.29442702 94.33056641 285.36767578 C95.38041247 288.06791445 96.44021701 290.7638574 97.50927734 293.45654297 C97.96898926 294.62459473 98.42870117 295.79264648 98.90234375 296.99609375 C99.30155029 298.00148193 99.70075684 299.00687012 100.11206055 300.04272461 C100.953125 302.53125 100.953125 302.53125 100.953125 305.53125 C187.413125 305.53125 273.873125 305.53125 362.953125 305.53125 C363.283125 303.55125 363.613125 301.57125 363.953125 299.53125 C364.62887573 297.39311218 364.62887573 297.39311218 365.41748047 295.4050293 C365.71720764 294.64073608 366.01693481 293.87644287 366.32574463 293.08898926 C366.65395203 292.26942749 366.98215942 291.44986572 367.3203125 290.60546875 C367.66656677 289.72669067 368.01282104 288.8479126 368.36956787 287.94250488 C369.121851 286.03507071 369.87679618 284.12868477 370.63409424 282.22323608 C372.26848752 278.11068552 373.89004087 273.99311016 375.51242065 269.87580872 C376.36538414 267.71147824 377.21901233 265.54740962 378.07327271 263.3835907 C382.221705 252.87108281 386.31005928 242.33567122 390.38775635 231.79556274 C392.37918665 226.64820094 394.37302183 221.50177135 396.3671875 216.35546875 C396.75554779 215.35319748 397.14390808 214.35092621 397.54403687 213.31828308 C401.3308185 203.54958587 405.13987129 193.78963774 408.953125 184.03125 C414.81075717 169.04062957 420.63888332 154.03875158 426.453125 139.03125 C431.94793104 124.84826366 437.45266404 110.66932441 442.98800659 96.50210571 C443.94653073 94.04813236 444.90421334 91.59383244 445.86157227 89.1394043 C446.17980453 88.32357376 446.4980368 87.50774323 446.82591248 86.66719055 C447.478409 84.9944182 448.13088483 83.32163779 448.78334045 81.64884949 C450.677182 76.79519213 452.57484817 71.94305503 454.47607422 67.09228516 C456.68699509 61.45114393 458.8921401 55.80777191 461.09399414 50.16308594 C461.951931 47.96679343 462.81192602 45.77130369 463.67407227 43.57666016 C464.87532915 40.51801936 466.06931362 37.4566317 467.26171875 34.39453125 C467.80112343 33.02866631 467.80112343 33.02866631 468.35142517 31.63520813 C470.28364606 26.6487068 471.953125 21.95421309 471.953125 16.53125 C470.65408198 16.53035437 470.65408198 16.53035437 469.32879567 16.52944064 C418.04004452 16.4935735 366.75135215 16.43697587 315.4626555 16.35332905 C309.30908828 16.34331118 303.1555208 16.33346712 297.00195312 16.32373047 C295.1642989 16.32081841 295.1642989 16.32081841 293.28952035 16.31784752 C273.43352258 16.28679732 253.57753638 16.26983845 233.7215189 16.25805578 C213.35864304 16.24565985 192.99582805 16.21819378 172.6329906 16.17663693 C160.060522 16.15145685 147.48815429 16.138136 134.91566011 16.13982043 C126.30289772 16.1398501 117.69023837 16.12528722 109.07751611 16.09908572 C104.10290161 16.08438806 99.12849844 16.07628085 94.15386581 16.08544731 C89.60392028 16.09368972 85.05440069 16.08370294 80.5045186 16.05891338 C78.85440046 16.05319509 77.20424241 16.0542983 75.55413595 16.06273755 C73.31838607 16.07319653 71.08408989 16.05928258 68.84843826 16.03905869 C67.60447446 16.0375398 66.36051066 16.03602092 65.07885098 16.03445601 C61.35673154 15.4352375 60.20365613 14.49949447 57.953125 11.53125 C56.953125 8.59375 56.953125 8.59375 56.953125 5.53125 C58.52063632 2.87899452 58.52063632 2.87899452 60.953125 0.53125 C64.08888173 -0.09434515 64.08888173 -0.09434515 67.87294388 -0.09516239 C68.57246082 -0.10213 69.27197775 -0.10909761 69.99269217 -0.11627635 C72.34880865 -0.13359249 74.70329642 -0.11511924 77.05938721 -0.09693909 C78.76068806 -0.1019817 80.46198361 -0.10920832 82.1632669 -0.11843723 C86.84781199 -0.13742792 91.53183758 -0.12508744 96.21636987 -0.1077143 C101.26492632 -0.09437914 106.3134048 -0.10976371 111.36195374 -0.12153625 C121.25691678 -0.13994765 131.15168279 -0.13137651 141.04663977 -0.11344803 C149.0885389 -0.09943829 157.13038445 -0.09552573 165.17229462 -0.0988903 C166.88735329 -0.09960647 166.88735329 -0.09960647 168.63705961 -0.1003371 C170.95964864 -0.10136341 173.28223766 -0.10241877 175.60482666 -0.10350286 C196.15927939 -0.11207741 216.71363686 -0.09537218 237.26806641 -0.06567383 C257.21765141 -0.03684971 277.16709911 -0.02974479 297.11669922 -0.04516602 C318.82864996 -0.06192652 340.54053545 -0.06596272 362.2524879 -0.04845566 C364.56788936 -0.04661124 366.88329084 -0.04477651 369.19869232 -0.04295158 C370.33796421 -0.04203949 371.47723611 -0.0411274 372.65103139 -0.04018768 C380.68190859 -0.03458019 388.71275397 -0.03789158 396.74362946 -0.04449654 C406.53290397 -0.0522278 416.32204328 -0.04548497 426.11129054 -0.0203215 C431.10668422 -0.00781999 436.10186738 -0.00168779 441.09726906 -0.01286316 C445.67069689 -0.02290126 450.24370482 -0.01445493 454.81708154 0.00871802 C456.47119128 0.01387892 458.12533861 0.01231255 459.77943197 0.00332337 C476.87586873 -0.08185412 476.87586873 -0.08185412 484.046875 6.43359375 C488.58593206 13.002618 488.97097555 18.71114266 487.953125 26.53125 C486.28897822 32.99990643 483.63680191 39.16298645 481.140625 45.34375 C480.41732045 47.18217655 479.69601403 49.02139031 478.9765625 50.86132812 C477.05548848 55.75812488 475.10783481 60.64389926 473.15325928 65.52740479 C471.16383302 70.50678807 469.19394653 75.49388423 467.22265625 80.48046875 C464.82780051 86.53546312 462.43086756 92.58959378 460.02416992 98.63989258 C454.88795424 111.56228215 449.8709859 124.52431312 444.953125 137.53125 C438.87156517 153.61598003 432.59269431 169.61537843 426.23486328 185.59277344 C420.35844109 200.36764289 414.61958659 215.1873413 408.99697876 230.06048584 C402.55969083 247.07641304 395.88264141 263.99418882 389.15820312 280.8984375 C388.76687698 281.88246552 388.37555084 282.86649353 387.97236633 283.88034058 C387.24295172 285.71348358 386.51270095 287.54629421 385.78141785 289.37869263 C385.45224869 290.20521332 385.12307953 291.03173401 384.78393555 291.88330078 C384.5013237 292.59157013 384.21871185 293.29983948 383.92753601 294.02957153 C382.56891515 297.51766076 381.2629495 301.02454669 379.953125 304.53125 C381.04591766 304.53267502 382.13871033 304.53410004 383.26461792 304.53556824 C393.59243863 304.55227981 403.91986742 304.59518034 414.24748039 304.66334057 C419.55631978 304.69754651 424.86487334 304.72271062 430.17382812 304.72680664 C435.30288522 304.73110327 440.43129822 304.75967921 445.56015396 304.80468178 C447.51119349 304.8176132 449.46231028 304.82198 451.4133873 304.81740379 C472.78140776 304.77897908 472.78140776 304.77897908 480.83615112 312.28630066 C486.62848998 318.32261665 488.41966661 324.82335764 488.421875 332.95703125 C488.42948853 333.74466354 488.43710205 334.53229584 488.44494629 335.34379578 C488.45569509 337.00187023 488.45862175 338.6600121 488.45410156 340.31811523 C488.45313141 342.82718506 488.4947622 345.33316915 488.5390625 347.84179688 C488.61250722 357.63582649 488.21578864 365.8668619 481.19726562 373.42114258 C474.98439578 379.35952948 468.47495784 380.98336041 460.14379883 380.91943359 C458.86443199 380.92731903 458.86443199 380.92731903 457.55921936 380.93536377 C454.75934165 380.9484944 451.96003904 380.93985278 449.16015625 380.9296875 C447.20676057 380.93170967 445.25336563 380.9346223 443.29997253 380.93838501 C439.21561461 380.94279847 435.13145406 380.93640669 431.04711914 380.92236328 C425.81135078 380.90523794 420.57604267 380.91513997 415.34029102 380.93308067 C411.31085229 380.94391587 407.28152292 380.94047396 403.25208092 380.9326973 C401.32116326 380.93069633 399.39023567 380.93315095 397.45932961 380.94013596 C394.76404065 380.9477498 392.0695007 380.93614881 389.37426758 380.91943359 C388.57678101 380.92550629 387.77929443 380.93157898 386.9576416 380.93783569 C383.75889172 380.90106116 381.35526763 380.73923377 378.48930359 379.25698853 C376.953125 377.53125 376.953125 377.53125 375.953125 373.53125 C369.353125 373.20125 362.753125 372.87125 355.953125 372.53125 C355.623125 374.51125 355.293125 376.49125 354.953125 378.53125 C351.47504315 380.84997123 350.14201967 380.78388169 346.03651333 380.79131222 C344.79313495 380.79837781 343.54975657 380.8054434 342.26870006 380.8127231 C340.8813171 380.81047152 339.49393444 380.808025 338.10655212 380.80540466 C336.63853337 380.80985482 335.17051702 380.81516813 333.70250422 380.82127339 C329.65820814 380.83549127 325.61398877 380.83711596 321.56967127 380.83667648 C317.21160255 380.83832142 312.85356574 380.85138208 308.49551392 380.86286926 C298.96020073 380.88574607 289.42490976 380.89364314 279.88957286 380.89869571 C273.93601254 380.90195041 267.98245871 380.90847161 262.02890205 380.9156971 C245.54720104 380.93526856 229.06550607 380.95166889 212.58379269 380.95457363 C211.52847645 380.9547612 210.47316022 380.95494877 209.38586471 380.95514202 C207.24642726 380.95550828 205.10698981 380.95587198 202.96755236 380.95623314 C201.90551838 380.95641595 200.8434844 380.95659876 199.74926758 380.95678711 C198.15427278 380.95705793 198.15427278 380.95705793 196.52705587 380.95733423 C179.30388633 380.96087454 162.08084193 380.98788558 144.85771578 381.025285 C127.17739179 381.06336998 109.49712986 381.08273113 91.81676394 381.08303314 C81.88900485 381.08361776 71.96139493 381.09211238 62.03367424 381.12103081 C53.57805154 381.14554753 45.12263236 381.1528258 36.66698372 381.13778328 C32.35378253 381.13061488 28.04098319 381.13146846 23.72782707 381.15419388 C19.77529787 381.17481923 15.82347854 381.17215088 11.87095673 381.15131903 C10.4448968 381.14783082 9.01878529 381.1527059 7.59279298 381.16702347 C-1.84022745 381.25559246 -9.77099329 380.39200415 -16.95220524 373.77583879 C-22.70303216 367.69689436 -24.51341276 361.25330761 -24.515625 353.10546875 C-24.52704529 351.92402031 -24.52704529 351.92402031 -24.53869629 350.71870422 C-24.54944509 349.06062977 -24.55237175 347.4024879 -24.54785156 345.74438477 C-24.54688141 343.23531494 -24.5885122 340.72933085 -24.6328125 338.22070312 C-24.70625722 328.42667351 -24.30953864 320.1956381 -17.29101562 312.64135742 C-11.03142789 306.65831661 -4.46876055 305.08396416 3.91772461 305.09887695 C4.78681458 305.0886853 5.65590454 305.07849365 6.55133057 305.06799316 C9.40277652 305.03797761 12.25388589 305.02861476 15.10546875 305.01953125 C17.09087734 305.00267608 19.07627532 304.98452471 21.06166077 304.96513367 C26.27133873 304.91771863 31.48097363 304.88785428 36.6907959 304.86169434 C42.01335145 304.83184595 47.33575878 304.7853303 52.65820312 304.74023438 C63.08976608 304.6542979 73.52135962 304.58690965 83.953125 304.53125 C83.51818726 303.41754028 83.08324951 302.30383057 82.63513184 301.15637207 C74.91772565 281.39375044 67.20065434 261.63112686 59.54248047 241.84545898 C53.36944346 225.89821613 47.17659197 209.95887717 40.953125 194.03125 C35.16100064 179.20614598 29.39289687 164.37186301 23.640625 149.53125 C23.24442963 148.509104 22.84823425 147.48695801 22.44003296 146.43383789 C19.20405912 138.08478074 15.96925833 129.7352692 12.73449707 121.38574219 C9.9120813 114.1007015 7.08915239 106.81585991 4.265625 99.53125 C3.87450531 98.52208527 3.48338562 97.51292053 3.08041382 96.47317505 C-3.27452945 80.0782154 -9.65603824 63.69373423 -16.0612793 47.31835938 C-16.37647018 46.51201553 -16.69166107 45.70567169 -17.0164032 44.87489319 C-17.59462684 43.39573161 -18.17328749 41.91674073 -18.7525177 40.43797302 C-19.52143459 38.47063949 -20.28508789 36.50135411 -21.046875 34.53125 C-21.32494492 33.81868546 -21.60301483 33.10612091 -21.88951111 32.3719635 C-24.62483141 25.2582603 -25.86928504 18.1373413 -22.98046875 10.8359375 C-17.57240141 1.90599525 -9.98061614 -0.09113476 0 0 Z " fill="#000000" transform="translate(24.046875,65.46875)"/>
<path d="M0 0 C0.72445312 -0.03738281 1.44890625 -0.07476562 2.1953125 -0.11328125 C10.05329852 1.13529087 17.13458584 6.94631051 23.625 11.25 C25.67172929 12.59657567 27.71860705 13.94292569 29.765625 15.2890625 C31.29993164 16.30081543 31.29993164 16.30081543 32.86523438 17.33300781 C36.52316547 19.73879183 40.19499762 22.12253985 43.87011719 24.50195312 C46.33329608 26.09797781 48.79206429 27.70060299 51.25 29.3046875 C54.25859539 31.26730628 57.27955975 33.20806196 60.3125 35.1328125 C61.66684412 36.00493283 63.02102097 36.87731297 64.375 37.75 C64.98021484 38.12680908 65.58542969 38.50361816 66.20898438 38.8918457 C70.2561073 41.52492065 72.55960075 44.08986925 74.875 48.3125 C75.25514854 51.18056134 75.4236526 53.65797267 75.39257812 56.51757812 C75.3995874 57.31836288 75.40659668 58.11914764 75.41381836 58.94419861 C75.43134997 61.57774051 75.41979328 64.21019814 75.40625 66.84375 C75.40894632 68.6816834 75.4128299 70.51961541 75.41784668 72.35754395 C75.42373517 76.20415873 75.41519979 80.05040124 75.39648438 83.89697266 C75.37369514 88.81995527 75.38682172 93.74206554 75.41077423 98.66501617 C75.42524982 102.45866431 75.42061816 106.25210667 75.41026306 110.04576111 C75.40760064 111.86059168 75.41084846 113.67544111 75.42018127 115.49024963 C75.43037606 118.02980816 75.414806 120.5679672 75.39257812 123.10742188 C75.40067505 123.85253525 75.40877197 124.59764862 75.41711426 125.36534119 C75.33449807 130.47754972 74.05445218 133.3513877 70.875 137.3125 C69.06616211 138.9934082 69.06616211 138.9934082 67.21484375 140.30078125 C66.5172998 140.79658691 65.81975586 141.29239258 65.10107422 141.80322266 C61.24384793 144.41842039 57.35899907 146.98214281 53.4375 149.5 C52.56569092 150.06315918 51.69388184 150.62631836 50.7956543 151.20654297 C49.01102234 152.35910088 47.22562652 153.51047691 45.43945312 154.66064453 C42.37840239 156.63237618 39.32205886 158.61130116 36.26635742 160.59130859 C34.20099492 161.92876119 32.13372152 163.26322471 30.06640625 164.59765625 C27.10760436 166.50970227 24.15901352 168.4365978 21.21484375 170.37109375 C20.4468042 170.87366699 19.67876465 171.37624023 18.88745117 171.89404297 C17.42042185 172.85433215 15.95559542 173.81799847 14.4934082 174.78564453 C8.7329332 178.54755882 3.96479903 181.32532843 -3.125 180.3125 C-11.27364315 176.49013496 -18.71180829 170.99362241 -26.16015625 165.96875 C-30.15582107 163.27926514 -34.19906769 160.66768986 -38.25 158.0625 C-41.21046063 156.14910755 -44.16788177 154.23105284 -47.125 152.3125 C-48.02782715 151.72823242 -48.9306543 151.14396484 -49.86083984 150.54199219 C-52.72568786 148.68279016 -55.58229003 146.8114621 -58.4375 144.9375 C-59.33936035 144.35452148 -60.2412207 143.77154297 -61.17041016 143.17089844 C-66.21594454 139.84174759 -70.35429653 136.85390695 -73.125 131.3125 C-73.23883694 128.72039331 -73.29282172 126.15452544 -73.30200195 123.56152344 C-73.30857315 122.76132278 -73.31514435 121.96112213 -73.32191467 121.13667297 C-73.34166588 118.48173941 -73.35331508 115.82686249 -73.36328125 113.171875 C-73.36735678 112.26549538 -73.3714323 111.35911575 -73.37563133 110.42527008 C-73.39650112 105.62677741 -73.41079817 100.82831341 -73.42016602 96.02978516 C-73.43122469 91.07539802 -73.46561566 86.12146073 -73.50533772 81.16723251 C-73.53149762 77.35647757 -73.53985736 73.54582982 -73.54344749 69.73499298 C-73.54831608 67.90896826 -73.55993784 66.08294842 -73.57848549 64.25701141 C-73.60286108 61.69799818 -73.60191492 59.14014873 -73.5949707 56.58105469 C-73.60778076 55.82965714 -73.62059082 55.07825958 -73.63378906 54.30409241 C-73.58303579 49.16041976 -72.36001771 46.27544807 -69.125 42.3125 C-66.44628906 40.13769531 -66.44628906 40.13769531 -63.390625 38.140625 C-62.84042191 37.77670151 -62.29021881 37.41277802 -61.7233429 37.03782654 C-59.94785459 35.86779595 -58.16192902 34.71496507 -56.375 33.5625 C-55.13868619 32.75320777 -53.90293047 31.94306235 -52.66772461 31.13208008 C-45.79370458 26.63176608 -38.87785265 22.19573619 -31.88134766 17.88793945 C-25.37553918 13.88215301 -18.98775828 9.69702655 -12.59594727 5.51245117 C-11.37669556 4.715448 -11.37669556 4.715448 -10.1328125 3.90234375 C-9.04444092 3.18872681 -9.04444092 3.18872681 -7.93408203 2.46069336 C-5.12798213 0.67970984 -3.30688486 0.10946135 0 0 Z " fill="#040305" transform="translate(255.125,131.6875)"/>
<path d="M0 0 C1.05795861 -0.0039821 2.11591722 -0.00796419 3.20593518 -0.01206696 C4.37226304 -0.00624128 5.5385909 -0.00041559 6.74026203 0.00558662 C8.59395616 0.00302335 8.59395616 0.00302335 10.48509866 0.00040829 C13.92168044 -0.00232249 17.35803588 0.00395111 20.79459035 0.01396441 C24.49804873 0.02258321 28.20149982 0.01967987 31.9049654 0.01815987 C38.32358369 0.01711002 44.74216139 0.02339703 51.16076946 0.03463554 C60.44104894 0.05087407 69.72130875 0.05609686 79.0016009 0.05861153 C94.05742815 0.06299122 109.11323376 0.07630776 124.16904926 0.09521675 C138.79632681 0.11356846 153.42359847 0.12772843 168.0508852 0.13623238 C169.40281194 0.13702055 169.40281194 0.13702055 170.78205033 0.13782464 C175.30342791 0.14043467 179.82480553 0.1429621 184.34618318 0.14544845 C221.86894155 0.16618949 259.39167297 0.20197204 296.91441059 0.24609566 C296.91441059 15.09609566 296.91441059 29.94609566 296.91441059 45.24609566 C258.67093922 45.33649727 220.42749591 45.40812118 182.18393921 45.45035698 C177.67026803 45.45535988 173.15659707 45.46053716 168.64292622 45.46582222 C167.74432503 45.46687146 166.84572385 45.4679207 165.91989233 45.46900174 C151.36452788 45.48641312 136.80922655 45.51795485 122.25389956 45.55470684 C107.32189066 45.59209586 92.38991485 45.61432719 77.45786107 45.62244964 C68.24189018 45.62794165 59.02609768 45.64529569 49.81018169 45.67776152 C43.49287182 45.69888425 37.17565433 45.7053008 30.8583117 45.70010117 C27.21196619 45.69753587 23.56593267 45.70150391 19.91964245 45.72291756 C15.96733294 45.74595903 12.01543114 45.7380578 8.06306171 45.72711372 C6.90936333 45.73876509 5.75566494 45.75041646 4.56700599 45.76242089 C-1.60229768 45.7160881 -5.43874259 45.47423857 -10.08558941 41.24609566 C-13.45085665 35.44516619 -12.45424098 28.24053549 -12.46058941 21.74609566 C-12.4850816 20.42738472 -12.50957378 19.10867378 -12.53480816 17.75000191 C-12.53867535 16.48027534 -12.54254253 15.21054878 -12.54652691 13.90234566 C-12.55474468 12.74541206 -12.56296246 11.58847847 -12.57142925 10.39648628 C-11.98262356 6.57842162 -10.76040989 4.98323383 -8.08558941 2.24609566 C-4.78751861 0.04738179 -3.82801169 -0.00317282 0 0 Z " fill="#8C65DC" transform="translate(27.08558940887451,385.75390434265137)"/>
<path d="M0 0 C19.60160599 -0.09028038 39.20304375 -0.16397033 58.8048048 -0.20724869 C67.90615975 -0.22787733 77.0073764 -0.25600367 86.10864258 -0.30175781 C94.04095642 -0.34161637 101.9731701 -0.36743062 109.9055813 -0.37635398 C114.10610211 -0.38157042 118.30633636 -0.39383703 122.50676537 -0.42292023 C126.46056484 -0.45007396 130.41395977 -0.45844518 134.36784363 -0.45243073 C135.81867992 -0.45353099 137.26952977 -0.46148548 138.72028542 -0.4768219 C140.70215179 -0.49674486 142.68423532 -0.48954943 144.66618347 -0.48101807 C146.32955891 -0.48654882 146.32955891 -0.48654882 148.0265379 -0.49219131 C151.71660648 0.11861846 153.33642646 1.42210021 156 4 C159.14425021 8.71637532 158.33389522 13.73743856 158.31567383 19.28686523 C158.31252771 21.29481432 158.33680685 23.30274506 158.36132812 25.31054688 C158.36197266 26.58607422 158.36261719 27.86160156 158.36328125 29.17578125 C158.36626221 30.34020752 158.36924316 31.50463379 158.37231445 32.7043457 C157.94103078 36.52198392 157.141867 38.80738449 155 42 C150.29493968 44.98324218 146.18389962 45.42934306 140.74731445 45.38476562 C139.94171082 45.3901384 139.13610718 45.39551117 138.30609131 45.40104675 C136.56610314 45.41079235 134.82606656 45.41377867 133.08605385 45.41069031 C130.3331095 45.4062008 127.58080398 45.42024215 124.82792664 45.43908691 C117.99595294 45.48204286 111.16399429 45.49313839 104.33190918 45.50531006 C98.54850326 45.51682417 92.76539056 45.54033158 86.98210716 45.58000183 C84.26816482 45.59360027 81.55461566 45.58939739 78.84065247 45.58459473 C77.18193046 45.59393151 75.52321286 45.60409936 73.86450195 45.61523438 C72.73065315 45.60601204 72.73065315 45.60601204 71.57389832 45.59660339 C67.58255419 45.6295219 67.58255419 45.6295219 64.07096863 47.33654785 C62.81896353 49.13033348 62.81896353 49.13033348 62 52 C58.56294295 52.14505175 55.12666967 52.23398014 51.6875 52.3125 C50.71103516 52.35439453 49.73457031 52.39628906 48.72851562 52.43945312 C46.06379018 52.48523879 43.62167652 52.48515217 41 52 C38.95703125 49.54296875 38.95703125 49.54296875 38 47 C34.83508018 45.41754009 31.40957915 45.75833777 27.9296875 45.68359375 C27.22400635 45.66494263 26.5183252 45.6462915 25.79125977 45.6270752 C23.15263509 45.55872511 20.51380229 45.49860983 17.875 45.4375 C11.97625 45.293125 6.0775 45.14875 0 45 C0 30.15 0 15.3 0 0 Z " fill="#8C65DD" transform="translate(339,386)"/>
<path d="M0 0 C3.15949163 1.69476446 6.22636853 3.49264969 9.25390625 5.41015625 C10.24837769 6.03591553 10.24837769 6.03591553 11.26293945 6.67431641 C18.51382262 11.27603905 25.66554847 16.03018595 32.81640625 20.78515625 C33.41294006 21.18105957 34.00947388 21.57696289 34.62408447 21.98486328 C36.35020048 23.13168956 38.0739272 24.28201454 39.796875 25.43359375 C40.80000732 26.10310059 41.80313965 26.77260742 42.83666992 27.46240234 C45.53137695 29.34212366 48.08920827 31.32718 50.62890625 33.41015625 C49.40494792 34.20572917 48.18098958 35.00130208 46.95703125 35.796875 C46.1570874 36.31685059 45.35714355 36.83682617 44.53295898 37.37255859 C42.7434527 38.53571299 40.95390092 39.6987974 39.16430664 40.86181641 C33.64931986 44.44605238 28.13552304 48.03209902 22.62426758 51.62207031 C20.92913887 52.72421948 19.23237743 53.82386184 17.53393555 54.92089844 C14.02543337 57.18770416 10.52957849 59.45870223 7.10546875 61.8515625 C6.14382813 62.51027344 5.1821875 63.16898438 4.19140625 63.84765625 C3.01771484 64.68103516 3.01771484 64.68103516 1.8203125 65.53125 C-0.37109375 66.41015625 -0.37109375 66.41015625 -2.72729492 65.63574219 C-5.25307914 64.46486429 -7.52172821 63.18187764 -9.86328125 61.6796875 C-10.72268311 61.13094971 -11.58208496 60.58221191 -12.4675293 60.0168457 C-13.38445557 59.42476318 -14.30138184 58.83268066 -15.24609375 58.22265625 C-16.1997583 57.61059326 -17.15342285 56.99853027 -18.13598633 56.36791992 C-21.21755949 54.38692653 -24.29441251 52.3987371 -27.37109375 50.41015625 C-28.43666504 49.724375 -29.50223633 49.03859375 -30.60009766 48.33203125 C-33.75602702 46.30032117 -36.90803467 44.26268207 -40.05859375 42.22265625 C-41.0439209 41.58755127 -42.02924805 40.95244629 -43.04443359 40.2980957 C-43.96047363 39.702146 -44.87651367 39.10619629 -45.8203125 38.4921875 C-46.62815186 37.96858643 -47.43599121 37.44498535 -48.26831055 36.90551758 C-50.1899515 35.53897272 -51.76923617 34.13298158 -53.37109375 32.41015625 C-52.14713542 31.61458333 -50.92317708 30.81901042 -49.69921875 30.0234375 C-48.8992749 29.50346191 -48.09933105 28.98348633 -47.27514648 28.44775391 C-45.4856402 27.28459951 -43.69608842 26.1215151 -41.90649414 24.95849609 C-36.39150736 21.37426012 -30.87771054 17.78821348 -25.36645508 14.19824219 C-23.67132637 13.09609302 -21.97456493 11.99645066 -20.27612305 10.89941406 C-16.76762087 8.63260834 -13.27176599 6.36161027 -9.84765625 3.96875 C-8.40519531 2.98068359 -8.40519531 2.98068359 -6.93359375 1.97265625 C-6.15113281 1.41707031 -5.36867187 0.86148438 -4.5625 0.2890625 C-2.37109375 -0.58984375 -2.37109375 -0.58984375 0 0 Z " fill="#8458D9" transform="translate(257.37109375,147.58984375)"/>
<path d="M0 0 C5.1251274 2.79595713 10.15748414 5.64609064 15.0390625 8.85546875 C16.64213257 9.90637695 16.64213257 9.90637695 18.27758789 10.97851562 C19.39347778 11.71471364 20.50928039 12.45104395 21.625 13.1875 C22.77907764 13.94617329 23.93329413 14.70463539 25.08764648 15.46289062 C28.39496823 17.63709579 31.69794923 19.81779767 35 22 C35.87382324 22.5770166 36.74764648 23.1540332 37.64794922 23.74853516 C39.7878525 25.16312292 41.92601683 26.58025338 44.0625 28 C44.66852051 28.4024292 45.27454102 28.8048584 45.89892578 29.21948242 C49.87662044 31.87662044 49.87662044 31.87662044 51 33 C51.09405142 34.9943173 51.11743249 36.99199543 51.11352539 38.98852539 C51.11344986 40.26977798 51.11337433 41.55103058 51.11329651 42.87110901 C51.10818909 44.27995848 51.10297309 45.68880756 51.09765625 47.09765625 C51.09579202 48.53112234 51.09436814 49.96458907 51.09336853 51.39805603 C51.08954372 55.17759957 51.07971377 58.9571049 51.06866455 62.7366333 C51.05844963 66.59069298 51.05387074 70.44475882 51.04882812 74.29882812 C51.03809146 81.86590287 51.02101549 89.43294609 51 97 C47.1725816 95.52296798 43.95517627 93.81038478 40.52734375 91.54296875 C39.46064453 90.84107422 38.39394531 90.13917969 37.29492188 89.41601562 C36.17565933 88.6733608 35.05651824 87.93052289 33.9375 87.1875 C31.78023375 85.76388968 29.62267216 84.34072683 27.46484375 82.91796875 C26.62990891 82.3308889 26.62990891 82.3308889 25.77810669 81.73194885 C22.20957287 79.26445659 18.71030186 77.39542689 14.71240234 75.69702148 C8.91000293 73.00841833 3.74629315 70.33241689 0 65 C-3.06474484 55.06796497 -1.98399436 44.21804037 -1.37329102 33.97583008 C-1.16678548 30.14300558 -1.07696866 26.30751307 -0.9765625 22.47070312 C-0.76350981 14.97321003 -0.42344483 7.48887627 0 0 Z " fill="#D7B1F2" transform="translate(197,194)"/>
<path d="M0 0 C0.46642304 8.24897173 0.82011349 16.49233336 1.03624344 24.7512846 C1.14007543 28.58839713 1.28030936 32.41641886 1.50878906 36.24829102 C2.93894799 60.87739031 2.93894799 60.87739031 -1.8553772 67.60263062 C-6.49653821 71.89514197 -11.79855349 74.5342398 -17.59197998 76.95895386 C-20.64636376 78.27943891 -23.28667487 80.00278778 -26.01171875 81.90234375 C-28.36624601 83.43078788 -30.72084287 84.9591197 -33.07617188 86.48632812 C-33.85927734 86.99486328 -34.64238281 87.50339844 -35.44921875 88.02734375 C-36.56949463 88.7541333 -36.56949463 88.7541333 -37.71240234 89.49560547 C-39.32102242 90.55348348 -40.91948903 91.62688369 -42.51025391 92.71142578 C-43.31769043 93.26169434 -44.12512695 93.81196289 -44.95703125 94.37890625 C-45.68510986 94.88107666 -46.41318848 95.38324707 -47.16333008 95.90063477 C-49 97 -49 97 -51 97 C-51.23225061 88.77669571 -51.40964516 80.55477225 -51.51812172 72.3289938 C-51.57020195 68.50875548 -51.64075686 64.69076848 -51.75439453 60.87182617 C-51.86348864 57.18225795 -51.92292513 53.4948462 -51.94877243 49.80378914 C-51.96717587 48.39973044 -52.00312107 46.99578314 -52.05730057 45.59264946 C-52.46392979 34.62000537 -52.46392979 34.62000537 -48.87063599 30.64361572 C-46.31943248 28.83783117 -43.78757395 27.40587636 -41 26 C-39.43896802 24.99427182 -37.88750277 23.97333375 -36.3515625 22.9296875 C-34.77725602 21.90958179 -33.20169997 20.89140235 -31.625 19.875 C-29.89183588 18.75404726 -28.15876597 17.63294882 -26.42578125 16.51171875 C-25.09861084 15.65392822 -25.09861084 15.65392822 -23.74462891 14.77880859 C-20.92251573 12.94978204 -18.10694533 11.11104831 -15.29296875 9.26953125 C-14.37499512 8.66963379 -13.45702148 8.06973633 -12.51123047 7.45166016 C-10.7344601 6.29018533 -8.95871553 5.12713951 -7.18408203 3.96240234 C-6.38728027 3.44242676 -5.59047852 2.92245117 -4.76953125 2.38671875 C-4.06417236 1.92483154 -3.35881348 1.46294434 -2.63208008 0.98706055 C-1 0 -1 0 0 0 Z " fill="#D7B1F2" transform="translate(315,194)"/>
<path d="M0 0 C2.14819336 1.50219727 2.14819336 1.50219727 4 4 C4.40993091 6.96857521 4.58492644 9.5592805 4.56640625 12.52734375 C4.57570412 13.76624107 4.57570412 13.76624107 4.58518982 15.03016663 C4.59228289 16.7742495 4.58912283 18.51840016 4.57641602 20.26245117 C4.56256196 22.92559001 4.59660898 25.58520546 4.63476562 28.24804688 C4.635717 29.94531336 4.633857 31.64258422 4.62890625 33.33984375 C4.64216446 34.13269272 4.65542267 34.92554169 4.66908264 35.74241638 C4.60214316 39.73482239 4.26613886 41.60358248 1.98608398 44.99975586 C-1.82576412 47.55314246 -4.9638895 47.72261888 -9.40625 47.6640625 C-10.20857056 47.66884613 -11.01089111 47.67362976 -11.83752441 47.67855835 C-13.52858448 47.68195067 -15.21971071 47.67279483 -16.91064453 47.65185547 C-19.49270444 47.62507567 -22.07041834 47.65162096 -24.65234375 47.68359375 C-26.29948872 47.68028953 -27.94663099 47.67388302 -29.59375 47.6640625 C-30.36158813 47.67418365 -31.12942627 47.68430481 -31.92053223 47.69473267 C-35.93042326 47.60747142 -37.80123216 47.15621646 -40.99023438 44.64990234 C-43 42 -43 42 -43.5625 38.9375 C-42.88178485 35.38265419 -41.79927541 34.222954 -39 32 C-36.28598706 30.64299353 -34.15153684 30.8876139 -31.1171875 30.90234375 C-29.95058594 30.90556641 -28.78398437 30.90878906 -27.58203125 30.91210938 C-26.35871094 30.92048828 -25.13539063 30.92886719 -23.875 30.9375 C-22.64394531 30.94201172 -21.41289062 30.94652344 -20.14453125 30.95117188 C-17.09630608 30.9629867 -14.04817686 30.97945972 -11 31 C-11.02618408 30.23856689 -11.05236816 29.47713379 -11.0793457 28.69262695 C-11.18347015 25.23279565 -11.24837729 21.77329415 -11.3125 18.3125 C-11.35439453 17.11431641 -11.39628906 15.91613281 -11.43945312 14.68164062 C-11.57761528 4.76159801 -11.57761528 4.76159801 -8.671875 1.703125 C-5.40327267 -0.38037005 -3.80399512 -0.7284246 0 0 Z " fill="#090909" transform="translate(372,285)"/>
<path d="M0 0 C3.13371352 0.57558004 4.83339768 1.31729013 7.03491211 3.63452148 C9.45149723 8.1685611 8.54934574 13.88871197 8.375 18.875 C8.34116211 20.7012793 8.34116211 20.7012793 8.30664062 22.56445312 C8.2478053 25.56505482 8.1656414 28.56314797 8.0625 31.5625 C8.82393311 31.54678955 9.58536621 31.5310791 10.36987305 31.51489258 C13.8298394 31.45241547 17.2896869 31.41346828 20.75 31.375 C21.94818359 31.34986328 23.14636719 31.32472656 24.38085938 31.29882812 C25.53779297 31.28916016 26.69472656 31.27949219 27.88671875 31.26953125 C28.94979248 31.2538208 30.01286621 31.23811035 31.1081543 31.22192383 C34.48727331 31.61146775 36.34240964 32.55454546 39.0625 34.5625 C40.50680855 37.45111709 40.43938506 39.35897701 40.0625 42.5625 C37.28496305 46.25705856 35.78791013 47.44168949 31.17773438 48.20947266 C29.67091889 48.24226322 28.16329131 48.24642736 26.65625 48.2265625 C25.85392944 48.23134613 25.05160889 48.23612976 24.22497559 48.24105835 C22.53391552 48.24445067 20.84278929 48.23529483 19.15185547 48.21435547 C16.56979556 48.18757567 13.99208166 48.21412096 11.41015625 48.24609375 C9.76301128 48.24278953 8.11586901 48.23638302 6.46875 48.2265625 C5.70091187 48.23668365 4.93307373 48.24680481 4.14196777 48.25723267 C0.37417187 48.17523978 -1.77447739 47.67170156 -4.92358398 45.56225586 C-7.61793785 41.54897838 -7.64554974 38.6351727 -7.56640625 33.90234375 C-7.56881821 33.07545547 -7.57123016 32.2485672 -7.57371521 31.3966217 C-7.57273855 29.6542581 -7.55938811 27.91186277 -7.53442383 26.16967773 C-7.50005963 23.50462474 -7.51378539 20.84287959 -7.53320312 18.17773438 C-7.52630569 16.48175674 -7.51663423 14.78578765 -7.50390625 13.08984375 C-7.50886612 12.29497055 -7.51382599 11.50009735 -7.51893616 10.68113708 C-7.44283382 7.10413354 -7.24477822 4.97697112 -5.08569336 2.06469727 C-2.9375 0.5625 -2.9375 0.5625 0 0 Z " fill="#090909" transform="translate(142.9375,284.4375)"/>
<path d="M0 0 C0.82593155 -0.0038269 1.6518631 -0.00765381 2.50282288 -0.01159668 C4.24693014 -0.01431453 5.99107826 -0.00696213 7.73510742 0.00976562 C10.39790289 0.03115159 13.05799217 0.00997562 15.72070312 -0.015625 C17.41797468 -0.01298117 19.11524456 -0.00785503 20.8125 0 C21.60534897 -0.00809692 22.39819794 -0.01619385 23.21507263 -0.02453613 C27.11929896 0.04131936 29.07042179 0.2834393 32.47485352 2.38085938 C34.47265625 4.53125 34.47265625 4.53125 35.09765625 7.46875 C34.46707704 10.55858814 33.72460005 12.32062655 31.4296875 14.50366211 C26.74823283 16.96177622 20.79434833 16.01639484 15.66015625 15.84375 C14.39494141 15.82119141 13.12972656 15.79863281 11.82617188 15.77539062 C8.70713006 15.71654078 5.59049723 15.6343637 2.47265625 15.53125 C2.49360352 16.29268311 2.51455078 17.05411621 2.53613281 17.83862305 C2.6194342 21.29853032 2.67136209 24.75822638 2.72265625 28.21875 C2.77292969 30.01602539 2.77292969 30.01602539 2.82421875 31.84960938 C2.83710938 33.00654297 2.85 34.16347656 2.86328125 35.35546875 C2.88422852 36.41854248 2.90517578 37.48161621 2.92675781 38.5769043 C2.35870472 42.27260883 1.07746291 43.89610695 -1.52734375 46.53125 C-4.46484375 47.65625 -4.46484375 47.65625 -7.52734375 47.53125 C-10.18599327 45.55984045 -12.17899813 43.95803486 -12.98977661 40.63717651 C-13.17224826 38.36712619 -13.19432805 36.14818403 -13.15625 33.87109375 C-13.15866196 33.04420547 -13.16107391 32.2173172 -13.16355896 31.3653717 C-13.1625823 29.6230081 -13.14923186 27.88061277 -13.12426758 26.13842773 C-13.08990338 23.47337474 -13.10362914 20.81162959 -13.12304688 18.14648438 C-13.11614944 16.45050674 -13.10647798 14.75453765 -13.09375 13.05859375 C-13.09870987 12.26372055 -13.10366974 11.46884735 -13.10877991 10.64988708 C-13.03743194 7.29635112 -12.76674627 4.92956693 -11.02490234 2.03149414 C-7.43986662 -0.1219804 -4.06224966 -0.04137984 0 0 Z " fill="#030303" transform="translate(148.52734375,111.46875)"/>
<path d="M0 0 C0.82593155 -0.0038269 1.6518631 -0.00765381 2.50282288 -0.01159668 C4.24693014 -0.01431453 5.99107826 -0.00696213 7.73510742 0.00976562 C10.39790289 0.03115159 13.05799217 0.00997562 15.72070312 -0.015625 C17.41797468 -0.01298117 19.11524456 -0.00785503 20.8125 0 C21.60534897 -0.00809692 22.39819794 -0.01619385 23.21507263 -0.02453613 C26.88315624 0.03733617 29.14758909 0.36915231 32.47680664 2.02929688 C35.29202118 5.55838783 35.15526454 8.76873118 35.06640625 13.09375 C35.06644653 13.92205322 35.06648682 14.75035645 35.06652832 15.60375977 C35.06117533 17.35212811 35.04360175 19.10049602 35.01464844 20.84863281 C34.97279739 23.52223367 34.97357986 26.19331436 34.98046875 28.8671875 C34.96997556 30.56772581 34.95703675 32.26825115 34.94140625 33.96875 C34.94120483 34.76676025 34.94100342 35.56477051 34.9407959 36.38696289 C34.87171222 39.63267165 34.68402565 42.11944965 33.18945312 45.03125 C30.82752789 47.09491164 28.56154752 47.06013025 25.5078125 47.16015625 C22.33585487 46.17995437 21.28295461 44.24751288 19.47265625 41.53125 C19.01855469 38.5769043 19.01855469 38.5769043 19.08203125 35.35546875 C19.10136719 33.62006836 19.10136719 33.62006836 19.12109375 31.84960938 C19.15460938 30.65142578 19.188125 29.45324219 19.22265625 28.21875 C19.24070312 27.00123047 19.25875 25.78371094 19.27734375 24.52929688 C19.32440494 21.52914578 19.39014315 18.53060111 19.47265625 15.53125 C18.23177246 15.57052612 18.23177246 15.57052612 16.96582031 15.6105957 C13.21829207 15.71451831 9.47106675 15.77956489 5.72265625 15.84375 C4.42070312 15.88564453 3.11875 15.92753906 1.77734375 15.97070312 C0.52695312 15.98681641 -0.7234375 16.00292969 -2.01171875 16.01953125 C-3.16381836 16.04571533 -4.31591797 16.07189941 -5.50292969 16.09887695 C-8.52734375 15.53125 -8.52734375 15.53125 -10.90332031 13.19213867 C-12.88600717 9.94359627 -13.16433461 8.27357131 -12.52734375 4.53125 C-9.2191113 -0.21682095 -5.35687947 -0.0545675 0 0 Z " fill="#030202" transform="translate(341.52734375,111.46875)"/>
<path d="M0 0 C0.67055923 -0.00619858 1.34111847 -0.01239716 2.03199768 -0.01878357 C3.44652865 -0.02586903 4.86114324 -0.02272972 6.27563477 -0.01000977 C8.43207476 0.00384629 10.58416159 -0.03020533 12.74023438 -0.06835938 C14.11849064 -0.06931082 15.4967523 -0.0674504 16.875 -0.0625 C18.1220874 -0.0632251 19.3691748 -0.0639502 20.65405273 -0.06469727 C24.89773843 0.73480186 26.40566482 2.17430051 29.00390625 5.56640625 C29.06640625 9.19140625 29.06640625 9.19140625 28.00390625 12.56640625 C25.61457322 15.03927989 24.21053343 15.54060903 20.76757812 15.97045898 C18.8890918 15.98508179 18.8890918 15.98508179 16.97265625 16 C15.96325989 16.00786278 15.96325989 16.00786278 14.93347168 16.0158844 C13.51474382 16.02229035 12.09596275 16.02098602 10.67724609 16.01245117 C8.51042978 16.0039319 6.34624412 16.03272942 4.1796875 16.06445312 C2.79817787 16.06606517 1.41666359 16.06548755 0.03515625 16.0625 C-1.84333008 16.06527954 -1.84333008 16.06527954 -3.75976562 16.06811523 C-6.99609375 15.56640625 -6.99609375 15.56640625 -9.40429688 13.75415039 C-11.7291367 10.55892191 -11.54607142 8.41624992 -10.99609375 4.56640625 C-7.83780658 0.24038968 -5.19693208 0.04536604 0 0 Z " fill="#020103" transform="translate(152.99609375,400.43359375)"/>
<path d="M0 0 C0.67055923 -0.0038269 1.34111847 -0.00765381 2.03199768 -0.01159668 C3.44655869 -0.01431163 4.86117026 -0.00697932 6.27563477 0.00976562 C8.43165074 0.03115323 10.58432269 0.00997322 12.74023438 -0.015625 C14.11849689 -0.01298099 15.49675733 -0.00785447 16.875 0 C18.1220874 0.00451172 19.3691748 0.00902344 20.65405273 0.01367188 C24.58009643 0.62027581 26.25393038 1.70655175 29.00390625 4.53125 C29.62890625 7.46875 29.62890625 7.46875 29.00390625 10.53125 C26.40353649 13.79796452 24.90669562 15.35110001 20.76171875 16.17822266 C19.56289062 16.1838623 18.3640625 16.18950195 17.12890625 16.1953125 C15.8140625 16.20175781 14.49921875 16.20820313 13.14453125 16.21484375 C12.12456055 16.1991333 12.12456055 16.1991333 11.08398438 16.18310547 C9.00855944 16.15631008 6.93853949 16.18287887 4.86328125 16.21484375 C2.89101562 16.20517578 2.89101562 16.20517578 0.87890625 16.1953125 C-0.91933594 16.18685303 -0.91933594 16.18685303 -2.75390625 16.17822266 C-6.89879974 15.35111665 -8.39856662 13.80044753 -10.99609375 10.53125 C-11.55859375 7.46875 -11.55859375 7.46875 -10.99609375 4.53125 C-7.79380675 0.22173986 -5.22108575 0.01890597 0 0 Z " fill="#010102" transform="translate(79.99609375,400.46875)"/>
</svg>
