<?xml version="1.0" encoding="UTF-8"?>
<svg version="1.1" xmlns="http://www.w3.org/2000/svg" width="512" height="512">
<path d="M0 0 C0.97055328 0.00215515 1.94110657 0.0043103 2.94107056 0.00653076 C17.26930898 0.0575666 31.29685782 0.40491562 45.375 3.3125 C46.35807129 3.51117676 47.34114258 3.70985352 48.35400391 3.91455078 C59.81040187 6.29721027 71.04037083 9.31143864 82.125 13.0625 C82.94935547 13.33666748 83.77371094 13.61083496 84.62304688 13.89331055 C89.14952364 15.49795523 93.35980922 17.25615493 97.49195862 19.70982361 C112.37887511 28.21828567 126.27192052 28.66907817 143.03152633 28.36371064 C146.67152933 28.3097363 150.31141076 28.31816795 153.95173645 28.32048035 C160.82101133 28.3166407 167.68898915 28.26664278 174.55786639 28.1953637 C186.87391523 28.06797686 199.19012313 27.99835028 211.50680906 27.97972792 C215.8157219 27.9710766 220.12321351 27.93480486 224.43171251 27.87521994 C226.46480384 27.85051279 228.49760393 27.8371986 230.53082275 27.82867432 C232.99528356 27.81780452 235.45976523 27.78906712 237.92372131 27.73802185 C246.74118996 27.74470706 253.28927919 29.80358683 260.03125 35.59375 C260.6396875 36.3259375 261.248125 37.058125 261.875 37.8125 C262.5040625 38.5446875 263.133125 39.276875 263.78125 40.03125 C266.92289468 44.52811396 267.62548127 48.30264979 267.63226891 53.74628925 C267.6387178 55.05410085 267.64516669 56.36191245 267.651811 57.7093547 C267.64886878 59.15904549 267.64573335 60.6087359 267.64242554 62.0584259 C267.6461619 63.59971724 267.65076337 65.14100668 267.65615618 66.68229312 C267.66840335 70.91976177 267.6681237 75.15715157 267.66576743 79.39463389 C267.6653597 83.96394294 267.67639425 88.53322657 267.68588257 93.1025238 C267.70250295 102.05546874 267.70799258 111.00838735 267.70910732 119.96134643 C267.71005731 127.23805096 267.7141651 134.51474681 267.72050858 141.79144859 C267.7381238 162.41762258 267.747347 183.04377575 267.74584763 203.66995732 C267.74572776 205.33826863 267.74572776 205.33826863 267.74560547 207.0402832 C267.74552371 208.15384714 267.74544195 209.26741107 267.74535771 210.41471937 C267.74454472 228.46357469 267.7636848 246.51234658 267.7918822 264.56117777 C267.82059986 283.08906397 267.83442311 301.61690946 267.83269465 320.14481848 C267.83203036 330.54865173 267.83753962 340.9523975 267.85905075 351.35621071 C267.87724782 360.21403161 267.88162201 369.0717254 267.8680319 377.92955688 C267.86149481 382.44904141 267.86141174 386.96828195 267.8787384 391.48774338 C267.8944415 395.62627454 267.89163395 399.76436772 267.87417014 403.90288802 C267.87109413 405.39883526 267.87475529 406.89481496 267.88589029 408.39072392 C267.95304113 418.05305305 267.47482136 424.41549115 261.125 432 C255.71936408 436.54564839 250.34938602 440.44732225 243.0871582 440.42602539 C242.22649246 440.42594986 241.36582672 440.42587433 240.4790802 440.42579651 C239.55399155 440.42063522 238.62890289 440.41547394 237.67578125 440.41015625 C236.72559616 440.4087413 235.77541107 440.40732635 234.7964325 440.40586853 C231.76008971 440.40026875 228.72382052 440.38771632 225.6875 440.375 C223.62955836 440.36998497 221.57161556 440.36542207 219.51367188 440.36132812 C214.46741954 440.3502994 209.42122225 440.33303493 204.375 440.3125 C204.2982605 441.34310547 204.2982605 441.34310547 204.2199707 442.39453125 C204.14351318 443.29558594 204.06705566 444.19664062 203.98828125 445.125 C203.88060425 446.46498047 203.88060425 446.46498047 203.77075195 447.83203125 C203.22316932 451.26413459 201.91524637 452.98998904 199.375 455.3125 C194.35271425 458.41482352 188.72027191 457.72068198 183 457.75 C181.8759375 457.78287109 180.751875 457.81574219 179.59375 457.84960938 C170.34190379 457.90975731 170.34190379 457.90975731 166.671875 454.8984375 C162.2267636 449.89390732 162.1563578 446.87176595 162.375 440.3125 C150.62347831 439.44723385 144.37599813 444.17886274 135.43994141 450.82373047 C96.82042088 478.66740937 47.66240053 490.81259063 0.6875 490.625 C-0.28499695 490.62284485 -1.2574939 490.6206897 -2.25946045 490.61846924 C-16.26400669 490.56865559 -29.87687475 490.19420311 -43.625 487.3125 C-44.61419434 487.11914062 -45.60338867 486.92578125 -46.62255859 486.7265625 C-102.1860581 475.74436098 -154.26359065 445.9014304 -189.625 401.3125 C-190.35203125 400.45269531 -191.0790625 399.59289062 -191.828125 398.70703125 C-202.03313643 386.62872227 -210.2809725 373.28452009 -217.625 359.3125 C-218.02187012 358.56355469 -218.41874023 357.81460937 -218.82763672 357.04296875 C-236.95833215 322.34940478 -245.08108998 284.39427478 -245 245.4375 C-244.99945618 244.45038025 -244.99891235 243.4632605 -244.99835205 242.44622803 C-244.95789301 226.42606458 -244.09019504 211.0093359 -240.625 195.3125 C-240.40537598 194.31718262 -240.18575195 193.32186523 -239.95947266 192.29638672 C-238.42012914 185.56053323 -236.61429679 178.92840961 -234.625 172.3125 C-234.38475098 171.49861816 -234.14450195 170.68473633 -233.89697266 169.84619141 C-227.15375907 147.50729901 -216.28254 125.22664968 -202.625 106.3125 C-202.13257813 105.62381836 -201.64015625 104.93513672 -201.1328125 104.22558594 C-195.07897928 95.80937491 -188.69483406 87.90399172 -181.625 80.3125 C-180.45358546 78.96243836 -179.2867058 77.60842486 -178.125 76.25 C-170.97203785 68.0798735 -163.14969971 61.02343381 -154.625 54.3125 C-153.614375 53.508125 -152.60375 52.70375 -151.5625 51.875 C-129.63790793 34.5737996 -105.16566086 21.13505367 -78.625 12.3125 C-77.79452148 12.03470703 -76.96404297 11.75691406 -76.10839844 11.47070312 C-67.00151975 8.47385958 -57.83086107 5.9856801 -48.4375 4.0625 C-47.70329834 3.91135742 -46.96909668 3.76021484 -46.21264648 3.60449219 C-30.83342501 0.65482442 -15.62298474 -0.06251267 0 0 Z " fill="#4A4A71" transform="translate(244.625,10.6875)"/>
<path d="M0 0 C0.97055328 0.00215515 1.94110657 0.0043103 2.94107056 0.00653076 C17.26930898 0.0575666 31.29685782 0.40491562 45.375 3.3125 C46.35807129 3.51117676 47.34114258 3.70985352 48.35400391 3.91455078 C59.81040187 6.29721027 71.04037083 9.31143864 82.125 13.0625 C82.94935547 13.33666748 83.77371094 13.61083496 84.62304688 13.89331055 C89.14952364 15.49795523 93.35980922 17.25615493 97.49195862 19.70982361 C112.37887511 28.21828567 126.27192052 28.66907817 143.03152633 28.36371064 C146.67152933 28.3097363 150.31141076 28.31816795 153.95173645 28.32048035 C160.82101133 28.3166407 167.68898915 28.26664278 174.55786639 28.1953637 C186.87391523 28.06797686 199.19012313 27.99835028 211.50680906 27.97972792 C215.8157219 27.9710766 220.12321351 27.93480486 224.43171251 27.87521994 C226.46480384 27.85051279 228.49760393 27.8371986 230.53082275 27.82867432 C232.99528356 27.81780452 235.45976523 27.78906712 237.92372131 27.73802185 C246.74118996 27.74470706 253.28927919 29.80358683 260.03125 35.59375 C260.6396875 36.3259375 261.248125 37.058125 261.875 37.8125 C262.5040625 38.5446875 263.133125 39.276875 263.78125 40.03125 C266.92289468 44.52811396 267.62548127 48.30264979 267.63226891 53.74628925 C267.6387178 55.05410085 267.64516669 56.36191245 267.651811 57.7093547 C267.64886878 59.15904549 267.64573335 60.6087359 267.64242554 62.0584259 C267.6461619 63.59971724 267.65076337 65.14100668 267.65615618 66.68229312 C267.66840335 70.91976177 267.6681237 75.15715157 267.66576743 79.39463389 C267.6653597 83.96394294 267.67639425 88.53322657 267.68588257 93.1025238 C267.70250295 102.05546874 267.70799258 111.00838735 267.70910732 119.96134643 C267.71005731 127.23805096 267.7141651 134.51474681 267.72050858 141.79144859 C267.7381238 162.41762258 267.747347 183.04377575 267.74584763 203.66995732 C267.74576772 204.78216486 267.7456878 205.8943724 267.74560547 207.0402832 C267.74552371 208.15384714 267.74544195 209.26741107 267.74535771 210.41471937 C267.74454472 228.46357469 267.7636848 246.51234658 267.7918822 264.56117777 C267.82059986 283.08906397 267.83442311 301.61690946 267.83269465 320.14481848 C267.83203036 330.54865173 267.83753962 340.9523975 267.85905075 351.35621071 C267.87724782 360.21403161 267.88162201 369.0717254 267.8680319 377.92955688 C267.86149481 382.44904141 267.86141174 386.96828195 267.8787384 391.48774338 C267.8944415 395.62627454 267.89163395 399.76436772 267.87417014 403.90288802 C267.87109413 405.39883526 267.87475529 406.89481496 267.88589029 408.39072392 C267.95304113 418.05305305 267.47482136 424.41549115 261.125 432 C255.71936408 436.54564839 250.34938602 440.44732225 243.0871582 440.42602539 C242.22649246 440.42594986 241.36582672 440.42587433 240.4790802 440.42579651 C239.55399155 440.42063522 238.62890289 440.41547394 237.67578125 440.41015625 C236.72559616 440.4087413 235.77541107 440.40732635 234.7964325 440.40586853 C231.76008971 440.40026875 228.72382052 440.38771632 225.6875 440.375 C223.62955836 440.36998497 221.57161556 440.36542207 219.51367188 440.36132812 C214.46741954 440.3502994 209.42122225 440.33303493 204.375 440.3125 C204.2982605 441.34310547 204.2982605 441.34310547 204.2199707 442.39453125 C204.14351318 443.29558594 204.06705566 444.19664062 203.98828125 445.125 C203.88060425 446.46498047 203.88060425 446.46498047 203.77075195 447.83203125 C203.22316932 451.26413459 201.91524637 452.98998904 199.375 455.3125 C194.35271425 458.41482352 188.72027191 457.72068198 183 457.75 C181.8759375 457.78287109 180.751875 457.81574219 179.59375 457.84960938 C170.34190379 457.90975731 170.34190379 457.90975731 166.671875 454.8984375 C162.2267636 449.89390732 162.1563578 446.87176595 162.375 440.3125 C150.62347831 439.44723385 144.37599813 444.17886274 135.43994141 450.82373047 C96.82042088 478.66740937 47.66240053 490.81259063 0.6875 490.625 C-0.28499695 490.62284485 -1.2574939 490.6206897 -2.25946045 490.61846924 C-16.26400669 490.56865559 -29.87687475 490.19420311 -43.625 487.3125 C-44.61419434 487.11914062 -45.60338867 486.92578125 -46.62255859 486.7265625 C-97.798025 476.61166171 -145.09241591 450.64343778 -180.625 412.3125 C-180.625 411.9825 -180.625 411.6525 -180.625 411.3125 C-42.025 411.3125 96.575 411.3125 239.375 411.3125 C239.375 401.7425 239.375 392.1725 239.375 382.3125 C210.665 382.3125 181.955 382.3125 152.375 382.3125 C152.045 374.3925 151.715 366.4725 151.375 358.3125 C151.045 356.3325 150.715 354.3525 150.375 352.3125 C150.705 351.6525 151.035 350.9925 151.375 350.3125 C151.47103307 348.71581427 151.50574587 347.11519475 151.5078125 345.515625 C151.50974609 344.07703125 151.50974609 344.07703125 151.51171875 342.609375 C151.50785156 341.60390625 151.50398438 340.5984375 151.5 339.5625 C151.50386719 338.5725 151.50773437 337.5825 151.51171875 336.5625 C151.50518124 331.67243943 151.23106003 327.13756562 150.375 322.3125 C150.705 321.6525 151.035 320.9925 151.375 320.3125 C151.47103307 318.71581427 151.50574587 317.11519475 151.5078125 315.515625 C151.50974609 314.07703125 151.50974609 314.07703125 151.51171875 312.609375 C151.50785156 311.60390625 151.50398438 310.5984375 151.5 309.5625 C151.50386719 308.5725 151.50773437 307.5825 151.51171875 306.5625 C151.50518124 301.67243943 151.23106003 297.13756562 150.375 292.3125 C150.705 291.6525 151.035 290.9925 151.375 290.3125 C151.47103307 288.71581427 151.50574587 287.11519475 151.5078125 285.515625 C151.50974609 284.07703125 151.50974609 284.07703125 151.51171875 282.609375 C151.50785156 281.60390625 151.50398438 280.5984375 151.5 279.5625 C151.50386719 278.5725 151.50773437 277.5825 151.51171875 276.5625 C151.50518124 271.67243943 151.23106003 267.13756562 150.375 262.3125 C150.705 261.6525 151.035 260.9925 151.375 260.3125 C151.47103307 258.71581427 151.50574587 257.11519475 151.5078125 255.515625 C151.50974609 254.07703125 151.50974609 254.07703125 151.51171875 252.609375 C151.50785156 251.60390625 151.50398438 250.5984375 151.5 249.5625 C151.50386719 248.5725 151.50773437 247.5825 151.51171875 246.5625 C151.50518124 241.67243943 151.23106003 237.13756562 150.375 232.3125 C150.705 231.6525 151.035 230.9925 151.375 230.3125 C151.47103307 228.71581427 151.50574587 227.11519475 151.5078125 225.515625 C151.50974609 224.07703125 151.50974609 224.07703125 151.51171875 222.609375 C151.50785156 221.60390625 151.50398438 220.5984375 151.5 219.5625 C151.50386719 218.5725 151.50773437 217.5825 151.51171875 216.5625 C151.50518124 211.67243943 151.23106003 207.13756562 150.375 202.3125 C150.705 201.6525 151.035 200.9925 151.375 200.3125 C151.47103307 198.71581427 151.50574587 197.11519475 151.5078125 195.515625 C151.50974609 194.07703125 151.50974609 194.07703125 151.51171875 192.609375 C151.50785156 191.60390625 151.50398438 190.5984375 151.5 189.5625 C151.50386719 188.5725 151.50773437 187.5825 151.51171875 186.5625 C151.50518124 181.67243943 151.23106003 177.13756562 150.375 172.3125 C150.705 171.6525 151.035 170.9925 151.375 170.3125 C151.47103307 168.71581427 151.50574587 167.11519475 151.5078125 165.515625 C151.50974609 164.07703125 151.50974609 164.07703125 151.51171875 162.609375 C151.50785156 161.60390625 151.50398438 160.5984375 151.5 159.5625 C151.50386719 158.5725 151.50773437 157.5825 151.51171875 156.5625 C151.50518124 151.67243943 151.23106003 147.13756562 150.375 142.3125 C150.705 141.6525 151.035 140.9925 151.375 140.3125 C151.47103307 138.71581427 151.50574587 137.11519475 151.5078125 135.515625 C151.50974609 134.07703125 151.50974609 134.07703125 151.51171875 132.609375 C151.50785156 131.60390625 151.50398438 130.5984375 151.5 129.5625 C151.50386719 128.5725 151.50773437 127.5825 151.51171875 126.5625 C151.50518124 121.67243943 151.23106003 117.13756562 150.375 112.3125 C150.705 111.6525 151.035 110.9925 151.375 110.3125 C151.705 102.3925 152.035 94.4725 152.375 86.3125 C181.085 86.3125 209.795 86.3125 239.375 86.3125 C239.375 76.7425 239.375 67.1725 239.375 57.3125 C108.695 57.3125 -21.985 57.3125 -156.625 57.3125 C-152.11416153 51.67395191 -152.11416153 51.67395191 -148.96484375 49.3671875 C-148.26399658 48.85333496 -147.56314941 48.33948242 -146.84106445 47.81005859 C-146.08913818 47.27461426 -145.33721191 46.73916992 -144.5625 46.1875 C-143.76739014 45.6198291 -142.97228027 45.0521582 -142.15307617 44.46728516 C-133.63482536 38.48320352 -124.81200026 33.20006917 -115.625 28.3125 C-114.76874023 27.85633301 -113.91248047 27.40016602 -113.03027344 26.93017578 C-77.79937958 8.47497524 -39.62914341 -0.15856915 0 0 Z " fill="#4A4A71" transform="translate(244.625,10.6875)"/>
<path d="M0 0 C1.64445095 0.00107892 3.28890632 -0.00092918 4.93335056 -0.00574976 C9.44222115 -0.01006558 13.94980768 0.02930889 18.45840049 0.07590139 C23.32395264 0.11850072 28.18954205 0.12046837 33.05525208 0.12739563 C41.48202865 0.14494243 49.90835866 0.18817498 58.33493042 0.24890327 C70.51823976 0.33666827 82.70146241 0.38561869 94.88501251 0.42512649 C114.65235665 0.49027914 134.41941836 0.58677899 154.18652344 0.70298767 C173.38731799 0.81579995 192.58809443 0.91385163 211.7890625 0.99205017 C212.97279796 0.99687623 214.15653341 1.00170229 215.37613964 1.0066746 C221.3146499 1.03079468 227.25316128 1.05462456 233.19167328 1.07831013 C282.45014034 1.27515148 331.70825193 1.52338664 380.96630859 1.80381775 C380.96630859 11.37381775 380.96630859 20.94381775 380.96630859 30.80381775 C352.25630859 30.80381775 323.54630859 30.80381775 293.96630859 30.80381775 C293.96630859 38.72381775 293.96630859 46.64381775 293.96630859 54.80381775 C293.63630859 56.78381775 293.30630859 58.76381775 292.96630859 60.80381775 C293.29630859 61.46381775 293.62630859 62.12381775 293.96630859 62.80381775 C294.06234167 64.40050347 294.09705447 66.001123 294.09912109 67.60069275 C294.10041016 68.55975525 294.10169922 69.51881775 294.10302734 70.50694275 C294.09916016 71.5124115 294.09529297 72.51788025 294.09130859 73.55381775 C294.09517578 74.54381775 294.09904297 75.53381775 294.10302734 76.55381775 C294.09648983 81.44387832 293.82236862 85.97875213 292.96630859 90.80381775 C293.29630859 91.46381775 293.62630859 92.12381775 293.96630859 92.80381775 C294.06234167 94.40050347 294.09705447 96.001123 294.09912109 97.60069275 C294.10041016 98.55975525 294.10169922 99.51881775 294.10302734 100.50694275 C294.09916016 101.5124115 294.09529297 102.51788025 294.09130859 103.55381775 C294.09517578 104.54381775 294.09904297 105.53381775 294.10302734 106.55381775 C294.09648983 111.44387832 293.82236862 115.97875213 292.96630859 120.80381775 C293.29630859 121.46381775 293.62630859 122.12381775 293.96630859 122.80381775 C294.06234167 124.40050347 294.09705447 126.001123 294.09912109 127.60069275 C294.10041016 128.55975525 294.10169922 129.51881775 294.10302734 130.50694275 C294.09916016 131.5124115 294.09529297 132.51788025 294.09130859 133.55381775 C294.09517578 134.54381775 294.09904297 135.53381775 294.10302734 136.55381775 C294.09648983 141.44387832 293.82236862 145.97875213 292.96630859 150.80381775 C293.29630859 151.46381775 293.62630859 152.12381775 293.96630859 152.80381775 C294.04939497 154.17929931 294.07366875 155.55867571 294.06396484 156.93663025 C294.06074219 157.74229431 294.05751953 158.54795837 294.05419922 159.3780365 C294.04582031 160.21979431 294.03744141 161.06155212 294.02880859 161.92881775 C294.02429688 162.77830994 294.01978516 163.62780212 294.01513672 164.5030365 C294.00333733 166.60332684 293.98540165 168.70358105 293.96630859 170.80381775 C269.93171878 170.92056617 245.89717139 171.00876438 221.86235523 171.06287861 C210.70281819 171.0886715 199.54345723 171.12384289 188.3840332 171.18101501 C178.65863688 171.2308166 168.93336806 171.26310087 159.20784777 171.27426022 C154.05713952 171.28078445 148.90679606 171.29614094 143.75620461 171.33246803 C138.90937171 171.36637614 134.06305429 171.37688116 129.21611404 171.36935616 C127.43630994 171.37073302 125.65648881 171.38069645 123.87678719 171.39984512 C121.44752213 171.42470322 119.02020622 171.41875087 116.59089661 171.40509033 C115.53300477 171.42693664 115.53300477 171.42693664 114.45374137 171.44922429 C110.62522587 171.39098046 109.07508814 170.89275676 106.07107067 168.43664837 C103.88777734 165.70558361 102.80115884 163.46582115 101.65380859 160.17881775 C96.96586969 148.32794114 89.09858635 138.51790997 77.35693359 133.15538025 C74.94386465 132.1435387 72.52702527 131.22576589 70.06787109 130.323349 C66.40515066 128.52889276 65.10695049 127.27414389 62.96630859 123.80381775 C62.40734666 120.76342177 62.46019263 117.78279784 62.51220703 114.69908142 C62.51172489 113.77664548 62.51124275 112.85420954 62.510746 111.90382099 C62.51372505 108.92607988 62.54415428 105.94934778 62.57568359 102.9717865 C62.58156678 101.13019798 62.58564623 99.28860278 62.58789062 97.44700623 C62.60883847 90.62834121 62.66468356 83.80981951 62.71630859 76.99131775 C62.79880859 61.74944275 62.88130859 46.50756775 62.96630859 30.80381775 C27.32630859 30.80381775 -8.31369141 30.80381775 -45.03369141 30.80381775 C-38.27838914 21.79674806 -38.27838914 21.79674806 -35.44775391 18.9874115 C-34.82642578 18.36801697 -34.20509766 17.74862244 -33.56494141 17.11045837 C-32.93587891 16.49364197 -32.30681641 15.87682556 -31.65869141 15.24131775 C-31.03736328 14.62063416 -30.41603516 13.99995056 -29.77587891 13.36045837 C-27.88084429 11.48304289 -25.98370465 9.62448229 -24.03369141 7.80381775 C-23.571633 7.24193786 -23.10957458 6.68005796 -22.6335144 6.10115141 C-16.21471232 -0.83682283 -8.78548315 -0.14368282 0 0 Z " fill="#4ED16F" transform="translate(103.03369140625,66.19618225097656)"/>
<path d="M0 0 C9.56203278 -0.09040796 19.12378119 -0.16377738 28.68614483 -0.20724869 C33.12645549 -0.2281139 37.5664583 -0.25641177 42.0065918 -0.30175781 C46.29247369 -0.34525406 50.57805968 -0.36914513 54.86414528 -0.37950897 C56.49842804 -0.3868936 58.13269481 -0.40131425 59.76685143 -0.42292023 C62.05805694 -0.45200559 64.34804355 -0.45595403 66.6394043 -0.45410156 C68.59465279 -0.46742523 68.59465279 -0.46742523 70.58940125 -0.48101807 C74.57981709 0.08177523 76.19569804 1.15823849 79 4 C80.30078125 6.84765625 80.30078125 6.84765625 81.3125 10.0625 C86.64624432 24.86737911 96.33773158 33.06990686 110.18359375 39.71875 C112.50362922 40.77418916 114.8302172 41.78191671 117.1875 42.75 C120 44 120 44 121 46 C121.09344316 48.95985156 121.12573235 51.89602676 121.11352539 54.85595703 C121.11367142 55.77308472 121.11381744 56.6902124 121.1139679 57.63513184 C121.11326948 60.67604919 121.1054804 63.7169058 121.09765625 66.7578125 C121.09579182 68.86245693 121.09436803 70.9671018 121.09336853 73.07174683 C121.08954535 78.61856275 121.07971674 84.1653526 121.06866455 89.7121582 C121.05844616 95.3692998 121.05386999 101.02644559 121.04882812 106.68359375 C121.03809431 117.78907397 121.02102026 128.89453482 121 140 C126.61 140 132.22 140 138 140 C137.9800145 138.25019585 137.9800145 138.25019585 137.95962524 136.46504211 C137.83801704 125.47376481 137.7480624 114.48262391 137.68912697 103.49082661 C137.6578088 97.83970931 137.61532601 92.1891349 137.54736328 86.53833008 C137.48218971 81.08533071 137.44629762 75.63285363 137.43073654 70.17949486 C137.41964671 68.09860193 137.39799052 66.01773772 137.36561966 63.93706703 C137.32208328 61.02292662 137.31606476 58.11094629 137.31884766 55.1965332 C137.297276 54.33554016 137.27570435 53.47454712 137.253479 52.58746338 C137.31253011 46.87562089 137.31253011 46.87562089 139.28225327 44.36681175 C142.44735089 41.64398618 145.77514125 40.09504012 149.6875 38.75 C160.27788612 34.53224077 168.59452281 27.04280761 174 17 C175.34398063 13.65549648 176.56404318 10.31520362 177.6640625 6.8828125 C179.35172957 3.24100462 180.53645393 2.07634866 184 0 C187.5883396 -0.5936963 191.13920742 -0.54635528 194.76953125 -0.51757812 C195.85462982 -0.5245874 196.93972839 -0.53159668 198.05770874 -0.53881836 C201.64289982 -0.55641687 205.22730095 -0.54476827 208.8125 -0.53125 C211.3044449 -0.53394436 213.79638878 -0.53782631 216.28833008 -0.54284668 C222.17907505 -0.54949951 228.06953355 -0.535505 233.96023655 -0.5142436 C238.6555731 -0.49922502 243.35057433 -0.50453747 248.04589844 -0.52148438 C254.52267177 -0.54465981 260.99912098 -0.54831149 267.47592163 -0.53526306 C269.94469275 -0.53259376 272.41347766 -0.53587264 274.88223267 -0.54518127 C278.33201728 -0.55533414 281.78076166 -0.53986177 285.23046875 -0.51757812 C286.25191986 -0.52567505 287.27337097 -0.53377197 288.32577515 -0.54211426 C292.74022385 -0.48925848 295.2839881 -0.4390427 299.1105957 1.90734863 C302.68357385 5.86467932 302.11612108 9.54337185 302.0625 14.625 C302.05798828 15.42679687 302.05347656 16.22859375 302.04882812 17.0546875 C302.03703168 19.03649006 302.01909605 21.01825433 302 23 C301.26394531 23.03738281 300.52789062 23.07476562 299.76953125 23.11328125 C292.39587342 23.52984473 292.39587342 23.52984473 286 27 C286 23.37 286 19.74 286 16 C254.98 16.33 223.96 16.66 192 17 C190.02 20.96 188.04 24.92 186 29 C178.1156114 39.85719086 169.19254534 48.14171996 157 54 C156.01 54 155.02 54 154 54 C154 82.38 154 110.76 154 140 C197.56 140 241.12 140 286 140 C286 105.35 286 70.7 286 35 C287.32 35.99 288.64 36.98 290 38 C295.94 38.495 295.94 38.495 302 39 C302 72.33 302 105.66 302 140 C307.28 140 312.56 140 318 140 C318 106.67 318 73.34 318 39 C322.29 38.67 326.58 38.34 331 38 C332.485 37.505 332.485 37.505 334 37 C334 70.99 334 104.98 334 140 C374.26 140 414.52 140 456 140 C456 149.57 456 159.14 456 169 C402.61368844 169.1596198 349.22740713 169.28353233 295.84090379 169.35745731 C289.5409895 169.36621246 283.24107569 169.3752727 276.94116211 169.38452148 C275.05982906 169.38727574 275.05982906 169.38727574 273.14048929 169.39008565 C252.8208521 169.42056134 232.50135327 169.47576248 212.18179821 169.54006957 C191.33869432 169.60548441 170.49566297 169.64440178 149.65246063 169.65861946 C136.78658001 169.66823384 123.9210904 169.69862123 111.05533011 169.75541527 C102.23790888 169.79236045 93.42069038 169.80361351 84.60319733 169.79450964 C79.51256693 169.79001721 74.42262071 169.79699888 69.33211136 169.83443832 C64.67263264 169.86845798 60.0142993 169.87025432 55.35476828 169.84629226 C53.66822542 169.84333007 51.98161161 169.85225058 50.29520874 169.87418228 C37.68703939 170.02863223 37.68703939 170.02863223 33.48302472 167.46533406 C31.71674287 165.73159523 30.35341332 164.06366643 29 162 C28.0394873 160.87343994 28.0394873 160.87343994 27.05957031 159.72412109 C26.57069336 159.08039551 26.08181641 158.43666992 25.578125 157.7734375 C25.02769531 157.0515625 24.47726563 156.3296875 23.91015625 155.5859375 C23.36230469 154.85632813 22.81445312 154.12671875 22.25 153.375 C21.68667969 152.63765625 21.12335937 151.9003125 20.54296875 151.140625 C17.77846293 147.49383009 15.36858634 143.94764391 13 140 C43.69 140 74.38 140 106 140 C106 111.95 106 83.9 106 55 C104.35 54.67 102.7 54.34 101 54 C84.71528107 46.48397588 72.62575662 33.56439154 66 17 C33.33 16.505 33.33 16.505 0 16 C0 10.72 0 5.44 0 0 Z " fill="#E0E7F0" transform="translate(28,253)"/>
<path d="M0 0 C20.13 0 40.26 0 61 0 C61.495 11.385 61.495 11.385 62 23 C62.495 23.99 62.495 23.99 63 25 C63.23076923 30.53846154 63.23076923 30.53846154 62 33 C61.90459888 34.49761762 61.86926514 35.99934828 61.8671875 37.5 C61.86589844 38.386875 61.86460937 39.27375 61.86328125 40.1875 C61.86908203 41.5796875 61.86908203 41.5796875 61.875 43 C61.87113281 43.928125 61.86726563 44.85625 61.86328125 45.8125 C61.86521484 47.1428125 61.86521484 47.1428125 61.8671875 48.5 C61.86887939 49.72203125 61.86887939 49.72203125 61.87060547 50.96875 C61.87198497 53.06850952 61.87198497 53.06850952 63 55 C63.23076923 60.53846154 63.23076923 60.53846154 62 63 C61.90459888 64.49761762 61.86926514 65.99934828 61.8671875 67.5 C61.86589844 68.386875 61.86460937 69.27375 61.86328125 70.1875 C61.86908203 71.5796875 61.86908203 71.5796875 61.875 73 C61.87113281 73.928125 61.86726563 74.85625 61.86328125 75.8125 C61.86521484 77.1428125 61.86521484 77.1428125 61.8671875 78.5 C61.86887939 79.72203125 61.86887939 79.72203125 61.87060547 80.96875 C61.87198497 83.06850952 61.87198497 83.06850952 63 85 C63.23076923 90.53846154 63.23076923 90.53846154 62 93 C61.90459888 94.49761762 61.86926514 95.99934828 61.8671875 97.5 C61.86589844 98.386875 61.86460937 99.27375 61.86328125 100.1875 C61.86908203 101.5796875 61.86908203 101.5796875 61.875 103 C61.87113281 103.928125 61.86726563 104.85625 61.86328125 105.8125 C61.86521484 107.1428125 61.86521484 107.1428125 61.8671875 108.5 C61.86887939 109.72203125 61.86887939 109.72203125 61.87060547 110.96875 C61.87198497 113.06850952 61.87198497 113.06850952 63 115 C63.23076923 120.53846154 63.23076923 120.53846154 62 123 C61.90459888 124.49761762 61.86926514 125.99934828 61.8671875 127.5 C61.86589844 128.386875 61.86460937 129.27375 61.86328125 130.1875 C61.86908203 131.5796875 61.86908203 131.5796875 61.875 133 C61.87113281 133.928125 61.86726563 134.85625 61.86328125 135.8125 C61.86521484 137.1428125 61.86521484 137.1428125 61.8671875 138.5 C61.86887939 139.72203125 61.86887939 139.72203125 61.87060547 140.96875 C61.87198497 143.06850952 61.87198497 143.06850952 63 145 C63.23076923 150.53846154 63.23076923 150.53846154 62 153 C61.90459888 154.49761762 61.86926514 155.99934828 61.8671875 157.5 C61.86589844 158.386875 61.86460937 159.27375 61.86328125 160.1875 C61.86908203 161.5796875 61.86908203 161.5796875 61.875 163 C61.87113281 163.928125 61.86726563 164.85625 61.86328125 165.8125 C61.86521484 167.1428125 61.86521484 167.1428125 61.8671875 168.5 C61.86887939 169.72203125 61.86887939 169.72203125 61.87060547 170.96875 C61.87198497 173.06850952 61.87198497 173.06850952 63 175 C63.23076923 180.53846154 63.23076923 180.53846154 62 183 C61.90459888 184.49761762 61.86926514 185.99934828 61.8671875 187.5 C61.86589844 188.386875 61.86460937 189.27375 61.86328125 190.1875 C61.86908203 191.5796875 61.86908203 191.5796875 61.875 193 C61.87113281 193.928125 61.86726563 194.85625 61.86328125 195.8125 C61.86521484 197.1428125 61.86521484 197.1428125 61.8671875 198.5 C61.86887939 199.72203125 61.86887939 199.72203125 61.87060547 200.96875 C61.87198497 203.06850952 61.87198497 203.06850952 63 205 C63.23076923 210.53846154 63.23076923 210.53846154 62 213 C61.90459888 214.49761762 61.86926514 215.99934828 61.8671875 217.5 C61.86589844 218.386875 61.86460937 219.27375 61.86328125 220.1875 C61.86908203 221.5796875 61.86908203 221.5796875 61.875 223 C61.87113281 223.928125 61.86726563 224.85625 61.86328125 225.8125 C61.86521484 227.1428125 61.86521484 227.1428125 61.8671875 228.5 C61.86887939 229.72203125 61.86887939 229.72203125 61.87060547 230.96875 C61.87198497 233.06850952 61.87198497 233.06850952 63 235 C63.23076923 240.53846154 63.23076923 240.53846154 62 243 C61.90459888 244.49761762 61.86926514 245.99934828 61.8671875 247.5 C61.86589844 248.386875 61.86460937 249.27375 61.86328125 250.1875 C61.86908203 251.5796875 61.86908203 251.5796875 61.875 253 C61.87113281 253.928125 61.86726563 254.85625 61.86328125 255.8125 C61.86521484 257.1428125 61.86521484 257.1428125 61.8671875 258.5 C61.86887939 259.72203125 61.86887939 259.72203125 61.87060547 260.96875 C61.87198497 263.06850952 61.87198497 263.06850952 63 265 C63.23076923 270.53846154 63.23076923 270.53846154 62 273 C61.67 280.59 61.34 288.18 61 296 C40.87 296 20.74 296 0 296 C-0.495 284.12 -0.495 284.12 -1 272 C-1.33 270.02 -1.66 268.04 -2 266 C-1.67 265.34 -1.34 264.68 -1 264 C-0.90396693 262.40331427 -0.86925413 260.80269475 -0.8671875 259.203125 C-0.86589844 258.2440625 -0.86460937 257.285 -0.86328125 256.296875 C-0.86714844 255.29140625 -0.87101562 254.2859375 -0.875 253.25 C-0.86919922 251.765 -0.86919922 251.765 -0.86328125 250.25 C-0.86981876 245.35993943 -1.14393997 240.82506562 -2 236 C-1.505 235.01 -1.505 235.01 -1 234 C-0.90396693 232.40331427 -0.86925413 230.80269475 -0.8671875 229.203125 C-0.86589844 228.2440625 -0.86460937 227.285 -0.86328125 226.296875 C-0.86714844 225.29140625 -0.87101562 224.2859375 -0.875 223.25 C-0.86919922 221.765 -0.86919922 221.765 -0.86328125 220.25 C-0.86981876 215.35993943 -1.14393997 210.82506562 -2 206 C-1.505 205.01 -1.505 205.01 -1 204 C-0.90396693 202.40331427 -0.86925413 200.80269475 -0.8671875 199.203125 C-0.86589844 198.2440625 -0.86460937 197.285 -0.86328125 196.296875 C-0.86714844 195.29140625 -0.87101562 194.2859375 -0.875 193.25 C-0.86919922 191.765 -0.86919922 191.765 -0.86328125 190.25 C-0.86981876 185.35993943 -1.14393997 180.82506562 -2 176 C-1.505 175.01 -1.505 175.01 -1 174 C-0.90396693 172.40331427 -0.86925413 170.80269475 -0.8671875 169.203125 C-0.86589844 168.2440625 -0.86460937 167.285 -0.86328125 166.296875 C-0.86714844 165.29140625 -0.87101562 164.2859375 -0.875 163.25 C-0.86919922 161.765 -0.86919922 161.765 -0.86328125 160.25 C-0.86981876 155.35993943 -1.14393997 150.82506562 -2 146 C-1.505 145.01 -1.505 145.01 -1 144 C-0.90396693 142.40331427 -0.86925413 140.80269475 -0.8671875 139.203125 C-0.86589844 138.2440625 -0.86460937 137.285 -0.86328125 136.296875 C-0.86714844 135.29140625 -0.87101562 134.2859375 -0.875 133.25 C-0.86919922 131.765 -0.86919922 131.765 -0.86328125 130.25 C-0.86981876 125.35993943 -1.14393997 120.82506562 -2 116 C-1.505 115.01 -1.505 115.01 -1 114 C-0.90396693 112.40331427 -0.86925413 110.80269475 -0.8671875 109.203125 C-0.86589844 108.2440625 -0.86460937 107.285 -0.86328125 106.296875 C-0.86714844 105.29140625 -0.87101562 104.2859375 -0.875 103.25 C-0.86919922 101.765 -0.86919922 101.765 -0.86328125 100.25 C-0.86981876 95.35993943 -1.14393997 90.82506562 -2 86 C-1.505 85.01 -1.505 85.01 -1 84 C-0.90396693 82.40331427 -0.86925413 80.80269475 -0.8671875 79.203125 C-0.86589844 78.2440625 -0.86460937 77.285 -0.86328125 76.296875 C-0.86714844 75.29140625 -0.87101562 74.2859375 -0.875 73.25 C-0.86919922 71.765 -0.86919922 71.765 -0.86328125 70.25 C-0.86981876 65.35993943 -1.14393997 60.82506562 -2 56 C-1.67 55.34 -1.34 54.68 -1 54 C-0.90396693 52.40331427 -0.86925413 50.80269475 -0.8671875 49.203125 C-0.86589844 48.2440625 -0.86460937 47.285 -0.86328125 46.296875 C-0.86714844 45.29140625 -0.87101562 44.2859375 -0.875 43.25 C-0.86919922 41.765 -0.86919922 41.765 -0.86328125 40.25 C-0.86981876 35.35993943 -1.14393997 30.82506562 -2 26 C-1.67 25.34 -1.34 24.68 -1 24 C-0.67 16.08 -0.34 8.16 0 0 Z " fill="#F2595B" transform="translate(397,97)"/>
<path d="M0 0 C138.6 0 277.2 0 420 0 C420 0.33 420 0.66 420 1 C371.82 1 323.64 1 274 1 C274 9.91 274 18.82 274 28 C292.48 28 310.96 28 330 28 C330 28.66 330 29.32 330 30 C327.72336816 31.7649259 325.44943783 33.39529887 323.0625 35 C321.97594116 35.73476563 321.97594116 35.73476563 320.86743164 36.484375 C278.82294749 64.60765456 231.9128898 79.51456874 181.3125 79.3125 C180.34000305 79.31034485 179.3675061 79.3081897 178.36553955 79.30596924 C164.36099331 79.25615559 150.74812525 78.88170311 137 76 C136.01080566 75.80664062 135.02161133 75.61328125 134.00244141 75.4140625 C82.826975 65.29916171 35.53258409 39.33093778 0 1 C0 0.67 0 0.34 0 0 Z " fill="#48486F" transform="translate(64,422)"/>
<path d="M0 0 C1.64445095 0.00107892 3.28890632 -0.00092918 4.93335056 -0.00574976 C9.44222115 -0.01006558 13.94980768 0.02930889 18.45840049 0.07590139 C23.32395264 0.11850072 28.18954205 0.12046837 33.05525208 0.12739563 C41.48202865 0.14494243 49.90835866 0.18817498 58.33493042 0.24890327 C70.51823976 0.33666827 82.70146241 0.38561869 94.88501251 0.42512649 C114.65235665 0.49027914 134.41941836 0.58677899 154.18652344 0.70298767 C173.38731799 0.81579995 192.58809443 0.91385163 211.7890625 0.99205017 C212.97279796 0.99687623 214.15653341 1.00170229 215.37613964 1.0066746 C221.3146499 1.03079468 227.25316128 1.05462456 233.19167328 1.07831013 C282.45014034 1.27515148 331.70825193 1.52338664 380.96630859 1.80381775 C380.96630859 11.37381775 380.96630859 20.94381775 380.96630859 30.80381775 C281.30630859 30.80381775 181.64630859 30.80381775 78.96630859 30.80381775 C78.96630859 59.18381775 78.96630859 87.56381775 78.96630859 116.80381775 C80.61630859 117.13381775 82.26630859 117.46381775 83.96630859 117.80381775 C98.83346733 125.47719 110.04555588 137.6389082 116.96630859 152.80381775 C116.96630859 153.46381775 116.96630859 154.12381775 116.96630859 154.80381775 C153.59630859 154.80381775 190.22630859 154.80381775 227.96630859 154.80381775 C227.96630859 145.23381775 227.96630859 135.66381775 227.96630859 125.80381775 C232.91630859 125.80381775 237.86630859 125.80381775 242.96630859 125.80381775 C242.96630859 135.37381775 242.96630859 144.94381775 242.96630859 154.80381775 C259.79630859 154.80381775 276.62630859 154.80381775 293.96630859 154.80381775 C293.96630859 160.08381775 293.96630859 165.36381775 293.96630859 170.80381775 C269.93170925 170.91951123 245.89717687 171.00876437 221.86235523 171.06287861 C210.70281819 171.0886715 199.54345723 171.12384289 188.3840332 171.18101501 C178.65863688 171.2308166 168.93336806 171.26310087 159.20784777 171.27426022 C154.05713952 171.28078445 148.90679606 171.29614094 143.75620461 171.33246803 C138.90937171 171.36637614 134.06305429 171.37688116 129.21611404 171.36935616 C127.43630994 171.37073302 125.65648881 171.38069645 123.87678719 171.39984512 C121.44752213 171.42470322 119.02020622 171.41875087 116.59089661 171.40509033 C115.53300477 171.42693664 115.53300477 171.42693664 114.45374137 171.44922429 C110.62522587 171.39098046 109.07508814 170.89275676 106.07107067 168.43664837 C103.88777734 165.70558361 102.80115884 163.46582115 101.65380859 160.17881775 C96.96586969 148.32794114 89.09858635 138.51790997 77.35693359 133.15538025 C74.94386465 132.1435387 72.52702527 131.22576589 70.06787109 130.323349 C66.40515066 128.52889276 65.10695049 127.27414389 62.96630859 123.80381775 C62.40734666 120.76342177 62.46019263 117.78279784 62.51220703 114.69908142 C62.51172489 113.77664548 62.51124275 112.85420954 62.510746 111.90382099 C62.51372505 108.92607988 62.54415428 105.94934778 62.57568359 102.9717865 C62.58156678 101.13019798 62.58564623 99.28860278 62.58789062 97.44700623 C62.60883847 90.62834121 62.66468356 83.80981951 62.71630859 76.99131775 C62.79880859 61.74944275 62.88130859 46.50756775 62.96630859 30.80381775 C27.32630859 30.80381775 -8.31369141 30.80381775 -45.03369141 30.80381775 C-38.27838914 21.79674806 -38.27838914 21.79674806 -35.44775391 18.9874115 C-34.82642578 18.36801697 -34.20509766 17.74862244 -33.56494141 17.11045837 C-32.93587891 16.49364197 -32.30681641 15.87682556 -31.65869141 15.24131775 C-31.03736328 14.62063416 -30.41603516 13.99995056 -29.77587891 13.36045837 C-27.88084429 11.48304289 -25.98370465 9.62448229 -24.03369141 7.80381775 C-23.571633 7.24193786 -23.10957458 6.68005796 -22.6335144 6.10115141 C-16.21471232 -0.83682283 -8.78548315 -0.14368282 0 0 Z " fill="#E1E8F1" transform="translate(103.03369140625,66.19618225097656)"/>
<path d="M0 0 C31.02 0 62.04 0 94 0 C94 40.92 94 81.84 94 124 C50.44 124 6.88 124 -38 124 C-38 95.62 -38 67.24 -38 38 C-34.04 36.02 -30.08 34.04 -26 32 C-13.86971028 23.15202397 -6.69528138 13.39056276 0 0 Z " fill="#4ED06F" transform="translate(220,269)"/>
<path d="M0 0 C2.07505021 0.01679736 4.15013625 0.02960321 6.22523499 0.03858948 C11.67269374 0.07286504 17.11797404 0.16119373 22.5645752 0.26092529 C28.12803681 0.35318615 33.69185237 0.39413857 39.25585938 0.43945312 C50.16241267 0.53581987 61.06735294 0.68931485 71.97265625 0.87890625 C72.01896817 12.80511708 72.05451967 24.73130657 72.07628059 36.65758896 C72.086724 42.19526085 72.10089343 47.73287129 72.12353516 53.27050781 C72.14524357 58.61322892 72.15722068 63.95589085 72.16241074 69.29865265 C72.16611008 71.33843162 72.17333384 73.3782073 72.18411636 75.41796112 C72.1986046 78.27187637 72.2006353 81.12554616 72.19970703 83.97949219 C72.20689758 84.82537903 72.21408813 85.67126587 72.22149658 86.54278564 C72.19585801 93.81286987 72.19585801 93.81286987 69.97265625 96.87890625 C68.23046875 97.93359375 68.23046875 97.93359375 66.09765625 98.75390625 C65.29585938 99.08648437 64.4940625 99.4190625 63.66796875 99.76171875 C62.77851563 100.13039063 61.8890625 100.4990625 60.97265625 100.87890625 C45.61250461 107.68300525 36.52944381 116.66379957 30.28515625 132.37890625 C29.93066406 133.35859375 29.57617188 134.33828125 29.2109375 135.34765625 C27.75913951 138.31536948 26.8295069 139.23965414 23.97265625 140.87890625 C20.68231201 141.2396698 20.68231201 141.2396698 16.72558594 141.21948242 C16.00323761 141.2199205 15.28088928 141.22035858 14.53665161 141.22080994 C12.15566721 141.21872454 9.77539222 141.19540611 7.39453125 141.171875 C5.74115382 141.16627814 4.0877714 141.16200847 2.43438721 141.15901184 C-1.91241243 141.14757011 -6.25891024 141.11810884 -10.60559082 141.0848999 C-15.0430086 141.05418446 -19.48047525 141.04050336 -23.91796875 141.02539062 C-32.62123209 140.99323838 -41.32425035 140.94205031 -50.02734375 140.87890625 C-50.23691684 128.50833871 -50.39631339 116.13820119 -50.4936533 103.76621246 C-50.54039917 98.01976819 -50.60368716 92.27454835 -50.70629883 86.52880859 C-50.80490344 80.97195101 -50.85807082 75.41626248 -50.88123894 69.8585968 C-50.89772448 67.75040813 -50.92991407 65.64227529 -50.97891426 63.53459167 C-51.29989944 49.14048805 -49.41546766 39.68491147 -41.02734375 27.87890625 C-40.07195961 26.44998802 -40.07195961 26.44998802 -39.09727478 24.99220276 C-37.59238962 22.75711028 -36.01917024 20.59649784 -34.40234375 18.44140625 C-33.8815625 17.73048828 -33.36078125 17.01957031 -32.82421875 16.28710938 C-31.80013946 14.8960263 -30.75423185 13.52063392 -29.68284607 12.16564941 C-27.97329872 9.9537569 -27.97329872 9.9537569 -26.92176819 7.52563477 C-21.40479669 -2.62908917 -10.02201543 -0.23767603 0 0 Z " fill="#44BC4D" transform="translate(78.02734375,96.12109375)"/>
<path d="M0 0 C21.78 0 43.56 0 66 0 C68.31 4.29 70.62 8.58 73 13 C81.49007764 24.58962979 92.10230689 34.36743563 106 39 C106 67.05 106 95.1 106 124 C83.07113066 124.40108809 83.07113066 124.40108809 73.28320312 124.48828125 C66.60864593 124.54802188 59.93546284 124.61862004 53.26196289 124.75439453 C47.88017829 124.86320109 42.49986706 124.92287203 37.11706734 124.94877243 C35.06558597 124.96722418 33.0141837 125.00325971 30.96333122 125.05730057 C15.02501639 125.46050732 15.02501639 125.46050732 10.35720825 122.09393311 C8.46084704 119.48918683 7.26896272 116.95498707 6 114 C5.43964554 113.24773636 4.87929108 112.49547272 4.30195618 111.72041321 C-2.42541198 102.35700327 -0.74374004 90.36337364 -0.5859375 79.39453125 C-0.57473223 77.10097875 -0.56619834 74.80741178 -0.56021118 72.51383972 C-0.53741805 66.50808323 -0.47857632 60.503212 -0.4119873 54.49780273 C-0.33950401 47.27578777 -0.31221354 40.05347505 -0.27726746 32.83119965 C-0.2192921 21.88685273 -0.10425119 10.94444417 0 0 Z " fill="#44BC4D" transform="translate(28,269)"/>
<path d="M0 0 C4.764375 -0.1546875 4.764375 -0.1546875 9.625 -0.3125 C11.1092749 -0.38078003 11.1092749 -0.38078003 12.62353516 -0.45043945 C17.05231303 -0.51982095 20.04957766 -0.47727164 23.5234375 2.45703125 C24.34070313 3.29621094 25.15796875 4.13539063 26 5 C28.67942828 6.33971414 30.74130958 6.1351496 33.74285889 6.14717102 C35.57667618 6.15790398 35.57667618 6.15790398 37.44754028 6.16885376 C38.80975316 6.17169416 40.17196632 6.17440587 41.53417969 6.17700195 C42.96314663 6.18326575 44.39211193 6.18991247 45.82107544 6.19691467 C49.70965993 6.21433334 53.59823212 6.22487902 57.48684597 6.2331202 C59.91613161 6.23826908 62.34541341 6.24434489 64.77469635 6.25063133 C72.37474337 6.26968679 79.97478066 6.28391654 87.57484698 6.2922433 C96.34879942 6.30201469 105.1224995 6.32832999 113.89636302 6.36874419 C120.67691028 6.39890514 127.45738521 6.41371219 134.23799825 6.41702431 C138.28816112 6.41937505 142.33805452 6.42833807 146.38814545 6.45348549 C150.20000497 6.47677075 154.0114177 6.48099788 157.82332993 6.47072411 C159.22052624 6.47022872 160.61774457 6.47655012 162.0148735 6.49028015 C171.88099427 6.8085666 171.88099427 6.8085666 180 2 C180.33 1.34 180.66 0.68 181 0 C200.14 0 219.28 0 239 0 C235.61337338 3.38662662 232.32753721 6.01405912 228.375 8.625 C227.39418457 9.27359985 227.39418457 9.27359985 226.39355469 9.93530273 C218.50573671 15.07092987 210.33187793 19.63002228 202 24 C200.92685547 24.57016846 200.92685547 24.57016846 199.83203125 25.15185547 C166.01520235 42.89953093 128.25347641 50.46401435 90.3125 50.3125 C89.34000305 50.31034485 88.3675061 50.3081897 87.36553955 50.30596924 C73.36658417 50.25617547 59.74020692 49.90220485 46 47 C44.98421875 46.79600586 43.9684375 46.59201172 42.921875 46.38183594 C28.12957576 43.37167315 14.13966911 39.27599594 0 34 C0 22.78 0 11.56 0 0 Z " fill="#6293E4" transform="translate(155,451)"/>
<path d="M0 0 C21.78 0 43.56 0 66 0 C68.31 4.29 70.62 8.58 73 13 C81.49007764 24.58962979 92.10230689 34.36743563 106 39 C106 67.05 106 95.1 106 124 C89.5 124 73 124 56 124 C56 83.41 56 42.82 56 1 C37.85 1 19.7 1 1 1 C1 34.66 1 68.32 1 103 C0.67 103 0.34 103 0 103 C0 69.01 0 35.02 0 0 Z " fill="#4FD06F" transform="translate(28,269)"/>
<path d="M0 0 C1.35117416 0.0001133 1.35117416 0.0001133 2.72964478 0.00022888 C3.70364227 0.00539017 4.67763977 0.01055145 5.68115234 0.01586914 C6.67714447 0.01728409 7.6731366 0.01869904 8.6993103 0.02015686 C11.88860037 0.02576603 15.0778209 0.03832009 18.26708984 0.05102539 C20.425943 0.05603921 22.58479725 0.06060232 24.74365234 0.06469727 C30.04315534 0.07573844 35.34261763 0.09248552 40.64208984 0.11352539 C40.66921309 2.9885896 40.68898836 5.86339447 40.70458984 8.73852539 C40.71296875 9.54676758 40.72134766 10.35500977 40.72998047 11.18774414 C40.748065 15.63653862 40.39277563 19.71761763 39.64208984 24.11352539 C40.13708984 25.10352539 40.13708984 25.10352539 40.64208984 26.11352539 C40.73812292 27.71021112 40.77283572 29.31083064 40.77490234 30.91040039 C40.77683594 32.34899414 40.77683594 32.34899414 40.77880859 33.81665039 C40.77494141 34.82211914 40.77107422 35.82758789 40.76708984 36.86352539 C40.77289063 38.34852539 40.77289063 38.34852539 40.77880859 39.86352539 C40.77227108 44.75358596 40.49814987 49.28845977 39.64208984 54.11352539 C39.97208984 54.77352539 40.30208984 55.43352539 40.64208984 56.11352539 C40.73812292 57.71021112 40.77283572 59.31083064 40.77490234 60.91040039 C40.77683594 62.34899414 40.77683594 62.34899414 40.77880859 63.81665039 C40.77494141 64.82211914 40.77107422 65.82758789 40.76708984 66.86352539 C40.77289063 68.34852539 40.77289063 68.34852539 40.77880859 69.86352539 C40.77227108 74.75358596 40.49814987 79.28845977 39.64208984 84.11352539 C39.97208984 84.77352539 40.30208984 85.43352539 40.64208984 86.11352539 C40.73812292 87.71021112 40.77283572 89.31083064 40.77490234 90.91040039 C40.77683594 92.34899414 40.77683594 92.34899414 40.77880859 93.81665039 C40.77494141 94.82211914 40.77107422 95.82758789 40.76708984 96.86352539 C40.77289063 98.34852539 40.77289063 98.34852539 40.77880859 99.86352539 C40.77227108 104.75358596 40.49814987 109.28845977 39.64208984 114.11352539 C39.97208984 114.77352539 40.30208984 115.43352539 40.64208984 116.11352539 C40.72680348 117.92694381 40.74930068 119.743467 40.73974609 121.55883789 C40.73724854 122.52837402 40.73475098 123.49791016 40.73217773 124.49682617 C40.72307373 125.73158691 40.71396973 126.96634766 40.70458984 128.23852539 C40.68396484 132.15727539 40.66333984 136.07602539 40.64208984 140.11352539 C29.09208984 140.11352539 17.54208984 140.11352539 5.64208984 140.11352539 C5.61949752 126.52685043 5.60115076 112.94018795 5.59027767 99.35349846 C5.58505915 93.04465919 5.57798014 86.73583344 5.56665039 80.42700195 C5.55578499 74.33863314 5.54980524 68.25027733 5.5472126 62.16189957 C5.54536495 59.83909017 5.541757 57.51628149 5.53635979 55.19347763 C5.52910095 51.94008598 5.52810096 48.68674806 5.52856445 45.43334961 C5.52496918 44.47309372 5.5213739 43.51283783 5.51766968 42.52348328 C5.52344221 38.77888428 5.60173794 35.34205516 6.25465393 31.64431763 C6.94435426 28.93907209 6.94435426 28.93907209 4.95458984 26.30102539 C0.10396876 23.09778505 -4.65411179 23.21359203 -10.35791016 23.11352539 C-10.46627686 20.38328649 -10.5453771 17.65737996 -10.60791016 14.92602539 C-10.64142578 14.15709961 -10.67494141 13.38817383 -10.70947266 12.59594727 C-10.77857054 8.57099531 -10.67546019 6.61543815 -8.46728516 3.12524414 C-5.50766071 0.30263934 -3.97489348 -0.01110305 0 0 Z " fill="#4ED16F" transform="translate(356.35791015625,252.886474609375)"/>
<path d="M0 0 C0.33 0 0.66 0 1 0 C1 75.24 1 150.48 1 228 C-21.8354229 197.55276946 -27.45168937 150.96765791 -27.375 114.125 C-27.37445618 113.13788025 -27.37391235 112.1507605 -27.37335205 111.13372803 C-27.33289301 95.11356458 -26.46519504 79.6968359 -23 64 C-22.67056396 62.50702393 -22.67056396 62.50702393 -22.33447266 60.98388672 C-17.42618572 39.50622352 -9.85534745 19.6689476 0 0 Z " fill="#3A3A60" transform="translate(27,142)"/>
<path d="M0 0 C0.97055328 0.00215515 1.94110657 0.0043103 2.94107056 0.00653076 C17.26930898 0.0575666 31.29685782 0.40491562 45.375 3.3125 C46.35807129 3.51117676 47.34114258 3.70985352 48.35400391 3.91455078 C71.63602018 8.75665885 93.1829297 16.58569048 114.375 27.3125 C114.375 27.6425 114.375 27.9725 114.375 28.3125 C39.135 28.3125 -36.105 28.3125 -113.625 28.3125 C-83.25102345 5.53201759 -36.76102486 -0.14709287 0 0 Z " fill="#6293E4" transform="translate(244.625,10.6875)"/>
<path d="M0 0 C4.95 0 9.9 0 15 0 C15.09262149 12.05654515 15.16372524 24.11300586 15.20724869 36.16983414 C15.22813628 41.76813561 15.25647564 47.36619394 15.30175781 52.96435547 C15.34517327 58.36544947 15.36912828 63.76630938 15.37950897 69.16756439 C15.38690804 71.22970007 15.40135647 73.29182274 15.42292023 75.35385895 C15.45189678 78.23911876 15.45595838 81.12340749 15.45410156 84.00878906 C15.46848267 84.86402664 15.48286377 85.71926422 15.49768066 86.60041809 C15.45731376 92.38541628 15.45731376 92.38541628 13.14959717 95.48675537 C10.51175217 97.34371017 8.00395676 98.25144543 4.9375 99.25 C-6.42740876 103.44176568 -16.54460994 110.83586522 -21.953125 121.96044922 C-23.22461197 124.80110223 -24.44638236 127.65106864 -25.56738281 130.5546875 C-27.1392615 134.53187008 -28.237113 136.90883679 -32 139 C-35.29034424 139.36076355 -35.29034424 139.36076355 -39.24707031 139.34057617 C-39.96941864 139.34101425 -40.69176697 139.34145233 -41.43600464 139.34190369 C-43.81698904 139.33981829 -46.19726403 139.31649986 -48.578125 139.29296875 C-50.23150243 139.28737189 -51.88488485 139.28310222 -53.53826904 139.28010559 C-57.88506868 139.26866386 -62.23156649 139.23920259 -66.57824707 139.20599365 C-71.01566485 139.17527821 -75.4531315 139.16159711 -79.890625 139.14648438 C-88.59390379 139.11433207 -97.29687955 139.06156975 -106 139 C-106 133.72 -106 128.44 -106 123 C-84.22 123 -62.44 123 -40 123 C-39.34 121.02 -38.68 119.04 -38 117 C-30.12182281 102.24751308 -18.31167555 90.83136294 -3 84 C-2.01 84 -1.02 84 0 84 C0 76.41 0 68.82 0 61 C-9.9 61 -19.8 61 -30 61 C-30 55.72 -30 50.44 -30 45 C-20.1 45 -10.2 45 0 45 C0 30.15 0 15.3 0 0 Z " fill="#DFE7EF" transform="translate(134,98)"/>
<path d="M0 0 C10.08851197 5.48205933 16.45012866 13.26444847 20.0703125 24.125 C20.94131591 35.90496421 19.64778145 45.65316381 12.0703125 55.125 C4.49175964 62.97976435 -4.10058089 67.22726967 -15.0546875 67.4375 C-21.52553628 67.46542168 -26.38734004 66.49962171 -31.9296875 63.125 C-33.4765625 62.25875 -33.4765625 62.25875 -35.0546875 61.375 C-42.71809299 55.37755223 -48.05437315 47.78199259 -49.9296875 38.125 C-50.58043322 29.55862596 -50.38569852 22.58262955 -45.9296875 15.125 C-45.3521875 14.09375 -44.7746875 13.0625 -44.1796875 12 C-33.49140118 -1.65725474 -16.27276172 -7.73358973 0 0 Z " fill="#DFE7EF" transform="translate(171.9296875,212.875)"/>
<path d="M0 0 C0.86222672 -0.00686325 1.72445343 -0.0137265 2.61280823 -0.02079773 C5.46144093 -0.03909157 8.30952432 -0.03522494 11.15820312 -0.02954102 C13.13830749 -0.03410123 15.11841027 -0.03940632 17.09851074 -0.04542542 C21.24786816 -0.05436134 25.39703315 -0.05192748 29.54638672 -0.04199219 C34.86640759 -0.03049571 40.1857654 -0.05072205 45.50569916 -0.07990932 C49.59434229 -0.0982448 53.68282571 -0.09798427 57.77149963 -0.0922718 C59.73312816 -0.0921183 61.69476732 -0.09818679 63.65635681 -0.11056328 C66.39763151 -0.12542324 69.13767052 -0.1148337 71.87890625 -0.09765625 C72.6904567 -0.10732422 73.50200714 -0.11699219 74.33815002 -0.12695312 C77.90623773 -0.08007882 80.02161484 0.09884146 82.94213867 2.23214722 C85.08766901 5.34431191 84.95724555 7.71603506 84.97070312 11.47045898 C84.97644348 12.48341286 84.97644348 12.48341286 84.9822998 13.51683044 C84.98501409 14.9397837 84.97768647 16.36278726 84.9609375 17.78564453 C84.93948209 19.96361248 84.96076688 22.13829518 84.98632812 24.31616211 C84.98368541 25.70093501 84.97856158 27.08570586 84.97070312 28.47045898 C84.96619141 29.72802002 84.96167969 30.98558105 84.95703125 32.28125 C84.43945312 35.40405273 84.43945312 35.40405273 82.9488678 37.07496643 C79.30761549 39.00351918 75.7928663 38.82192985 71.77124023 38.79223633 C70.46086037 38.80012177 70.46086037 38.80012177 69.12400818 38.8081665 C66.23808891 38.82136431 63.35272169 38.81262994 60.46679688 38.80249023 C58.46187738 38.80451085 56.4569586 38.80742218 54.45204163 38.81118774 C50.25140379 38.81561065 46.05095738 38.80918038 41.8503418 38.79516602 C36.46081551 38.7780632 31.07173704 38.78792256 25.68222713 38.80588341 C21.54302075 38.8167127 17.40392093 38.81327901 13.26471138 38.80550003 C11.27714548 38.80349623 9.28956997 38.80596358 7.3020153 38.81293869 C4.52717239 38.8205403 1.75305986 38.80896766 -1.02172852 38.79223633 C-1.84622498 38.79830902 -2.67072144 38.80438171 -3.52020264 38.81063843 C-9.11584932 38.74799266 -9.11584932 38.74799266 -11.26970577 37.0821476 C-13.38457181 34.3328194 -12.96875017 31.61761475 -12.99414062 28.21655273 C-12.99938248 27.51763916 -13.00462433 26.81872559 -13.01002502 26.09863281 C-13.01644134 24.62265348 -13.01511318 23.14662298 -13.0065918 21.6706543 C-12.9980753 19.41159173 -13.02685226 17.15505329 -13.05859375 14.89624023 C-13.06020574 13.46134516 -13.05962826 12.02644561 -13.05664062 10.59155273 C-13.05849365 9.28573242 -13.06034668 7.97991211 -13.06225586 6.63452148 C-12.56054688 3.40405273 -12.56054688 3.40405273 -11.06422424 1.72740173 C-7.4546433 -0.180486 -3.98578121 -0.02210902 0 0 Z " fill="#6293E3" transform="translate(212.560546875,329.595947265625)"/>
<path d="M0 0 C8.58 0 17.16 0 26 0 C26 46.2 26 92.4 26 140 C17.42 140 8.84 140 0 140 C-0.020625 136.24625 -0.04125 132.4925 -0.0625 128.625 C-0.071604 127.44244629 -0.08070801 126.25989258 -0.09008789 125.04150391 C-0.09258545 124.11257324 -0.09508301 123.18364258 -0.09765625 122.2265625 C-0.10289307 121.27346191 -0.10812988 120.32036133 -0.11352539 119.33837891 C0 117 0 117 1 115 C1.24787017 110.85496339 1.24787017 110.85496339 0 107 C-0.09540112 105.50238238 -0.13073486 104.00065172 -0.1328125 102.5 C-0.13410156 101.613125 -0.13539063 100.72625 -0.13671875 99.8125 C-0.13285156 98.884375 -0.12898438 97.95625 -0.125 97 C-0.12886719 96.071875 -0.13273437 95.14375 -0.13671875 94.1875 C-0.13542969 93.300625 -0.13414062 92.41375 -0.1328125 91.5 C-0.13168457 90.6853125 -0.13055664 89.870625 -0.12939453 89.03125 C0 87 0 87 1 85 C1.24787017 80.85496339 1.24787017 80.85496339 0 77 C-0.09540112 75.50238238 -0.13073486 74.00065172 -0.1328125 72.5 C-0.13410156 71.613125 -0.13539063 70.72625 -0.13671875 69.8125 C-0.13285156 68.884375 -0.12898438 67.95625 -0.125 67 C-0.12886719 66.071875 -0.13273437 65.14375 -0.13671875 64.1875 C-0.13542969 63.300625 -0.13414062 62.41375 -0.1328125 61.5 C-0.13168457 60.6853125 -0.13055664 59.870625 -0.12939453 59.03125 C0 57 0 57 1 55 C1.24787017 50.85496339 1.24787017 50.85496339 0 47 C-0.09540112 45.50238238 -0.13073486 44.00065172 -0.1328125 42.5 C-0.13410156 41.613125 -0.13539063 40.72625 -0.13671875 39.8125 C-0.13285156 38.884375 -0.12898438 37.95625 -0.125 37 C-0.12886719 36.071875 -0.13273437 35.14375 -0.13671875 34.1875 C-0.13542969 33.300625 -0.13414062 32.41375 -0.1328125 31.5 C-0.13168457 30.6853125 -0.13055664 29.870625 -0.12939453 29.03125 C0 27 0 27 1 25 C1.24787017 20.85496339 1.24787017 20.85496339 0 17 C-0.07199934 14.11426648 -0.0927068 11.25934885 -0.0625 8.375 C-0.041875 5.61125 -0.02125 2.8475 0 0 Z " fill="#51CF70" transform="translate(458,253)"/>
<path d="M0 0 C8.58 0 17.16 0 26 0 C26 46.2 26 92.4 26 140 C17.42 140 8.84 140 0 140 C-0.020625 137.23625 -0.04125 134.4725 -0.0625 131.625 C-0.071604 130.75568848 -0.08070801 129.88637695 -0.09008789 128.99072266 C-0.11111111 123.22222222 -0.11111111 123.22222222 1 121 C1.24787017 116.85496339 1.24787017 116.85496339 0 113 C-0.09540112 111.50238238 -0.13073486 110.00065172 -0.1328125 108.5 C-0.13410156 107.613125 -0.13539063 106.72625 -0.13671875 105.8125 C-0.13285156 104.884375 -0.12898438 103.95625 -0.125 103 C-0.12886719 102.071875 -0.13273437 101.14375 -0.13671875 100.1875 C-0.13542969 99.300625 -0.13414062 98.41375 -0.1328125 97.5 C-0.13168457 96.6853125 -0.13055664 95.870625 -0.12939453 95.03125 C0 93 0 93 1 91 C1.24787017 86.85496339 1.24787017 86.85496339 0 83 C-0.09540112 81.50238238 -0.13073486 80.00065172 -0.1328125 78.5 C-0.13410156 77.613125 -0.13539063 76.72625 -0.13671875 75.8125 C-0.13285156 74.884375 -0.12898438 73.95625 -0.125 73 C-0.12886719 72.071875 -0.13273437 71.14375 -0.13671875 70.1875 C-0.13542969 69.300625 -0.13414062 68.41375 -0.1328125 67.5 C-0.13168457 66.6853125 -0.13055664 65.870625 -0.12939453 65.03125 C0 63 0 63 1 61 C1.24787017 56.85496339 1.24787017 56.85496339 0 53 C-0.09540112 51.50238238 -0.13073486 50.00065172 -0.1328125 48.5 C-0.13410156 47.613125 -0.13539063 46.72625 -0.13671875 45.8125 C-0.13285156 44.884375 -0.12898438 43.95625 -0.125 43 C-0.12886719 42.071875 -0.13273437 41.14375 -0.13671875 40.1875 C-0.13542969 39.300625 -0.13414062 38.41375 -0.1328125 37.5 C-0.13168457 36.6853125 -0.13055664 35.870625 -0.12939453 35.03125 C0 33 0 33 1 31 C1.24787017 26.85496339 1.24787017 26.85496339 0 23 C-0.08449628 21.2595583 -0.10723024 19.51590278 -0.09765625 17.7734375 C-0.09515869 16.84450684 -0.09266113 15.91557617 -0.09008789 14.95849609 C-0.08098389 13.77594238 -0.07187988 12.59338867 -0.0625 11.375 C-0.041875 7.62125 -0.02125 3.8675 0 0 Z " fill="#51CF70" transform="translate(458,97)"/>
<path d="M0 0 C77.88 0 155.76 0 236 0 C236 0.33 236 0.66 236 1 C187.82 1 139.64 1 90 1 C90 9.91 90 18.82 90 28 C108.48 28 126.96 28 146 28 C146 28.33 146 28.66 146 29 C126.86 29 107.72 29 88 29 C87.34 30.32 86.68 31.64 86 33 C82.02678308 36.14326632 78.8265754 36.39072033 73.84228516 36.43579102 C72.79004005 36.45090477 72.79004005 36.45090477 71.71653748 36.46632385 C69.40721517 36.4947224 67.09854834 36.50067609 64.7890625 36.50390625 C63.17629736 36.51355302 61.56353484 36.52364592 59.95077515 36.53416443 C56.57324134 36.55210546 53.19593745 36.55768757 49.81835938 36.5559082 C45.50159968 36.55560345 41.18632177 36.5965562 36.8699131 36.64822483 C33.53945212 36.68166959 30.20934628 36.68766334 26.87873459 36.68607903 C25.28796659 36.68960682 23.69718818 36.70280755 22.10658646 36.72607613 C8.13386768 36.91134902 8.13386768 36.91134902 3.53271484 33.14428711 C-4.57678483 24.59699761 0 10.23876082 0 0 Z " fill="#6E6E92" transform="translate(248,422)"/>
<path d="M0 0 C1.20184937 -0.00336868 2.40369873 -0.00673737 3.64196777 -0.01020813 C6.1804635 -0.00990941 8.71899524 0.00532709 11.25732422 0.03442383 C15.14272152 0.07408067 19.02470324 0.05513428 22.91015625 0.02929688 C25.37761741 0.03685625 27.84507099 0.04780997 30.3125 0.0625 C31.47406616 0.0555159 32.63563232 0.0485318 33.83239746 0.04133606 C42.79298518 0.19820874 42.79298518 0.19820874 45.90429688 3.10620117 C48.00705201 6.29344582 48.15605154 8.01320721 47.65625 11.76171875 C47.32625 12.42171875 46.99625 13.08171875 46.65625 13.76171875 C46.56084888 15.25933637 46.52551514 16.76106703 46.5234375 18.26171875 C46.52214844 19.14859375 46.52085937 20.03546875 46.51953125 20.94921875 C46.52533203 22.34140625 46.52533203 22.34140625 46.53125 23.76171875 C46.52738281 24.68984375 46.52351563 25.61796875 46.51953125 26.57421875 C46.52146484 27.90453125 46.52146484 27.90453125 46.5234375 29.26171875 C46.52512939 30.48375 46.52512939 30.48375 46.52685547 31.73046875 C46.52823497 33.83022827 46.52823497 33.83022827 47.65625 35.76171875 C47.88701923 41.30018029 47.88701923 41.30018029 46.65625 43.76171875 C46.50557786 45.20824295 46.40763964 46.66051215 46.33984375 48.11328125 C46.27700195 49.38945312 46.27700195 49.38945312 46.21289062 50.69140625 C46.17357422 51.58085937 46.13425781 52.4703125 46.09375 53.38671875 C46.02897461 54.7325 46.02897461 54.7325 45.96289062 56.10546875 C45.85668139 58.32406158 45.75463806 60.54276755 45.65625 62.76171875 C44.66625 62.43171875 43.67625 62.10171875 42.65625 61.76171875 C40.59731379 61.53846061 38.53391347 61.35466116 36.46875 61.19921875 C34.550625 61.05484375 32.6325 60.91046875 30.65625 60.76171875 C30.65625 56.14171875 30.65625 51.52171875 30.65625 46.76171875 C20.75625 46.76171875 10.85625 46.76171875 0.65625 46.76171875 C0.65625 51.38171875 0.65625 56.00171875 0.65625 60.76171875 C-3.8359375 61.0546875 -3.8359375 61.0546875 -8.328125 61.34765625 C-11.18884912 61.74044998 -12.84532738 62.41822734 -15.34375 63.76171875 C-15.36880615 63.1569873 -15.3938623 62.55225586 -15.41967773 61.92919922 C-15.53638006 59.16486255 -15.65876734 56.40080509 -15.78125 53.63671875 C-15.82056641 52.68539062 -15.85988281 51.7340625 -15.90039062 50.75390625 C-16.07701944 46.84089872 -16.29115018 43.07456736 -16.94140625 39.20703125 C-17.34375 36.76171875 -17.34375 36.76171875 -16.34375 34.76171875 C-16.24771693 33.16503302 -16.21300413 31.5644135 -16.2109375 29.96484375 C-16.20964844 29.00578125 -16.20835937 28.04671875 -16.20703125 27.05859375 C-16.21089844 26.053125 -16.21476562 25.04765625 -16.21875 24.01171875 C-16.21294922 22.52671875 -16.21294922 22.52671875 -16.20703125 21.01171875 C-16.20243247 15.17175754 -16.20243247 15.17175754 -17.1640625 9.43359375 C-17.34375 6.76171875 -17.34375 6.76171875 -15.62646484 3.64233398 C-11.53318154 -0.99118684 -5.73845233 -0.07549941 0 0 Z " fill="#F3595B" transform="translate(412.34375,176.23828125)"/>
<path d="M0 0 C60.72 0 121.44 0 184 0 C184.33 8.91 184.66 17.82 185 27 C187.28510345 30.80850575 188.87595585 33.09140717 192 36 C182.58567289 36.09278723 173.17150382 36.16380901 163.75681877 36.20724869 C159.38491509 36.22810038 155.01332486 36.25637342 150.64160156 36.30175781 C146.42055313 36.34530247 142.19980571 36.3691553 137.97854996 36.37950897 C136.37021269 36.38688494 134.76189141 36.40128867 133.15368271 36.42292023 C130.89620453 36.45207012 128.63996111 36.45595137 126.38232422 36.45410156 C124.45705399 36.46742523 124.45705399 36.46742523 122.4928894 36.48101807 C117.50941105 35.79472576 114.50027981 33.50027981 111 30 C108.87139338 29.63047951 108.87139338 29.63047951 106.4296875 29.5859375 C105.53378906 29.54726563 104.63789063 29.50859375 103.71484375 29.46875 C102.77769531 29.4378125 101.84054688 29.406875 100.875 29.375 C99.93011719 29.33632813 98.98523438 29.29765625 98.01171875 29.2578125 C95.67467625 29.16338654 93.33764499 29.07781606 91 29 C91 28.67 91 28.34 91 28 C97.27 28 103.54 28 110 28 C110 19.09 110 10.18 110 1 C73.7 1 37.4 1 0 1 C0 0.67 0 0.34 0 0 Z " fill="#5F5F86" transform="translate(64,422)"/>
<path d="M0 0 C21.78 0 43.56 0 66 0 C66 30.36 66 60.72 66 92 C65.67 92 65.34 92 65 92 C65 61.97 65 31.94 65 1 C60.05 1 55.1 1 50 1 C50 15.85 50 30.7 50 46 C45.17375 46.165 40.3475 46.33 35.375 46.5 C33.86341309 46.57283203 32.35182617 46.64566406 30.79443359 46.72070312 C21.10846071 46.88155228 21.10846071 46.88155228 17.82104492 44.26708984 C16.25390625 42.1171875 16.25390625 42.1171875 15.10766602 39.96435547 C12.09545467 34.62244397 5.47171809 33.56334803 0 32 C0 21.44 0 10.88 0 0 Z " fill="#54CE74" transform="translate(84,97)"/>
<path d="M0 0 C10.23 0 20.46 0 31 0 C31 7.59 31 15.18 31 23 C27.844375 24.485 27.844375 24.485 24.625 26 C8.35426553 33.97926355 -1.06700886 46.13401773 -9 62 C-12.3 62 -15.6 62 -19 62 C-19 45.83 -19 29.66 -19 13 C-14.05 11.515 -14.05 11.515 -9 10 C-6.33119966 8.41648866 -6.33119966 8.41648866 -4.4375 6.5 C-3.47650391 5.61828125 -3.47650391 5.61828125 -2.49609375 4.71875 C-0.77405934 2.96275456 -0.77405934 2.96275456 0 0 Z " fill="#4ED06F" transform="translate(103,159)"/>
<path d="M0 0 C9.9 0 19.8 0 30 0 C30 4.62 30 9.24 30 14 C31.876875 13.896875 33.75375 13.79375 35.6875 13.6875 C39.99425128 13.69258471 41.56986798 13.71875983 45.25 16.125 C47.33592417 19.55187542 47.81938858 21.0669348 47 25 C45.25 27.875 45.25 27.875 42 30 C37.90373835 30.42081232 34.13768332 30.22734524 30 30 C30 34.62 30 39.24 30 44 C20.1 44 10.2 44 0 44 C0 39.38 0 34.76 0 30 C-3.0628125 30.185625 -3.0628125 30.185625 -6.1875 30.375 C-12.32942708 30.375 -12.32942708 30.375 -15.01171875 28.875 C-17.32882053 26.32552411 -17.98898723 24.27531937 -18.125 20.875 C-16.61799618 17.02376801 -15.72624986 15.89965679 -12 14 C-7.936794 13.67198077 -4.08969407 13.82023323 0 14 C0 9.38 0 4.76 0 0 Z " fill="#F4585B" transform="translate(413,223)"/>
<path d="M0 0 C0.86865189 -0.00043808 1.73730377 -0.00087616 2.63227844 -0.00132751 C5.50019902 0.0007606 8.36753324 0.02409279 11.23535156 0.04760742 C13.22503337 0.05320329 15.21471932 0.05747343 17.20440674 0.06047058 C22.4389387 0.07192004 27.67322059 0.10138821 32.90765381 0.13458252 C38.2499249 0.16528115 43.59223643 0.17897548 48.93457031 0.1940918 C59.41514888 0.22625771 69.89554192 0.27745539 80.37597656 0.34057617 C80.37597656 0.67057617 80.37597656 1.00057617 80.37597656 1.34057617 C79.78937759 1.35088364 79.20277863 1.3611911 78.59840393 1.37181091 C72.51559786 1.47964811 66.43294682 1.59426373 60.3503418 1.71289062 C58.0775882 1.75631282 55.80480044 1.79798233 53.53198242 1.83789062 C50.27284424 1.89541736 47.01387925 1.95916169 43.75488281 2.02416992 C42.73197647 2.04088242 41.70907013 2.05759491 40.65516663 2.07481384 C39.71426682 2.09475906 38.773367 2.11470428 37.80395508 2.13525391 C36.97122574 2.15079819 36.1384964 2.16634247 35.28053284 2.18235779 C33.36631072 2.13486231 33.36631072 2.13486231 32.37597656 3.34057617 C32.15716131 7.86471943 32.19018591 12.39419383 32.19067383 16.9230957 C32.18849229 19.19916614 32.17035427 21.47474817 32.15136719 23.75073242 C32.14843233 25.19474118 32.14644815 26.63875224 32.14550781 28.08276367 C32.14139893 29.40131348 32.13729004 30.71986328 32.13305664 32.07836914 C32.11817469 35.48620298 32.11817469 35.48620298 34.37597656 38.34057617 C28.16465882 38.41466064 21.95359751 38.46914731 15.74194336 38.50537109 C13.62829103 38.52046977 11.51467008 38.54095043 9.40112305 38.56689453 C6.36531841 38.60323014 3.3299275 38.62029161 0.29394531 38.63354492 C-1.12649834 38.65677071 -1.12649834 38.65677071 -2.57563782 38.6804657 C-3.89666756 38.68080559 -3.89666756 38.68080559 -5.24438477 38.68115234 C-6.0193782 38.68781418 -6.79437164 38.69447601 -7.59284973 38.70133972 C-10.18995942 38.24005839 -11.06202067 37.43812003 -12.62402344 35.34057617 C-13.02807617 32.11010742 -13.02807617 32.11010742 -13.05761719 28.15307617 C-13.06285904 27.4541626 -13.06810089 26.75524902 -13.07350159 26.03515625 C-13.0799179 24.55917691 -13.07858975 23.08314642 -13.07006836 21.60717773 C-13.06155186 19.34811517 -13.09032882 17.09157673 -13.12207031 14.83276367 C-13.12368231 13.3978686 -13.12310482 11.96296904 -13.12011719 10.52807617 C-13.12197021 9.22225586 -13.12382324 7.91643555 -13.12573242 6.57104492 C-12.62402344 3.34057617 -12.62402344 3.34057617 -11.13166809 1.65995789 C-7.49750354 -0.2521353 -4.00660009 -0.05284014 0 0 Z " fill="#5D81D2" transform="translate(212.6240234375,329.659423828125)"/>
<path d="M0 0 C1.06483109 -0.01606293 2.12966217 -0.03212585 3.22676086 -0.04867554 C8.09875913 -0.09306084 12.97062037 -0.13418743 17.84277344 -0.15722656 C20.41415451 -0.17379411 22.98548939 -0.2010942 25.55664062 -0.23925781 C29.25960235 -0.29395444 32.96148392 -0.31589049 36.66479492 -0.33056641 C37.81389847 -0.35323578 38.96300201 -0.37590515 40.14692688 -0.39926147 C48.10216969 -0.37815657 48.10216969 -0.37815657 52.13623047 2.52636719 C54.24340859 5.7206211 54.39613257 7.43635433 53.89526367 11.19287109 C53.56526367 11.85287109 53.23526367 12.51287109 52.89526367 13.19287109 C52.74459153 14.63939529 52.64665331 16.09166449 52.57885742 17.54443359 C52.51601563 18.82060547 52.51601563 18.82060547 52.4519043 20.12255859 C52.41258789 21.01201172 52.37327148 21.90146484 52.33276367 22.81787109 C52.26798828 24.16365234 52.26798828 24.16365234 52.2019043 25.53662109 C52.09569507 27.75521392 51.99365173 29.97391989 51.89526367 32.19287109 C50.90526367 31.86287109 49.91526367 31.53287109 48.89526367 31.19287109 C46.83632747 30.96961295 44.77292714 30.78581351 42.70776367 30.63037109 C40.78963867 30.48599609 38.87151367 30.34162109 36.89526367 30.19287109 C36.89526367 25.57287109 36.89526367 20.95287109 36.89526367 16.19287109 C26.99526367 16.19287109 17.09526367 16.19287109 6.89526367 16.19287109 C6.89526367 20.81287109 6.89526367 25.43287109 6.89526367 30.19287109 C2.40307617 30.48583984 2.40307617 30.48583984 -2.08911133 30.77880859 C-4.94983545 31.17160232 -6.60631371 31.84937969 -9.10473633 33.19287109 C-9.12979248 32.58813965 -9.15484863 31.9834082 -9.18066406 31.36035156 C-9.29736639 28.59601489 -9.41975367 25.83195744 -9.54223633 23.06787109 C-9.58155273 22.11654297 -9.62086914 21.16521484 -9.66137695 20.18505859 C-9.837941 16.27348579 -10.03951683 12.54529212 -10.75317383 8.68896484 C-11.10473633 6.19287109 -11.10473633 6.19287109 -9.29223633 3.38037109 C-6.10087345 0.18900822 -4.39692111 0.06016951 0 0 Z " fill="#F3595B" transform="translate(406.104736328125,206.80712890625)"/>
<path d="M0 0 C1.06483109 -0.01606293 2.12966217 -0.03212585 3.22676086 -0.04867554 C8.09875913 -0.09306084 12.97062037 -0.13418743 17.84277344 -0.15722656 C20.41415451 -0.17379411 22.98548939 -0.2010942 25.55664062 -0.23925781 C29.25960235 -0.29395444 32.96148392 -0.31589049 36.66479492 -0.33056641 C37.81389847 -0.35323578 38.96300201 -0.37590515 40.14692688 -0.39926147 C48.1099656 -0.37813589 48.1099656 -0.37813589 52.12060547 2.53808594 C53.89526367 5.19287109 53.89526367 5.19287109 54.52026367 8.19287109 C53.89526367 11.19287109 53.89526367 11.19287109 52.14526367 14.06787109 C47.11106351 17.35946351 42.83166339 16.5190469 36.89526367 16.19287109 C36.89526367 21.14287109 36.89526367 26.09287109 36.89526367 31.19287109 C26.99526367 31.19287109 17.09526367 31.19287109 6.89526367 31.19287109 C6.89526367 26.24287109 6.89526367 21.29287109 6.89526367 16.19287109 C4.07995117 16.31662109 4.07995117 16.31662109 1.20776367 16.44287109 C-2.73089345 16.43358181 -4.7441159 16.3767168 -8.29223633 14.56787109 C-10.5526073 11.60600569 -11.18095806 9.92773582 -11.10473633 6.19287109 C-7.86687728 1.16860705 -5.79607674 0.07931621 0 0 Z " fill="#F4595A" transform="translate(406.104736328125,296.80712890625)"/>
<path d="M0 0 C5.13012147 3.18689364 9.31934507 7.15116718 11.3203125 12.94140625 C12.24870301 19.71054482 12.01837422 26.04762039 8.3203125 31.94140625 C2.99970681 37.67309627 -1.60436278 40.4659517 -9.4296875 41.37890625 C-14.83388256 41.1925547 -19.34278027 39.08367293 -23.6796875 35.94140625 C-28.72741818 30.21044738 -31.10610409 24.77331912 -30.94921875 17.0859375 C-30.06470378 10.04827489 -25.81167205 5.69561204 -20.58203125 1.2890625 C-15.03422221 -2.64111023 -6.12927326 -2.42133098 0 0 Z " fill="#F4A222" transform="translate(93.6796875,131.05859375)"/>
<path d="M0 0 C5.93666585 2.71390439 10.16760393 7.21446757 12.61328125 13.3125 C13.27654532 19.97959599 13.68632167 26.69451321 9.61328125 32.3125 C4.34894514 38.26951191 -0.32196416 40.97377045 -8.13671875 41.625 C-13.91284269 41.50711992 -18.16143317 39.36728236 -22.375 35.4765625 C-26.87524268 30.61294619 -29.00913483 26.64782465 -29.76171875 20 C-29.0954523 13.44837996 -26.87145264 8.27014171 -21.88671875 3.875 C-15.34969007 -1.33976606 -8.11646016 -2.33796561 0 0 Z " fill="#F4A322" transform="translate(346.38671875,151.6875)"/>
<path d="M0 0 C4.40740807 2.62626996 7.62819633 5.75985737 9.6875 10.5 C10.74512041 16.59463273 10.74386713 22.49228039 7.6875 28 C3.96341134 32.89629484 -0.08481852 36.01498935 -6.25 36.94140625 C-12.80656607 37.19547319 -17.09926704 36.51853374 -22.3125 32.5 C-27.59230316 26.93480207 -28.78607182 21.70858985 -28.625 14.21875 C-27.99643777 8.75025862 -25.34868515 5.22284832 -21.25 1.625 C-15.18885325 -2.75965935 -6.8421803 -2.9984072 0 0 Z " fill="#4FD170" transform="translate(166.3125,227.5)"/>
<path d="M0 0 C14.19 0 28.38 0 43 0 C43 9.57 43 19.14 43 29 C39.844375 29.144375 36.68875 29.28875 33.4375 29.4375 C31.9668811 29.53309204 31.9668811 29.53309204 30.46655273 29.63061523 C26.87425079 29.70965098 24.09312051 29.71110877 21.02294922 27.71386719 C19.1666711 25.9118662 17.58515762 24.04415143 16 22 C15.43659912 21.31059326 14.87319824 20.62118652 14.29272461 19.91088867 C12.56892918 17.76197383 10.90411122 15.57788694 9.25 13.375 C8.40501953 12.26898438 8.40501953 12.26898438 7.54296875 11.140625 C4.77846293 7.49383009 2.36858634 3.94764391 0 0 Z " fill="#C7D6E5" transform="translate(41,393)"/>
<path d="M0 0 C1.35117416 0.0001133 1.35117416 0.0001133 2.72964478 0.00022888 C3.70364227 0.00539017 4.67763977 0.01055145 5.68115234 0.01586914 C6.67714447 0.01728409 7.6731366 0.01869904 8.6993103 0.02015686 C11.88860037 0.02576603 15.0778209 0.03832009 18.26708984 0.05102539 C20.425943 0.05603921 22.58479725 0.06060232 24.74365234 0.06469727 C30.04315841 0.07573844 35.34261233 0.09300925 40.64208984 0.11352539 C40.64208984 5.39352539 40.64208984 10.67352539 40.64208984 16.11352539 C29.09208984 16.11352539 17.54208984 16.11352539 5.64208984 16.11352539 C5.64208984 19.41352539 5.64208984 22.71352539 5.64208984 26.11352539 C4.32208984 25.45352539 3.00208984 24.79352539 1.64208984 24.11352539 C-0.43217266 23.82871733 -2.51862454 23.62478315 -4.60791016 23.48852539 C-5.68556641 23.41375977 -6.76322266 23.33899414 -7.87353516 23.26196289 C-9.10330078 23.18848633 -9.10330078 23.18848633 -10.35791016 23.11352539 C-10.46627686 20.38328649 -10.5453771 17.65737996 -10.60791016 14.92602539 C-10.64142578 14.15709961 -10.67494141 13.38817383 -10.70947266 12.59594727 C-10.77857054 8.57099531 -10.67546019 6.61543815 -8.46728516 3.12524414 C-5.50766071 0.30263934 -3.97489348 -0.01110305 0 0 Z " fill="#DEE4EE" transform="translate(356.35791015625,252.886474609375)"/>
<path d="M0 0 C0.85095749 -0.00807175 1.70191498 -0.01614349 2.57865906 -0.02445984 C4.38176434 -0.03830169 6.18489584 -0.0490234 7.98803711 -0.05688477 C10.74057942 -0.07408664 13.49191713 -0.11796924 16.24414062 -0.16210938 C17.99608492 -0.17223738 19.74803942 -0.18075315 21.5 -0.1875 C22.32099686 -0.20500809 23.14199371 -0.22251617 23.98786926 -0.24055481 C27.96784627 -0.22551082 29.97796607 -0.05153435 33.44604492 2.08129883 C36.01989943 4.85278019 36.44921875 6.47159184 36.44921875 10.23828125 C34.31878397 14.80349864 34.31878397 14.80349864 31.44921875 16.23828125 C28.43379228 16.37418727 25.44264374 16.45106304 22.42578125 16.4765625 C21.07919937 16.48867012 21.07919937 16.48867012 19.70541382 16.50102234 C17.8039544 16.51486416 15.90247011 16.52558588 14.00097656 16.53344727 C11.09262091 16.55067226 8.18539843 16.59455816 5.27734375 16.63867188 C3.43099795 16.6487977 1.58464248 16.65731415 -0.26171875 16.6640625 C-1.13162445 16.68157059 -2.00153015 16.69907867 -2.89779663 16.71711731 C-8.92615887 16.69545348 -8.92615887 16.69545348 -12.06884766 14.39526367 C-14.02425504 11.54913117 -14.55078125 9.69835447 -14.55078125 6.23828125 C-10.49447154 -0.05599244 -7.03375059 0.06282161 0 0 Z " fill="#E24651" transform="translate(327.55078125,275.76171875)"/>
<path d="M0 0 C13.86 0 27.72 0 42 0 C40.85220126 11.47798742 40.85220126 11.47798742 37 15 C31.97771425 18.10232352 26.34527191 17.40818198 20.625 17.4375 C18.93890625 17.48680664 18.93890625 17.48680664 17.21875 17.53710938 C7.96690379 17.59725731 7.96690379 17.59725731 4.296875 14.5859375 C-0.51767087 9.16547939 0 8.12055139 0 0 Z " fill="#5D80D3" transform="translate(407,451)"/>
<path d="M0 0 C14.19 0 28.38 0 43 0 C43 8.58 43 17.16 43 26 C37.70315596 24.23438532 33.4362865 22.25555117 28.625 19.5625 C27.45602173 18.91075806 27.45602173 18.91075806 26.26342773 18.24584961 C17.139676 13.06850085 7.44584887 7.44584887 0 0 Z " fill="#6293E4" transform="translate(96,451)"/>
<path d="M0 0 C15.18 0 30.36 0 46 0 C46 6.6 46 13.2 46 20 C36.1 20 26.2 20 16 20 C16 13.73 16 7.46 16 1 C10.72 1 5.44 1 0 1 C0 0.67 0 0.34 0 0 Z " fill="#F5B644" transform="translate(397,97)"/>
<path d="M0 0 C9.9 0 19.8 0 30 0 C30 6.6 30 13.2 30 20 C20.1 20 10.2 20 0 20 C0 13.4 0 6.8 0 0 Z " fill="#F7B841" transform="translate(413,373)"/>
<path d="M0 0 C5.88591182 -0.751393 9.14998311 0.68075682 13.91015625 4.1796875 C18.17631114 7.89562802 20.6612001 11.26076675 21.3671875 16.96875 C21.48617235 22.30984776 21.20010907 27.0497546 19 32 C11.30100066 30.96633805 5.52311084 28.44606664 0.61328125 22.25 C-2.73335091 16.61356689 -2.78486171 10.38840923 -2 4 C-0.9765625 1.640625 -0.9765625 1.640625 0 0 Z " fill="#F8B941" transform="translate(84,130)"/>
<path d="M0 0 C6.07936783 0.27019413 10.17774296 0.96276154 15 5 C19.5700887 10.07787634 21.28174222 13.57324451 21.25 20.4375 C21.25515625 21.54996094 21.2603125 22.66242188 21.265625 23.80859375 C21.00441051 26.947009 20.33378454 29.16835425 19 32 C10.94957778 30.77691998 5.67194213 28.44539907 0.625 21.9375 C-1.72211805 17.69463275 -2.15434388 14.32753164 -2.1875 9.5 C-2.20167969 8.5615625 -2.21585937 7.623125 -2.23046875 6.65625 C-1.99479903 3.94005663 -1.38484654 2.32084954 0 0 Z " fill="#F8B840" transform="translate(338,151)"/>
<path d="M0 0 C6.1340303 -0.02500545 12.26802992 -0.04300229 18.40209961 -0.05493164 C20.482183 -0.05991291 22.56226298 -0.06670035 24.64233398 -0.07543945 C27.65870005 -0.08778078 30.67501925 -0.09329042 33.69140625 -0.09765625 C34.59830704 -0.10281754 35.50520782 -0.10797882 36.43959045 -0.11329651 C44.36984305 -0.11396219 52.02626077 0.46841738 60 1 C60 11.89 60 22.78 60 34 C55 33 55 33 44 28 C44 19.09 44 10.18 44 1 C29.48 1 14.96 1 0 1 C0 0.67 0 0.34 0 0 Z " fill="#5B5E87" transform="translate(95,450)"/>
<path d="M0 0 C9.9 0 19.8 0 30 0 C30 4.62 30 9.24 30 14 C20.1 14 10.2 14 0 14 C0 9.38 0 4.76 0 0 Z " fill="#F59F22" transform="translate(413,253)"/>
<path d="M0 0 C9.9 0 19.8 0 30 0 C30 4.62 30 9.24 30 14 C20.1 14 10.2 14 0 14 C0 9.38 0 4.76 0 0 Z " fill="#F59F22" transform="translate(413,223)"/>
<path d="M0 0 C9.9 0 19.8 0 30 0 C30 4.62 30 9.24 30 14 C20.1 14 10.2 14 0 14 C0 9.38 0 4.76 0 0 Z " fill="#F59F22" transform="translate(413,193)"/>
<path d="M0 0 C9.9 0 19.8 0 30 0 C30 4.62 30 9.24 30 14 C20.1 14 10.2 14 0 14 C0 9.38 0 4.76 0 0 Z " fill="#F59F22" transform="translate(413,163)"/>
<path d="M0 0 C8.58 0 17.16 0 26 0 C26 5.28 26 10.56 26 16 C17.42 16 8.84 16 0 16 C0 10.72 0 5.44 0 0 Z " fill="#DDE2EB" transform="translate(458,253)"/>
<path d="M0 0 C8.58 0 17.16 0 26 0 C26 5.28 26 10.56 26 16 C17.42 16 8.84 16 0 16 C0 10.72 0 5.44 0 0 Z " fill="#DDE3EC" transform="translate(458,221)"/>
<path d="M0 0 C9.57 0 19.14 0 29 0 C29 4.62 29 9.24 29 14 C19.43 14 9.86 14 0 14 C0 9.38 0 4.76 0 0 Z " fill="#F9B840" transform="translate(413,343)"/>
<path d="M0 0 C9.57 0 19.14 0 29 0 C29 4.62 29 9.24 29 14 C19.43 14 9.86 14 0 14 C0 9.38 0 4.76 0 0 Z " fill="#F9B840" transform="translate(413,313)"/>
<path d="M0 0 C9.57 0 19.14 0 29 0 C29 4.62 29 9.24 29 14 C19.43 14 9.86 14 0 14 C0 9.38 0 4.76 0 0 Z " fill="#F9B840" transform="translate(413,283)"/>
<path d="M0 0 C9.57 0 19.14 0 29 0 C29 4.62 29 9.24 29 14 C19.43 14 9.86 14 0 14 C0 9.38 0 4.76 0 0 Z " fill="#F9B840" transform="translate(413,133)"/>
<path d="M0 0 C0 8.25 0 16.5 0 25 C-8.58 25 -17.16 25 -26 25 C-19.24447174 15.99262899 -19.24447174 15.99262899 -16.23828125 13.0078125 C-15.59439453 12.36585937 -14.95050781 11.72390625 -14.28710938 11.0625 C-13.63548828 10.423125 -12.98386719 9.78375 -12.3125 9.125 C-11.64927734 8.46242188 -10.98605469 7.79984375 -10.30273438 7.1171875 C-3.12045065 0 -3.12045065 0 0 0 Z " fill="#C8D6E5" transform="translate(84,72)"/>
<path d="M0 0 C3.76302216 1.91840345 4.65124289 2.97552598 6 6.9375 C6 10.57241294 5.19961414 12.14864833 3 15 C0.18792765 16.40603618 -2.24009466 16.24557505 -5.375 16.3125 C-6.51710938 16.34988281 -7.65921875 16.38726562 -8.8359375 16.42578125 C-12.62889261 15.91537124 -13.7076083 14.99690924 -16 12 C-17.0625 9.125 -17.0625 9.125 -17 6 C-13.30731625 -1.38536751 -7.66269131 -1.22942212 0 0 Z " fill="#F35B5F" transform="translate(358,276)"/>
<path d="M0 0 C0 7.26 0 14.52 0 22 C-4.95 22 -9.9 22 -15 22 C-15 15.4 -15 8.8 -15 2 C-11.94010417 1.77213542 -8.88020833 1.54427083 -5.8203125 1.31640625 C-3.74256403 1.08330704 -1.94647858 0 0 0 Z " fill="#E24650" transform="translate(458,371)"/>
<path d="M0 0 C4.95 0 9.9 0 15 0 C15 7.26 15 14.52 15 22 C14.01 21.67 13.02 21.34 12 21 C9.94106379 20.77674186 7.87766347 20.59294241 5.8125 20.4375 C3.894375 20.293125 1.97625 20.14875 0 20 C0 13.4 0 6.8 0 0 Z " fill="#E24650" transform="translate(443,97)"/>
<path d="M0 0 C4.95 0 9.9 0 15 0 C15 6.6 15 13.2 15 20 C10.05 20 5.1 20 0 20 C0 13.4 0 6.8 0 0 Z " fill="#F4A023" transform="translate(428,97)"/>
<path d="M0 0 C4.95 0 9.9 0 15 0 C15 6.27 15 12.54 15 19 C11.97265625 19.22786458 8.9453125 19.45572917 5.91796875 19.68359375 C2.94010095 19.90212461 2.94010095 19.90212461 0 21 C0 14.07 0 7.14 0 0 Z " fill="#E3444F" transform="translate(398,98)"/>
<path d="M0 0 C0.99 0.495 0.99 0.495 2 1 C4.204364 1.22950319 6.41392173 1.41075933 8.625 1.5625 C10.72875 1.706875 12.8325 1.85125 15 2 C15 8.27 15 14.54 15 21 C10.05 21 5.1 21 0 21 C0 14.07 0 7.14 0 0 Z " fill="#E3444F" transform="translate(398,371)"/>
<path d="M0 0 C6.93 0 13.86 0 21 0 C19.85220126 11.47798742 19.85220126 11.47798742 16 15 C13.65520143 16.6640506 12.49904141 17.01313267 9.625 16.9375 C5.92045022 15.61444651 3.85328788 13.72359298 1 11 C0 8 0 8 0 0 Z " fill="#6392E4" transform="translate(428,451)"/>
<path d="M0 0 C4.95 0 9.9 0 15 0 C15 6.27 15 12.54 15 19 C10.05 19 5.1 19 0 19 C0 12.73 0 6.46 0 0 Z " fill="#F59F22" transform="translate(428,373)"/>
<path d="M0 0 C1.485 0.99 1.485 0.99 3 2 C6.19806665 2.4603764 6.19806665 2.4603764 9.6875 2.625 C12.8121875 2.810625 12.8121875 2.810625 16 3 C16 7.62 16 12.24 16 17 C12.97265625 17.22786458 9.9453125 17.45572917 6.91796875 17.68359375 C3.94010095 17.90212461 3.94010095 17.90212461 1 19 C0.67 12.73 0.34 6.46 0 0 Z " fill="#E24450" transform="translate(397,250)"/>
<path d="M0 0 C0.66 0.33 1.32 0.66 2 1 C4.204364 1.22950319 6.41392173 1.41075933 8.625 1.5625 C10.72875 1.706875 12.8325 1.85125 15 2 C15 6.62 15 11.24 15 16 C10.5078125 16.29296875 10.5078125 16.29296875 6.015625 16.5859375 C2.71533287 16.87451003 2.71533287 16.87451003 -1 19 C-0.67 12.73 -0.34 6.46 0 0 Z " fill="#E24450" transform="translate(398,221)"/>
<path d="M0 0 C0 5.94 0 11.88 0 18 C-0.99 17.67 -1.98 17.34 -3 17 C-5.05893621 16.77674186 -7.12233653 16.59294241 -9.1875 16.4375 C-11.105625 16.293125 -13.02375 16.14875 -15 16 C-15 11.38 -15 6.76 -15 2 C-11.94010417 1.77213542 -8.88020833 1.54427083 -5.8203125 1.31640625 C-3.74256403 1.08330704 -1.94647858 0 0 0 Z " fill="#E34450" transform="translate(458,341)"/>
<path d="M0 0 C0 5.94 0 11.88 0 18 C-0.99 17.67 -1.98 17.34 -3 17 C-5.05893621 16.77674186 -7.12233653 16.59294241 -9.1875 16.4375 C-11.105625 16.293125 -13.02375 16.14875 -15 16 C-15 11.38 -15 6.76 -15 2 C-11.94010417 1.77213542 -8.88020833 1.54427083 -5.8203125 1.31640625 C-3.74256403 1.08330704 -1.94647858 0 0 0 Z " fill="#E34450" transform="translate(458,311)"/>
<path d="M0 0 C7.425 0.99 7.425 0.99 15 2 C15 6.62 15 11.24 15 16 C11.97265625 16.22786458 8.9453125 16.45572917 5.91796875 16.68359375 C2.94010095 16.90212461 2.94010095 16.90212461 0 18 C0 12.06 0 6.12 0 0 Z " fill="#E34450" transform="translate(398,191)"/>
<path d="M0 0 C0.66 0 1.32 0 2 0 C2 5.94 2 11.88 2 18 C1.01 17.67 0.02 17.34 -1 17 C-3.05893621 16.77674186 -5.12233653 16.59294241 -7.1875 16.4375 C-9.105625 16.293125 -11.02375 16.14875 -13 16 C-13 11.38 -13 6.76 -13 2 C-9.90755208 1.77213542 -6.81510417 1.54427083 -3.72265625 1.31640625 C-1.08890097 1.29581916 -1.08890097 1.29581916 0 0 Z " fill="#E34450" transform="translate(456,131)"/>
<path d="M0 0 C0.99 0.33 1.98 0.66 3 1 C5.05893621 1.22325814 7.12233653 1.40705759 9.1875 1.5625 C11.105625 1.706875 13.02375 1.85125 15 2 C15 6.62 15 11.24 15 16 C11.97265625 16.22786458 8.9453125 16.45572917 5.91796875 16.68359375 C2.94010095 16.90212461 2.94010095 16.90212461 0 18 C0 12.06 0 6.12 0 0 Z " fill="#E34450" transform="translate(398,311)"/>
<path d="M0 0 C0 5.94 0 11.88 0 18 C-0.99 17.67 -1.98 17.34 -3 17 C-5.05893621 16.77674186 -7.12233653 16.59294241 -9.1875 16.4375 C-11.105625 16.293125 -13.02375 16.14875 -15 16 C-15 11.38 -15 6.76 -15 2 C-11.94010417 1.77213542 -8.88020833 1.54427083 -5.8203125 1.31640625 C-3.74256403 1.08330704 -1.94647858 0 0 0 Z " fill="#E34450" transform="translate(458,281)"/>
<path d="M0 0 C0 5.94 0 11.88 0 18 C-0.99 17.67 -1.98 17.34 -3 17 C-5.05893621 16.77674186 -7.12233653 16.59294241 -9.1875 16.4375 C-11.105625 16.293125 -13.02375 16.14875 -15 16 C-15 11.38 -15 6.76 -15 2 C-11.94010417 1.77213542 -8.88020833 1.54427083 -5.8203125 1.31640625 C-3.74256403 1.08330704 -1.94647858 0 0 0 Z " fill="#E34450" transform="translate(458,251)"/>
<path d="M0 0 C0 5.94 0 11.88 0 18 C-0.99 17.67 -1.98 17.34 -3 17 C-5.05893621 16.77674186 -7.12233653 16.59294241 -9.1875 16.4375 C-11.105625 16.293125 -13.02375 16.14875 -15 16 C-15 11.38 -15 6.76 -15 2 C-11.94010417 1.77213542 -8.88020833 1.54427083 -5.8203125 1.31640625 C-3.74256403 1.08330704 -1.94647858 0 0 0 Z " fill="#E34450" transform="translate(458,221)"/>
<path d="M0 0 C0 5.94 0 11.88 0 18 C-0.99 17.67 -1.98 17.34 -3 17 C-5.05893621 16.77674186 -7.12233653 16.59294241 -9.1875 16.4375 C-11.105625 16.293125 -13.02375 16.14875 -15 16 C-15 11.38 -15 6.76 -15 2 C-11.94010417 1.77213542 -8.88020833 1.54427083 -5.8203125 1.31640625 C-3.74256403 1.08330704 -1.94647858 0 0 0 Z " fill="#E34450" transform="translate(458,191)"/>
<path d="M0 0 C0 5.94 0 11.88 0 18 C-0.99 17.67 -1.98 17.34 -3 17 C-5.05893621 16.77674186 -7.12233653 16.59294241 -9.1875 16.4375 C-11.105625 16.293125 -13.02375 16.14875 -15 16 C-15 11.38 -15 6.76 -15 2 C-11.94010417 1.77213542 -8.88020833 1.54427083 -5.8203125 1.31640625 C-3.74256403 1.08330704 -1.94647858 0 0 0 Z " fill="#E34450" transform="translate(458,161)"/>
<path d="M0 0 C0.99 0.495 0.99 0.495 2 1 C4.204364 1.22950319 6.41392173 1.41075933 8.625 1.5625 C10.72875 1.706875 12.8325 1.85125 15 2 C15 6.62 15 11.24 15 16 C11.97265625 16.22786458 8.9453125 16.45572917 5.91796875 16.68359375 C2.94010095 16.90212461 2.94010095 16.90212461 0 18 C0 12.06 0 6.12 0 0 Z " fill="#E3444F" transform="translate(398,341)"/>
<path d="M0 0 C0.99 0.495 0.99 0.495 2 1 C4.204364 1.22950319 6.41392173 1.41075933 8.625 1.5625 C10.72875 1.706875 12.8325 1.85125 15 2 C15 6.62 15 11.24 15 16 C11.97265625 16.22786458 8.9453125 16.45572917 5.91796875 16.68359375 C2.94010095 16.90212461 2.94010095 16.90212461 0 18 C0 12.06 0 6.12 0 0 Z " fill="#E3444F" transform="translate(398,281)"/>
<path d="M0 0 C0.99 0.33 1.98 0.66 3 1 C5.05893621 1.22325814 7.12233653 1.40705759 9.1875 1.5625 C11.105625 1.706875 13.02375 1.85125 15 2 C15 6.62 15 11.24 15 16 C10.01953125 16.34179688 10.01953125 16.34179688 5.0390625 16.68359375 C2.08481099 16.81084936 2.08481099 16.81084936 0 18 C0 12.06 0 6.12 0 0 Z " fill="#E3444F" transform="translate(398,161)"/>
<path d="M0 0 C0.99 0.33 1.98 0.66 3 1 C5.05893621 1.22325814 7.12233653 1.40705759 9.1875 1.5625 C11.105625 1.706875 13.02375 1.85125 15 2 C15 6.62 15 11.24 15 16 C10.01953125 16.34179688 10.01953125 16.34179688 5.0390625 16.68359375 C2.08481099 16.81084936 2.08481099 16.81084936 0 18 C0 12.06 0 6.12 0 0 Z " fill="#E3444F" transform="translate(398,131)"/>
<path d="M0 0 C4.95 0 9.9 0 15 0 C15 4.62 15 9.24 15 14 C10.05 14 5.1 14 0 14 C0 9.38 0 4.76 0 0 Z " fill="#F9B840" transform="translate(413,253)"/>
<path d="M0 0 C4.95 0 9.9 0 15 0 C15 4.62 15 9.24 15 14 C10.05 14 5.1 14 0 14 C0 9.38 0 4.76 0 0 Z " fill="#F9B840" transform="translate(413,223)"/>
<path d="M0 0 C4.95 0 9.9 0 15 0 C15 4.62 15 9.24 15 14 C10.05 14 5.1 14 0 14 C0 9.38 0 4.76 0 0 Z " fill="#F9B840" transform="translate(413,193)"/>
<path d="M0 0 C4.95 0 9.9 0 15 0 C15 4.62 15 9.24 15 14 C10.05 14 5.1 14 0 14 C0 9.38 0 4.76 0 0 Z " fill="#F9B840" transform="translate(413,163)"/>
<path d="M0 0 C4.62 0 9.24 0 14 0 C14 4.62 14 9.24 14 14 C9.38 14 4.76 14 0 14 C0 9.38 0 4.76 0 0 Z " fill="#F6A221" transform="translate(428,343)"/>
<path d="M0 0 C4.62 0 9.24 0 14 0 C14 4.62 14 9.24 14 14 C9.38 14 4.76 14 0 14 C0 9.38 0 4.76 0 0 Z " fill="#F6A221" transform="translate(428,313)"/>
<path d="M0 0 C4.62 0 9.24 0 14 0 C14 4.62 14 9.24 14 14 C9.38 14 4.76 14 0 14 C0 9.38 0 4.76 0 0 Z " fill="#F6A221" transform="translate(428,283)"/>
<path d="M0 0 C4.62 0 9.24 0 14 0 C14 4.62 14 9.24 14 14 C9.38 14 4.76 14 0 14 C0 9.38 0 4.76 0 0 Z " fill="#F6A221" transform="translate(428,133)"/>
<path d="M0 0 C6.27 0 12.54 0 19 0 C19 5.94 19 11.88 19 18 C13.89057685 14.43304421 9.39275681 10.58596447 5 6.1875 C4.26076294 5.44922974 4.26076294 5.44922974 3.5065918 4.69604492 C0 1.13492404 0 1.13492404 0 0 Z " fill="#3A3A60" transform="translate(65,423)"/>
</svg>
